<svg width="34" height="34" viewBox="0 0 34 34" fill="none" xmlns="http://www.w3.org/2000/svg">
<circle cx="17" cy="17" r="17" fill="#C2A633"/>
<path fill-rule="evenodd" clip-rule="evenodd" d="M11.3785 25.893H17.2475H17.2477C17.2477 25.893 25.5 26.5957 25.5 17.1432C25.5 8.05715 17.9641 8.08937 16.5076 8.0956C16.4735 8.09575 16.4428 8.09588 16.4155 8.09588H11.3783V16.0237H9.30957V17.9656H11.3785V25.893ZM14.6841 11.3855H16.9997C17.8657 11.3855 22.2229 11.7397 22.2299 17.2073C22.2368 22.6098 17.8438 22.6042 17.1371 22.6033C17.1285 22.6033 17.1206 22.6032 17.1131 22.6032H14.6841V17.9655H18.3271V16.0236H14.6841V11.3855Z" fill="white"/>
</svg>
