<svg width="34" height="34" viewBox="0 0 34 34" fill="none" xmlns="http://www.w3.org/2000/svg">
<path d="M17 34C26.3888 34 34 26.3888 34 17C34 7.61116 26.3888 0 17 0C7.61116 0 0 7.61116 0 17C0 26.3888 7.61116 34 17 34Z" fill="#2E3148"/>
<path d="M17.0213 5.87598C15.6454 5.87598 14.5298 10.8665 14.5298 17.0216C14.5298 23.1767 15.6454 28.1672 17.0213 28.1672C18.3962 28.1672 19.5118 23.1767 19.5118 17.0216C19.5118 10.8665 18.3962 5.87598 17.0213 5.87598ZM17.1935 27.5372C17.0362 27.7475 16.8779 27.5903 16.8779 27.5903C16.2447 26.855 15.928 25.4919 15.928 25.4919C14.8198 21.925 15.0833 14.2676 15.0833 14.2676C15.604 8.18904 16.5517 6.75254 16.8737 6.43379C16.9066 6.4011 16.9501 6.38114 16.9964 6.37744C17.0427 6.37375 17.0888 6.38656 17.1265 6.4136C17.594 6.74616 17.9872 8.13166 17.9872 8.13166C19.1453 12.4327 19.0401 16.4702 19.0401 16.4702C19.1453 19.9849 18.46 23.9183 18.46 23.9183C17.9319 26.9082 17.1935 27.5372 17.1935 27.5372Z" fill="white"/>
<path d="M26.688 11.4754C26.0027 10.2812 21.1205 11.7974 15.7793 14.8606C10.4381 17.9238 6.6705 21.3737 7.35368 22.5679C8.039 23.7622 12.9222 22.246 18.2634 19.1828C23.6046 16.1196 27.3733 12.6686 26.6891 11.4754H26.688ZM7.98481 22.4033C7.72343 22.3714 7.78293 22.1546 7.78293 22.1546C8.10381 21.2409 9.12806 20.2868 9.12806 20.2868C11.6706 17.5508 18.4451 13.9691 18.4451 13.9691C23.9765 11.3958 25.6946 11.5041 26.1302 11.6231C26.1752 11.6355 26.2143 11.6634 26.2406 11.702C26.2668 11.7405 26.2786 11.7871 26.2736 11.8335C26.2205 12.4041 25.2111 13.4347 25.2111 13.4347C22.0597 16.5808 18.5046 18.5007 18.5046 18.5007C15.5084 20.3409 11.7546 21.702 11.7546 21.702C8.89856 22.7305 7.98481 22.4033 7.98481 22.4033V22.4033Z" fill="white"/>
<path d="M26.6634 22.6066C27.354 21.4166 23.5959 17.9496 18.2717 14.8631C12.9486 11.7776 8.0675 10.2433 7.37794 11.4354C6.68731 12.6286 10.4464 16.0924 15.7717 19.1789C21.098 22.2644 25.9738 23.7987 26.6634 22.6066ZM7.83587 11.8955C7.73281 11.6533 7.9485 11.5948 7.9485 11.5948C8.90156 11.4142 10.2403 11.8254 10.2403 11.8254C13.8815 12.6541 20.3744 16.7214 20.3744 16.7214C25.3735 20.2191 26.1406 21.7608 26.2554 22.1975C26.267 22.2424 26.2624 22.2899 26.2424 22.3317C26.2223 22.3735 26.1882 22.4069 26.1459 22.4259C25.6253 22.665 24.2281 22.3091 24.2281 22.3091C19.925 21.1552 16.4836 19.0419 16.4836 19.0419C13.3917 17.3738 10.3338 14.8078 10.3338 14.8078C8.01012 12.8507 7.83694 11.8966 7.83694 11.8966L7.83481 11.8955H7.83587Z" fill="white"/>
<path d="M16.9947 18.3058C17.7188 18.3058 18.3058 17.7188 18.3058 16.9947C18.3058 16.2706 17.7188 15.6836 16.9947 15.6836C16.2706 15.6836 15.6836 16.2706 15.6836 16.9947C15.6836 17.7188 16.2706 18.3058 16.9947 18.3058Z" fill="white"/>
<path d="M22.3708 13.0225C22.9577 13.0225 23.4333 12.5468 23.4333 11.96C23.4333 11.3732 22.9577 10.8975 22.3708 10.8975C21.784 10.8975 21.3083 11.3732 21.3083 11.96C21.3083 12.5468 21.784 13.0225 22.3708 13.0225Z" fill="white"/>
<path d="M9.88769 15.6973C10.4745 15.6973 10.9502 15.2216 10.9502 14.6348C10.9502 14.048 10.4745 13.5723 9.88769 13.5723C9.30089 13.5723 8.8252 14.048 8.8252 14.6348C8.8252 15.2216 9.30089 15.6973 9.88769 15.6973Z" fill="white"/>
<path d="M15.4478 25.3467C16.0346 25.3467 16.5103 24.871 16.5103 24.2842C16.5103 23.6974 16.0346 23.2217 15.4478 23.2217C14.861 23.2217 14.3853 23.6974 14.3853 24.2842C14.3853 24.871 14.861 25.3467 15.4478 25.3467Z" fill="white"/>
</svg>
