<svg width="34" height="34" viewBox="0 0 34 34" fill="none" xmlns="http://www.w3.org/2000/svg">
<circle cx="17" cy="17" r="17" fill="black"/>
<path fill-rule="evenodd" clip-rule="evenodd" d="M7.28564 16.9994C7.28564 11.6424 11.6428 7.28516 16.9999 7.28516C22.357 7.28516 26.7142 11.6424 26.7142 16.9994C26.7142 22.3565 22.357 26.7137 16.9999 26.7137C11.6428 26.7137 7.28564 22.3565 7.28564 16.9994ZM8.88889 16.9994C8.88889 21.473 12.5264 25.1105 16.9999 25.1105C21.4735 25.1105 25.111 21.473 25.111 16.9994C25.111 12.5259 21.4735 8.8884 16.9999 8.8884C12.5264 8.8884 8.88889 12.5259 8.88889 16.9994ZM20.4648 12.4913V13.9696L16.3533 19.5465H20.4648V21.5074H17.8143V23.1322H16.1852V21.5074H13.5347V20.0292L17.6419 14.4523H13.5347V12.4913H16.1852V10.8622H17.8143V12.4913H20.4648Z" fill="white"/>
</svg>
