<svg width="34" height="34" viewBox="0 0 34 34" fill="none" xmlns="http://www.w3.org/2000/svg">
<path d="M17 34C26.3888 34 34 26.3888 34 17C34 7.61116 26.3888 0 17 0C7.61116 0 0 7.61116 0 17C0 26.3888 7.61116 34 17 34Z" fill="#FF6600"/>
<path d="M16.9682 5.5625C23.3272 5.5625 28.4697 10.705 28.4697 17.063C28.4654 18.3021 28.2653 19.5328 27.8769 20.7095H24.4492V11.0471L16.9692 18.5271L9.48925 11.0471V20.7095H6.06056C5.67245 19.5328 5.47271 18.3021 5.46875 17.063C5.46875 10.705 10.6112 5.5625 16.9692 5.5625H16.9682ZM15.2554 20.2091L17.0001 21.925L18.7139 20.2101L21.9556 16.9376V23.0151H26.7867C25.762 24.7005 24.3204 26.0934 22.6008 27.0597C20.8812 28.0259 18.9417 28.5329 16.9692 28.5316C12.8234 28.5316 9.17687 26.3195 7.15175 23.0151H11.9819V16.9376L15.2544 20.2101L15.2554 20.2091Z" fill="white"/>
</svg>
