<svg width="34" height="35" viewBox="0 0 34 35" fill="none" xmlns="http://www.w3.org/2000/svg">
<path d="M16.9999 34.8734C26.3889 34.8734 34.0001 27.2621 34.0001 17.8732C34.0001 8.48428 26.3889 0.873047 16.9999 0.873047C7.61099 0.873047 -0.000244141 8.48428 -0.000244141 17.8732C-0.000244141 27.2621 7.61099 34.8734 16.9999 34.8734Z" fill="#0D1E30"/>
<g filter="url(#filter0_d_35_49278)">
<path d="M16.7077 7.31135C17.2166 7.04891 17.8382 7.65561 17.5683 8.15605C17.41 8.56405 16.8139 8.67243 16.5101 8.36112C16.1881 8.06361 16.2933 7.47286 16.7077 7.31029V7.31135ZM11.2305 7.89149C11.5396 7.76611 11.9317 8.04449 11.8998 8.37705C11.9317 8.73618 11.4855 9.00181 11.1699 8.83074C10.7523 8.67137 10.8001 8.00411 11.2305 7.89149V7.89149ZM22.4484 8.84031C21.965 8.78293 21.8885 8.03492 22.3528 7.88405C22.7141 7.71192 23.0456 8.03599 23.0987 8.3728C23.0222 8.65968 22.7778 8.92318 22.4484 8.84031V8.84031ZM12.4768 10.1844C12.9942 9.86244 13.7316 10.3416 13.6519 10.9335C13.6254 11.5295 12.82 11.8759 12.3652 11.4721C11.9253 11.1555 11.9923 10.4288 12.4768 10.1844ZM20.3712 10.5265C20.6018 9.94213 21.5368 9.92301 21.7992 10.4925C22.0596 10.9356 21.7397 11.4849 21.2776 11.6358C20.6645 11.7484 20.0833 11.096 20.3712 10.5265ZM16.0479 11.6028C16.0426 11.0992 16.5079 10.7252 16.9935 10.6901C17.3165 10.7539 17.6671 10.8888 17.8053 11.2086C18.0635 11.6506 17.834 12.2573 17.3696 12.4603C17.1571 12.5772 16.9043 12.5336 16.6726 12.5198C16.3188 12.3498 16.0203 12.013 16.0479 11.6028ZM7.90267 12.336C8.37549 12.0491 9.013 12.5697 8.83343 13.0755C8.73568 13.5122 8.13855 13.6896 7.79748 13.4112C7.43304 13.1498 7.49042 12.5219 7.90374 12.3349L7.90267 12.336ZM25.3937 12.3338C25.7943 12.0278 26.4562 12.3795 26.4074 12.8768C26.435 13.3305 25.8623 13.6737 25.4649 13.4399C25.0272 13.2455 24.9815 12.5825 25.3937 12.3349V12.3338ZM18.3387 13.238C18.9995 13.0043 19.7858 13.2837 20.1619 13.8649C20.6592 14.5736 20.3957 15.6531 19.6232 16.0601C18.8242 16.5414 17.6565 16.1344 17.3601 15.2547C17.0254 14.4684 17.5141 13.4845 18.3376 13.238H18.3387ZM14.4573 13.3156C15.1904 12.9756 16.1775 13.2604 16.5313 13.9977C16.9478 14.716 16.6259 15.7158 15.8811 16.0866C15.1352 16.5042 14.0822 16.1876 13.722 15.4172C13.3172 14.6714 13.6764 13.6588 14.4573 13.3156V13.3156ZM10.5717 14.6214C10.628 14.1571 11.0732 13.8543 11.5226 13.8224C11.757 13.8472 11.9761 13.9507 12.144 14.1161C12.3119 14.2815 12.4188 14.499 12.447 14.733C12.4152 15.2111 12.0401 15.6765 11.5258 15.6744C10.9595 15.7222 10.4633 15.1676 10.5717 14.6214V14.6214ZM22.0489 13.9244C22.6301 13.5919 23.4366 14.0753 23.4111 14.7319C23.4504 15.4279 22.5579 15.9177 21.9799 15.5097C21.3785 15.1697 21.4252 14.2134 22.0489 13.9244ZM12.8795 16.3756C13.5574 16.1918 14.3351 16.5063 14.6677 17.1205C15.0321 17.7388 14.8834 18.5973 14.317 19.0521C13.5892 19.7172 12.2494 19.4495 11.8626 18.5421C11.4175 17.7101 11.9583 16.5945 12.8784 16.3746L12.8795 16.3756ZM20.2395 16.3724C20.8993 16.1865 21.6749 16.4362 22.0298 17.028C22.4994 17.7048 22.2753 18.7153 21.5772 19.1509C20.8441 19.6577 19.7114 19.3921 19.3077 18.5995C18.8189 17.7803 19.3108 16.6221 20.2395 16.3724V16.3724ZM8.50937 17.1438C9.09587 16.926 9.74613 17.5625 9.50813 18.1351C9.36362 18.6558 8.61668 18.8492 8.23099 18.4645C7.77942 18.1033 7.94624 17.3011 8.50937 17.1438V17.1438ZM24.4141 17.9747C24.4031 17.7408 24.4849 17.512 24.6416 17.3381C24.7984 17.1642 25.0176 17.0593 25.2513 17.0461C25.653 17.1098 26.044 17.4286 26.0121 17.8589C26.0493 18.4273 25.3533 18.813 24.8603 18.5463C24.6298 18.4305 24.5118 18.1978 24.4141 17.9747ZM5.62465 17.4265C5.9774 17.2745 6.4141 17.5752 6.33334 17.9609C6.31422 18.3976 5.65865 18.5665 5.41852 18.201C5.20602 17.9471 5.33352 17.5571 5.62465 17.4254V17.4265ZM27.8832 17.4169C28.1318 17.2437 28.5313 17.368 28.6291 17.6538C28.7959 17.9662 28.4899 18.3933 28.1329 18.3413C27.6314 18.3859 27.4699 17.6347 27.8832 17.4169ZM14.7962 19.5132C15.7249 19.2763 16.7236 20.0381 16.73 20.9795C16.7895 21.9304 15.8056 22.773 14.8557 22.5541C14.1205 22.4373 13.5435 21.7402 13.568 21.0103C13.5659 20.3112 14.1014 19.6609 14.7962 19.5132V19.5132ZM18.4747 19.5122C19.4171 19.2529 20.4456 20.0285 20.4307 20.9912C20.4807 21.9241 19.5276 22.739 18.5968 22.5531C17.7203 22.4426 17.0743 21.4959 17.3186 20.6586C17.4419 20.1019 17.9158 19.6492 18.4747 19.5111V19.5122ZM11.3813 20.0912C12.0337 19.9818 12.6457 20.6969 12.3812 21.3067C12.1878 21.957 11.2273 22.1323 10.8023 21.6021C10.305 21.0921 10.6769 20.1614 11.3813 20.0912V20.0912ZM22.1701 20.1199C22.7523 19.8798 23.4663 20.3749 23.4217 20.9965C23.4451 21.6797 22.5632 22.1514 21.9947 21.7519C21.3498 21.3939 21.4677 20.3388 22.1701 20.1199V20.1199ZM25.1855 23.0949C24.9581 22.6774 25.3714 22.1238 25.8442 22.2014C26.078 22.1971 26.2427 22.3788 26.3925 22.5318C26.4233 22.7794 26.4754 23.0748 26.266 23.265C25.9824 23.6188 25.3395 23.5178 25.1855 23.0949V23.0949ZM7.90055 22.3172C8.34149 22.0293 8.97581 22.4596 8.87593 22.9653C8.82281 23.4148 8.24905 23.6708 7.87186 23.4158C7.46598 23.1853 7.48086 22.5276 7.90055 22.3172V22.3172ZM16.6057 23.2554C17.1826 23.0057 17.9179 23.4998 17.8626 24.1245C17.9051 24.8152 16.9967 25.2933 16.4325 24.8789C15.8056 24.523 15.9108 23.4753 16.6057 23.2554V23.2554ZM12.5745 24.1808C13.0654 23.9269 13.7242 24.3657 13.6795 24.9076C13.6944 25.3517 13.2545 25.73 12.8083 25.6641C12.4396 25.6567 12.1995 25.3305 12.0805 25.0213C12.0868 24.6845 12.2282 24.3094 12.5745 24.1819V24.1808ZM20.741 24.1893C21.2467 23.8812 21.965 24.3232 21.9172 24.9012C21.9299 25.5068 21.1182 25.8936 20.6475 25.4962C20.1927 25.1849 20.248 24.4369 20.741 24.1893ZM22.1616 27.6425C21.9363 27.3089 22.2009 26.9062 22.5653 26.8297C22.8596 26.8881 23.1709 27.1059 23.1083 27.4396C23.0658 27.8932 22.3921 28.0314 22.1616 27.6436V27.6425ZM10.8873 27.3524C10.9765 27.0868 11.1933 26.8244 11.511 26.8934C11.9731 26.9253 12.1102 27.6117 11.7054 27.8231C11.342 28.0643 10.9191 27.7339 10.8873 27.3524ZM16.3273 27.6574C16.4155 27.2642 16.9308 27.0741 17.2708 27.2823C17.4961 27.3779 17.562 27.6244 17.6193 27.8348C17.589 27.9441 17.5607 28.0539 17.5343 28.1642C17.3951 28.3257 17.2156 28.4883 16.9839 28.4829C16.5536 28.5329 16.1648 28.0537 16.3263 27.6574H16.3273Z" fill="black"/>
</g>
<path d="M16.7077 7.31135C17.2166 7.04891 17.8382 7.65561 17.5683 8.15605C17.41 8.56405 16.8139 8.67243 16.5101 8.36112C16.1881 8.06361 16.2933 7.47286 16.7077 7.31029V7.31135ZM11.2305 7.89149C11.5396 7.76611 11.9317 8.04449 11.8998 8.37705C11.9317 8.73618 11.4855 9.00181 11.1699 8.83074C10.7523 8.67137 10.8001 8.00411 11.2305 7.89149V7.89149ZM22.4484 8.84031C21.965 8.78293 21.8885 8.03492 22.3528 7.88405C22.7141 7.71192 23.0456 8.03599 23.0987 8.3728C23.0222 8.65968 22.7778 8.92318 22.4484 8.84031V8.84031ZM12.4768 10.1844C12.9942 9.86244 13.7316 10.3416 13.6519 10.9335C13.6254 11.5295 12.82 11.8759 12.3652 11.4721C11.9253 11.1555 11.9923 10.4288 12.4768 10.1844ZM20.3712 10.5265C20.6018 9.94213 21.5368 9.92301 21.7992 10.4925C22.0596 10.9356 21.7397 11.4849 21.2776 11.6358C20.6645 11.7484 20.0833 11.096 20.3712 10.5265ZM16.0479 11.6028C16.0426 11.0992 16.5079 10.7252 16.9935 10.6901C17.3165 10.7539 17.6671 10.8888 17.8053 11.2086C18.0635 11.6506 17.834 12.2573 17.3696 12.4603C17.1571 12.5772 16.9043 12.5336 16.6726 12.5198C16.3188 12.3498 16.0203 12.013 16.0479 11.6028ZM7.90267 12.336C8.37549 12.0491 9.013 12.5697 8.83343 13.0755C8.73568 13.5122 8.13855 13.6896 7.79748 13.4112C7.43304 13.1498 7.49042 12.5219 7.90374 12.3349L7.90267 12.336ZM25.3937 12.3338C25.7943 12.0278 26.4562 12.3795 26.4074 12.8768C26.435 13.3305 25.8623 13.6737 25.4649 13.4399C25.0272 13.2455 24.9815 12.5825 25.3937 12.3349V12.3338ZM18.3387 13.238C18.9995 13.0043 19.7858 13.2837 20.1619 13.8649C20.6592 14.5736 20.3957 15.6531 19.6232 16.0601C18.8242 16.5414 17.6565 16.1344 17.3601 15.2547C17.0254 14.4684 17.5141 13.4845 18.3376 13.238H18.3387ZM14.4573 13.3156C15.1904 12.9756 16.1775 13.2604 16.5313 13.9977C16.9478 14.716 16.6259 15.7158 15.8811 16.0866C15.1352 16.5042 14.0822 16.1876 13.722 15.4172C13.3172 14.6714 13.6764 13.6588 14.4573 13.3156V13.3156ZM10.5717 14.6214C10.628 14.1571 11.0732 13.8543 11.5226 13.8224C11.757 13.8472 11.9761 13.9507 12.144 14.1161C12.3119 14.2815 12.4188 14.499 12.447 14.733C12.4152 15.2111 12.0401 15.6765 11.5258 15.6744C10.9595 15.7222 10.4633 15.1676 10.5717 14.6214V14.6214ZM22.0489 13.9244C22.6301 13.5919 23.4366 14.0753 23.4111 14.7319C23.4504 15.4279 22.5579 15.9177 21.9799 15.5097C21.3785 15.1697 21.4252 14.2134 22.0489 13.9244ZM12.8795 16.3756C13.5574 16.1918 14.3351 16.5063 14.6677 17.1205C15.0321 17.7388 14.8834 18.5973 14.317 19.0521C13.5892 19.7172 12.2494 19.4495 11.8626 18.5421C11.4175 17.7101 11.9583 16.5945 12.8784 16.3746L12.8795 16.3756ZM20.2395 16.3724C20.8993 16.1865 21.6749 16.4362 22.0298 17.028C22.4994 17.7048 22.2753 18.7153 21.5772 19.1509C20.8441 19.6577 19.7114 19.3921 19.3077 18.5995C18.8189 17.7803 19.3108 16.6221 20.2395 16.3724V16.3724ZM8.50937 17.1438C9.09587 16.926 9.74613 17.5625 9.50813 18.1351C9.36362 18.6558 8.61668 18.8492 8.23099 18.4645C7.77942 18.1033 7.94624 17.3011 8.50937 17.1438V17.1438ZM24.4141 17.9747C24.4031 17.7408 24.4849 17.512 24.6416 17.3381C24.7984 17.1642 25.0176 17.0593 25.2513 17.0461C25.653 17.1098 26.044 17.4286 26.0121 17.8589C26.0493 18.4273 25.3533 18.813 24.8603 18.5463C24.6298 18.4305 24.5118 18.1978 24.4141 17.9747ZM5.62465 17.4265C5.9774 17.2745 6.4141 17.5752 6.33334 17.9609C6.31422 18.3976 5.65865 18.5665 5.41852 18.201C5.20602 17.9471 5.33352 17.5571 5.62465 17.4254V17.4265ZM27.8832 17.4169C28.1318 17.2437 28.5313 17.368 28.6291 17.6538C28.7959 17.9662 28.4899 18.3933 28.1329 18.3413C27.6314 18.3859 27.4699 17.6347 27.8832 17.4169ZM14.7962 19.5132C15.7249 19.2763 16.7236 20.0381 16.73 20.9795C16.7895 21.9304 15.8056 22.773 14.8557 22.5541C14.1205 22.4373 13.5435 21.7402 13.568 21.0103C13.5659 20.3112 14.1014 19.6609 14.7962 19.5132V19.5132ZM18.4747 19.5122C19.4171 19.2529 20.4456 20.0285 20.4307 20.9912C20.4807 21.9241 19.5276 22.739 18.5968 22.5531C17.7203 22.4426 17.0743 21.4959 17.3186 20.6586C17.4419 20.1019 17.9158 19.6492 18.4747 19.5111V19.5122ZM11.3813 20.0912C12.0337 19.9818 12.6457 20.6969 12.3812 21.3067C12.1878 21.957 11.2273 22.1323 10.8023 21.6021C10.305 21.0921 10.6769 20.1614 11.3813 20.0912V20.0912ZM22.1701 20.1199C22.7523 19.8798 23.4663 20.3749 23.4217 20.9965C23.4451 21.6797 22.5632 22.1514 21.9947 21.7519C21.3498 21.3939 21.4677 20.3388 22.1701 20.1199V20.1199ZM25.1855 23.0949C24.9581 22.6774 25.3714 22.1238 25.8442 22.2014C26.078 22.1971 26.2427 22.3788 26.3925 22.5318C26.4233 22.7794 26.4754 23.0748 26.266 23.265C25.9824 23.6188 25.3395 23.5178 25.1855 23.0949V23.0949ZM7.90055 22.3172C8.34149 22.0293 8.97581 22.4596 8.87593 22.9653C8.82281 23.4148 8.24905 23.6708 7.87186 23.4158C7.46598 23.1853 7.48086 22.5276 7.90055 22.3172V22.3172ZM16.6057 23.2554C17.1826 23.0057 17.9179 23.4998 17.8626 24.1245C17.9051 24.8152 16.9967 25.2933 16.4325 24.8789C15.8056 24.523 15.9108 23.4753 16.6057 23.2554V23.2554ZM12.5745 24.1808C13.0654 23.9269 13.7242 24.3657 13.6795 24.9076C13.6944 25.3517 13.2545 25.73 12.8083 25.6641C12.4396 25.6567 12.1995 25.3305 12.0805 25.0213C12.0868 24.6845 12.2282 24.3094 12.5745 24.1819V24.1808ZM20.741 24.1893C21.2467 23.8812 21.965 24.3232 21.9172 24.9012C21.9299 25.5068 21.1182 25.8936 20.6475 25.4962C20.1927 25.1849 20.248 24.4369 20.741 24.1893ZM22.1616 27.6425C21.9363 27.3089 22.2009 26.9062 22.5653 26.8297C22.8596 26.8881 23.1709 27.1059 23.1083 27.4396C23.0658 27.8932 22.3921 28.0314 22.1616 27.6436V27.6425ZM10.8873 27.3524C10.9765 27.0868 11.1933 26.8244 11.511 26.8934C11.9731 26.9253 12.1102 27.6117 11.7054 27.8231C11.342 28.0643 10.9191 27.7339 10.8873 27.3524ZM16.3273 27.6574C16.4155 27.2642 16.9308 27.0741 17.2708 27.2823C17.4961 27.3779 17.562 27.6244 17.6193 27.8348C17.589 27.9441 17.5607 28.0539 17.5343 28.1642C17.3951 28.3257 17.2156 28.4883 16.9839 28.4829C16.5536 28.5329 16.1648 28.0537 16.3263 27.6574H16.3273Z" fill="white"/>
<defs>
<filter id="filter0_d_35_49278" x="4.47599" y="6.82967" width="25.0365" height="22.9118" filterUnits="userSpaceOnUse" color-interpolation-filters="sRGB">
<feFlood flood-opacity="0" result="BackgroundImageFix"/>
<feColorMatrix in="SourceAlpha" type="matrix" values="0 0 0 0 0 0 0 0 0 0 0 0 0 0 0 0 0 0 127 0" result="hardAlpha"/>
<feOffset dy="0.418375"/>
<feGaussianBlur stdDeviation="0.418375"/>
<feColorMatrix type="matrix" values="0 0 0 0 0 0 0 0 0 0 0 0 0 0 0 0 0 0 0.204257 0"/>
<feBlend mode="normal" in2="BackgroundImageFix" result="effect1_dropShadow_35_49278"/>
<feBlend mode="normal" in="SourceGraphic" in2="effect1_dropShadow_35_49278" result="shape"/>
</filter>
</defs>
</svg>
