<svg width="34" height="34" viewBox="0 0 34 34" fill="none" xmlns="http://www.w3.org/2000/svg">
<path d="M17 34C26.3888 34 34 26.3888 34 17C34 7.61116 26.3888 0 17 0C7.61116 0 0 7.61116 0 17C0 26.3888 7.61116 34 17 34Z" fill="#2A5ADA"/>
<path d="M17 6.375L15.0886 7.49594L9.88125 10.5666L7.96875 11.6875V22.3125L9.88019 23.4334L15.1364 26.5041L17.0478 27.625L18.9592 26.5041L24.1198 23.4334L26.0312 22.3125V11.6875L24.1198 10.5666L18.9114 7.49594L17 6.375ZM11.7916 20.0706V13.9294L17 10.8588L22.2084 13.9294V20.0706L17 23.1413L11.7916 20.0706Z" fill="white"/>
</svg>
