<svg width="34" height="34" viewBox="0 0 34 34" fill="none" xmlns="http://www.w3.org/2000/svg">
<path d="M17 34C26.3888 34 34 26.3888 34 17C34 7.61116 26.3888 0 17 0C7.61116 0 0 7.61116 0 17C0 26.3888 7.61116 34 17 34Z" fill="#F3BA2F"/>
<path d="M12.8732 15.3042L17 11.1775L21.1289 15.3064L23.5301 12.9051L17 6.375L10.472 12.903L12.8732 15.3042ZM6.375 17L8.77625 14.5987L11.1775 17L8.77625 19.4012L6.375 17ZM12.8732 18.6957L17 22.8225L21.1289 18.6936L23.5301 21.0938L17 27.625L10.472 21.097L10.4688 21.0938L12.8732 18.6957ZM22.8225 17L25.2237 14.5987L27.625 17L25.2237 19.4012L22.8225 17ZM19.4352 16.9979H19.4374V17L17 19.4374L14.5658 17.0042L14.5616 17L14.5658 16.9968L14.9919 16.5697L15.1991 16.3625L17 14.5626L19.4363 16.9989L19.4352 16.9979Z" fill="white"/>
</svg>
