<svg width="34" height="34" viewBox="0 0 34 34" fill="none" xmlns="http://www.w3.org/2000/svg">
<path fill-rule="evenodd" clip-rule="evenodd" d="M17 34C7.65 34 0 26.3502 0 16.9154C0.085 7.56555 7.65 -0.0842967 17.085 0.000701539C26.435 0.0856998 34 7.65054 34 17.1703C33.915 26.4352 26.35 34 17 34Z" fill="#FC070C"/>
<path fill-rule="evenodd" clip-rule="evenodd" d="M27.5501 11.9086L27.5501 11.9086C26.7628 11.1441 25.9309 10.3364 25.1966 9.6847L25.1223 9.63264C24.9985 9.53327 24.859 9.45534 24.7095 9.40208L24.1428 9.29636C20.2329 8.56681 7.55907 6.20201 7.29836 6.23371C7.22125 6.24451 7.14755 6.27247 7.08267 6.31553L7.01202 6.37131C6.92501 6.45967 6.85894 6.56641 6.81864 6.68368L6.80005 6.73203V6.99606V7.03696C7.66049 9.43291 9.89568 14.7836 11.9595 19.7241L11.9595 19.7242L11.9596 19.7243C13.7044 23.9011 15.3268 27.7848 15.8924 29.342L15.8926 29.3426C15.967 29.5733 16.1083 30.0113 16.3721 30.0336H16.4316C16.5729 30.0336 17.1753 29.2378 17.1753 29.2378C17.1753 29.2378 27.9448 16.1776 29.0344 14.7868C29.1754 14.6155 29.2999 14.4312 29.4063 14.2364C29.4615 13.9264 29.3499 13.6102 29.1125 13.4034C28.6486 12.9752 28.1109 12.4531 27.5505 11.909L27.5502 11.9087L27.5501 11.9086ZM19.9382 14.9244L24.5346 11.1126L27.2307 13.5968L19.9382 14.9244ZM10.2399 8.18981L18.1534 14.6753L23.0435 10.5512L10.2399 8.18981ZM18.8673 16.3746L26.9667 15.0693L17.707 26.2255L18.8673 16.3746ZM17.4913 15.9025L9.16505 8.83694L16.2864 26.2332L17.4913 15.9025Z" fill="white"/>
</svg>
