<svg width="34" height="34" viewBox="0 0 34 34" fill="none" xmlns="http://www.w3.org/2000/svg">
<path d="M33.4912 21.1125C31.2204 30.2196 21.9953 35.7621 12.886 33.491C3.7805 31.2205 -1.76263 21.996 0.509236 12.8894C2.77898 3.78118 12.0041 -1.76182 21.1107 0.508718C30.2194 2.77926 35.762 12.0049 33.4912 21.1125V21.1125Z" fill="#F7931A"/>
<path d="M24.4961 14.5779C24.8345 12.3158 23.112 11.0998 20.7568 10.2886L21.5208 7.22436L19.6554 6.75952L18.9115 9.74299C18.4211 9.6208 17.9175 9.50553 17.417 9.39131L18.1661 6.38818L16.3018 5.92334L15.5372 8.98649C15.1313 8.89406 14.7328 8.80269 14.346 8.70654L14.3481 8.69697L11.7756 8.05469L11.2793 10.0469C11.2793 10.0469 12.6634 10.364 12.6342 10.3837C13.3897 10.5723 13.5262 11.0722 13.5034 11.4685L12.6331 14.9593C12.6852 14.9726 12.7526 14.9917 12.827 15.0214C12.7649 15.006 12.6985 14.989 12.6299 14.9726L11.41 19.8627C11.3176 20.0922 11.0833 20.4364 10.5552 20.3057C10.5738 20.3328 9.19927 19.9673 9.19927 19.9673L8.27319 22.1024L10.7007 22.7075C11.1523 22.8206 11.5949 22.9391 12.0306 23.0507L11.2586 26.15L13.1219 26.6148L13.8864 23.5484C14.3954 23.6866 14.8896 23.8141 15.373 23.9341L14.6112 26.9861L16.4766 27.451L17.2486 24.3575C20.4295 24.9594 22.8214 24.7166 23.8283 21.84C24.6396 19.5237 23.7879 18.1877 22.1143 17.3164C23.3331 17.0354 24.2512 16.2337 24.4961 14.5779V14.5779ZM20.234 20.5538C19.6575 22.87 15.7572 21.6179 14.4927 21.3039L15.517 17.1979C16.7815 17.5135 20.8365 18.1383 20.234 20.5538ZM20.811 14.5444C20.285 16.6513 17.0387 15.5808 15.9856 15.3184L16.9144 11.5944C17.9674 11.8568 21.3587 12.3466 20.811 14.5444Z" fill="white"/>
</svg>
