<svg width="34" height="34" viewBox="0 0 34 34" fill="none" xmlns="http://www.w3.org/2000/svg">
<path d="M17 34C26.3888 34 34 26.3888 34 17C34 7.61116 26.3888 0 17 0C7.61116 0 0 7.61116 0 17C0 26.3888 7.61116 34 17 34Z" fill="#8DC351"/>
<path d="M22.5325 11.1924C21.708 9.09716 19.6403 8.90803 17.2327 9.37553L16.3753 6.38672L14.5563 6.90841L15.3914 9.81966C14.9133 9.95566 14.4266 10.1065 13.9432 10.2553L13.1038 7.32491L11.2859 7.84553L12.1412 10.8343C11.7502 10.9555 11.3656 11.0745 10.9884 11.1828L10.9852 11.1722L8.47559 11.8915L9.0334 13.8359C9.0334 13.8359 10.37 13.4237 10.3541 13.4555C11.0915 13.2441 11.4538 13.6032 11.6291 13.9528L12.6066 17.357C12.6565 17.3432 12.7235 17.3262 12.8021 17.3145L12.6098 17.3698L13.9772 22.1404C14.0112 22.3816 13.9815 22.7907 13.4672 22.9394C13.4959 22.9532 12.1433 23.3177 12.1433 23.3177L12.4058 25.5946L14.773 24.9146C15.214 24.7903 15.6496 24.6734 16.0757 24.5533L16.9437 27.5762L18.7606 27.0555L17.9032 24.0646C18.3905 23.9353 18.8765 23.8007 19.3609 23.6608L20.213 26.639L22.0331 26.1173L21.1682 23.0998C24.1762 22.0469 26.0961 20.6625 25.5383 17.713C25.0899 15.3393 23.7065 14.619 21.8503 14.6997C22.7513 13.8603 23.1392 12.7256 22.5325 11.1935V11.1924ZM21.8418 18.3855C22.49 20.6455 18.5481 21.4976 17.3156 21.8525L16.167 17.8468C17.3995 17.493 21.165 16.03 21.8408 18.3866L21.8418 18.3855ZM19.3747 12.9774C19.9633 15.0333 16.6685 15.7187 15.6411 16.013L14.5998 12.3803C15.6262 12.086 18.7595 10.8343 19.3747 12.9785V12.9774Z" fill="white"/>
</svg>
