<svg width="34" height="34" viewBox="0 0 34 34" fill="none" xmlns="http://www.w3.org/2000/svg">
<path d="M17 34C26.3888 34 34 26.3888 34 17C34 7.61116 26.3888 0 17 0C7.61116 0 0 7.61116 0 17C0 26.3888 7.61116 34 17 34Z" fill="#F4B731"/>
<path fill-rule="evenodd" clip-rule="evenodd" d="M9.85681 8.5H16.8183C21.0524 8.5 24.2622 10.7483 25.4564 14.0186H27.625V15.9959H25.9133C25.9462 16.3083 25.9632 16.6271 25.9632 16.9501V16.9989C25.9632 17.3623 25.942 17.7214 25.8995 18.0721H27.625V20.0483H25.415C24.1899 23.2741 21.0056 25.5 16.8194 25.5H9.85681V20.0483H7.4375V18.0721H9.85681V15.9959H7.4375V14.0197H9.85681V8.5V8.5ZM11.8022 20.0483V23.7267H16.8172C19.9134 23.7267 22.2126 22.253 23.2826 20.0483H11.8022V20.0483ZM23.8786 18.0721H11.8022V15.9959H23.8829C23.9264 16.3221 23.9498 16.6568 23.9498 16.9989V17.0468C23.9498 17.3963 23.9254 17.7374 23.8786 18.071V18.0721ZM16.8194 10.2691C19.9282 10.2691 22.2349 11.7821 23.2985 14.0176H11.8022V10.2701H16.8172L16.8194 10.2691Z" fill="white"/>
</svg>
