<svg width="34" height="34" viewBox="0 0 34 34" fill="none" xmlns="http://www.w3.org/2000/svg">
<circle cx="17" cy="17" r="17" fill="white"/>
<path d="M14.8616 10.7444C14.6149 10.7092 14.6032 10.6974 14.7206 10.6857C14.9438 10.6504 15.4606 10.6974 15.8247 10.7796C16.6704 10.9793 17.4339 11.4961 18.2443 12.4005L18.4558 12.6472L18.7611 12.6002C20.0649 12.3888 21.4039 12.5532 22.5198 13.07C22.8251 13.211 23.3067 13.4929 23.3654 13.5634C23.3889 13.5868 23.4242 13.7395 23.4477 13.8922C23.5299 14.4443 23.4947 14.8554 23.3185 15.1725C23.2245 15.3487 23.2245 15.3957 23.2832 15.5484C23.3302 15.6658 23.4712 15.748 23.6004 15.748C23.8823 15.748 24.1759 15.3017 24.3168 14.6792L24.3756 14.4325L24.4813 14.55C25.0803 15.2195 25.5501 16.1474 25.6206 16.8052L25.6441 16.9813L25.5384 16.8286C25.3622 16.5585 25.1978 16.3823 24.9746 16.2296C24.5753 15.9595 24.1524 15.8773 23.0366 15.8185C22.0264 15.7598 21.4509 15.6776 20.8871 15.4896C19.924 15.1725 19.4306 14.7614 18.2913 13.2462C17.7863 12.5767 17.4691 12.2126 17.152 11.9072C16.459 11.2377 15.766 10.8853 14.8616 10.7444Z" fill="#FF007A"/>
<path d="M23.6122 12.2362C23.6357 11.7898 23.6944 11.4962 23.8236 11.226C23.8706 11.1203 23.9176 11.0264 23.9294 11.0264C23.9411 11.0264 23.9176 11.1086 23.8824 11.2026C23.7884 11.461 23.7767 11.8251 23.8354 12.2362C23.9176 12.7647 23.9529 12.8352 24.5166 13.4107C24.775 13.6809 25.0804 14.0215 25.1979 14.1625L25.3976 14.4209L25.1979 14.2329C24.9512 13.998 24.3874 13.5517 24.2582 13.493C24.176 13.446 24.1643 13.446 24.1055 13.5047C24.0586 13.5517 24.0468 13.6222 24.0468 13.9628C24.0351 14.4913 23.9646 14.8202 23.7884 15.1608C23.6944 15.337 23.6827 15.3018 23.7649 15.1021C23.8236 14.9494 23.8354 14.8789 23.8354 14.3739C23.8354 13.352 23.7179 13.1054 23.0015 12.6943C22.8253 12.5885 22.5199 12.4358 22.3437 12.3536C22.1558 12.2714 22.0148 12.2009 22.0266 12.2009C22.0501 12.1774 22.743 12.3771 23.0132 12.4946C23.4243 12.659 23.4948 12.6708 23.5418 12.659C23.577 12.6238 23.6005 12.5298 23.6122 12.2362Z" fill="#FF007A"/>
<path d="M15.343 13.9858C14.8497 13.3046 14.5326 12.2475 14.603 11.4605L14.6265 11.2139L14.744 11.2374C14.9554 11.2726 15.3195 11.4135 15.4957 11.5193C15.9655 11.8012 16.177 12.1888 16.3766 13.1519C16.4354 13.4338 16.5176 13.7627 16.5528 13.8684C16.6115 14.0446 16.8347 14.4557 17.0226 14.7141C17.1518 14.902 17.0696 14.996 16.776 14.9725C16.3297 14.9255 15.7306 14.5144 15.343 13.9858Z" fill="#FF007A"/>
<path d="M23.0131 19.0949C20.6874 18.1553 19.8652 17.3448 19.8652 15.9706C19.8652 15.7709 19.877 15.6064 19.877 15.6064C19.8887 15.6064 19.9709 15.6769 20.0767 15.7591C20.5465 16.135 21.075 16.2994 22.5432 16.5109C23.4007 16.6401 23.894 16.734 24.3403 16.8867C25.7616 17.3565 26.6425 18.3197 26.8539 19.6235C26.9126 19.9993 26.8774 20.7158 26.7834 21.0917C26.7012 21.3853 26.4663 21.9256 26.4076 21.9374C26.3958 21.9374 26.3723 21.8786 26.3723 21.7847C26.3488 21.2913 26.1022 20.8215 25.6911 20.4574C25.1978 20.0346 24.5635 19.7174 23.0131 19.0949Z" fill="#FF007A"/>
<path d="M21.3687 19.483C21.3452 19.3068 21.2865 19.0836 21.2513 18.9897L21.1925 18.8135L21.2982 18.9427C21.4509 19.1189 21.5684 19.3303 21.6741 19.6239C21.7563 19.8471 21.7563 19.9176 21.7563 20.2817C21.7563 20.6341 21.7446 20.7163 21.6741 20.9159C21.5567 21.2331 21.4157 21.4563 21.1808 21.7029C20.7579 22.1375 20.2059 22.3724 19.4189 22.4781C19.278 22.4899 18.8786 22.5251 18.5263 22.5486C17.6453 22.5956 17.0581 22.6895 16.5295 22.8775C16.459 22.901 16.3886 22.9245 16.3768 22.9127C16.3533 22.8892 16.7174 22.6778 17.0111 22.5369C17.4222 22.3372 17.845 22.2315 18.7729 22.067C19.231 21.9966 19.7008 21.9026 19.8183 21.8556C20.9811 21.4915 21.5567 20.5871 21.3687 19.483Z" fill="#FF007A"/>
<path d="M22.4376 21.3738C22.1323 20.7043 22.0618 20.07 22.2262 19.471C22.2497 19.4122 22.2732 19.3535 22.2967 19.3535C22.3202 19.3535 22.3907 19.3888 22.4611 19.4357C22.6021 19.5297 22.8957 19.6941 23.6475 20.1052C24.5989 20.622 25.1392 21.0214 25.515 21.4795C25.8439 21.8788 26.0436 22.3369 26.1375 22.9007C26.1963 23.2178 26.161 23.9813 26.0788 24.2984C25.8204 25.2968 25.2331 26.0955 24.3757 26.5536C24.2465 26.6241 24.1408 26.6711 24.129 26.6711C24.1173 26.6711 24.1643 26.5536 24.2347 26.4127C24.5166 25.8136 24.5519 25.2381 24.3404 24.5921C24.2112 24.1927 23.9411 23.7112 23.4008 22.9007C22.7548 21.9611 22.6021 21.7144 22.4376 21.3738Z" fill="#FF007A"/>
<path d="M13.6868 24.9683C14.556 24.2401 15.6249 23.7233 16.6115 23.5588C17.0344 23.4884 17.7391 23.5119 18.1267 23.6176C18.7492 23.782 19.313 24.1344 19.6067 24.569C19.8886 24.9918 20.0178 25.3559 20.147 26.1664C20.1939 26.4835 20.2527 26.8124 20.2644 26.8829C20.3584 27.3057 20.5463 27.6346 20.7812 27.8108C21.1453 28.0809 21.7796 28.0927 22.4021 27.8578C22.5078 27.8225 22.6018 27.7873 22.6018 27.799C22.6253 27.8225 22.3082 28.0339 22.0967 28.1396C21.8031 28.2923 21.5682 28.3393 21.2511 28.3393C20.6873 28.3393 20.2057 28.0457 19.8181 27.4584C19.7359 27.3409 19.5714 27.0003 19.4305 26.6832C19.0194 25.7318 18.808 25.4499 18.3264 25.1328C17.9035 24.8626 17.3632 24.8039 16.9521 25.0036C16.4118 25.262 16.2709 25.955 16.6468 26.3778C16.7994 26.554 17.0813 26.6949 17.3163 26.7302C17.7508 26.7889 18.1267 26.4483 18.1267 26.0137C18.1267 25.7318 18.021 25.5673 17.7391 25.4381C17.3632 25.2737 16.9521 25.4616 16.9639 25.8258C16.9639 25.9784 17.0344 26.0724 17.1871 26.1429C17.281 26.1899 17.281 26.1899 17.2105 26.1781C16.8699 26.1076 16.7877 25.6848 17.0579 25.4147C17.3867 25.0858 18.0797 25.2267 18.3146 25.6848C18.4086 25.8727 18.4203 26.2486 18.3381 26.4835C18.1385 27.0003 17.5747 27.2705 16.9991 27.1178C16.6115 27.0121 16.4471 26.9064 15.9772 26.4248C15.1551 25.5791 14.8379 25.4147 13.6634 25.2385L13.4402 25.2032L13.6868 24.9683Z" fill="#FF007A"/>
<path fill-rule="evenodd" clip-rule="evenodd" d="M7.50876 6.06952C10.2455 9.39354 14.4622 14.5616 14.6736 14.8435C14.8498 15.0784 14.7793 15.3016 14.4857 15.4661C14.3212 15.56 13.9806 15.654 13.8162 15.654C13.6283 15.654 13.4051 15.56 13.2524 15.4073C13.1467 15.3016 12.6886 14.6321 11.655 13.023C10.868 11.7897 10.1985 10.7678 10.1868 10.756C10.1398 10.7325 10.1398 10.7325 11.5728 13.2931C12.4772 14.9023 12.7708 15.4778 12.7708 15.5483C12.7708 15.701 12.7238 15.7832 12.5359 15.9946C12.2188 16.347 12.0778 16.7463 11.9721 17.5803C11.8547 18.5082 11.5375 19.1659 10.6331 20.2818C10.1046 20.9395 10.0223 21.057 9.89313 21.3271C9.72869 21.656 9.68171 21.8439 9.65822 22.2668C9.63473 22.7131 9.68171 22.995 9.81091 23.4179C9.92837 23.7937 10.0576 24.0404 10.3747 24.522C10.6449 24.9448 10.8093 25.2619 10.8093 25.3794C10.8093 25.4734 10.8328 25.4734 11.2556 25.3794C12.2658 25.1445 13.0997 24.7451 13.5578 24.2518C13.8397 23.9464 13.9102 23.782 13.9102 23.3591C13.9102 23.089 13.8984 23.0303 13.8279 22.8658C13.7105 22.6074 13.4873 22.396 13.0057 22.0671C12.3715 21.6325 12.1013 21.2802 12.0308 20.8103C11.9721 20.411 12.0426 20.1408 12.395 19.4009C12.7591 18.6374 12.853 18.3202 12.9118 17.545C12.947 17.0517 13.0057 16.852 13.1467 16.6993C13.2994 16.5349 13.4286 16.4762 13.7927 16.4292C14.3917 16.347 14.7793 16.1943 15.0847 15.9006C15.3549 15.654 15.4723 15.4073 15.4841 15.0432L15.4958 14.7731L15.3431 14.6086C14.7911 13.9744 7.14465 5.56445 7.10941 5.56445C7.09766 5.56445 7.28559 5.78762 7.50876 6.06952ZM11.1147 22.7719C11.2439 22.5487 11.1734 22.2668 10.962 22.1258C10.7623 21.9966 10.4569 22.0554 10.4569 22.2316C10.4569 22.2785 10.4804 22.3255 10.5509 22.349C10.6566 22.4077 10.6683 22.4665 10.5861 22.5957C10.5039 22.7249 10.5039 22.8423 10.6096 22.9246C10.7741 23.0538 10.9972 22.9833 11.1147 22.7719Z" fill="#FF007A"/>
<path fill-rule="evenodd" clip-rule="evenodd" d="M15.8718 16.5932C15.5899 16.6754 15.3198 16.9808 15.2376 17.2862C15.1906 17.4741 15.2141 17.8147 15.2963 17.9204C15.4255 18.0849 15.543 18.1318 15.8718 18.1318C16.5178 18.1318 17.0699 17.8499 17.1286 17.5093C17.1873 17.2274 16.9407 16.8398 16.6001 16.6636C16.4239 16.5697 16.0598 16.5344 15.8718 16.5932ZM16.6236 17.1804C16.7175 17.0395 16.6823 16.8868 16.5061 16.7811C16.189 16.5814 15.7074 16.7459 15.7074 17.0512C15.7074 17.2039 15.9541 17.3684 16.189 17.3684C16.3417 17.3684 16.5531 17.2744 16.6236 17.1804Z" fill="#FF007A"/>
</svg>
