<svg width="34" height="34" viewBox="0 0 34 34" fill="none" xmlns="http://www.w3.org/2000/svg">
<path d="M17 34C26.3888 34 34 26.3888 34 17C34 7.61116 26.3888 0 17 0C7.61116 0 0 7.61116 0 17C0 26.3888 7.61116 34 17 34Z" fill="#E6007A"/>
<path d="M17.2891 7.03906C13.3504 7.03906 10.1321 10.2393 10.1321 14.1961C10.1321 14.9919 10.2638 15.7686 10.5103 16.5251C10.5976 16.7748 10.7794 16.9803 11.0167 17.0974C11.2539 17.2144 11.5277 17.2336 11.779 17.1509C12.0285 17.0634 12.2338 16.8815 12.3506 16.6443C12.4674 16.407 12.4865 16.1334 12.4037 15.8822C12.196 15.2924 12.0998 14.6691 12.12 14.0441C12.1955 11.3751 14.3545 9.17787 17.0245 9.04612C17.7239 9.00938 18.4235 9.11529 19.0807 9.35742C19.7378 9.59955 20.3389 9.97283 20.8473 10.4546C21.3556 10.9363 21.7607 11.5164 22.0378 12.1596C22.3149 12.8028 22.4583 13.4957 22.4592 14.1961C22.4576 15.5132 21.953 16.78 21.0485 17.7374C20.144 18.6949 18.9079 19.2707 17.593 19.3471C17.593 19.3471 16.5889 19.4034 16.097 19.4799C15.8505 19.5171 15.6613 19.5553 15.5285 19.5744C15.4711 19.5936 15.4148 19.5362 15.4329 19.4788L15.604 18.6469L16.5315 14.3671C16.5856 14.1112 16.5364 13.8443 16.3948 13.6245C16.2531 13.4046 16.0304 13.2496 15.775 13.1931C15.519 13.139 15.2519 13.1883 15.0321 13.3302C14.8122 13.4721 14.6572 13.6951 14.601 13.9506C14.601 13.9506 12.3665 24.3652 12.3474 24.4789C12.2934 24.735 12.3426 25.002 12.4845 25.2219C12.6264 25.4418 12.8494 25.5967 13.105 25.653C13.361 25.707 13.628 25.6577 13.8479 25.5159C14.0678 25.374 14.2227 25.151 14.279 24.8954C14.2971 24.7817 14.601 23.3994 14.601 23.3994C14.7085 22.8926 14.9699 22.4314 15.3495 22.0788C15.7291 21.7262 16.2084 21.4995 16.7217 21.4296C17.0931 21.3889 17.4654 21.3574 17.8384 21.335C19.6361 21.1949 21.3149 20.3821 22.5399 19.0589C23.7649 17.7357 24.4459 15.9992 24.4471 14.1961C24.4471 10.2393 21.2278 7.03906 17.2891 7.03906V7.03906ZM17.8001 23.5131C17.646 23.4799 17.4867 23.4775 17.3316 23.5063C17.1766 23.535 17.0287 23.5942 16.8967 23.6805C16.7647 23.7668 16.6511 23.8784 16.5625 24.0089C16.4739 24.1394 16.4121 24.2861 16.3806 24.4407C16.2478 25.0846 16.6463 25.7284 17.3082 25.8613C17.4625 25.8946 17.6219 25.8971 17.7772 25.8683C17.9325 25.8396 18.0805 25.7803 18.2126 25.6939C18.3448 25.6075 18.4585 25.4958 18.5471 25.3651C18.6357 25.2344 18.6974 25.0874 18.7288 24.9326C18.8605 24.2707 18.4631 23.6449 17.8001 23.5131V23.5131Z" fill="white"/>
</svg>
