<svg width="34" height="34" viewBox="0 0 34 34" fill="none" xmlns="http://www.w3.org/2000/svg">
<path d="M17 34C26.389 34 34 26.389 34 17C34 7.61104 26.389 0 17 0C7.61104 0 0 7.61104 0 17C0 26.389 7.61104 34 17 34Z" fill="#2B6DEF"/>
<path fill-rule="evenodd" clip-rule="evenodd" d="M24.084 8.5L20.5466 10.5396H20.5431V14.6193L20.5307 14.6211L9.91702 8.5L6.37677 10.54L6.375 10.5393L6.375 23.2227L9.9149 25.2638L9.91702 25.2475V25.2627L13.4583 23.2227L13.4583 18.7035L16.9922 20.74L16.9943 20.7443L16.9972 20.7425L20.5438 18.7124V23.2245L24.0688 25.256V25.2666L24.0777 25.2613L24.084 25.2648L24.089 25.2549L27.6094 23.2266V10.5506L27.6254 10.5414L24.084 8.5Z" fill="white"/>
</svg>
