<svg width="34" height="35" viewBox="0 0 34 35" fill="none" xmlns="http://www.w3.org/2000/svg">
<path d="M17 34.2021C26.3888 34.2021 34 26.591 34 17.2021C34 7.81331 26.3888 0.202148 17 0.202148C7.61116 0.202148 0 7.81331 0 17.2021C0 26.591 7.61116 34.2021 17 34.2021Z" fill="#328332"/>
<path d="M16.9883 17.7897L9.84725 17.1766L16.9872 13.137V17.7897H16.9883ZM16.9883 22.5285V29.9022C14.5053 26.0368 11.7682 21.7826 9.5625 18.339C12.1656 19.8053 14.8835 21.3385 16.9883 22.5295V22.5285ZM16.9883 11.8312L9.5625 15.975L16.9883 4.45215V11.8312Z" fill="white"/>
<path d="M24.1293 17.1766L16.9883 17.7897V13.137L24.1283 17.1766H24.1293ZM16.9883 22.5295C19.092 21.3395 21.8088 19.8053 24.413 18.339C22.2073 21.7836 19.4703 26.0379 16.9883 29.9011V22.5295ZM16.9883 11.8312V4.45215L24.413 15.975L16.9883 11.8312Z" fill="white" fill-opacity="0.601"/>
<path opacity="0.2" fill-rule="evenodd" clip-rule="evenodd" d="M16.9883 17.7898L24.1283 17.1768L16.9883 21.1877V17.7898Z" fill="white"/>
<path opacity="0.603" fill-rule="evenodd" clip-rule="evenodd" d="M16.987 17.7898L9.84595 17.1768L16.987 21.1877V17.7898Z" fill="white"/>
</svg>
