<svg width="18" height="18" viewBox="0 0 18 18" fill="none" xmlns="http://www.w3.org/2000/svg">
<path d="M9.00002 1.62161C11.4031 1.62161 11.6878 1.63079 12.6368 1.67409C13.5143 1.71411 13.9908 1.86072 14.3079 1.98398C14.728 2.14724 15.0278 2.34227 15.3428 2.65719C15.6577 2.97214 15.8528 3.27195 16.016 3.69205C16.1393 4.00918 16.2859 4.48572 16.3259 5.36321C16.3692 6.31222 16.3784 6.59688 16.3784 8.99995C16.3784 11.4031 16.3692 11.6877 16.3259 12.6367C16.2859 13.5142 16.1393 13.9908 16.016 14.3079C15.8528 14.728 15.6577 15.0278 15.3428 15.3427C15.0278 15.6577 14.728 15.8527 14.3079 16.016C13.9908 16.1392 13.5143 16.2858 12.6368 16.3258C11.6879 16.3691 11.4033 16.3783 9.00002 16.3783C6.59672 16.3783 6.31213 16.3691 5.36323 16.3258C4.48574 16.2858 4.00919 16.1392 3.69206 16.016C3.27196 15.8527 2.97215 15.6577 2.65723 15.3427C2.34231 15.0278 2.14725 14.728 1.98398 14.3079C1.86073 13.9908 1.71411 13.5142 1.6741 12.6367C1.6308 11.6877 1.62162 11.4031 1.62162 8.99995C1.62162 6.59688 1.6308 6.31222 1.6741 5.36321C1.71411 4.48572 1.86073 4.00918 1.98398 3.69205C2.14725 3.27195 2.34227 2.97214 2.65723 2.65722C2.97215 2.34227 3.27196 2.14724 3.69206 1.98398C4.00919 1.86072 4.48574 1.71411 5.36323 1.67409C6.31224 1.63079 6.5969 1.62161 9.00002 1.62161ZM9.00002 0C6.55575 0 6.24926 0.0103604 5.28931 0.0541598C4.33137 0.097852 3.67712 0.250007 3.10466 0.472469C2.51283 0.702469 2.01092 1.01021 1.51055 1.51054C1.01021 2.01091 0.702472 2.51282 0.472506 3.10465C0.250007 3.67711 0.0978523 4.33135 0.0541599 5.28929C0.0103604 6.24924 0 6.55572 0 8.99995C0 11.4442 0.0103604 11.7507 0.0541599 12.7106C0.0978523 13.6686 0.250007 14.3228 0.472506 14.8953C0.702472 15.4871 1.01021 15.989 1.51055 16.4894C2.01092 16.9897 2.51283 17.2975 3.10466 17.5274C3.67712 17.7499 4.33137 17.9021 5.28931 17.9458C6.24926 17.9896 6.55575 17.9999 9.00002 17.9999C11.4443 17.9999 11.7507 17.9896 12.7107 17.9458C13.6686 17.9021 14.3229 17.7499 14.8953 17.5274C15.4872 17.2975 15.9891 16.9897 16.4895 16.4894C16.9898 15.989 17.2975 15.4871 17.5275 14.8953C17.75 14.3228 17.9021 13.6686 17.9458 12.7106C17.9896 11.7507 18 11.4442 18 8.99995C18 6.55572 17.9896 6.24924 17.9458 5.28929C17.9021 4.33135 17.75 3.67711 17.5275 3.10465C17.2975 2.51282 16.9898 2.01091 16.4895 1.51054C15.9891 1.01021 15.4872 0.702469 14.8953 0.472469C14.3229 0.250007 13.6686 0.097852 12.7107 0.0541598C11.7507 0.0103604 11.4443 0 9.00002 0Z" fill="white"/>
<path d="M9.00396 4.38269C6.45148 4.38269 4.38232 6.45184 4.38232 9.00428C4.38232 11.5568 6.45148 13.6259 9.00396 13.6259C11.5564 13.6259 13.6256 11.5568 13.6256 9.00428C13.6256 6.45184 11.5564 4.38269 9.00396 4.38269ZM9.00396 12.0043C7.34708 12.0043 6.00394 10.6612 6.00394 9.00428C6.00394 7.34744 7.34708 6.0043 9.00396 6.0043C10.6608 6.0043 12.0039 7.34744 12.0039 9.00428C12.0039 10.6612 10.6608 12.0043 9.00396 12.0043Z" fill="white"/>
<path d="M14.888 4.19733C14.888 4.79376 14.4045 5.27731 13.808 5.27731C13.2116 5.27731 12.728 4.79376 12.728 4.19733C12.728 3.60085 13.2116 3.11731 13.808 3.11731C14.4045 3.11731 14.888 3.60085 14.888 4.19733Z" fill="white"/>
</svg>
