<svg width="18" height="18" viewBox="0 0 18 18" fill="none" xmlns="http://www.w3.org/2000/svg">
<path d="M16.5 6.375C16.5 9.0675 14.3175 11.25 11.625 11.25C11.4975 11.25 11.3625 11.2425 11.235 11.235C11.0475 8.85751 9.14249 6.95249 6.76499 6.76499C6.75749 6.63749 6.75 6.5025 6.75 6.375C6.75 3.6825 8.9325 1.5 11.625 1.5C14.3175 1.5 16.5 3.6825 16.5 6.375Z"  stroke-width="1.5" stroke-linecap="round" stroke-linejoin="round"/>
<path d="M11.25 11.625C11.25 14.3175 9.0675 16.5 6.375 16.5C3.6825 16.5 1.5 14.3175 1.5 11.625C1.5 8.9325 3.6825 6.75 6.375 6.75C6.5025 6.75 6.63749 6.75749 6.76499 6.76499C9.14249 6.95249 11.0475 8.85751 11.235 11.235C11.2425 11.3625 11.25 11.4975 11.25 11.625Z"  stroke-width="1.5" stroke-linecap="round" stroke-linejoin="round"/>
<path d="M4.1925 1.5H2.25C1.8375 1.5 1.5 1.8375 1.5 2.25V4.1925C1.5 4.86 2.30999 5.19749 2.78249 4.72499L4.72499 2.78249C5.18999 2.30999 4.86 1.5 4.1925 1.5Z"  stroke-width="1.5" stroke-linecap="round" stroke-linejoin="round"/>
<path d="M13.8078 16.5002H15.7503C16.1628 16.5002 16.5003 16.1627 16.5003 15.7502V13.8077C16.5003 13.1402 15.6903 12.8027 15.2178 13.2752L13.2753 15.2177C12.8103 15.6902 13.1403 16.5002 13.8078 16.5002Z"  stroke-width="1.5" stroke-linecap="round" stroke-linejoin="round"/>
</svg>
