<svg width="18" height="18" viewBox="0 0 18 18" fill="none" xmlns="http://www.w3.org/2000/svg">
<g opacity="0.8">
<path d="M6.87041 8.15299C6.79541 8.14549 6.70541 8.14549 6.62291 8.15299C4.83791 8.09299 3.42041 6.63049 3.42041 4.83049C3.42041 2.99299 4.90541 1.50049 6.75041 1.50049C8.58791 1.50049 10.0804 2.99299 10.0804 4.83049C10.0729 6.63049 8.65541 8.09299 6.87041 8.15299Z"  stroke-width="1.5" stroke-linecap="round" stroke-linejoin="round"/>
<path d="M12.3077 2.99951C13.7627 2.99951 14.9327 4.17701 14.9327 5.62451C14.9327 7.04201 13.8077 8.19701 12.4052 8.24951C12.3452 8.24201 12.2777 8.24201 12.2102 8.24951"  stroke-width="1.5" stroke-linecap="round" stroke-linejoin="round"/>
<path d="M3.12028 10.9195C1.30528 12.1345 1.30528 14.1145 3.12028 15.322C5.18278 16.702 8.56528 16.702 10.6278 15.322C12.4428 14.107 12.4428 12.127 10.6278 10.9195C8.57278 9.54701 5.19028 9.54701 3.12028 10.9195Z"  stroke-width="1.5" stroke-linecap="round" stroke-linejoin="round"/>
<path d="M13.7551 15.0005C14.2951 14.888 14.8051 14.6705 15.2251 14.348C16.3951 13.4705 16.3951 12.023 15.2251 11.1455C14.8126 10.8305 14.3101 10.6205 13.7776 10.5005"  stroke-width="1.5" stroke-linecap="round" stroke-linejoin="round"/>
</g>
</svg>
