<svg width="134" height="134" viewBox="0 0 134 134" fill="none" xmlns="http://www.w3.org/2000/svg">
<circle opacity="0.2" cx="67" cy="67" r="67" fill="url(#paint0_radial_35_13212)"/>
<circle opacity="0.4" cx="67.2939" cy="68.4692" r="50.25" fill="url(#paint1_radial_35_13212)"/>
<circle opacity="0.8" cx="67.9123" cy="68.9123" r="32.9123" fill="url(#paint2_radial_35_13212)"/>
<path opacity="0.4" d="M74.3601 56.4751H61.6401C57.9351 56.4751 54.9351 59.4901 54.9351 63.1801V77.2951C54.9351 80.9851 57.9501 84.0001 61.6401 84.0001H74.3451C78.0501 84.0001 81.0501 80.9851 81.0501 77.2951V63.1801C81.0651 59.4751 78.0501 56.4751 74.3601 56.4751Z" fill="white"/>
<path d="M71.5249 54H64.4749C62.9149 54 61.6399 55.26 61.6399 56.82V58.23C61.6399 59.79 62.8999 61.05 64.4599 61.05H71.5249C73.0849 61.05 74.3449 59.79 74.3449 58.23V56.82C74.3599 55.26 73.0849 54 71.5249 54Z" fill="white"/>
<path d="M72.5 70.425H62C61.385 70.425 60.875 69.915 60.875 69.3C60.875 68.685 61.385 68.175 62 68.175H72.5C73.115 68.175 73.625 68.685 73.625 69.3C73.625 69.915 73.115 70.425 72.5 70.425Z" fill="white"/>
<path d="M68.57 76.4251H62C61.385 76.4251 60.875 75.9151 60.875 75.3001C60.875 74.6851 61.385 74.175 62 74.175H68.57C69.185 74.175 69.695 74.6851 69.695 75.3001C69.695 75.9151 69.185 76.4251 68.57 76.4251Z" fill="white"/>
<defs>
<radialGradient id="paint0_radial_35_13212" cx="0" cy="0" r="1" gradientUnits="userSpaceOnUse" gradientTransform="translate(67 67) rotate(90) scale(67)">
<stop stop-color="#1E6FF6"/>
<stop offset="1" stop-color="#1E6FF6" stop-opacity="0"/>
</radialGradient>
<radialGradient id="paint1_radial_35_13212" cx="0" cy="0" r="1" gradientUnits="userSpaceOnUse" gradientTransform="translate(67.2939 68.4692) rotate(90) scale(50.25)">
<stop stop-color="#1E6FF6"/>
<stop offset="1" stop-color="#1E6FF6" stop-opacity="0"/>
</radialGradient>
<radialGradient id="paint2_radial_35_13212" cx="0" cy="0" r="1" gradientUnits="userSpaceOnUse" gradientTransform="translate(67.9123 68.9123) rotate(90) scale(32.9123)">
<stop stop-color="#1E6FF6"/>
<stop offset="1" stop-color="#1E6FF6" stop-opacity="0"/>
</radialGradient>
</defs>
</svg>
