<svg width="134" height="134" viewBox="0 0 134 134" fill="none" xmlns="http://www.w3.org/2000/svg">
<circle opacity="0.2" cx="67" cy="67" r="67" fill="url(#paint0_radial_35_13167)"/>
<circle opacity="0.4" cx="67.2939" cy="68.4692" r="50.25" fill="url(#paint1_radial_35_13167)"/>
<circle opacity="0.8" cx="67.9123" cy="68.9123" r="32.9123" fill="url(#paint2_radial_35_13167)"/>
<path opacity="0.4" d="M68 84C76.2843 84 83 77.2843 83 69C83 60.7157 76.2843 54 68 54C59.7157 54 53 60.7157 53 69C53 77.2843 59.7157 84 68 84Z" fill="white"/>
<path d="M68.4949 76.5C68.2249 76.59 67.7599 76.59 67.4899 76.5C65.1499 75.705 59.8999 72.36 59.8999 66.69C59.8999 64.185 61.9099 62.16 64.3999 62.16C65.8699 62.16 67.1749 62.865 67.9999 63.975C68.8099 62.88 70.1299 62.16 71.5999 62.16C74.0899 62.16 76.0999 64.185 76.0999 66.69C76.0999 72.36 70.8499 75.705 68.4949 76.5Z" fill="white"/>
<defs>
<radialGradient id="paint0_radial_35_13167" cx="0" cy="0" r="1" gradientUnits="userSpaceOnUse" gradientTransform="translate(67 67) rotate(90) scale(67)">
<stop stop-color="#1E6FF6"/>
<stop offset="1" stop-color="#1E6FF6" stop-opacity="0"/>
</radialGradient>
<radialGradient id="paint1_radial_35_13167" cx="0" cy="0" r="1" gradientUnits="userSpaceOnUse" gradientTransform="translate(67.2939 68.4692) rotate(90) scale(50.25)">
<stop stop-color="#1E6FF6"/>
<stop offset="1" stop-color="#1E6FF6" stop-opacity="0"/>
</radialGradient>
<radialGradient id="paint2_radial_35_13167" cx="0" cy="0" r="1" gradientUnits="userSpaceOnUse" gradientTransform="translate(67.9123 68.9123) rotate(90) scale(32.9123)">
<stop stop-color="#1E6FF6"/>
<stop offset="1" stop-color="#1E6FF6" stop-opacity="0"/>
</radialGradient>
</defs>
</svg>
