<svg width="25" height="24" viewBox="0 0 25 24" fill="none" xmlns="http://www.w3.org/2000/svg">
<path d="M23.9217 14.9017C22.3188 21.33 15.8074 25.2421 9.37771 23.6391C2.95065 22.0365 -0.961911 15.5253 0.641667 9.09746C2.24374 2.66846 8.75518 -1.24407 15.183 0.358589C21.6123 1.96125 25.5245 8.47312 23.9217 14.9017Z" fill="#509D30"/>
<path d="M1.14143 9.22214L1.14146 9.222C2.67475 3.06906 8.90662 -0.67546 15.0584 0.858371L15.0584 0.858378C21.2117 2.39222 24.9559 8.62451 23.4219 14.7771C21.8879 20.9293 15.6561 24.6736 9.50234 23.1393C3.35128 21.6055 -0.393273 15.3739 1.14143 9.22214Z" stroke="white" stroke-opacity="0.24" stroke-width="1.03016"/>
<g style="mix-blend-mode:screen" opacity="0.3">
<path d="M23.5641 7.92224L0.436027 13.923C0.182113 12.3636 0.234014 10.7281 0.64069 9.09795C2.24277 2.66894 8.75421 -1.24358 15.182 0.359078C19.2092 1.36296 22.2488 4.293 23.5641 7.92224Z" fill="white"/>
</g>
<g filter="url(#filter0_di_35_29628)">
<path d="M21.6094 14.3579C20.3071 19.5808 15.0165 22.7594 9.79243 21.457C4.57044 20.1548 1.39148 14.8646 2.69439 9.642C3.99608 4.41849 9.28662 1.2396 14.5092 2.54175C19.733 3.84389 22.9117 9.13473 21.6094 14.3579Z" fill="#509D30"/>
</g>
<path d="M16.4519 13.91C16.4519 14.7404 16.1809 15.4167 15.6389 15.9388C15.0969 16.4609 14.3511 16.799 13.4013 16.9532V18.1241H11.2309V16.9755C10.4801 16.8711 9.85851 16.6523 9.36625 16.3192C8.87895 15.986 8.52094 15.5882 8.29221 15.1258C8.06845 14.6584 7.95657 14.1661 7.95657 13.649H10.3209C10.3209 14.0766 10.485 14.4197 10.8132 14.6783C11.1464 14.9319 11.6113 15.0587 12.208 15.0587C12.8544 15.0587 13.3243 14.9642 13.6176 14.7752C13.911 14.5863 14.0577 14.2954 14.0577 13.9026C14.0577 13.6739 13.9806 13.4824 13.8265 13.3283C13.6773 13.1741 13.4585 13.0449 13.1701 12.9404C12.8817 12.831 12.4989 12.7216 12.0215 12.6123C11.3005 12.4382 10.669 12.2368 10.127 12.0081C9.59 11.7794 9.13503 11.4512 8.7621 11.0236C8.39414 10.596 8.21016 10.049 8.21016 9.38269C8.21016 8.58711 8.46624 7.93075 8.9784 7.41362C9.49056 6.89152 10.2414 6.56832 11.2309 6.44401V5.15367H13.4013V6.50367C14.2914 6.67771 14.9627 7.03323 15.4152 7.57025C15.8726 8.1023 16.1013 8.77357 16.1013 9.58407H13.737C13.737 9.26086 13.6052 8.99236 13.3417 8.77854C13.0831 8.55976 12.6679 8.45036 12.0961 8.45036C11.0817 8.45036 10.5745 8.76611 10.5745 9.3976C10.5745 9.61142 10.6516 9.7954 10.8058 9.94954C10.9599 10.0987 11.2011 10.2305 11.5292 10.3448C11.8574 10.4542 12.295 10.5611 12.8419 10.6656C13.9707 10.8943 14.8533 11.2623 15.4897 11.7694C16.1312 12.2716 16.4519 12.9852 16.4519 13.91Z" fill="white"/>
<defs>
<filter id="filter0_di_35_29628" x="2.23065" y="2.25" width="19.6707" height="19.8424" filterUnits="userSpaceOnUse" color-interpolation-filters="sRGB">
<feFlood flood-opacity="0" result="BackgroundImageFix"/>
<feColorMatrix in="SourceAlpha" type="matrix" values="0 0 0 0 0 0 0 0 0 0 0 0 0 0 0 0 0 0 127 0" result="hardAlpha"/>
<feOffset dx="-0.171694" dy="0.171694"/>
<feColorMatrix type="matrix" values="0 0 0 0 1 0 0 0 0 1 0 0 0 0 1 0 0 0 0.32 0"/>
<feBlend mode="normal" in2="BackgroundImageFix" result="effect1_dropShadow_35_29628"/>
<feBlend mode="normal" in="SourceGraphic" in2="effect1_dropShadow_35_29628" result="shape"/>
<feColorMatrix in="SourceAlpha" type="matrix" values="0 0 0 0 0 0 0 0 0 0 0 0 0 0 0 0 0 0 127 0" result="hardAlpha"/>
<feOffset dx="-0.171694" dy="0.343388"/>
<feGaussianBlur stdDeviation="0.171694"/>
<feComposite in2="hardAlpha" operator="arithmetic" k2="-1" k3="1"/>
<feColorMatrix type="matrix" values="0 0 0 0 0 0 0 0 0 0 0 0 0 0 0 0 0 0 0.16 0"/>
<feBlend mode="normal" in2="shape" result="effect2_innerShadow_35_29628"/>
</filter>
</defs>
</svg>
