<svg width="33" height="34" viewBox="0 0 33 34" fill="none" xmlns="http://www.w3.org/2000/svg">
<path d="M32.5057 20.9906C30.3018 29.8294 21.3486 35.2086 12.5078 33.0045C3.67055 30.8008 -1.70922 21.848 0.495695 13.0097C2.69855 4.1698 11.6518 -1.20992 20.49 0.993732C29.3303 3.19739 34.7096 12.1512 32.5057 20.9906Z" fill="#1E6FF6"/>
<path d="M1.55461 13.2738L1.55468 13.2736C3.61177 5.01861 11.9726 -0.00514364 20.226 2.05268L20.226 2.05269C28.4814 4.11054 33.5048 12.472 31.4468 20.7265C29.3887 28.9804 21.0279 34.0039 12.7718 31.9455C4.5194 29.8877 -0.504383 21.5272 1.55461 13.2738Z" stroke="white" stroke-opacity="0.24" stroke-width="2.18273"/>
<g style="mix-blend-mode:screen" opacity="0.3">
<path d="M32.0139 11.3931L0.212818 19.6442C-0.136314 17.4999 -0.0649495 15.2511 0.49423 13.0097C2.69709 4.1698 11.6503 -1.20992 20.4886 0.993732C26.026 2.37407 30.2054 6.40288 32.0139 11.3931Z" fill="white"/>
</g>
<g filter="url(#filter0_di_35_34593)">
<path d="M29.4556 20.1948C27.6649 27.3763 20.3904 31.7469 13.2073 29.956C6.02703 28.1655 1.65596 20.8915 3.44746 13.7104C5.23728 6.52807 12.5118 2.15709 19.6928 3.94754C26.8756 5.73799 31.2462 13.0129 29.4556 20.1948Z" fill="#1E6FF6"/>
</g>
<path d="M9.03817 19.838C8.45809 19.838 7.92115 19.6952 7.42734 19.4097C6.93353 19.1241 6.54086 18.7389 6.24933 18.254C5.96078 17.7661 5.8165 17.2336 5.8165 16.6565C5.8165 16.0764 5.96227 15.544 6.25379 15.0591C6.54532 14.5742 6.93948 14.1905 7.43626 13.9078C7.93602 13.6223 8.4804 13.4795 9.0694 13.4795C9.50669 13.4795 9.9425 13.5687 10.3768 13.7472C10.8111 13.9257 11.1845 14.186 11.4968 14.5281C11.8092 14.8672 12.0055 15.2643 12.0858 15.7195H10.649C10.5003 15.419 10.2861 15.187 10.0065 15.0234C9.72683 14.8568 9.40109 14.7735 9.02924 14.7735C8.69905 14.7735 8.39711 14.8508 8.12343 15.0055C7.84975 15.1572 7.63259 15.3759 7.47196 15.6615C7.31132 15.947 7.231 16.2802 7.231 16.661C7.231 17.0507 7.31132 17.3883 7.47196 17.6739C7.63259 17.9565 7.84826 18.1722 8.11897 18.3209C8.39265 18.4696 8.69607 18.544 9.02924 18.544C9.43679 18.544 9.77888 18.4518 10.0555 18.2674C10.3322 18.0829 10.5136 17.8256 10.5999 17.4954H8.9757V16.3665H12.1706C12.1765 17.0745 12.0561 17.6903 11.8092 18.2138C11.5652 18.7344 11.2068 19.136 10.7338 19.4186C10.2608 19.6982 9.69559 19.838 9.03817 19.838ZM13.0229 13.6312H14.4374V15.9961H17.0879V13.6312H18.5068V19.6997H17.0879V17.25H14.4374V19.6997H13.0229V13.6312ZM21.7687 13.3412H23.2679L20.3542 20.6278L18.846 20.6323L21.7687 13.3412ZM25.4231 19.8514C24.974 19.8514 24.5962 19.7726 24.2898 19.6149C23.9834 19.4573 23.7558 19.252 23.6071 18.9992C23.4583 18.7463 23.3839 18.4741 23.3839 18.1826L24.7003 18.1915C24.7122 18.37 24.7776 18.5113 24.8966 18.6154C25.0186 18.7195 25.1971 18.7716 25.4321 18.7716C25.8337 18.7716 26.0345 18.6318 26.0345 18.3521C26.0345 18.2213 25.972 18.1261 25.847 18.0666C25.7251 18.0041 25.5213 17.9535 25.2357 17.9149C24.7271 17.8524 24.318 17.7036 24.0086 17.4686C23.7022 17.2307 23.549 16.8826 23.549 16.4245C23.549 16.1121 23.6204 15.8444 23.7632 15.6213C23.909 15.3982 24.1172 15.2272 24.3879 15.1082C24.6616 14.9892 24.9903 14.9297 25.3741 14.9297C25.7519 14.9297 26.088 14.9951 26.3825 15.126C26.677 15.2569 26.9061 15.4413 27.0697 15.6793C27.2333 15.9143 27.3151 16.188 27.3151 16.5004L25.972 16.4914C25.9631 16.3546 25.908 16.246 25.8069 16.1657C25.7087 16.0824 25.5659 16.0408 25.3785 16.0408C25.2149 16.0408 25.0929 16.0735 25.0126 16.1389C24.9353 16.2044 24.8966 16.2891 24.8966 16.3933C24.8966 16.4855 24.9159 16.5554 24.9546 16.603C24.9933 16.6506 25.0691 16.6907 25.1822 16.7235C25.2952 16.7562 25.4782 16.7904 25.731 16.8261C26.1059 16.8796 26.4167 16.96 26.6636 17.067C26.9135 17.1712 27.1054 17.3214 27.2392 17.5177C27.3731 17.7111 27.44 17.9624 27.44 18.2718C27.44 18.6199 27.3523 18.9129 27.1768 19.1509C27.0013 19.3859 26.7618 19.5614 26.4584 19.6774C26.1549 19.7934 25.8099 19.8514 25.4231 19.8514Z" fill="white"/>
<defs>
<filter id="filter0_di_35_34593" x="2.68211" y="3.54639" width="27.1748" height="27.5386" filterUnits="userSpaceOnUse" color-interpolation-filters="sRGB">
<feFlood flood-opacity="0" result="BackgroundImageFix"/>
<feColorMatrix in="SourceAlpha" type="matrix" values="0 0 0 0 0 0 0 0 0 0 0 0 0 0 0 0 0 0 127 0" result="hardAlpha"/>
<feOffset dx="-0.363789" dy="0.363789"/>
<feColorMatrix type="matrix" values="0 0 0 0 1 0 0 0 0 1 0 0 0 0 1 0 0 0 0.32 0"/>
<feBlend mode="normal" in2="BackgroundImageFix" result="effect1_dropShadow_35_34593"/>
<feBlend mode="normal" in="SourceGraphic" in2="effect1_dropShadow_35_34593" result="shape"/>
<feColorMatrix in="SourceAlpha" type="matrix" values="0 0 0 0 0 0 0 0 0 0 0 0 0 0 0 0 0 0 127 0" result="hardAlpha"/>
<feOffset dx="-0.363789" dy="0.727578"/>
<feGaussianBlur stdDeviation="0.363789"/>
<feComposite in2="hardAlpha" operator="arithmetic" k2="-1" k3="1"/>
<feColorMatrix type="matrix" values="0 0 0 0 0 0 0 0 0 0 0 0 0 0 0 0 0 0 0.16 0"/>
<feBlend mode="normal" in2="shape" result="effect2_innerShadow_35_34593"/>
</filter>
</defs>
</svg>
