<svg width="22" height="22" viewBox="0 0 22 22" fill="none" xmlns="http://www.w3.org/2000/svg">
<path d="M9.56104 19.75H13.061C17.436 19.75 19.186 18 19.186 13.625V8.375C19.186 4 17.436 2.25 13.061 2.25H9.56104C5.18604 2.25 3.43604 4 3.43604 8.375V13.625C3.43604 18 5.18604 19.75 9.56104 19.75Z"  stroke-width="1.5" stroke-linecap="round" stroke-linejoin="round"/>
<path d="M15.2485 7.13251V8.00751C15.2485 8.72501 14.6623 9.32001 13.936 9.32001H8.68604C7.96854 9.32001 7.37354 8.73376 7.37354 8.00751V7.13251C7.37354 6.41501 7.95979 5.82001 8.68604 5.82001H13.936C14.6623 5.82001 15.2485 6.40626 15.2485 7.13251Z"  stroke-width="1.5" stroke-linecap="round" stroke-linejoin="round"/>
<path d="M7.93014 12.75H7.94025"  stroke-width="2" stroke-linecap="round" stroke-linejoin="round"/>
<path d="M11.3068 12.75H11.317"  stroke-width="2" stroke-linecap="round" stroke-linejoin="round"/>
<path d="M14.6836 12.75H14.6937"  stroke-width="2" stroke-linecap="round" stroke-linejoin="round"/>
<path d="M7.93014 15.8125H7.94025"  stroke-width="2" stroke-linecap="round" stroke-linejoin="round"/>
<path d="M11.3068 15.8125H11.317"  stroke-width="2" stroke-linecap="round" stroke-linejoin="round"/>
<path d="M14.6836 15.8125H14.6937"  stroke-width="2" stroke-linecap="round" stroke-linejoin="round"/>
</svg>
