<svg width="28" height="28" viewBox="0 0 28 28" fill="none" xmlns="http://www.w3.org/2000/svg">
<path d="M25.6666 13.9999V10.4999C25.6666 4.66659 23.3333 2.33325 17.4999 2.33325H10.4999C4.66659 2.33325 2.33325 4.66659 2.33325 10.4999V17.4999C2.33325 23.3333 4.66659 25.6666 10.4999 25.6666H13.9999" stroke="#94A3B8" stroke-width="1.5" stroke-linecap="round" stroke-linejoin="round"/>
<path d="M24.4534 20.8132L22.5517 21.4549C22.0267 21.6299 21.6067 22.0383 21.4317 22.5749L20.79 24.4766C20.2417 26.1216 17.9317 26.0866 17.4184 24.4416L15.26 17.4999C14.84 16.1232 16.1117 14.8399 17.4767 15.2716L24.43 17.4299C26.0634 17.9432 26.0867 20.2649 24.4534 20.8132Z" stroke="#94A3B8" stroke-width="1.5" stroke-linecap="round" stroke-linejoin="round"/>
</svg>
