<svg width="26" height="26" viewBox="0 0 26 26" fill="none" xmlns="http://www.w3.org/2000/svg">
<path d="M17.3337 13.975V18.525C17.3337 22.3166 15.817 23.8333 12.0253 23.8333H7.47533C3.68366 23.8333 2.16699 22.3166 2.16699 18.525V13.975C2.16699 10.1833 3.68366 8.66663 7.47533 8.66663H12.0253C15.817 8.66663 17.3337 10.1833 17.3337 13.975Z" stroke-width="1.5" stroke-linecap="round" stroke-linejoin="round"/>
<path d="M23.8337 7.47496V12.025C23.8337 15.8166 22.317 17.3333 18.5253 17.3333H17.3337V13.975C17.3337 10.1833 15.817 8.66663 12.0253 8.66663H8.66699V7.47496C8.66699 3.68329 10.1837 2.16663 13.9753 2.16663H18.5253C22.317 2.16663 23.8337 3.68329 23.8337 7.47496Z" stroke-width="1.5" stroke-linecap="round" stroke-linejoin="round"/>
</svg>
