<svg width="132" height="159" viewBox="0 0 132 159" fill="none" xmlns="http://www.w3.org/2000/svg">
<circle opacity="0.1" cx="79.1027" cy="79.1447" r="79.1027" fill="white"/>
<circle opacity="0.4" cx="78.9774" cy="78.9774" r="61.9774" fill="white"/>
<path d="M106.643 94.1523C106.643 99.5885 104.868 104.016 101.32 107.434C97.7721 110.852 92.8893 113.065 86.6719 114.074V121.74H72.4629V114.221C67.5475 113.537 63.4785 112.105 60.2559 109.924C57.0658 107.743 54.722 105.139 53.2246 102.111C51.7598 99.0514 51.0273 95.8288 51.0273 92.4434H66.5059C66.5059 95.2428 67.5801 97.4889 69.7285 99.1816C71.9095 100.842 74.9531 101.672 78.8594 101.672C83.0911 101.672 86.1673 101.053 88.0879 99.8164C90.0085 98.5794 90.9688 96.6751 90.9688 94.1035C90.9688 92.6061 90.4642 91.3529 89.4551 90.3438C88.4785 89.3346 87.0462 88.4883 85.1582 87.8047C83.2702 87.0885 80.7637 86.3724 77.6387 85.6562C72.9186 84.5169 68.7845 83.1986 65.2363 81.7012C61.7207 80.2038 58.7422 78.0553 56.3008 75.2559C53.8919 72.4564 52.6875 68.8757 52.6875 64.5137C52.6875 59.3053 54.3639 55.0085 57.7168 51.623C61.0697 48.2051 65.985 46.0892 72.4629 45.2754V36.8281H86.6719V45.666C92.4987 46.8053 96.8932 49.1328 99.8555 52.6484C102.85 56.1315 104.348 60.526 104.348 65.832H88.8691C88.8691 63.7161 88.0065 61.9583 86.2812 60.5586C84.5885 59.1263 81.8704 58.4102 78.127 58.4102C71.4863 58.4102 68.166 60.4772 68.166 64.6113C68.166 66.0111 68.6706 67.2155 69.6797 68.2246C70.6888 69.2012 72.2676 70.0638 74.416 70.8125C76.5645 71.5286 79.429 72.2285 83.0098 72.9121C90.3991 74.4095 96.1771 76.8184 100.344 80.1387C104.543 83.4264 106.643 88.0977 106.643 94.1523Z" fill="white"/>
</svg>
