<svg width="21" height="21" viewBox="0 0 21 21" fill="none" xmlns="http://www.w3.org/2000/svg">
<g clip-path="url(#clip0_35_20958)">
<path d="M10.5 1.89189C13.3036 1.89189 13.6357 1.9026 14.7429 1.95312C15.7666 1.9998 16.3226 2.17085 16.6926 2.31465C17.1827 2.50512 17.5325 2.73265 17.8999 3.10006C18.2673 3.46751 18.4949 3.81729 18.6854 4.3074C18.8291 4.67739 19.0002 5.23336 19.0469 6.2571C19.0974 7.36428 19.1081 7.69639 19.1081 10.5C19.1081 13.3036 19.0974 13.6357 19.0469 14.7429C19.0002 15.7666 18.8291 16.3226 18.6854 16.6926C18.4949 17.1827 18.2673 17.5325 17.8999 17.8999C17.5325 18.2673 17.1827 18.4949 16.6926 18.6854C16.3226 18.8291 15.7666 19.0002 14.7429 19.0469C13.6359 19.0974 13.3038 19.1081 10.5 19.1081C7.69618 19.1081 7.36416 19.0974 6.2571 19.0469C5.23336 19.0002 4.67739 18.8291 4.3074 18.6854C3.81729 18.4949 3.46751 18.2673 3.1001 17.8999C2.7327 17.5325 2.50512 17.1827 2.31465 16.6926C2.17085 16.3226 1.9998 15.7666 1.95312 14.7429C1.9026 13.6357 1.89189 13.3036 1.89189 10.5C1.89189 7.69639 1.9026 7.36428 1.95312 6.2571C1.9998 5.23336 2.17085 4.67739 2.31465 4.3074C2.50512 3.81729 2.73265 3.46751 3.1001 3.1001C3.46751 2.73265 3.81729 2.50512 4.3074 2.31465C4.67739 2.17085 5.23336 1.9998 6.2571 1.95312C7.36428 1.9026 7.69639 1.89189 10.5 1.89189ZM10.5 0C7.64837 0 7.2908 0.0120871 6.17086 0.0631866C5.05326 0.114161 4.28998 0.291675 3.6221 0.551216C2.93163 0.81955 2.34607 1.17858 1.76231 1.76231C1.17858 2.34607 0.81955 2.93163 0.551257 3.6221C0.291675 4.28998 0.114161 5.05326 0.0631866 6.17086C0.0120871 7.2908 0 7.64837 0 10.5C0 13.3516 0.0120871 13.7092 0.0631866 14.8291C0.114161 15.9467 0.291675 16.71 0.551257 17.3779C0.81955 18.0684 1.17858 18.6539 1.76231 19.2377C2.34607 19.8214 2.93163 20.1805 3.6221 20.4487C4.28998 20.7083 5.05326 20.8858 6.17086 20.9368C7.2908 20.9879 7.64837 21 10.5 21C13.3516 21 13.7092 20.9879 14.8291 20.9368C15.9467 20.8858 16.71 20.7083 17.3779 20.4487C18.0684 20.1805 18.6539 19.8214 19.2377 19.2377C19.8214 18.6539 20.1804 18.0684 20.4488 17.3779C20.7083 16.71 20.8858 15.9467 20.9368 14.8291C20.9879 13.7092 21 13.3516 21 10.5C21 7.64837 20.9879 7.2908 20.9368 6.17086C20.8858 5.05326 20.7083 4.28998 20.4488 3.6221C20.1804 2.93163 19.8214 2.34607 19.2377 1.76231C18.6539 1.17858 18.0684 0.81955 17.3779 0.551216C16.71 0.291675 15.9467 0.114161 14.8291 0.0631866C13.7092 0.0120871 13.3516 0 10.5 0Z" fill="#94A3B8"/>
<path fill-rule="evenodd" clip-rule="evenodd" d="M14.4242 7.68066C13.9227 7.57654 13.2454 7.49875 12.8194 7.49875C11.6659 7.49875 11.5909 8.01937 11.5909 8.85237V10.3352H14.4744L14.223 13.4069H11.5909V22.75H7.98061V13.4069H6.125V10.3352H7.98061V8.43526C7.98061 5.83275 9.15889 4.375 12.1172 4.375C13.1451 4.375 13.8973 4.53119 14.875 4.73944L14.4242 7.68066Z" fill="#94A3B8"/>
</g>
<defs>
<clipPath id="clip0_35_20958">
<rect width="21" height="21" fill="white"/>
</clipPath>
</defs>
</svg>
