<svg width="24" height="21" viewBox="0 0 24 21" fill="none" xmlns="http://www.w3.org/2000/svg">
<path fill-rule="evenodd" clip-rule="evenodd" d="M24 2.43496C23.1177 2.84838 22.1681 3.1268 21.1722 3.25251C22.1889 2.6096 22.9697 1.59209 23.3368 0.379669C22.3865 0.97533 21.3314 1.40647 20.2107 1.64018C19.3123 0.631098 18.0316 0 16.6165 0C13.8975 0 11.6928 2.32527 11.6928 5.19306C11.6928 5.59973 11.7368 5.99627 11.8208 6.37679C7.72829 6.1608 4.10053 4.09285 1.67189 0.950864C1.24792 1.7178 1.00553 2.60961 1.00553 3.56132C1.00553 5.36265 1.87347 6.95221 3.19579 7.88367C2.38784 7.85667 1.62949 7.62296 0.964734 7.23401V7.29897C0.964734 9.81577 2.66302 11.9141 4.91407 12.3925C4.5013 12.5106 4.06613 12.5747 3.61736 12.5747C3.29978 12.5747 2.991 12.5418 2.69022 12.4811C3.31658 14.5439 5.13566 16.0458 7.28991 16.0879C5.60523 17.4801 3.48217 18.3111 1.17512 18.3111C0.776747 18.3111 0.384774 18.2866 0 18.2377C2.17905 19.7108 4.76688 20.5714 7.5475 20.5714C16.6037 20.5714 21.5562 12.6582 21.5562 5.79631C21.5562 5.57104 21.5522 5.34662 21.5418 5.12472C22.5049 4.39069 23.34 3.4761 24 2.43496Z" fill="#94A3B8"/>
</svg>
