<svg width="21" height="19" viewBox="0 0 21 19" fill="none" xmlns="http://www.w3.org/2000/svg">
<path d="M1.44364 8.17945C7.08077 5.49813 10.8397 3.73044 12.7206 2.87638C18.0906 0.437868 19.2065 0.0142721 19.9338 0.000135604C20.0938 -0.00279163 20.4514 0.0404885 20.6831 0.245728C20.8787 0.419028 20.9326 0.653132 20.9583 0.817439C20.9841 0.981746 21.0162 1.35604 20.9907 1.64851C20.6997 4.98665 19.4405 13.0874 18.7999 16.8262C18.5288 18.4082 17.9951 18.9387 17.4784 18.9906C16.3554 19.1034 15.5027 18.1804 14.4151 17.402C12.7132 16.1841 11.7517 15.4259 10.0997 14.2374C8.19056 12.8638 9.42819 12.1089 10.5162 10.8752C10.801 10.5523 15.7486 5.63915 15.8444 5.19345C15.8564 5.1377 15.8675 4.92992 15.7544 4.82021C15.6414 4.71049 15.4745 4.74801 15.3541 4.77785C15.1834 4.82015 12.4646 6.78204 7.19761 10.6635C6.42588 11.2421 5.72687 11.524 5.10058 11.5092C4.41015 11.4929 3.08204 11.083 2.09472 10.7326C0.883743 10.3029 -0.0787216 10.0757 0.00508745 9.3458C0.0487404 8.96565 0.528258 8.57687 1.44364 8.17945Z" fill="#94A3B8"/>
</svg>
