<svg width="21" height="21" viewBox="0 0 21 21" fill="none" xmlns="http://www.w3.org/2000/svg">
<path d="M10.5 1.89188C13.3036 1.89188 13.6357 1.90259 14.7429 1.95311C15.7666 1.99979 16.3226 2.17084 16.6926 2.31464C17.1827 2.50512 17.5325 2.73264 17.8999 3.10005C18.2673 3.4675 18.4949 3.81728 18.6854 4.30739C18.8291 4.67738 19.0002 5.23334 19.0469 6.25708C19.0974 7.36426 19.1081 7.69636 19.1081 10.4999C19.1081 13.3036 19.0974 13.6357 19.0469 14.7429C19.0002 15.7666 18.8291 16.3226 18.6854 16.6925C18.4949 17.1827 18.2673 17.5324 17.8999 17.8998C17.5325 18.2673 17.1827 18.4948 16.6926 18.6853C16.3226 18.8291 15.7666 19.0001 14.7429 19.0468C13.6359 19.0973 13.3038 19.108 10.5 19.108C7.69618 19.108 7.36416 19.0973 6.2571 19.0468C5.23336 19.0001 4.67739 18.8291 4.3074 18.6853C3.81729 18.4948 3.46751 18.2673 3.1001 17.8998C2.7327 17.5324 2.50512 17.1827 2.31465 16.6925C2.17085 16.3226 1.9998 15.7666 1.95312 14.7429C1.9026 13.6357 1.89189 13.3036 1.89189 10.4999C1.89189 7.69636 1.9026 7.36426 1.95312 6.25708C1.9998 5.23334 2.17085 4.67738 2.31465 4.30739C2.50512 3.81728 2.73265 3.4675 3.1001 3.10009C3.46751 2.73264 3.81729 2.50512 4.3074 2.31464C4.67739 2.17084 5.23336 1.99979 6.2571 1.95311C7.36428 1.90259 7.69639 1.89188 10.5 1.89188ZM10.5 0C7.64837 0 7.2908 0.0120871 6.17086 0.0631864C5.05326 0.114161 4.28998 0.291674 3.6221 0.551214C2.93163 0.819548 2.34607 1.17858 1.76231 1.7623C1.17858 2.34607 0.81955 2.93162 0.551257 3.62209C0.291675 4.28996 0.114161 5.05324 0.0631866 6.17084C0.0120871 7.29078 0 7.64835 0 10.4999C0 13.3516 0.0120871 13.7092 0.0631866 14.8291C0.114161 15.9467 0.291675 16.71 0.551257 17.3778C0.81955 18.0683 1.17858 18.6539 1.76231 19.2376C2.34607 19.8214 2.93163 20.1804 3.6221 20.4487C4.28998 20.7083 5.05326 20.8858 6.17086 20.9367C7.2908 20.9878 7.64837 20.9999 10.5 20.9999C13.3516 20.9999 13.7092 20.9878 14.8291 20.9367C15.9467 20.8858 16.71 20.7083 17.3779 20.4487C18.0684 20.1804 18.6539 19.8214 19.2377 19.2376C19.8214 18.6539 20.1804 18.0683 20.4488 17.3778C20.7083 16.71 20.8858 15.9467 20.9368 14.8291C20.9879 13.7092 21 13.3516 21 10.4999C21 7.64835 20.9879 7.29078 20.9368 6.17084C20.8858 5.05324 20.7083 4.28996 20.4488 3.62209C20.1804 2.93162 19.8214 2.34607 19.2377 1.7623C18.6539 1.17858 18.0684 0.819548 17.3779 0.551214C16.71 0.291674 15.9467 0.114161 14.8291 0.0631864C13.7092 0.0120871 13.3516 0 10.5 0Z" fill="#94A3B8"/>
<path d="M10.5047 5.11316C7.5268 5.11316 5.11279 7.52716 5.11279 10.505C5.11279 13.4829 7.5268 15.8969 10.5047 15.8969C13.4826 15.8969 15.8966 13.4829 15.8966 10.505C15.8966 7.52716 13.4826 5.11316 10.5047 5.11316ZM10.5047 14.005C8.57168 14.005 7.00468 12.438 7.00468 10.505C7.00468 8.57203 8.57168 7.00504 10.5047 7.00504C12.4377 7.00504 14.0047 8.57203 14.0047 10.505C14.0047 12.438 12.4377 14.005 10.5047 14.005Z" fill="#94A3B8"/>
<path d="M17.3696 4.89686C17.3696 5.59271 16.8055 6.15684 16.1096 6.15684C15.4137 6.15684 14.8496 5.59271 14.8496 4.89686C14.8496 4.20098 15.4137 3.63684 16.1096 3.63684C16.8055 3.63684 17.3696 4.20098 17.3696 4.89686Z" fill="#94A3B8"/>
</svg>
