<svg width="156" height="27" viewBox="0 0 156 27" fill="none" xmlns="http://www.w3.org/2000/svg">
<path d="M3.7524 13.5021C2.20138 13.5021 0.944336 14.7605 0.944336 16.3123C0.944336 17.8638 2.20138 19.1221 3.7524 19.1221H8.6268C10.1776 19.1221 11.4349 17.8638 11.4349 16.3123C11.4349 14.7605 10.1776 13.5021 8.6268 13.5021H3.7524Z" fill="url(#main-logo)"/>
<path d="M5.81909 9.56091V16.3123V19.1221V26.4622H11.435V19.1221H15.3734C20.642 19.1221 24.9278 14.8329 24.9278 9.56091C24.9278 4.28889 20.642 -8.39233e-05 15.3734 -8.39233e-05C10.1053 -8.39233e-05 5.81909 4.28889 5.81909 9.56091ZM11.435 9.56091C11.435 7.38779 13.2018 5.61948 15.3734 5.61948C17.5451 5.61948 19.3124 7.38779 19.3124 9.56091C19.3124 11.7343 17.5451 13.5021 15.3734 13.5021H11.435V9.56091Z" fill="url(#main-logo-second)"/>
<path d="M38.1013 6.71869C38.9867 6.71869 39.7778 6.91075 40.4744 7.29486C41.1775 7.67898 41.7244 8.21283 42.115 8.89642C42.5121 9.57351 42.7107 10.3385 42.7107 11.1913C42.7107 12.0898 42.5154 12.8873 42.1248 13.5839C41.7341 14.274 41.1905 14.8111 40.4939 15.1953C39.8038 15.5729 39.0193 15.7617 38.1404 15.7617H34.9373V19.9999H32.5056V6.71869H38.1013ZM38.0232 13.5937C38.4399 13.5937 38.8207 13.4895 39.1658 13.2812C39.5108 13.0663 39.781 12.7766 39.9763 12.412C40.1781 12.0475 40.2791 11.6406 40.2791 11.1913C40.2791 10.7877 40.1781 10.4101 39.9763 10.0585C39.7745 9.70697 39.4978 9.42377 39.1462 9.20892C38.8012 8.99408 38.4203 8.88666 38.0037 8.88666H34.9373V13.5937H38.0232ZM46.6658 9.96088V11.7773C46.9067 11.2109 47.255 10.7682 47.7107 10.4492C48.1729 10.1236 48.7231 9.96088 49.3611 9.96088H50.4353V11.9921H49.488C48.9477 11.9921 48.4724 12.1223 48.0623 12.3828C47.6521 12.6432 47.3331 13.024 47.1052 13.5253C46.8774 14.0266 46.7634 14.6288 46.7634 15.332V19.9999H44.4001V9.96088H46.6658ZM56.3044 20.3027C55.3083 20.3027 54.4067 20.065 53.5994 19.5898C52.7986 19.1145 52.1703 18.4732 51.7146 17.666C51.2589 16.8522 51.031 15.957 51.031 14.9804C51.031 14.0104 51.2589 13.1184 51.7146 12.3046C52.1703 11.4908 52.7986 10.8463 53.5994 10.371C54.4067 9.89577 55.3116 9.65814 56.3142 9.65814C57.3233 9.65814 58.2315 9.89577 59.0388 10.371C59.8461 10.8463 60.4776 11.4908 60.9333 12.3046C61.3891 13.1184 61.6169 14.0104 61.6169 14.9804C61.6169 15.957 61.3891 16.8522 60.9333 17.666C60.4776 18.4798 59.8429 19.1243 59.0291 19.5995C58.2218 20.0683 57.3136 20.3027 56.3044 20.3027ZM56.324 18.1054C56.8839 18.1054 57.3852 17.9719 57.8279 17.705C58.2771 17.4381 58.6287 17.067 58.8826 16.5917C59.143 16.1165 59.2732 15.5794 59.2732 14.9804C59.2732 14.388 59.143 13.8541 58.8826 13.3788C58.6287 12.8971 58.2771 12.5227 57.8279 12.2558C57.3787 11.9824 56.8774 11.8456 56.324 11.8456C55.7706 11.8456 55.2693 11.9824 54.8201 12.2558C54.3708 12.5227 54.016 12.8971 53.7556 13.3788C53.5017 13.8541 53.3748 14.388 53.3748 14.9804C53.3748 15.5794 53.5017 16.1165 53.7556 16.5917C54.016 17.067 54.3676 17.4381 54.8103 17.705C55.2595 17.9719 55.7641 18.1054 56.324 18.1054ZM68.238 20.3027C67.2419 20.3027 66.3403 20.065 65.533 19.5898C64.7322 19.1145 64.1039 18.4732 63.6482 17.666C63.1925 16.8522 62.9646 15.957 62.9646 14.9804C62.9646 14.0104 63.1925 13.1184 63.6482 12.3046C64.1039 11.4908 64.7322 10.8463 65.533 10.371C66.3403 9.89577 67.2452 9.65814 68.2478 9.65814C69.2569 9.65814 70.1651 9.89577 70.9724 10.371C71.7797 10.8463 72.4112 11.4908 72.8669 12.3046C73.3227 13.1184 73.5505 14.0104 73.5505 14.9804C73.5505 15.957 73.3227 16.8522 72.8669 17.666C72.4112 18.4798 71.7764 19.1243 70.9626 19.5995C70.1554 20.0683 69.2472 20.3027 68.238 20.3027ZM68.2576 18.1054C68.8175 18.1054 69.3188 17.9719 69.7615 17.705C70.2107 17.4381 70.5623 17.067 70.8162 16.5917C71.0766 16.1165 71.2068 15.5794 71.2068 14.9804C71.2068 14.388 71.0766 13.8541 70.8162 13.3788C70.5623 12.8971 70.2107 12.5227 69.7615 12.2558C69.3123 11.9824 68.811 11.8456 68.2576 11.8456C67.7042 11.8456 67.2029 11.9824 66.7537 12.2558C66.3044 12.5227 65.9496 12.8971 65.6892 13.3788C65.4353 13.8541 65.3083 14.388 65.3083 14.9804C65.3083 15.5794 65.4353 16.1165 65.6892 16.5917C65.9496 17.067 66.3012 17.4381 66.7439 17.705C67.1931 17.9719 67.6977 18.1054 68.2576 18.1054ZM74.4001 11.9824V9.96088H76.4021V9.3847C76.4021 8.83132 76.5095 8.30723 76.7244 7.81244C76.9392 7.31765 77.2778 6.914 77.74 6.6015C78.2087 6.28249 78.8012 6.12299 79.5173 6.12299H81.4412V8.08588H80.113C79.6899 8.08588 79.3578 8.22911 79.1169 8.51556C78.8826 8.80202 78.7654 9.15358 78.7654 9.57025V9.96088H81.3923V11.9824H78.7654V19.9999H76.4021V11.9824H74.4001ZM87.613 20.3027C86.4021 20.3027 85.3897 20.0976 84.5759 19.6874C83.7686 19.2773 83.1729 18.7467 82.7888 18.0956C82.4047 17.4446 82.2126 16.7512 82.2126 16.0156H84.6443C84.6443 16.4322 84.7615 16.8098 84.9958 17.1484C85.2302 17.4869 85.572 17.7571 86.0212 17.9589C86.4705 18.1542 86.9978 18.2519 87.6033 18.2519C89.5759 18.2519 90.5623 17.5911 90.5623 16.2695C90.5623 15.8723 90.4386 15.5468 90.1912 15.2929C89.9503 15.0325 89.6117 14.8242 89.1755 14.6679C88.7393 14.5051 88.1827 14.3587 87.5056 14.2285C86.5746 14.0331 85.7576 13.7988 85.0544 13.5253C84.3513 13.2519 83.7589 12.845 83.2771 12.3046C82.7953 11.7643 82.5544 11.0676 82.5544 10.2148C82.5544 9.4726 82.7335 8.8183 83.0916 8.25189C83.4496 7.67898 83.9998 7.22976 84.7419 6.90424C85.4841 6.5722 86.4119 6.40619 87.5251 6.40619C88.6059 6.40619 89.5206 6.5722 90.2693 6.90424C91.018 7.22976 91.5811 7.692 91.9587 8.29095C92.3363 8.88991 92.5251 9.58978 92.5251 10.3906H90.0935C90.0935 9.84369 89.8754 9.39773 89.4392 9.05267C89.003 8.70762 88.3552 8.5351 87.4958 8.5351C86.5779 8.5351 85.9301 8.6946 85.5525 9.01361C85.1749 9.33262 84.9861 9.73627 84.9861 10.2245C84.9861 10.5891 85.1065 10.8984 85.3474 11.1523C85.5883 11.3997 85.9496 11.608 86.4314 11.7773C86.9132 11.94 87.5414 12.0833 88.3162 12.207C89.7419 12.4674 90.8813 12.9068 91.7341 13.5253C92.5935 14.1438 93.0232 15.0618 93.0232 16.2792C93.0232 17.1256 92.8018 17.8515 92.3591 18.457C91.9164 19.0624 91.2882 19.5214 90.4744 19.8339C89.6606 20.1464 88.7068 20.3027 87.613 20.3027ZM99.156 19.9999C98.199 19.9999 97.4047 19.7363 96.7732 19.2089C96.1417 18.6751 95.8259 17.666 95.8259 16.1816V11.9921H93.7458V9.96088H95.8259V7.02142L98.1892 7.00189V9.96088H101.197V11.9921H98.1892V16.289C98.1892 17.4544 98.6742 18.037 99.6443 18.037H101.197V19.9999H99.156ZM106.851 20.3027C105.966 20.3027 105.162 20.065 104.439 19.5898C103.717 19.1145 103.15 18.47 102.74 17.6562C102.33 16.8424 102.125 15.9505 102.125 14.9804C102.125 14.0169 102.33 13.1282 102.74 12.3144C103.157 11.5006 103.723 10.8561 104.439 10.3808C105.162 9.89903 105.963 9.65814 106.842 9.65814C107.662 9.65814 108.388 9.83718 109.019 10.1953C109.657 10.5468 110.139 11.0351 110.465 11.6601V9.96088H112.711V19.9999H110.465V18.3105C110.139 18.9355 109.657 19.4238 109.019 19.7753C108.388 20.1269 107.665 20.3027 106.851 20.3027ZM107.418 18.1152C107.958 18.1152 108.453 17.9785 108.902 17.705C109.358 17.4251 109.716 17.0475 109.976 16.5722C110.237 16.0904 110.367 15.5598 110.367 14.9804C110.367 14.4075 110.233 13.8834 109.967 13.4081C109.706 12.9264 109.351 12.5455 108.902 12.2656C108.453 11.9856 107.958 11.8456 107.418 11.8456C106.877 11.8456 106.383 11.9791 105.933 12.246C105.484 12.5064 105.126 12.8743 104.859 13.3495C104.599 13.8248 104.469 14.3684 104.469 14.9804C104.469 15.6119 104.602 16.1653 104.869 16.6406C105.136 17.1158 105.494 17.4804 105.943 17.7343C106.392 17.9882 106.884 18.1152 107.418 18.1152ZM122.047 19.9999L119.439 15.4785L117.857 17.207V19.9999H115.494V6.24994H117.857V14.6679L121.392 9.96088H124.273L121.158 13.9355L124.703 19.9999H122.047ZM127.359 8.39838C126.916 8.39838 126.562 8.27142 126.295 8.01752C126.034 7.7571 125.904 7.43158 125.904 7.04095C125.904 6.65684 126.034 6.33783 126.295 6.08392C126.562 5.82351 126.92 5.6933 127.369 5.6933C127.825 5.6933 128.186 5.82351 128.453 6.08392C128.72 6.33783 128.853 6.65684 128.853 7.04095C128.853 7.43809 128.72 7.76361 128.453 8.01752C128.186 8.27142 127.821 8.39838 127.359 8.39838ZM126.197 9.96088H128.56V19.9999H126.197V9.96088ZM133.58 9.96088V11.5234C133.873 10.9635 134.325 10.5143 134.937 10.1757C135.556 9.83067 136.246 9.65814 137.008 9.65814C138.342 9.65814 139.348 10.0813 140.025 10.9277C140.702 11.774 141.041 12.9947 141.041 14.5898V19.9999H138.677V14.6386C138.677 13.6751 138.476 12.9687 138.072 12.5195C137.668 12.0637 137.095 11.8359 136.353 11.8359C135.878 11.8359 135.439 11.9563 135.035 12.1972C134.631 12.4316 134.306 12.7799 134.058 13.2421C133.817 13.6979 133.697 14.2415 133.697 14.873V19.9999H131.334V9.96088H133.58ZM148.336 23.8085C147.248 23.8085 146.34 23.6295 145.611 23.2714C144.888 22.9134 144.351 22.4446 144 21.8652C143.648 21.2923 143.459 20.6673 143.433 19.9902H145.66C145.771 20.5631 146.031 21.0091 146.441 21.3281C146.858 21.6536 147.486 21.8163 148.326 21.8163C149.023 21.8163 149.595 21.6829 150.045 21.416C150.5 21.1555 150.832 20.804 151.041 20.3613C151.249 19.9251 151.353 19.4303 151.353 18.8769V17.8515C151.021 18.4895 150.552 18.968 149.947 19.287C149.342 19.5995 148.651 19.7558 147.877 19.7558C146.946 19.7558 146.109 19.5344 145.367 19.0917C144.631 18.6425 144.055 18.037 143.638 17.2753C143.228 16.5136 143.023 15.6803 143.023 14.7753C143.023 13.8704 143.228 13.0273 143.638 12.246C144.049 11.4583 144.618 10.83 145.347 10.3613C146.077 9.89252 146.894 9.65814 147.799 9.65814C148.372 9.65814 148.896 9.75254 149.371 9.94135C149.846 10.1236 150.25 10.3678 150.582 10.6738C150.92 10.9732 151.181 11.3053 151.363 11.6699V9.96088H153.609V18.8476C153.609 19.7981 153.404 20.6477 152.994 21.3964C152.584 22.1451 151.982 22.7343 151.187 23.164C150.393 23.5937 149.442 23.8085 148.336 23.8085ZM148.316 17.705C148.857 17.705 149.351 17.5716 149.801 17.3046C150.25 17.0377 150.605 16.6796 150.865 16.2304C151.132 15.7812 151.265 15.2929 151.265 14.7656C151.265 14.2512 151.135 13.7695 150.875 13.3203C150.614 12.871 150.256 12.513 149.801 12.246C149.351 11.9791 148.857 11.8456 148.316 11.8456C147.769 11.8456 147.271 11.9693 146.822 12.2167C146.373 12.4641 146.018 12.8092 145.758 13.2519C145.497 13.6946 145.367 14.1992 145.367 14.7656C145.367 15.3189 145.497 15.8203 145.758 16.2695C146.018 16.7187 146.373 17.0703 146.822 17.3242C147.271 17.5781 147.769 17.705 148.316 17.705Z" fill="white"/>
<defs>
<linearGradient id="main-logo" x1="0.730076" y1="16.3122" x2="5.97185" y2="16.3122" gradientUnits="userSpaceOnUse">
<stop stop-color="#1955B9"/>
<stop offset="1" stop-color="#1E6FF6"/>
</linearGradient>
<linearGradient id="main-logo-second" x1="16.9089" y1="-2.27515" x2="12.6012" y2="30.8872" gradientUnits="userSpaceOnUse">
<stop stop-color="#1E6FF6"/>
<stop offset="1" stop-color="#1750AF"/>
</linearGradient>
</defs>
</svg>
