<svg width="21" height="21" viewBox="0 0 21 21" fill="none" xmlns="http://www.w3.org/2000/svg">
<path d="M19.25 11.375V7.875C19.25 3.5 17.5 1.75 13.125 1.75H7.875C3.5 1.75 1.75 3.5 1.75 7.875V13.125C1.75 17.5 3.5 19.25 7.875 19.25H11.375"  stroke-width="1.5" stroke-linecap="round" stroke-linejoin="round"/>
<path d="M6.41382 12.6788L8.49632 9.97504C8.79382 9.59004 9.34508 9.52004 9.73008 9.81754L11.3313 11.0775C11.7163 11.375 12.2676 11.305 12.5651 10.9288L14.5863 8.32129"  stroke-width="1.5" stroke-linecap="round" stroke-linejoin="round"/>
<path d="M17.0451 13.8423L17.2901 14.341C17.4126 14.586 17.7188 14.8135 17.9901 14.866L18.3226 14.9185C19.3201 15.0848 19.5563 15.8198 18.8388 16.546L18.5326 16.8523C18.3313 17.0623 18.2176 17.4648 18.2788 17.7448L18.3226 17.9285C18.5938 19.136 17.9551 19.5998 16.9051 18.9698L16.6776 18.8385C16.4063 18.681 15.9688 18.681 15.6976 18.8385L15.4701 18.9698C14.4113 19.6085 13.7726 19.136 14.0526 17.9285L14.0963 17.7448C14.1575 17.4648 14.0438 17.0623 13.8426 16.8523L13.5363 16.546C12.8188 15.8198 13.0551 15.0848 14.0526 14.9185L14.3851 14.866C14.6476 14.8223 14.9626 14.586 15.0851 14.341L15.3301 13.8423C15.8026 12.8885 16.5726 12.8885 17.0451 13.8423Z"  stroke-width="1.5" stroke-linecap="round" stroke-linejoin="round"/>
</svg>
