<svg width="21" height="21" viewBox="0 0 21 21" fill="none" xmlns="http://www.w3.org/2000/svg">
<path d="M16.625 7.875C16.625 9.14375 16.2487 10.3075 15.6012 11.2788C14.6562 12.6788 13.16 13.6675 11.4188 13.9213C11.1213 13.9738 10.815 14 10.5 14C10.185 14 9.87875 13.9738 9.58125 13.9213C7.84 13.6675 6.34375 12.6788 5.39875 11.2788C4.75125 10.3075 4.375 9.14375 4.375 7.875C4.375 4.48875 7.11375 1.75 10.5 1.75C13.8862 1.75 16.625 4.48875 16.625 7.875Z"  stroke-width="1.3" stroke-linecap="round" stroke-linejoin="round"/>
<path d="M18.5937 16.1614L17.1499 16.5026C16.8262 16.5813 16.5724 16.8264 16.5024 17.1501L16.1962 18.4364C16.0299 19.1364 15.1374 19.3464 14.6737 18.7951L10.4999 14.0001L6.3262 18.8038C5.86245 19.3551 4.96995 19.1451 4.8037 18.4451L4.49745 17.1588C4.4187 16.8351 4.16495 16.5813 3.84995 16.5113L2.4062 16.1701C1.7412 16.0126 1.50495 15.1813 1.9862 14.7001L5.3987 11.2876C6.3437 12.6876 7.83995 13.6764 9.5812 13.9301C9.8787 13.9826 10.1849 14.0089 10.4999 14.0089C10.8149 14.0089 11.1212 13.9826 11.4187 13.9301C13.1599 13.6764 14.6562 12.6876 15.6012 11.2876L19.0137 14.7001C19.4949 15.1726 19.2587 16.0039 18.5937 16.1614Z"  stroke-width="1.3" stroke-linecap="round" stroke-linejoin="round"/>
<path d="M11.0075 5.2325L11.5237 6.26499C11.5937 6.40499 11.7775 6.545 11.9437 6.57125L12.88 6.72874C13.475 6.82499 13.615 7.2625 13.1862 7.69125L12.46 8.41749C12.3375 8.53999 12.2675 8.77625 12.3112 8.95125L12.5212 9.8525C12.6875 10.5612 12.3112 10.8412 11.6812 10.465L10.8062 9.94874C10.6487 9.85249 10.3862 9.85249 10.2287 9.94874L9.35373 10.465C8.72373 10.8325 8.34748 10.5612 8.51373 9.8525L8.72373 8.95125C8.75873 8.785 8.69748 8.53999 8.57498 8.41749L7.84873 7.69125C7.41998 7.2625 7.55998 6.83374 8.15498 6.72874L9.09123 6.57125C9.24873 6.545 9.43248 6.40499 9.50248 6.26499L10.0187 5.2325C10.2725 4.6725 10.7275 4.6725 11.0075 5.2325Z"  stroke-width="1.3" stroke-linecap="round" stroke-linejoin="round"/>
</svg>
