<svg width="42" height="47" viewBox="0 0 42 47" fill="none" xmlns="http://www.w3.org/2000/svg">
<path d="M8.4707 16.7986V28.6609V33.5976V46.494H18.232V33.5976H25.0776C34.2353 33.5976 41.6846 26.0615 41.6846 16.7986C41.6846 7.53569 34.2353 -7.62939e-06 25.0776 -7.62939e-06C15.9208 -7.62939e-06 8.4707 7.53569 8.4707 16.7986ZM18.232 16.7986C18.232 12.9804 21.303 9.87355 25.0776 9.87355C28.8522 9.87355 31.9241 12.9804 31.9241 16.7986C31.9241 20.6172 28.8522 23.7233 25.0776 23.7233H18.232V16.7986Z" fill="url(#paint0_linear_35_23198)"/>
<path d="M0 28.661C0 25.9319 2.21241 23.7195 4.94155 23.7195H8.46762V33.6026H4.94155C2.21241 33.6026 0 31.3902 0 28.661Z" fill="url(#paint1_linear_35_23198)"/>
<defs>
<linearGradient id="paint0_linear_35_23198" x1="27.7466" y1="-3.99728" x2="20.0987" y2="54.2478" gradientUnits="userSpaceOnUse">
<stop stop-color="white"/>
<stop offset="1" stop-color="white" stop-opacity="0.4"/>
</linearGradient>
<linearGradient id="paint1_linear_35_23198" x1="9.76779" y1="28.9905" x2="-4.56203" y2="28.9905" gradientUnits="userSpaceOnUse">
<stop stop-color="white"/>
<stop offset="1" stop-color="white" stop-opacity="0"/>
</linearGradient>
</defs>
</svg>
