<svg width="132" height="159" viewBox="0 0 132 159" fill="none" xmlns="http://www.w3.org/2000/svg">
<circle opacity="0.1" cx="79.2677" cy="79.1447" r="79.1027" fill="white"/>
<circle opacity="0.4" cx="78.9959" cy="79.4163" r="61.9774" fill="white"/>
<path d="M59.6484 69.5187V87.8672V95.5035V115.452H74.9215V95.5035H85.6326C99.9611 95.5035 111.617 83.8466 111.617 69.5187C111.617 55.1908 99.9611 43.5345 85.6326 43.5345C71.3053 43.5345 59.6484 55.1908 59.6484 69.5187ZM74.9215 69.5187C74.9215 63.6127 79.7266 58.807 85.6326 58.807C91.5385 58.807 96.3449 63.6127 96.3449 69.5187C96.3449 75.4253 91.5385 80.2298 85.6326 80.2298H74.9215V69.5187Z" fill="url(#paint0_linear_35_31000)"/>
<path d="M46.3955 87.8682C46.3955 83.6468 49.8177 80.2246 54.0391 80.2246H59.6444V95.5118H54.0391C49.8177 95.5118 46.3955 92.0897 46.3955 87.8682Z" fill="url(#paint1_linear_35_31000)"/>
<defs>
<linearGradient id="paint0_linear_35_31000" x1="89.8086" y1="37.3515" x2="78.1092" y2="127.48" gradientUnits="userSpaceOnUse">
<stop stop-color="white"/>
<stop offset="1" stop-color="white" stop-opacity="0.4"/>
</linearGradient>
<linearGradient id="paint1_linear_35_31000" x1="61.6787" y1="88.3778" x2="39.2575" y2="88.3778" gradientUnits="userSpaceOnUse">
<stop stop-color="white"/>
<stop offset="1" stop-color="white" stop-opacity="0"/>
</linearGradient>
</defs>
</svg>
