<svg width="21" height="21" viewBox="0 0 21 21" fill="none" xmlns="http://www.w3.org/2000/svg">
<path d="M10.6402 9.51125C10.5527 9.5025 10.4477 9.5025 10.3515 9.51125C8.26898 9.44125 6.61523 7.735 6.61523 5.635C6.61523 3.49125 8.34773 1.75 10.5002 1.75C12.644 1.75 14.3852 3.49125 14.3852 5.635C14.3765 7.735 12.7227 9.44125 10.6402 9.51125Z"  stroke-width="1.3" stroke-linecap="round" stroke-linejoin="round"/>
<path d="M6.26488 12.74C4.14738 14.1575 4.14738 16.4675 6.26488 17.8762C8.67113 19.4862 12.6174 19.4862 15.0236 17.8762C17.1411 16.4587 17.1411 14.1488 15.0236 12.74C12.6261 11.1388 8.67988 11.1388 6.26488 12.74Z"  stroke-width="1.3" stroke-linecap="round" stroke-linejoin="round"/>
</svg>
