<svg width="28" height="28" viewBox="0 0 28 28" fill="none" xmlns="http://www.w3.org/2000/svg">
<path opacity="0.2" fill-rule="evenodd" clip-rule="evenodd" d="M14 28C6.3 28 0 21.7001 0 13.9303C0.07 6.23045 6.3 -0.0694208 14.07 0.000577738C21.77 0.0705763 28 6.30045 28 14.1403C27.93 21.7701 21.7 28 14 28Z" fill="#ECBF08"/>
<path d="M7.25 18.4844L9.16249 18.4919C9.84499 18.4919 10.4825 18.1544 10.8575 17.5919L15.65 10.407C16.025 9.84446 16.6625 9.49946 17.345 9.50696L20.7575 9.52197" stroke="#ECBF08" stroke-width="1.5" stroke-linecap="round" stroke-linejoin="round"/>
<path d="M19.25 19.9854L20.75 18.4854" stroke="#ECBF08" stroke-width="1.5" stroke-linecap="round" stroke-linejoin="round"/>
<path d="M11.6675 11.4651L10.8575 10.3401C10.475 9.80763 9.85999 9.49263 9.20749 9.50013L7.25 9.50764" stroke="#ECBF08" stroke-width="1.5" stroke-linecap="round" stroke-linejoin="round"/>
<path d="M14.7275 16.5352L15.6425 17.7127C16.025 18.2077 16.625 18.5002 17.255 18.5002L20.7575 18.4851" stroke="#ECBF08" stroke-width="1.5" stroke-linecap="round" stroke-linejoin="round"/>
<path d="M20.75 9.51465L19.25 8.01465" stroke="#ECBF08" stroke-width="1.5" stroke-linecap="round" stroke-linejoin="round"/>
</svg>
