<svg width="97" height="46" viewBox="0 0 97 46" fill="none" xmlns="http://www.w3.org/2000/svg">
<path d="M41.468 36.0208L13.3012 9.48976e-05L0.000174659 14.4699L35.6816 40.3265L41.468 36.0208Z" fill="url(#paint0_linear_122_34901)"/>
<path d="M8.78005 10.7544L8.00258 10.0505L8.38485 9.62591L9.16624 10.3255L9.89156 9.51998L10.3335 9.91793L9.6082 10.7235L10.3985 11.4351L10.0123 11.864L9.22202 11.1524L8.49473 11.9601L8.05276 11.5622L8.78005 10.7544ZM10.594 14.5718C10.3182 14.3235 10.146 14.0448 10.0772 13.7359C10.0113 13.4268 10.0349 13.113 10.1482 12.7945C10.263 12.4773 10.4484 12.1765 10.7046 11.892C10.9686 11.5988 11.2564 11.3784 11.5682 11.2307C11.8813 11.0842 12.1944 11.0284 12.5074 11.0632C12.8232 11.0978 13.1131 11.234 13.3773 11.4719C13.6661 11.732 13.8416 12.0187 13.9036 12.3322C13.9672 12.6469 13.938 12.961 13.8161 13.2744C13.6957 13.5891 13.5087 13.8873 13.2552 14.1689C12.9964 14.4562 12.7125 14.6737 12.4036 14.8213C12.0974 14.9687 11.7864 15.0251 11.4706 14.9905C11.1577 14.9557 10.8654 14.8162 10.594 14.5718ZM11.0429 14.0732C11.191 14.2065 11.3593 14.2779 11.5479 14.2874C11.7379 14.2982 11.9332 14.2506 12.1337 14.1447C12.3357 14.04 12.5288 13.8854 12.713 13.6807C12.896 13.4775 13.0304 13.2713 13.1163 13.0622C13.2034 12.8515 13.2323 12.6516 13.2031 12.4622C13.1738 12.2729 13.0822 12.109 12.9284 11.9705C12.7832 11.8398 12.6156 11.7691 12.4256 11.7583C12.237 11.7488 12.0404 11.7978 11.8359 11.9053C11.6326 12.0114 11.4375 12.1682 11.2506 12.3758C11.0677 12.579 10.934 12.7858 10.8496 12.9963C10.768 13.2067 10.7417 13.4051 10.7708 13.5917C10.8027 13.7781 10.8934 13.9386 11.0429 14.0732ZM12.6066 16.3603C12.5471 16.3067 12.5059 16.2459 12.483 16.178C12.46 16.11 12.4551 16.0425 12.4682 15.9755C12.4826 15.9069 12.5133 15.8465 12.5604 15.7943C12.6074 15.742 12.6629 15.7053 12.7268 15.6839C12.7934 15.6625 12.8617 15.6596 12.9317 15.6753C13.0031 15.6923 13.0693 15.7282 13.1302 15.7831C13.1898 15.8367 13.231 15.8974 13.2539 15.9654C13.2783 16.0346 13.2833 16.1035 13.2689 16.1721C13.2558 16.2391 13.2257 16.2988 13.1787 16.351C13.1042 16.4338 13.0131 16.4766 12.9054 16.4795C12.7976 16.4823 12.6981 16.4426 12.6066 16.3603ZM14.6044 18.1827C14.3286 17.9344 14.1564 17.6558 14.0876 17.3468C14.0216 17.0378 14.0453 16.724 14.1586 16.4055C14.2734 16.0883 14.4588 15.7875 14.715 15.503C14.979 15.2098 15.2668 14.9893 15.5785 14.8416C15.8917 14.6952 16.2048 14.6394 16.5178 14.6741C16.8335 14.7088 17.1235 14.845 17.3876 15.0829C17.6765 15.3429 17.8519 15.6297 17.914 15.9431C17.9775 16.2579 17.9483 16.572 17.8265 16.8854C17.7061 17.2001 17.5191 17.4982 17.2655 17.7798C17.0068 18.0672 16.7229 18.2847 16.4139 18.4323C16.1077 18.5797 15.7968 18.6361 15.481 18.6015C15.168 18.5667 14.8758 18.4271 14.6044 18.1827ZM15.0533 17.6842C15.2014 17.8175 15.3697 17.8888 15.5583 17.8983C15.7483 17.9091 15.9436 17.8615 16.1441 17.7556C16.346 17.651 16.5391 17.4963 16.7234 17.2917C16.9064 17.0885 17.0408 16.8823 17.1266 16.6731C17.2138 16.4625 17.2427 16.2625 17.2134 16.0732C17.1842 15.8839 17.0926 15.72 16.9387 15.5814C16.7936 15.4507 16.626 15.38 16.436 15.3692C16.2474 15.3597 16.0508 15.4088 15.8462 15.5163C15.643 15.6224 15.4479 15.7792 15.261 15.9867C15.078 16.19 14.9444 16.3968 14.86 16.6073C14.7783 16.8176 14.7521 17.0161 14.7812 17.2026C14.8131 17.389 14.9038 17.5495 15.0533 17.6842ZM17.4347 20.7312C17.159 20.4829 16.9867 20.2042 16.918 19.8953C16.852 19.5862 16.8756 19.2724 16.9889 18.9539C17.1037 18.6367 17.2891 18.3359 17.5453 18.0514C17.8093 17.7582 18.0972 17.5378 18.4089 17.3901C18.722 17.2436 19.0351 17.1878 19.3481 17.2226C19.6639 17.2572 19.9538 17.3934 20.218 17.6313C20.5068 17.8914 20.6823 18.1781 20.7443 18.4916C20.8079 18.8063 20.7787 19.1204 20.6568 19.4338C20.5364 19.7485 20.3494 20.0467 20.0959 20.3283C19.8371 20.6156 19.5532 20.8331 19.2443 20.9807C18.9381 21.1281 18.6271 21.1845 18.3113 21.1499C17.9984 21.1151 17.7062 20.9756 17.4347 20.7312ZM17.8837 20.2326C18.0317 20.3659 18.2 20.4373 18.3886 20.4468C18.5786 20.4576 18.7739 20.41 18.9744 20.3041C19.1764 20.1994 19.3695 20.0448 19.5538 19.8401C19.7367 19.6369 19.8711 19.4307 19.957 19.2216C20.0441 19.0109 20.0731 18.811 20.0438 18.6216C20.0145 18.4323 19.9229 18.2684 19.7691 18.1299C19.6239 17.9992 19.4563 17.9285 19.2663 17.9177C19.0777 17.9082 18.8811 17.9572 18.6766 18.0647C18.4733 18.1708 18.2782 18.3276 18.0913 18.5352C17.9084 18.7384 17.7747 18.9452 17.6903 19.1557C17.6087 19.3661 17.5824 19.5645 17.6116 19.7511C17.6435 19.9375 17.7342 20.098 17.8837 20.2326ZM21.7233 20.0314L21.0058 19.7599L21.4329 19.2811L22.2754 19.6021L22.7261 20.0079L20.058 22.971L19.5159 22.4829L21.7233 20.0314ZM24.7078 22.6713L23.826 21.8774L24.2612 21.394L26.5647 23.4681L26.1295 23.9514L25.2477 23.1575L23.0168 25.6351L22.4769 25.1489L24.7078 22.6713ZM28.289 25.0207C28.4864 25.1984 28.6261 25.3978 28.7083 25.619C28.7931 25.8399 28.8131 26.0629 28.7682 26.2879C28.7261 26.5128 28.6194 26.7203 28.4482 26.9105C28.2626 27.1166 28.0468 27.2468 27.8007 27.3012C27.5546 27.3556 27.3107 27.3317 27.0688 27.2296L26.718 28.9677L26.0954 28.407L26.4566 26.8281C26.4291 26.8061 26.39 26.7721 26.3392 26.7264L25.8319 26.2696L24.887 27.319L24.3449 26.8309L27.011 23.87L28.289 25.0207ZM26.9599 26.4574C27.0557 26.5436 27.1603 26.5997 27.2736 26.6256C27.3885 26.6527 27.501 26.6489 27.6112 26.6141C27.7228 26.5806 27.8211 26.5167 27.9061 26.4223C27.9858 26.3338 28.0358 26.233 28.0562 26.1199C28.0793 26.0067 28.0706 25.8937 28.0301 25.781C27.9924 25.6682 27.9264 25.5694 27.832 25.4844L27.1179 24.8414L26.2436 25.8124L26.9599 26.4574ZM29.3594 28.543L29.6149 26.2145L30.255 26.7909L30.0379 28.468L31.6854 28.0788L32.3233 28.6532L30.0365 29.1527L29.7509 31.6985L29.1108 31.1221L29.3577 29.2235L27.4975 29.6695L26.8574 29.0932L29.3594 28.543Z" fill="white"/>
<path d="M55.0461 36.0208L83.213 9.48976e-05L96.514 14.4699L60.8325 40.3265L55.0461 36.0208Z" fill="url(#paint1_linear_122_34901)"/>
<path d="M64.7745 28.2985L63.8927 29.0924L63.4575 28.6091L65.761 26.535L66.1962 27.0184L65.3144 27.8123L67.5453 30.29L67.0053 30.7761L64.7745 28.2985ZM67.4853 24.9825C67.6827 24.8047 67.8956 24.6866 68.1241 24.628C68.3528 24.5667 68.5766 24.5701 68.7957 24.6383C69.0149 24.7037 69.2101 24.8315 69.3814 25.0217C69.5669 25.2278 69.6739 25.456 69.7023 25.7065C69.7306 25.9569 69.6814 26.197 69.5546 26.4268L71.2465 26.9574L70.6238 27.518L69.0913 26.9938C69.0665 27.0188 69.0287 27.0541 68.9779 27.0999L68.4706 27.5566L69.4155 28.606L68.8734 29.0941L66.2073 26.1332L67.4853 24.9825ZM68.7752 26.4545C68.871 26.3682 68.9377 26.27 68.9753 26.16C69.0143 26.0486 69.0222 25.9363 68.9991 25.8231C68.9775 25.7086 68.9242 25.6041 68.8392 25.5098C68.7595 25.4212 68.6645 25.3609 68.5541 25.3289C68.4439 25.2941 68.3307 25.2909 68.2144 25.3194C68.0983 25.3451 67.9931 25.4004 67.8987 25.4854L67.1846 26.1284L68.0589 27.0994L68.7752 26.4545ZM71.1002 24.2861L68.8112 23.7886L69.4513 23.2123L71.0966 23.6034L70.8817 21.9243L71.5196 21.3499L71.7773 23.6764L74.2793 24.2266L73.6392 24.8029L71.7768 24.3589L72.0259 26.2556L71.3858 26.8319L71.1002 24.2861ZM73.8115 20.2088L73.4665 20.8939L73.035 20.4191L73.4423 19.6148L73.893 19.209L76.561 22.1722L76.0189 22.6603L73.8115 20.2088ZM78.3918 20.6459C78.116 20.8942 77.8209 21.0364 77.5065 21.0725C77.1922 21.1058 76.8826 21.0495 76.5777 20.9035C76.2742 20.7562 75.9944 20.5403 75.7383 20.2558C75.4743 19.9626 75.2851 19.6533 75.1708 19.3279C75.0579 19.0011 75.0351 18.6839 75.1024 18.3763C75.1699 18.0659 75.3357 17.7917 75.5998 17.5539C75.8887 17.2938 76.1922 17.1493 76.5104 17.1203C76.8301 17.0901 77.1394 17.1519 77.4383 17.3059C77.7387 17.4585 78.0157 17.6756 78.2693 17.9572C78.528 18.2446 78.7146 18.5497 78.8291 18.8724C78.9437 19.1923 78.9673 19.5075 78.8999 19.8179C78.8326 20.1255 78.6632 20.4015 78.3918 20.6459ZM77.9429 20.1473C78.0909 20.014 78.1795 19.8541 78.2087 19.6675C78.2393 19.4797 78.2124 19.2805 78.128 19.07C78.045 18.8582 77.9114 18.65 77.7271 18.4453C77.5442 18.2421 77.3532 18.0869 77.1541 17.9797C76.9537 17.871 76.7579 17.8213 76.5665 17.8306C76.3752 17.84 76.2026 17.9139 76.0488 18.0524C75.9036 18.1831 75.8157 18.3424 75.7852 18.5303C75.756 18.7168 75.7842 18.9175 75.8698 19.1321C75.954 19.3454 76.0896 19.5558 76.2765 19.7633C76.4594 19.9666 76.6512 20.1211 76.8517 20.2271C77.0523 20.3302 77.247 20.3771 77.4355 20.3676C77.6243 20.3554 77.7934 20.2819 77.9429 20.1473ZM81.2221 18.0975C80.9464 18.3458 80.6513 18.488 80.3368 18.524C80.0225 18.5573 79.7129 18.501 79.408 18.355C79.1046 18.2078 78.8248 17.9919 78.5686 17.7074C78.3046 17.4142 78.1155 17.1049 78.0011 16.7794C77.8883 16.4526 77.8655 16.1354 77.9328 15.8278C78.0002 15.5174 78.166 15.2433 78.4302 15.0054C78.719 14.7454 79.0225 14.6008 79.3408 14.5719C79.6604 14.5416 79.9697 14.6035 80.2687 14.7574C80.5691 14.9101 80.8461 15.1272 81.0996 15.4088C81.3584 15.6962 81.545 16.0012 81.6594 16.3239C81.7741 16.6438 81.7976 16.959 81.7302 17.2694C81.6629 17.5771 81.4936 17.8531 81.2221 18.0975ZM80.7732 17.5989C80.9213 17.4656 81.0099 17.3056 81.039 17.1191C81.0696 16.9312 81.0427 16.7321 80.9583 16.5216C80.8754 16.3098 80.7417 16.1016 80.5575 15.8969C80.3745 15.6937 80.1835 15.5385 79.9844 15.4312C79.7841 15.3225 79.5882 15.2729 79.3969 15.2822C79.2055 15.2915 79.0329 15.3655 78.8791 15.504C78.7339 15.6347 78.6461 15.794 78.6155 15.9818C78.5864 16.1684 78.6146 16.369 78.7001 16.5837C78.7844 16.7969 78.9199 17.0073 79.1068 17.2149C79.2898 17.4181 79.4815 17.5727 79.682 17.6786C79.8827 17.7818 80.0773 17.8286 80.2659 17.8192C80.4546 17.8069 80.6237 17.7335 80.7732 17.5989ZM83.2112 16.2828C83.1517 16.3364 83.087 16.3711 83.017 16.3868C82.947 16.4024 82.8794 16.4003 82.814 16.3803C82.7474 16.3588 82.6905 16.3219 82.6435 16.2697C82.5964 16.2174 82.5657 16.1584 82.5511 16.0927C82.5367 16.0241 82.541 15.9559 82.5639 15.888C82.5883 15.8187 82.631 15.7566 82.6919 15.7017C82.7514 15.6482 82.8162 15.6135 82.8862 15.5978C82.9576 15.5808 83.0266 15.5831 83.0932 15.6045C83.1586 15.6246 83.2148 15.6607 83.2618 15.7129C83.3363 15.7957 83.3694 15.8908 83.361 15.9982C83.3526 16.1056 83.3026 16.2005 83.2112 16.2828ZM85.2325 14.4865C84.9567 14.7348 84.6616 14.877 84.3472 14.9131C84.0329 14.9464 83.7233 14.8901 83.4184 14.7441C83.1149 14.5968 82.8351 14.3809 82.579 14.0964C82.315 13.8032 82.1258 13.4939 82.0115 13.1685C81.8986 12.8417 81.8758 12.5245 81.9431 12.2169C82.0106 11.9065 82.1764 11.6323 82.4405 11.3945C82.7294 11.1344 83.0329 10.9899 83.3511 10.9609C83.6708 10.9307 83.9801 10.9925 84.2791 11.1465C84.5795 11.2991 84.8564 11.5162 85.11 11.7978C85.3687 12.0852 85.5553 12.3903 85.6698 12.713C85.7844 13.0329 85.808 13.3481 85.7406 13.6585C85.6733 13.9661 85.5039 14.2421 85.2325 14.4865ZM84.7836 13.9879C84.9316 13.8546 85.0202 13.6947 85.0494 13.5081C85.08 13.3203 85.0531 13.1211 84.9687 12.9106C84.8857 12.6988 84.7521 12.4906 84.5678 12.2859C84.3849 12.0827 84.1939 11.9275 83.9948 11.8203C83.7944 11.7116 83.5986 11.6619 83.4073 11.6712C83.2159 11.6806 83.0433 11.7545 82.8895 11.893C82.7443 12.0237 82.6564 12.183 82.6259 12.3709C82.5967 12.5574 82.6249 12.7581 82.7105 12.9727C82.7947 13.186 82.9303 13.3964 83.1172 13.604C83.3002 13.8072 83.4919 13.9617 83.6924 14.0677C83.8931 14.1708 84.0877 14.2177 84.2763 14.2082C84.465 14.196 84.6341 14.1225 84.7836 13.9879ZM86.5936 11.0769L85.8122 11.7765L85.43 11.352L86.2074 10.648L85.4821 9.84246L85.9241 9.44451L86.6494 10.2501L87.4397 9.53846L87.8259 9.96736L87.0356 10.679L87.7629 11.4867L87.3209 11.8847L86.5936 11.0769Z" fill="white"/>
<circle cx="48" cy="41.002" r="4" fill="#D72F33"/>
<circle opacity="0.2" cx="48" cy="28.502" r="6" fill="#D72F33"/>
<g filter="url(#filter0_d_122_34901)">
<circle cx="48" cy="11" r="9" fill="#D72F33"/>
</g>
<path fill-rule="evenodd" clip-rule="evenodd" d="M51.8466 9.14608L51.8466 9.14605L51.8466 9.14604C51.5489 8.85698 51.2343 8.55153 50.9566 8.3051L50.9285 8.28541C50.8817 8.24784 50.8289 8.21837 50.7724 8.19823L50.5582 8.15826C49.0797 7.88238 44.287 6.98813 44.1884 7.00012C44.1593 7.0042 44.1314 7.01477 44.1069 7.03106L44.0802 7.05215C44.0473 7.08556 44.0223 7.12593 44.007 7.17027L44 7.18855V7.2884V7.30387C44.3254 8.20989 45.1706 10.2332 45.951 12.1015L45.951 12.1015C46.6109 13.681 47.2244 15.1496 47.4382 15.7384L47.4383 15.7387C47.4665 15.8259 47.5199 15.9916 47.6196 16H47.6421C47.6956 16 47.9234 15.6991 47.9234 15.6991C47.9234 15.6991 51.9958 10.7604 52.4079 10.2345C52.4612 10.1697 52.5083 10.1 52.5485 10.0263C52.5694 9.90911 52.5272 9.78953 52.4374 9.71133C52.262 9.54935 52.0586 9.35187 51.8466 9.14608ZM48.9682 10.2865L50.7063 8.84515L51.7258 9.78452L48.9682 10.2865ZM45.3008 7.73993L48.2932 10.1924L50.1424 8.63289L45.3008 7.73993ZM48.5632 10.8349L51.626 10.3413L48.1245 14.56L48.5632 10.8349ZM48.0431 10.6565L44.8945 7.98468L47.5875 14.563L48.0431 10.6565Z" fill="white"/>
<defs>
<filter id="filter0_d_122_34901" x="31" y="2" width="34" height="34" filterUnits="userSpaceOnUse" color-interpolation-filters="sRGB">
<feFlood flood-opacity="0" result="BackgroundImageFix"/>
<feColorMatrix in="SourceAlpha" type="matrix" values="0 0 0 0 0 0 0 0 0 0 0 0 0 0 0 0 0 0 127 0" result="hardAlpha"/>
<feOffset dy="8"/>
<feGaussianBlur stdDeviation="4"/>
<feComposite in2="hardAlpha" operator="out"/>
<feColorMatrix type="matrix" values="0 0 0 0 0.843137 0 0 0 0 0.184314 0 0 0 0 0.2 0 0 0 0.3 0"/>
<feBlend mode="normal" in2="BackgroundImageFix" result="effect1_dropShadow_122_34901"/>
<feBlend mode="normal" in="SourceGraphic" in2="effect1_dropShadow_122_34901" result="shape"/>
</filter>
<linearGradient id="paint0_linear_122_34901" x1="13.693" y1="-1.04739" x2="44.0037" y2="40.7109" gradientUnits="userSpaceOnUse">
<stop stop-color="#D72F33"/>
<stop offset="1" stop-color="#D72F33" stop-opacity="0"/>
</linearGradient>
<linearGradient id="paint1_linear_122_34901" x1="82.8212" y1="-1.04739" x2="52.5105" y2="40.7109" gradientUnits="userSpaceOnUse">
<stop stop-color="#D72F33"/>
<stop offset="1" stop-color="#D72F33" stop-opacity="0"/>
</linearGradient>
</defs>
</svg>
