<svg width="18" height="18" viewBox="0 0 18 18" fill="none" xmlns="http://www.w3.org/2000/svg">
<path d="M9 18C13.9706 18 18 13.9706 18 9C18 4.02944 13.9706 0 9 0C4.02944 0 0 4.02944 0 9C0 13.9706 4.02944 18 9 18Z" fill="#8DC351"/>
<path d="M11.9292 5.92554C11.4927 4.81629 10.3981 4.71616 9.12343 4.96366L8.66949 3.38135L7.70649 3.65754L8.14862 5.19879C7.89549 5.27079 7.63787 5.35066 7.38193 5.42941L6.93756 3.87804L5.97512 4.15366L6.42793 5.73597C6.22093 5.8001 6.0173 5.8631 5.81762 5.92047L5.81593 5.91485L4.4873 6.29566L4.78262 7.32504C4.78262 7.32504 5.49024 7.10679 5.4818 7.12366C5.87218 7.01172 6.06399 7.20185 6.1568 7.38691L6.6743 9.18916C6.70074 9.18185 6.73618 9.17285 6.7778 9.16666L6.67599 9.19591L7.39993 11.7215C7.41793 11.8492 7.40218 12.0658 7.12993 12.1445C7.14512 12.1518 6.42905 12.3448 6.42905 12.3448L6.56799 13.5502L7.82124 13.1902C8.05468 13.1244 8.28531 13.0625 8.51087 12.999L8.97043 14.5993L9.93231 14.3237L9.47837 12.7402C9.73638 12.6718 9.99365 12.6005 10.2501 12.5265L10.7012 14.1032L11.6648 13.827L11.2069 12.2295C12.7994 11.672 13.8158 10.9391 13.5205 9.3776C13.2831 8.12097 12.5507 7.7396 11.5681 7.78235C12.0451 7.33797 12.2504 6.73722 11.9292 5.9261V5.92554ZM11.5636 9.73366C11.9067 10.9301 9.81981 11.3812 9.16731 11.5691L8.55924 9.44847C9.21174 9.26116 11.2052 8.4866 11.563 9.73422L11.5636 9.73366ZM10.2574 6.87054C10.5691 7.95897 8.82474 8.32179 8.28081 8.4776L7.72956 6.55441C8.27293 6.3986 9.93174 5.73597 10.2574 6.8711V6.87054Z" fill="white"/>
</svg>
