<svg width="18" height="18" viewBox="0 0 18 18" fill="none" xmlns="http://www.w3.org/2000/svg">
<path d="M17.7306 11.1772C16.5284 15.9986 11.6446 18.9329 6.82201 17.7306C2.00144 16.5285 -0.933157 11.6449 0.269595 6.82378C1.47122 2.0018 6.35509 -0.932729 11.1762 0.269321C15.9985 1.47137 18.9328 6.35551 17.7306 11.1772Z" fill="#F7931A"/>
<path d="M12.9685 7.71754C13.1477 6.51999 12.2357 5.87622 10.9888 5.44675L11.3933 3.82452L10.4057 3.57843L10.012 5.15791C9.75233 5.09322 9.48567 5.0322 9.22071 4.97173L9.61731 3.38183L8.6303 3.13574L8.22554 4.75741C8.01064 4.70847 7.79968 4.66011 7.59491 4.6092L7.59603 4.60414L6.23408 4.2641L5.97137 5.31878C5.97137 5.31878 6.7041 5.48669 6.68863 5.49709C7.08861 5.59694 7.16089 5.86159 7.1488 6.0714L6.68806 7.91948C6.71563 7.92651 6.75136 7.93663 6.79074 7.95238C6.75783 7.94423 6.72267 7.93522 6.68638 7.92651L6.04056 10.5154C5.99161 10.6369 5.86758 10.8191 5.58798 10.7499C5.59783 10.7643 4.87016 10.5708 4.87016 10.5708L4.37988 11.7011L5.66505 12.0215C5.90414 12.0814 6.13844 12.1441 6.36909 12.2031L5.9604 13.8439L6.94684 14.09L7.3516 12.4667C7.62107 12.5398 7.88266 12.6073 8.13863 12.6709L7.73527 14.2866L8.72284 14.5327L9.13154 12.895C10.8156 13.2137 12.0819 13.0851 12.6149 11.5622C13.0444 10.336 12.5935 9.62862 11.7075 9.16737C12.3528 9.01859 12.8388 8.59419 12.9685 7.71754ZM10.7121 10.8813C10.4069 12.1075 8.34199 11.4446 7.67254 11.2784L8.21485 9.10465C8.8843 9.27171 11.031 9.60246 10.7121 10.8813ZM11.0175 7.69982C10.7391 8.81525 9.02043 8.24853 8.46294 8.1096L8.95462 6.13806C9.51212 6.277 11.3075 6.5363 11.0175 7.69982Z" fill="white"/>
</svg>
