<svg width="18" height="18" viewBox="0 0 18 18" fill="none" xmlns="http://www.w3.org/2000/svg">
<circle cx="9" cy="9" r="9" fill="#C2A633"/>
<path fill-rule="evenodd" clip-rule="evenodd" d="M6.024 13.708H9.13116H9.13125C9.13125 13.708 13.5001 14.08 13.5001 9.07575C13.5001 4.26549 9.51052 4.28255 8.73944 4.28585C8.72139 4.28593 8.7051 4.28599 8.69067 4.28599H6.02392V8.48309H4.92871V9.51115H6.024V13.708ZM7.77393 6.02765H8.99981C9.45831 6.02765 11.7651 6.21515 11.7688 9.10976C11.7724 11.9699 9.44667 11.9669 9.07254 11.9665C9.06803 11.9665 9.0638 11.9665 9.05987 11.9665H7.77393V9.51117H9.70258V8.4831H7.77393V6.02765Z" fill="white"/>
</svg>
