<svg width="21" height="21" viewBox="0 0 21 21" fill="none" xmlns="http://www.w3.org/2000/svg">
<path d="M1.75 8.7325V7.875C1.75 3.5 3.5 1.75 7.875 1.75H13.125C17.5 1.75 19.25 3.5 19.25 7.875V13.125C19.25 17.5 17.5 19.25 13.125 19.25H12.25" stroke-width="1.5" stroke-linecap="round" stroke-linejoin="round"/>
<path d="M11.375 9.62492L15.7587 5.23242H12.25" stroke-width="1.5" stroke-linecap="round" stroke-linejoin="round"/>
<path d="M15.7588 5.23242V8.74117" stroke-width="1.5" stroke-linecap="round" stroke-linejoin="round"/>
<path d="M9.625 14.1312V16.4938C9.625 18.4625 8.8375 19.25 6.86875 19.25H4.50625C2.5375 19.25 1.75 18.4625 1.75 16.4938V14.1312C1.75 12.1625 2.5375 11.375 4.50625 11.375H6.86875C8.8375 11.375 9.625 12.1625 9.625 14.1312Z" stroke-width="1.5" stroke-linecap="round" stroke-linejoin="round"/>
</svg>
