<svg width="36" height="36" viewBox="0 0 36 36" fill="none" xmlns="http://www.w3.org/2000/svg">
<path opacity="0.4" d="M25.5 11.625C25.215 11.625 24.93 11.52 24.705 11.295C24.27 10.86 24.27 10.14 24.705 9.705L27.78 6.63C25.14 4.38 21.735 3 18 3C9.72 3 3 9.72 3 18C3 26.28 9.72 33 18 33C26.28 33 33 26.28 33 18C33 14.265 31.62 10.86 29.37 8.22001L26.295 11.295C26.07 11.52 25.785 11.625 25.5 11.625Z" fill="#0085FF"/>
<path d="M20.625 17.73L19.125 17.205V13.875H19.245C20.01 13.875 20.625 14.55 20.625 15.375C20.625 15.99 21.135 16.5 21.75 16.5C22.365 16.5 22.875 15.99 22.875 15.375C22.875 13.305 21.255 11.625 19.245 11.625H19.125V11.25C19.125 10.635 18.615 10.125 18 10.125C17.385 10.125 16.875 10.635 16.875 11.25V11.625H16.425C14.61 11.625 13.125 13.155 13.125 15.045C13.125 17.235 14.4 17.94 15.375 18.285L16.875 18.81V22.14H16.755C15.99 22.14 15.375 21.465 15.375 20.64C15.375 20.025 14.865 19.515 14.25 19.515C13.635 19.515 13.125 20.025 13.125 20.64C13.125 22.71 14.745 24.39 16.755 24.39H16.875V24.765C16.875 25.38 17.385 25.89 18 25.89C18.615 25.89 19.125 25.38 19.125 24.765V24.39H19.575C21.39 24.39 22.875 22.86 22.875 20.97C22.875 18.765 21.6 18.06 20.625 17.73ZM16.11 16.14C15.6 15.96 15.375 15.855 15.375 15.03C15.375 14.385 15.855 13.86 16.425 13.86H16.875V16.395L16.11 16.14ZM19.575 22.125H19.125V19.59L19.89 19.86C20.4 20.04 20.625 20.145 20.625 20.97C20.625 21.6 20.145 22.125 19.575 22.125Z" fill="#1E6FF6"/>
<path d="M34.0349 2.56499C33.9149 2.29499 33.7049 2.06999 33.4199 1.94999C33.2849 1.88999 33.1349 1.85999 32.9849 1.85999H26.9849C26.3699 1.85999 25.8599 2.36999 25.8599 2.98499C25.8599 3.59999 26.3699 4.10999 26.9849 4.10999H30.2699L27.7649 6.61499C28.3349 7.10999 28.8599 7.63499 29.3549 8.20499L31.8599 5.69999V8.99999C31.8599 9.61499 32.3699 10.125 32.9849 10.125C33.5999 10.125 34.1099 9.61499 34.1099 8.99999V2.99999C34.1249 2.84999 34.0949 2.71499 34.0349 2.56499Z" fill="#1E6FF6"/>
</svg>
