<svg width="33" height="33" viewBox="0 0 33 33" fill="none" xmlns="http://www.w3.org/2000/svg">
<path fill-rule="evenodd" clip-rule="evenodd" d="M16.5 33C7.425 33 0 25.5752 0 16.4178C0.0825 7.34303 7.425 -0.0818174 16.5825 0.000680906C25.6575 0.0831792 33 7.42553 33 16.6653C32.9175 25.6577 25.575 33 16.5 33Z" fill="#FC070C"/>
<path fill-rule="evenodd" clip-rule="evenodd" d="M28.2568 13.009C27.8065 12.5932 27.2844 12.0863 26.7403 11.558L26.7403 11.558C25.9762 10.8161 25.1687 10.0321 24.4561 9.3996L24.3839 9.34907C24.2638 9.25262 24.1284 9.17698 23.9833 9.12529L23.4332 9.02266L23.4331 9.02264C19.6379 8.31451 7.33728 6.01934 7.08424 6.05011C7.0094 6.06059 6.93786 6.08773 6.8749 6.12952L6.80632 6.18366C6.72188 6.26942 6.65774 6.37302 6.61863 6.48684L6.60059 6.53377V6.79003V6.82973C7.43573 9.15522 9.60517 14.3486 11.6083 19.1438C13.3018 23.1979 14.8765 26.9674 15.4255 28.4787L15.4257 28.4793C15.4979 28.7033 15.6351 29.1284 15.8911 29.15H15.9488C16.086 29.15 16.6707 28.3776 16.6707 28.3776C16.6707 28.3776 27.1234 15.7016 28.181 14.3516C28.3179 14.1854 28.4387 14.0065 28.5419 13.8175C28.5955 13.5166 28.4872 13.2097 28.2568 13.009ZM19.3521 14.4853L23.8132 10.7857L26.43 13.1968L19.3521 14.4853ZM9.93906 7.94894L17.6198 14.2437L22.3661 10.2409L9.93906 7.94894ZM18.313 15.8928L26.1742 14.6259L17.1868 25.454L18.313 15.8928ZM16.9773 15.4348L8.89596 8.577L15.8079 25.4616L16.9773 15.4348Z" fill="white"/>
</svg>
