<svg width="26" height="26" viewBox="0 0 26 26" fill="none" xmlns="http://www.w3.org/2000/svg">
<path d="M19.652 23.4218C18.6986 23.7035 17.572 23.8335 16.2503 23.8335H9.7503C8.42863 23.8335 7.30197 23.7035 6.34863 23.4218C6.58697 20.6051 9.47947 18.3843 13.0003 18.3843C16.5211 18.3843 19.4136 20.6051 19.652 23.4218Z" stroke="white" stroke-width="1.5" stroke-linecap="round" stroke-linejoin="round"/>
<path d="M16.2503 2.1665H9.75033C4.33366 2.1665 2.16699 4.33317 2.16699 9.74984V16.2498C2.16699 20.3448 3.40199 22.5873 6.34866 23.4215C6.58699 20.6048 9.47949 18.384 13.0003 18.384C16.5212 18.384 19.4137 20.6048 19.652 23.4215C22.5987 22.5873 23.8337 20.3448 23.8337 16.2498V9.74984C23.8337 4.33317 21.667 2.1665 16.2503 2.1665ZM13.0003 15.3507C10.8553 15.3507 9.12199 13.6065 9.12199 11.4615C9.12199 9.31652 10.8553 7.58317 13.0003 7.58317C15.1453 7.58317 16.8787 9.31652 16.8787 11.4615C16.8787 13.6065 15.1453 15.3507 13.0003 15.3507Z" stroke="white" stroke-width="1.5" stroke-linecap="round" stroke-linejoin="round"/>
<path d="M16.8787 11.4618C16.8787 13.6068 15.1454 15.351 13.0004 15.351C10.8554 15.351 9.12207 13.6068 9.12207 11.4618C9.12207 9.31685 10.8554 7.5835 13.0004 7.5835C15.1454 7.5835 16.8787 9.31685 16.8787 11.4618Z" stroke="white" stroke-width="1.5" stroke-linecap="round" stroke-linejoin="round"/>
</svg>
