<svg width="22" height="21" viewBox="0 0 22 21" fill="none" xmlns="http://www.w3.org/2000/svg">
<path d="M15.9679 11.8562C15.6007 12.215 15.3908 12.7312 15.4433 13.2825C15.522 14.2275 16.3876 14.9187 17.332 14.9187H18.9933V15.96C18.9933 17.7712 17.5156 19.25 15.7056 19.25H6.86551C7.13657 19.0225 7.37266 18.7425 7.55628 18.4275C7.87981 17.9025 8.06343 17.2812 8.06343 16.625C8.06343 14.6912 6.49827 13.125 4.56586 13.125C3.74393 13.125 2.98321 13.4138 2.37988 13.895V10.0713C2.37988 8.26001 3.85761 6.78125 5.6676 6.78125H15.7056C17.5156 6.78125 18.9933 8.26001 18.9933 10.0713V11.3313H17.2271C16.7374 11.3313 16.2915 11.5237 15.9679 11.8562Z" stroke="white" stroke-width="1.3" stroke-linecap="round" stroke-linejoin="round"/>
<path d="M2.37988 10.8588V6.86006C2.37988 5.81881 3.01819 4.89127 3.98876 4.52377L10.9314 1.89877C12.0157 1.48752 13.1786 2.29255 13.1786 3.4563V6.78129" stroke="white" stroke-width="1.3" stroke-linecap="round" stroke-linejoin="round"/>
<path d="M19.9192 12.2239V14.0264C19.9192 14.5077 19.5345 14.9014 19.0448 14.9189H17.331C16.3866 14.9189 15.521 14.2277 15.4423 13.2827C15.3898 12.7314 15.5997 12.2151 15.9669 11.8564C16.2905 11.5239 16.7364 11.3314 17.2261 11.3314H19.0448C19.5345 11.3489 19.9192 11.7426 19.9192 12.2239Z" stroke="white" stroke-width="1.3" stroke-linecap="round" stroke-linejoin="round"/>
<path d="M6.3147 10.5H12.4354" stroke="white" stroke-width="1.3" stroke-linecap="round" stroke-linejoin="round"/>
<path d="M8.0635 16.625C8.0635 17.2812 7.87987 17.9025 7.55635 18.4275C7.37273 18.7425 7.13664 19.0225 6.86558 19.25C6.2535 19.8012 5.44906 20.125 4.56593 20.125C3.28932 20.125 2.17884 19.4425 1.57551 18.4275C1.25198 17.9025 1.06836 17.2812 1.06836 16.625C1.06836 15.5225 1.57551 14.5338 2.37995 13.895C2.98328 13.4138 3.744 13.125 4.56593 13.125C6.49834 13.125 8.0635 14.6912 8.0635 16.625Z" stroke="white" stroke-width="1.3" stroke-miterlimit="10" stroke-linecap="round" stroke-linejoin="round"/>
<path d="M5.87033 16.6071H3.26465" stroke="white" stroke-width="1.3" stroke-miterlimit="10" stroke-linecap="round" stroke-linejoin="round"/>
<path d="M4.56592 15.3296V17.9458" stroke="white" stroke-width="1.3" stroke-miterlimit="10" stroke-linecap="round" stroke-linejoin="round"/>
</svg>
