<svg width="32" height="32" viewBox="0 0 32 32" fill="none" xmlns="http://www.w3.org/2000/svg">
<g clip-path="url(#clip0_35_24645)">
<g clip-path="url(#clip1_35_24645)">
<path fill-rule="evenodd" clip-rule="evenodd" d="M12.9199 11.8202L14.0076 11.3053L12.2579 8.30246C12.2042 8.20986 12.1315 8.12966 12.0445 8.06713C11.9576 8.0046 11.8584 7.96117 11.7534 7.93967C11.6484 7.91818 11.5401 7.91911 11.4355 7.94242C11.331 7.96573 11.2325 8.01088 11.1467 8.0749L9.71392 9.14955L9.71527 9.16784L10.9739 11.2356C11.1686 11.556 11.4752 11.793 11.8346 11.9009C12.1939 12.0089 12.5806 11.9801 12.9199 11.8202ZM20.9451 15.6482L20.6624 14.4797L24.1013 13.9519C24.2069 13.9358 24.3148 13.9421 24.4178 13.9704C24.5208 13.9987 24.6167 14.0485 24.6992 14.1164C24.7816 14.1843 24.8488 14.2688 24.8963 14.3644C24.9438 14.46 24.9706 14.5645 24.9749 14.6712L25.0357 16.4583L25.0206 16.4688L22.6234 16.7926C22.2515 16.8426 21.8743 16.7534 21.5643 16.5421C21.2544 16.3308 21.0338 16.0124 20.9451 15.6482Z" fill="#A25700"/>
<path fill-rule="evenodd" clip-rule="evenodd" d="M12.2579 8.30246C12.2042 8.20986 12.1315 8.12966 12.0445 8.06713C11.9576 8.0046 11.8584 7.96117 11.7534 7.93967C11.6484 7.91818 11.5401 7.91911 11.4355 7.94242C11.331 7.96573 11.2325 8.01088 11.1467 8.0749L9.71392 9.14955L9.71527 9.16784L10.9739 11.2356C11.1686 11.556 11.4752 11.793 11.8346 11.9009C12.1939 12.0089 12.5806 11.9801 12.9199 11.8202L14.0076 11.3053L12.2579 8.30246ZM13.8732 11.2637L12.1756 8.35029C12.1286 8.2693 12.0649 8.19899 11.9889 8.1443C11.9129 8.08962 11.8261 8.05162 11.7343 8.03283C11.6425 8.01403 11.5477 8.01485 11.4563 8.03523C11.3649 8.05561 11.2788 8.09507 11.2037 8.15102C11.2037 8.15105 11.2038 8.15099 11.2037 8.15102L9.8334 9.17885L11.0553 11.1862C11.2378 11.4865 11.5252 11.7087 11.862 11.8099C12.1988 11.911 12.5612 11.8841 12.8793 11.7342L13.8732 11.2637ZM21.0376 15.6257L20.7793 14.558L24.1157 14.0459C24.2081 14.0318 24.3024 14.0373 24.3925 14.0621C24.4826 14.0869 24.5665 14.1304 24.6386 14.1898C24.7107 14.2491 24.7695 14.3231 24.811 14.4067C24.8525 14.4902 24.876 14.5815 24.8797 14.6747C24.8797 14.6746 24.8797 14.6748 24.8797 14.6747L24.9379 16.384L22.6107 16.6983C22.2621 16.7453 21.9085 16.6616 21.618 16.4636C21.3276 16.2655 21.1208 15.967 21.0376 15.6257ZM22.6234 16.7926C22.2515 16.8426 21.8743 16.7534 21.5643 16.5421C21.2544 16.3308 21.0338 16.0124 20.9451 15.6482L20.6624 14.4797L24.1013 13.9519C24.2069 13.9358 24.3148 13.9421 24.4178 13.9704C24.5208 13.9987 24.6167 14.0485 24.6992 14.1164C24.7816 14.1843 24.8488 14.2688 24.8963 14.3644C24.9438 14.46 24.9706 14.5645 24.9749 14.6712L25.0357 16.4583L25.0206 16.4688L22.6234 16.7926Z" fill="white" fill-opacity="0.5" style="mix-blend-mode:soft-light"/>
<g style="mix-blend-mode:soft-light">
<path fill-rule="evenodd" clip-rule="evenodd" d="M12.9199 11.8202L14.0076 11.3053L12.2579 8.30246C12.2042 8.20986 12.1315 8.12966 12.0445 8.06713C11.9576 8.0046 11.8584 7.96117 11.7534 7.93967C11.6484 7.91818 11.5401 7.91911 11.4355 7.94242C11.331 7.96573 11.2325 8.01088 11.1467 8.0749L9.71392 9.14955L9.71527 9.16784L10.9739 11.2356C11.1686 11.556 11.4752 11.793 11.8346 11.9009C12.1939 12.0089 12.5806 11.9801 12.9199 11.8202ZM20.9451 15.6482L20.6624 14.4797L24.1013 13.9519C24.2069 13.9358 24.3148 13.9421 24.4178 13.9704C24.5208 13.9987 24.6167 14.0485 24.6992 14.1164C24.7816 14.1843 24.8488 14.2688 24.8963 14.3644C24.9438 14.46 24.9706 14.5645 24.9749 14.6712L25.0357 16.4583L25.0206 16.4688L22.6234 16.7926C22.2515 16.8426 21.8743 16.7534 21.5643 16.5421C21.2544 16.3308 21.0338 16.0124 20.9451 15.6482Z" fill="url(#paint0_linear_35_24645)"/>
</g>
<g filter="url(#filter0_i_35_24645)">
<path d="M27.8923 17.2501L23.9377 22.8927L23.8609 23.0023L23.8228 23.0573L23.5957 23.3809L23.5288 23.4767L23.4941 23.5265L23.2613 23.8584L23.1825 23.9704L23.1431 24.0264L22.9518 24.2998L22.877 24.407L22.8392 24.4613L22.199 25.3744L22.1331 25.4682L4.4566 17.0359L4.6179 16.491L4.78783 15.9157L4.80641 15.854L4.84191 15.7322L4.94268 15.3895L4.96222 15.3241L5.00125 15.1914L5.10393 14.8412L5.11963 14.789L5.15804 14.6594L5.27507 14.2581L5.29428 14.1933L5.33203 14.0651L7.29791 7.41154C7.33876 7.26977 7.42013 7.14298 7.53204 7.0467C7.64395 6.95043 7.78155 6.88884 7.92798 6.86949C8.07441 6.85015 8.22331 6.87388 8.35644 6.93778C8.48957 7.00168 8.60115 7.10298 8.67751 7.22926L9.77532 9.04213L11.0299 11.1079C11.2246 11.4283 11.5312 11.6653 11.8905 11.7732C12.2499 11.8812 12.6365 11.8524 12.9759 11.6925L14.0635 11.1777L18.0802 9.28845C18.233 9.2165 18.3999 9.17939 18.5688 9.17981C18.7377 9.18023 18.9044 9.21817 19.0568 9.29087C19.2092 9.36358 19.3435 9.46924 19.45 9.60019C19.5565 9.73114 19.6325 9.8841 19.6725 10.048L20.7223 14.3541L21.005 15.5227C21.0937 15.8868 21.3143 16.2053 21.6242 16.4166C21.9342 16.6279 22.3114 16.7171 22.6833 16.667L25.0927 16.3423L27.1627 16.0608C27.3098 16.0391 27.4601 16.0612 27.5949 16.1241C27.7296 16.1871 27.8429 16.2882 27.9206 16.4148C27.9983 16.5415 28.037 16.6882 28.032 16.8367C28.027 16.9852 27.9784 17.1289 27.8923 17.2501Z" fill="#FF9B00"/>
</g>
<g style="mix-blend-mode:overlay">
<path d="M27.8923 17.2501L23.9377 22.8927L23.8609 23.0023L23.8228 23.0573L23.5957 23.3809L23.5288 23.4767L23.4941 23.5265L23.2613 23.8584L23.1825 23.9704L23.1431 24.0264L22.9518 24.2998L22.877 24.407L22.8392 24.4613L22.199 25.3744L22.1331 25.4682L4.4566 17.0359L4.6179 16.491L4.78783 15.9157L4.80641 15.854L4.84191 15.7322L4.94268 15.3895L4.96222 15.3241L5.00125 15.1914L5.10393 14.8412L5.11963 14.789L5.15804 14.6594L5.27507 14.2581L5.29428 14.1933L5.33203 14.0651L7.29791 7.41154C7.33876 7.26977 7.42013 7.14298 7.53204 7.0467C7.64395 6.95043 7.78155 6.88884 7.92798 6.86949C8.07441 6.85015 8.22331 6.87388 8.35644 6.93778C8.48957 7.00168 8.60115 7.10298 8.67751 7.22926L9.77532 9.04213L11.0299 11.1079C11.2246 11.4283 11.5312 11.6653 11.8905 11.7732C12.2499 11.8812 12.6365 11.8524 12.9759 11.6925L14.0635 11.1777L18.0802 9.28845C18.233 9.2165 18.3999 9.17939 18.5688 9.17981C18.7377 9.18023 18.9044 9.21817 19.0568 9.29087C19.2092 9.36358 19.3435 9.46924 19.45 9.60019C19.5565 9.73114 19.6325 9.8841 19.6725 10.048L20.7223 14.3541L21.005 15.5227C21.0937 15.8868 21.3143 16.2053 21.6242 16.4166C21.9342 16.6279 22.3114 16.7171 22.6833 16.667L25.0927 16.3423L27.1627 16.0608C27.3098 16.0391 27.4601 16.0612 27.5949 16.1241C27.7296 16.1871 27.8429 16.2882 27.9206 16.4148C27.9983 16.5415 28.037 16.6882 28.032 16.8367C28.027 16.9852 27.9784 17.1289 27.8923 17.2501Z" fill="url(#paint1_linear_35_24645)"/>
</g>
<g style="mix-blend-mode:overlay" opacity="0.3">
<path d="M27.8923 17.2501L23.9377 22.8927L23.8609 23.0023L23.8228 23.0573L23.5957 23.3809L23.5288 23.4767L23.4941 23.5265L23.2613 23.8584L23.1825 23.9704L23.1431 24.0264L22.9518 24.2998L22.877 24.407L22.8392 24.4613L22.199 25.3744L22.1331 25.4682L4.4566 17.0359L4.6179 16.491L4.78783 15.9157L4.80641 15.854L4.84191 15.7322L4.94268 15.3895L4.96222 15.3241L5.00125 15.1914L5.10393 14.8412L5.11963 14.789L5.15804 14.6594L5.27507 14.2581L5.29428 14.1933L5.33203 14.0651L7.29791 7.41154C7.33876 7.26977 7.42013 7.14298 7.53204 7.0467C7.64395 6.95043 7.78155 6.88884 7.92798 6.86949C8.07441 6.85015 8.22331 6.87388 8.35644 6.93778C8.48957 7.00168 8.60115 7.10298 8.67751 7.22926L9.77532 9.04213L11.0299 11.1079C11.2246 11.4283 11.5312 11.6653 11.8905 11.7732C12.2499 11.8812 12.6365 11.8524 12.9759 11.6925L14.0635 11.1777L18.0802 9.28845C18.233 9.2165 18.3999 9.17939 18.5688 9.17981C18.7377 9.18023 18.9044 9.21817 19.0568 9.29087C19.2092 9.36358 19.3435 9.46924 19.45 9.60019C19.5565 9.73114 19.6325 9.8841 19.6725 10.048L20.7223 14.3541L21.005 15.5227C21.0937 15.8868 21.3143 16.2053 21.6242 16.4166C21.9342 16.6279 22.3114 16.7171 22.6833 16.667L25.0927 16.3423L27.1627 16.0608C27.3098 16.0391 27.4601 16.0612 27.5949 16.1241C27.7296 16.1871 27.8429 16.2882 27.9206 16.4148C27.9983 16.5415 28.037 16.6882 28.032 16.8367C28.027 16.9852 27.9784 17.1289 27.8923 17.2501Z" fill="url(#paint2_linear_35_24645)"/>
</g>
<g style="mix-blend-mode:overlay">
<path d="M27.8918 17.2508L27.7037 17.5191C27.7065 17.4092 27.6853 17.3 27.6417 17.1991C27.598 17.0982 27.5329 17.008 27.4508 16.9347C27.3687 16.8614 27.2717 16.8068 27.1664 16.7747C27.0612 16.7426 26.9502 16.7337 26.8411 16.7487L24.7712 17.0303L22.3583 17.3534C21.9864 17.4034 21.6092 17.3142 21.2993 17.1029C20.9893 16.8916 20.7687 16.5732 20.68 16.209L20.2434 15.0528L19.2276 10.6771C19.0573 9.97741 18.514 9.71823 17.8621 10.0258L13.8902 11.9532L12.7406 12.5132C12.0378 12.8444 11.106 12.4562 10.7021 11.7929L9.4476 9.72716L8.34815 7.91771C8.29109 7.82317 8.21406 7.74221 8.12242 7.68048C8.03079 7.61876 7.92677 7.57776 7.81763 7.56034C7.70849 7.54293 7.59686 7.54953 7.49053 7.57968C7.38421 7.60982 7.28576 7.66279 7.20205 7.73488L7.29742 7.41228C7.33827 7.27051 7.41964 7.14371 7.53155 7.04744C7.64347 6.95116 7.78107 6.88957 7.9275 6.87023C8.07393 6.85088 8.22283 6.87461 8.35596 6.93851C8.48908 7.00241 8.60066 7.10371 8.67702 7.22999L9.77483 9.04286L11.0294 11.1087C11.2241 11.429 11.5307 11.666 11.89 11.774C12.2494 11.8819 12.636 11.8532 12.9754 11.6932L14.063 11.1784L18.0797 9.28918C18.2325 9.21723 18.3994 9.18012 18.5683 9.18054C18.7372 9.18096 18.9039 9.2189 19.0563 9.29161C19.2087 9.36431 19.343 9.46997 19.4495 9.60092C19.556 9.73187 19.632 9.88484 19.672 10.0487L20.7218 14.3549L21.0045 15.5234C21.0932 15.8875 21.3138 16.206 21.6237 16.4173C21.9337 16.6286 22.3109 16.7178 22.6828 16.6677L25.0923 16.3431L27.1622 16.0615C27.3094 16.0399 27.4596 16.0619 27.5944 16.1249C27.7291 16.1878 27.8424 16.2889 27.9201 16.4156C27.9978 16.5423 28.0366 16.6889 28.0315 16.8374C28.0265 16.9859 27.9779 17.1296 27.8918 17.2508Z" fill="white"/>
</g>
<g style="mix-blend-mode:soft-light" opacity="0.5">
<path fill-rule="evenodd" clip-rule="evenodd" d="M23.5948 23.3823L23.8219 23.0587C23.0687 21.3892 19.1965 18.8588 15.3529 17.0253C12.9296 15.8693 10.5222 14.9738 8.57486 14.5046C6.8298 14.0839 5.83661 14.0933 5.27449 14.2588L5.15679 14.6616L5.11838 14.7911L5.10269 14.8433C5.29195 14.6798 6.00194 14.3529 8.46978 14.9477C10.3858 15.4121 12.76 16.2926 15.1579 17.4365C20.2129 19.8479 23.3681 22.4363 23.4932 23.528L23.5279 23.4782L23.5948 23.3823ZM22.9509 24.301L23.1423 24.0276C22.3316 22.5063 19.0316 20.1783 14.8114 18.1609C10.5335 16.1202 6.59917 15.0182 4.94309 15.3863L4.84231 15.729L4.80682 15.8507L4.78824 15.9125C4.84625 15.8864 4.90629 15.865 4.96775 15.8485C6.41997 15.4563 10.477 16.6025 14.6131 18.5756C18.7493 20.5487 22.1927 22.9779 22.7985 24.3594C22.8137 24.393 22.827 24.4274 22.8384 24.4625L22.8761 24.4082L22.9509 24.301Z" fill="white"/>
</g>
<g style="mix-blend-mode:hard-light">
<path fill-rule="evenodd" clip-rule="evenodd" d="M23.8605 23.0028L23.9373 22.8932C23.2313 21.2253 19.3257 18.668 15.4485 16.8184C13.0252 15.6624 10.6178 14.767 8.67047 14.2977C6.88449 13.8676 5.88606 13.888 5.33163 14.0656L5.29388 14.1938L5.27467 14.2586L5.15764 14.66L5.16902 14.6696C5.29751 14.5258 5.92736 14.1061 8.56847 14.7416C10.4845 15.2059 12.8586 16.0864 15.2566 17.2303C20.4061 19.6868 23.5837 22.3271 23.5953 23.3814L23.8224 23.0578L23.8605 23.0028ZM23.1819 23.9715L23.2607 23.8595C22.4847 22.3396 19.165 19.9895 14.9089 17.9575C10.5967 15.9005 6.6341 14.7943 5.00097 15.1918L4.96289 15.3207L4.94336 15.3862L4.84258 15.7289C4.9136 15.6919 4.98862 15.6631 5.06619 15.6431C6.5184 15.2509 10.5757 16.3964 14.7119 18.3695C18.8481 20.3426 22.2915 22.7718 22.8972 24.1533C22.9187 24.2012 22.9367 24.2505 22.9512 24.3009L23.1425 24.0275L23.1819 23.9715Z" fill="#A15700"/>
</g>
<path d="M12.3739 23.2512C17.2551 25.5797 21.637 26.5789 22.1611 25.4829C22.6852 24.3869 19.153 21.6108 14.2718 19.2823C9.39061 16.9538 5.00872 15.9546 4.48462 17.0506C3.96051 18.1466 7.49265 20.9227 12.3739 23.2512Z" fill="#A15700"/>
<path d="M12.3739 23.2512C17.2551 25.5797 21.637 26.5789 22.1611 25.4829C22.6852 24.3869 19.153 21.6108 14.2718 19.2823C9.39061 16.9538 5.00872 15.9546 4.48462 17.0506C3.96051 18.1466 7.49265 20.9227 12.3739 23.2512Z" fill="url(#paint3_linear_35_24645)" style="mix-blend-mode:overlay"/>
<path d="M12.6852 22.5998C16.9231 24.6215 20.6224 25.7089 20.9477 25.0286C21.273 24.3483 18.1011 22.158 13.8632 20.1364C9.62524 18.1147 5.92598 17.0273 5.60068 17.7076C5.27537 18.3878 8.4472 20.5782 12.6852 22.5998Z" fill="#A15700"/>
<path d="M12.6852 22.5998C16.9231 24.6215 20.6224 25.7089 20.9477 25.0286C21.273 24.3483 18.1011 22.158 13.8632 20.1364C9.62524 18.1147 5.92598 17.0273 5.60068 17.7076C5.27537 18.3878 8.4472 20.5782 12.6852 22.5998Z" fill="url(#paint4_linear_35_24645)" fill-opacity="0.6" style="mix-blend-mode:soft-light"/>
<g style="mix-blend-mode:overlay">
<path fill-rule="evenodd" clip-rule="evenodd" d="M16.1033 11.8562L17.6365 11.0681C17.9948 10.8839 18.4302 11.0916 18.512 11.4857L18.8619 13.1721C18.9185 13.4448 18.7825 13.7211 18.5318 13.8429L17.0255 14.5747C16.6733 14.7458 16.2533 14.5454 16.1652 14.1643L15.7884 12.5342C15.7257 12.2629 15.8554 11.9836 16.1033 11.8562ZM16.2776 12.1944L17.8107 11.4063C17.9451 11.3373 18.1084 11.4151 18.139 11.5629L18.489 13.2493C18.5102 13.3516 18.4592 13.4552 18.3652 13.5008L16.8589 14.2326C16.7268 14.2968 16.5693 14.2217 16.5363 14.0788L16.1595 12.4486C16.136 12.3469 16.1846 12.2422 16.2776 12.1944Z" fill="white" style="mix-blend-mode:soft-light"/>
</g>
<path d="M17.8107 11.4065L16.2775 12.1945C16.1845 12.2423 16.1359 12.347 16.1594 12.4488L16.5362 14.0789C16.5692 14.2218 16.7267 14.297 16.8588 14.2328L18.3651 13.501C18.4591 13.4553 18.5101 13.3517 18.4889 13.2494L18.139 11.5631C18.1083 11.4153 17.945 11.3374 17.8107 11.4065Z" fill="#FF9F0A"/>
<g style="mix-blend-mode:overlay">
<path d="M17.8107 11.4065L16.2775 12.1945C16.1845 12.2423 16.1359 12.347 16.1594 12.4488L16.5362 14.0789C16.5692 14.2218 16.7267 14.297 16.8588 14.2328L18.3651 13.501C18.4591 13.4553 18.5101 13.3517 18.4889 13.2494L18.139 11.5631C18.1083 11.4153 17.945 11.3374 17.8107 11.4065Z" fill="url(#paint5_linear_35_24645)"/>
</g>
</g>
</g>
<defs>
<filter id="filter0_i_35_24645" x="4.45654" y="5.41301" width="23.5759" height="20.0552" filterUnits="userSpaceOnUse" color-interpolation-filters="sRGB">
<feFlood flood-opacity="0" result="BackgroundImageFix"/>
<feBlend mode="normal" in="SourceGraphic" in2="BackgroundImageFix" result="shape"/>
<feColorMatrix in="SourceAlpha" type="matrix" values="0 0 0 0 0 0 0 0 0 0 0 0 0 0 0 0 0 0 127 0" result="hardAlpha"/>
<feOffset dy="-1.45002"/>
<feGaussianBlur stdDeviation="1.45002"/>
<feComposite in2="hardAlpha" operator="arithmetic" k2="-1" k3="1"/>
<feColorMatrix type="matrix" values="0 0 0 0 1 0 0 0 0 1 0 0 0 0 1 0 0 0 1 0"/>
<feBlend mode="overlay" in2="shape" result="effect1_innerShadow_35_24645"/>
</filter>
<linearGradient id="paint0_linear_35_24645" x1="10.4385" y1="7.44099" x2="25.8958" y2="14.8327" gradientUnits="userSpaceOnUse">
<stop stop-color="white" stop-opacity="0"/>
<stop offset="0.182094" stop-color="white"/>
<stop offset="0.83449" stop-color="white"/>
<stop offset="1" stop-color="white" stop-opacity="0"/>
</linearGradient>
<linearGradient id="paint1_linear_35_24645" x1="4.15088" y1="9.55701" x2="28.1956" y2="21.0553" gradientUnits="userSpaceOnUse">
<stop stop-color="white"/>
<stop offset="0.249953" stop-color="white" stop-opacity="0"/>
<stop offset="0.494792" stop-color="white"/>
<stop offset="0.72541" stop-color="white" stop-opacity="0"/>
<stop offset="1" stop-color="white"/>
</linearGradient>
<linearGradient id="paint2_linear_35_24645" x1="19.051" y1="9.28814" x2="14.3416" y2="19.1605" gradientUnits="userSpaceOnUse">
<stop stop-color="white"/>
<stop offset="1" stop-color="white" stop-opacity="0"/>
</linearGradient>
<linearGradient id="paint3_linear_35_24645" x1="4.0802" y1="17.4269" x2="22.1137" y2="26.0506" gradientUnits="userSpaceOnUse">
<stop stop-color="white"/>
<stop offset="1" stop-color="white" stop-opacity="0"/>
</linearGradient>
<linearGradient id="paint4_linear_35_24645" x1="5.79816" y1="18.2467" x2="20.8261" y2="25.4331" gradientUnits="userSpaceOnUse">
<stop/>
<stop offset="0.203125" stop-opacity="0"/>
<stop offset="0.484375"/>
<stop offset="0.770833" stop-opacity="0"/>
<stop offset="1"/>
</linearGradient>
<linearGradient id="paint5_linear_35_24645" x1="17.1429" y1="11.371" x2="17.9326" y2="13.6882" gradientUnits="userSpaceOnUse">
<stop stop-color="white"/>
<stop offset="1" stop-color="white" stop-opacity="0"/>
</linearGradient>
<clipPath id="clip0_35_24645">
<rect width="22.845" height="22.8275" fill="white" transform="matrix(0.902565 0.430554 -0.431413 0.902154 10.3823 0.937744)"/>
</clipPath>
<clipPath id="clip1_35_24645">
<rect width="22.845" height="15.4775" fill="white" transform="matrix(0.902565 0.430554 -0.431413 0.902154 8.74121 4.37012)"/>
</clipPath>
</defs>
</svg>
