<svg width="141" height="141" viewBox="0 0 141 141" fill="none" xmlns="http://www.w3.org/2000/svg">
<g clip-path="url(#clip0_35_28944)">
<path d="M138.778 87.4796C129.369 125.215 91.1452 148.181 53.401 138.771C15.6723 129.362 -7.29564 91.1402 2.11783 53.4067C11.5225 15.6665 49.7466 -7.30116 87.4798 2.10691C125.222 11.515 148.187 49.7416 138.778 87.4796Z" fill="url(#paint0_linear_35_28944)"/>
<path d="M4.20357 53.927L4.20371 53.9265C13.3213 17.3384 50.3786 -4.92811 86.9597 4.19272L86.9598 4.19275C123.55 13.3136 145.814 50.3734 136.693 86.9595C127.571 123.543 90.5136 145.808 53.9211 136.685C17.3443 127.564 -4.92247 90.5084 4.20357 53.927Z" stroke="white" stroke-opacity="0.24" stroke-width="4.29932"/>
<g style="mix-blend-mode:screen" opacity="0.3">
<path d="M136.677 46.5059L0.908587 81.7323C-0.581966 72.5779 -0.277289 62.9771 2.11002 53.4076C11.5147 15.6675 49.7388 -7.30018 87.472 2.10789C111.113 8.00096 128.956 25.2012 136.677 46.5059Z" fill="url(#paint1_linear_35_28944)"/>
</g>
<g filter="url(#filter0_di_35_28944)">
<path d="M125.958 84.2847C118.313 114.945 87.2562 133.604 56.589 125.958C25.9344 118.314 7.27297 87.259 14.9214 56.6008C22.5627 25.9372 53.6198 7.27618 84.278 14.9202C114.943 22.5641 133.603 53.623 125.958 84.2847Z" fill="url(#paint2_linear_35_28944)"/>
</g>
<path d="M49.3809 59.7827V79.388V87.5473V108.862H65.7V87.5473H77.1448C92.4548 87.5473 104.909 75.092 104.909 59.7827C104.909 44.4734 92.4548 32.0187 77.1448 32.0187C61.8362 32.0187 49.3809 44.4734 49.3809 59.7827ZM65.7 59.7827C65.7 53.4722 70.8343 48.3373 77.1448 48.3373C83.4552 48.3373 88.5909 53.4722 88.5909 59.7827C88.5909 66.0938 83.4552 71.2274 77.1448 71.2274H65.7V59.7827Z" fill="white"/>
<path d="M35.2197 72.2405C35.2197 71.677 35.6765 71.2202 36.24 71.2202H49.3761V87.5545H36.24C35.6765 87.5545 35.2197 87.0977 35.2197 86.5342V72.2405Z" fill="white"/>
</g>
<defs>
<filter id="filter0_di_35_28944" x="12.4905" y="13.2075" width="115.18" height="115.897" filterUnits="userSpaceOnUse" color-interpolation-filters="sRGB">
<feFlood flood-opacity="0" result="BackgroundImageFix"/>
<feColorMatrix in="SourceAlpha" type="matrix" values="0 0 0 0 0 0 0 0 0 0 0 0 0 0 0 0 0 0 127 0" result="hardAlpha"/>
<feOffset dx="-0.716554" dy="0.716554"/>
<feColorMatrix type="matrix" values="0 0 0 0 1 0 0 0 0 1 0 0 0 0 1 0 0 0 0.32 0"/>
<feBlend mode="normal" in2="BackgroundImageFix" result="effect1_dropShadow_35_28944"/>
<feBlend mode="normal" in="SourceGraphic" in2="effect1_dropShadow_35_28944" result="shape"/>
<feColorMatrix in="SourceAlpha" type="matrix" values="0 0 0 0 0 0 0 0 0 0 0 0 0 0 0 0 0 0 127 0" result="hardAlpha"/>
<feOffset dx="-0.716554" dy="1.43311"/>
<feGaussianBlur stdDeviation="0.716554"/>
<feComposite in2="hardAlpha" operator="arithmetic" k2="-1" k3="1"/>
<feColorMatrix type="matrix" values="0 0 0 0 0 0 0 0 0 0 0 0 0 0 0 0 0 0 0.16 0"/>
<feBlend mode="normal" in2="shape" result="effect2_innerShadow_35_28944"/>
</filter>
<linearGradient id="paint0_linear_35_28944" x1="126.522" y1="-32.2567" x2="-5.8376" y2="136.289" gradientUnits="userSpaceOnUse">
<stop stop-color="#4F64C7"/>
<stop offset="1" stop-color="#60BFEE"/>
</linearGradient>
<linearGradient id="paint1_linear_35_28944" x1="68.3385" y1="0" x2="68.3385" y2="81.7323" gradientUnits="userSpaceOnUse">
<stop stop-color="white"/>
<stop offset="1" stop-color="white" stop-opacity="0"/>
</linearGradient>
<linearGradient id="paint2_linear_35_28944" x1="116" y1="-13" x2="8.45899" y2="123.943" gradientUnits="userSpaceOnUse">
<stop stop-color="#4F64C7"/>
<stop offset="1" stop-color="#60BFEE"/>
</linearGradient>
<clipPath id="clip0_35_28944">
<rect width="140.879" height="140.879" fill="white"/>
</clipPath>
</defs>
</svg>
