<svg width="40" height="40" viewBox="0 0 40 40" fill="none" xmlns="http://www.w3.org/2000/svg">
<circle cx="20" cy="20" r="20" fill="#D9D9D9"/>
<circle cx="20" cy="20" r="17" fill="url(#paint0_linear_35_12406)"/>
<path d="M14.6155 17.2261V22.3288V24.4525V30H18.9108V24.4525H21.9232C25.9529 24.4525 29.2309 21.2107 29.2309 17.2261C29.2309 13.2416 25.9529 10 21.9232 10C17.8938 10 14.6155 13.2416 14.6155 17.2261ZM18.9108 17.2261C18.9108 15.5837 20.2622 14.2472 21.9232 14.2472C23.5841 14.2472 24.9359 15.5837 24.9359 17.2261C24.9359 18.8687 23.5841 20.2049 21.9232 20.2049H18.9108V17.2261Z" fill="url(#paint1_linear_35_12406)"/>
<path d="M10.7693 22.3077C10.7693 21.0332 11.8025 20 13.077 20H14.6154V24.6154H13.077C11.8025 24.6154 10.7693 23.5822 10.7693 22.3077Z" fill="white"/>
<defs>
<linearGradient id="paint0_linear_35_12406" x1="38" y1="3" x2="13" y2="28" gradientUnits="userSpaceOnUse">
<stop stop-color="#5ED3FA"/>
<stop offset="1" stop-color="#3A91F7"/>
</linearGradient>
<linearGradient id="paint1_linear_35_12406" x1="23.0976" y1="8.28052" x2="19.8792" y2="33.3542" gradientUnits="userSpaceOnUse">
<stop stop-color="white"/>
<stop offset="1" stop-color="white"/>
</linearGradient>
</defs>
</svg>
