<svg width="40" height="40" viewBox="0 0 40 40" fill="none" xmlns="http://www.w3.org/2000/svg">
<circle cx="20" cy="20" r="20" fill="#D9D9D9"/>
<g clip-path="url(#clip0_35_12412)">
<circle cx="20" cy="20" r="17" fill="url(#paint0_linear_35_12412)"/>
<path d="M13.5466 5.53485C15.4672 7.48704 15.4416 10.6263 13.4894 12.5469C11.5372 14.4675 8.39801 14.4419 6.47741 12.4897C4.55681 10.5375 4.58241 7.39827 6.5346 5.47767C6.62704 5.38672 6.73026 5.29586 6.82805 5.21035C8.68559 3.65039 11.4257 3.67274 13.2575 5.26279C13.3539 5.34988 13.4557 5.44241 13.5466 5.53485Z" stroke="white" stroke-width="1.5" stroke-linecap="round" stroke-linejoin="round"/>
<path d="M8.69255 9.438L9.53247 10.2917L9.88202 10.647L10.7952 11.5752L11.5138 10.8682L10.6007 9.94001L11.1047 9.44417C11.7789 8.78087 11.7937 7.69893 11.1378 7.03227C10.482 6.36561 9.39997 6.36283 8.72576 7.02613C8.05161 7.68938 8.03668 8.77135 8.69255 9.438ZM9.41121 8.73098C9.14086 8.45618 9.14697 8.01014 9.42486 7.73674C9.70276 7.46334 10.1489 7.46444 10.4193 7.73924C10.6896 8.01406 10.6834 8.46011 10.4055 8.73351L9.90151 9.22935L9.41121 8.73098Z" fill="url(#paint1_linear_35_12412)"/>
<path d="M8.88547 10.9217C8.67568 10.7085 8.67848 10.3656 8.89171 10.1558L9.14911 9.90256L9.90882 10.6748L9.65142 10.928C9.43818 11.1378 9.09525 11.135 8.88547 10.9217Z" fill="white"/>
<path d="M30.9689 8.8981C28.7929 10.5608 25.6813 10.1447 24.0186 7.96863C22.3559 5.79259 22.772 2.68096 24.948 1.01827C27.1241 -0.644431 30.2357 -0.228318 31.8984 1.94773C31.9771 2.05077 32.0544 2.1645 32.1271 2.27217C33.4437 4.30943 33.0805 7.02544 31.2749 8.64515C31.1764 8.72994 31.072 8.81936 30.9689 8.8981Z" stroke="white" stroke-width="1.5" stroke-linecap="round" stroke-linejoin="round"/>
<path d="M27.7004 3.59624L26.7488 4.32337L26.3527 4.62598L25.3181 5.4165L25.9302 6.21757L26.9648 5.42704L27.394 5.98883C27.9683 6.74036 29.04 6.88974 29.7831 6.32194C30.5262 5.75414 30.6636 4.68089 30.0894 3.92937C29.5152 3.17791 28.4435 3.02844 27.7004 3.59624ZM28.3125 4.3973C28.6188 4.16325 29.0606 4.22483 29.2973 4.5346C29.534 4.84436 29.4773 5.2869 29.171 5.52094C28.8647 5.75501 28.4229 5.69332 28.1862 5.38356L27.7569 4.82177L28.3125 4.3973Z" fill="url(#paint2_linear_35_12412)"/>
<path d="M26.2044 3.60277C26.4421 3.42115 26.782 3.46661 26.9636 3.7043L27.1828 3.99122L26.3221 4.64891L26.1029 4.36199C25.9212 4.1243 25.9667 3.78439 26.2044 3.60277Z" fill="white"/>
<path d="M36.1522 15.694C37.1099 16.6465 37.1141 18.1947 36.1617 19.1524C35.2093 20.11 33.6611 20.1143 32.7034 19.1619C31.7457 18.2095 31.7415 16.6612 32.6939 15.7036C32.739 15.6582 32.7894 15.6129 32.8372 15.5702C33.7448 14.7909 35.0963 14.7871 36.0082 15.5614C36.0562 15.6039 36.1069 15.6489 36.1522 15.694Z" stroke="white" stroke-linecap="round" stroke-linejoin="round"/>
<path d="M33.7795 17.6453L34.1983 18.0618L34.3726 18.2352L34.8279 18.688L35.1785 18.3354L34.7232 17.8826L34.9691 17.6354C35.298 17.3047 35.2995 16.771 34.9724 16.4458C34.6454 16.1205 34.1118 16.125 33.7829 16.4557C33.454 16.7864 33.4524 17.3201 33.7795 17.6453ZM34.1301 17.2928C33.9953 17.1587 33.9959 16.9387 34.1315 16.8024C34.267 16.6661 34.4871 16.6642 34.6219 16.7983C34.7567 16.9324 34.756 17.1524 34.6204 17.2887L34.3745 17.5359L34.1301 17.2928Z" fill="url(#paint3_linear_35_12412)"/>
<path d="M33.8828 18.3759C33.7782 18.2718 33.7777 18.1027 33.8817 17.9981L34.0073 17.8718L34.3861 18.2486L34.2605 18.3748C34.1565 18.4794 33.9874 18.4799 33.8828 18.3759Z" fill="white"/>
<path d="M4.91255 24.3709C3.83935 25.191 2.30474 24.9857 1.48472 23.9125C0.664695 22.8394 0.869917 21.3047 1.94311 20.4847C3.01631 19.6647 4.55093 19.8699 5.37095 20.9431C5.40978 20.9939 5.4479 21.05 5.48375 21.1031C6.1331 22.1079 5.95397 23.4474 5.06343 24.2462C5.01489 24.288 4.96337 24.3321 4.91255 24.3709Z" stroke="white" stroke-linecap="round" stroke-linejoin="round"/>
<path d="M3.30064 21.7561L2.8313 22.1147L2.63598 22.2639L2.12573 22.6538L2.4276 23.0489L2.93785 22.659L3.14956 22.9361C3.43276 23.3067 3.9613 23.3804 4.32779 23.1004C4.69428 22.8203 4.76206 22.291 4.47885 21.9204C4.19567 21.5498 3.66712 21.476 3.30064 21.7561ZM3.60251 22.1511C3.75357 22.0357 3.97147 22.0661 4.0882 22.2189C4.20493 22.3716 4.17701 22.5899 4.02594 22.7053C3.87486 22.8208 3.65697 22.7903 3.54024 22.6376L3.32853 22.3605L3.60251 22.1511Z" fill="url(#paint4_linear_35_12412)"/>
<path d="M2.56289 21.7594C2.68012 21.6698 2.84776 21.6922 2.93733 21.8094L3.04545 21.9509L2.62094 22.2753L2.51282 22.1338C2.42325 22.0166 2.44567 21.8489 2.56289 21.7594Z" fill="white"/>
<path d="M30.0832 30.0416C30.0832 35.5876 25.5876 40.0832 20.0416 40.0832C14.4955 40.0832 10 35.5876 10 30.0416C10 24.4955 14.4955 20 20.0416 20C20.3042 20 20.5823 20.0154 20.8449 20.0309C25.7421 20.4171 29.6661 24.3411 30.0523 29.2383C30.0678 29.5009 30.0832 29.779 30.0832 30.0416Z" stroke="white" stroke-width="2" stroke-linecap="round" stroke-linejoin="round"/>
<path d="M17.5322 28.7824V31.2078V32.2172V34.854H19.5739V32.2172H21.0057C22.9211 32.2172 24.4792 30.6763 24.4792 28.7824C24.4792 26.8884 22.9211 25.3476 21.0057 25.3476C19.0905 25.3476 17.5322 26.8884 17.5322 28.7824ZM19.5739 28.7824C19.5739 28.0017 20.2162 27.3664 21.0057 27.3664C21.7952 27.3664 22.4377 28.0017 22.4377 28.7824C22.4377 29.5631 21.7952 30.1982 21.0057 30.1982H19.5739V28.7824Z" fill="url(#paint5_linear_35_12412)"/>
<path d="M15.7041 31.198C15.7041 30.5922 16.1952 30.1011 16.801 30.1011H17.5322V32.2948H16.801C16.1952 32.2948 15.7041 31.8038 15.7041 31.198Z" fill="white"/>
</g>
<defs>
<linearGradient id="paint0_linear_35_12412" x1="38" y1="3" x2="13" y2="28" gradientUnits="userSpaceOnUse">
<stop stop-color="#5ED3FA"/>
<stop offset="1" stop-color="#3A91F7"/>
</linearGradient>
<linearGradient id="paint1_linear_35_12412" x1="8.63922" y1="6.54513" x2="12.2279" y2="11.27" gradientUnits="userSpaceOnUse">
<stop stop-color="white"/>
<stop offset="1" stop-color="white"/>
</linearGradient>
<linearGradient id="paint2_linear_35_12412" x1="30.5774" y1="3.90337" x2="25.4426" y2="6.87614" gradientUnits="userSpaceOnUse">
<stop stop-color="white"/>
<stop offset="1" stop-color="white"/>
</linearGradient>
<linearGradient id="paint3_linear_35_12412" x1="33.7376" y1="16.219" x2="35.5328" y2="18.5298" gradientUnits="userSpaceOnUse">
<stop stop-color="white"/>
<stop offset="1" stop-color="white"/>
</linearGradient>
<linearGradient id="paint4_linear_35_12412" x1="4.71954" y1="21.9076" x2="2.18714" y2="23.3737" gradientUnits="userSpaceOnUse">
<stop stop-color="white"/>
<stop offset="1" stop-color="white"/>
</linearGradient>
<linearGradient id="paint5_linear_35_12412" x1="21.5639" y1="24.5303" x2="20.0341" y2="36.4483" gradientUnits="userSpaceOnUse">
<stop stop-color="white"/>
<stop offset="1" stop-color="white"/>
</linearGradient>
<clipPath id="clip0_35_12412">
<rect x="3" y="3" width="34" height="34" rx="17" fill="white"/>
</clipPath>
</defs>
</svg>
