<svg width="40" height="40" viewBox="0 0 40 40" fill="none" xmlns="http://www.w3.org/2000/svg">
<circle cx="20" cy="20" r="20" fill="#D9D9D9"/>
<circle cx="20" cy="20" r="17" fill="url(#paint0_linear_35_12382)"/>
<path d="M11.8424 19.3718L9.95742 17.4868L8.08325 19.3718" stroke="white" stroke-width="2" stroke-linecap="round" stroke-linejoin="round"/>
<path d="M28.1575 20.6289L30.0425 22.5139L31.9275 20.6289" stroke="white" stroke-width="2" stroke-linecap="round" stroke-linejoin="round"/>
<path d="M30.0317 22.5138V20.0004C30.0317 14.4538 25.5358 9.96875 20 9.96875C16.8367 9.96875 14.0091 11.4421 12.1675 13.728" stroke="white" stroke-width="2" stroke-linecap="round" stroke-linejoin="round"/>
<path d="M9.96826 17.4868V20.0002C9.96826 25.5468 14.4641 30.0318 19.9999 30.0318C23.1633 30.0318 25.9908 28.5585 27.8324 26.2726" stroke="white" stroke-width="2" stroke-linecap="round" stroke-linejoin="round"/>
<path d="M16.6794 18.5948V21.4864V22.6898V25.8335H19.1135V22.6898H20.8206C23.1042 22.6898 24.9617 20.8527 24.9617 18.5948C24.9617 16.3368 23.1042 14.4998 20.8206 14.4998C18.5372 14.4998 16.6794 16.3368 16.6794 18.5948ZM19.1135 18.5948C19.1135 17.664 19.8793 16.9067 20.8206 16.9067C21.7618 16.9067 22.5278 17.664 22.5278 18.5948C22.5278 19.5256 21.7618 20.2828 20.8206 20.2828H19.1135V18.5948Z" fill="url(#paint1_linear_35_12382)"/>
<path d="M14.5 21.4747C14.5 20.7525 15.0855 20.167 15.8077 20.167H16.6796V22.7825H15.8077C15.0855 22.7825 14.5 22.197 14.5 21.4747Z" fill="white"/>
<defs>
<linearGradient id="paint0_linear_35_12382" x1="38" y1="3" x2="13" y2="28" gradientUnits="userSpaceOnUse">
<stop stop-color="#5ED3FA"/>
<stop offset="1" stop-color="#3A91F7"/>
</linearGradient>
<linearGradient id="paint1_linear_35_12382" x1="21.4861" y1="13.5254" x2="19.6623" y2="27.7343" gradientUnits="userSpaceOnUse">
<stop stop-color="white"/>
<stop offset="1" stop-color="white"/>
</linearGradient>
</defs>
</svg>
