<svg width="40" height="40" viewBox="0 0 40 40" fill="none" xmlns="http://www.w3.org/2000/svg">
<circle cx="20" cy="20" r="20" fill="#D9D9D9"/>
<circle cx="20" cy="20" r="17" fill="url(#paint0_linear_35_12378)"/>
<path d="M27.0416 20.7041V24.7124C27.0416 28.0924 23.8891 30.8333 19.9999 30.8333C16.1108 30.8333 12.9583 28.0924 12.9583 24.7124V20.7041C12.9583 24.0841 16.1108 26.4999 19.9999 26.4999C23.8891 26.4999 27.0416 24.0841 27.0416 20.7041Z" stroke="white" stroke-width="2" stroke-linecap="round" stroke-linejoin="round"/>
<path d="M27.0416 15.2873C27.0416 16.2732 26.7707 17.1832 26.2941 17.9632C25.1349 19.8698 22.7516 21.0832 19.9999 21.0832C17.2483 21.0832 14.8649 19.8698 13.7058 17.9632C13.2291 17.1832 12.9583 16.2732 12.9583 15.2873C12.9583 13.5973 13.7491 12.0698 15.0166 10.9648C16.2949 9.849 18.0499 9.1665 19.9999 9.1665C21.9499 9.1665 23.7049 9.84901 24.9833 10.954C26.2508 12.0698 27.0416 13.5973 27.0416 15.2873Z" stroke="white" stroke-width="2" stroke-linecap="round" stroke-linejoin="round"/>
<path d="M27.0416 15.2873V20.704C27.0416 24.084 23.8891 26.4998 19.9999 26.4998C16.1108 26.4998 12.9583 24.084 12.9583 20.704V15.2873C12.9583 11.9073 16.1108 9.1665 19.9999 9.1665C21.9499 9.1665 23.7049 9.84901 24.9833 10.954C26.2508 12.0698 27.0416 13.5973 27.0416 15.2873Z" stroke="white" stroke-width="2" stroke-linecap="round" stroke-linejoin="round"/>
<defs>
<linearGradient id="paint0_linear_35_12378" x1="38" y1="3" x2="13" y2="28" gradientUnits="userSpaceOnUse">
<stop stop-color="#5ED3FA"/>
<stop offset="1" stop-color="#3A91F7"/>
</linearGradient>
</defs>
</svg>
