<svg width="230" height="228" viewBox="0 0 230 228" fill="none" xmlns="http://www.w3.org/2000/svg">
<g clip-path="url(#clip0_35_29030)">
<path d="M193.748 52.1603C188.138 74.6605 165.346 88.3538 142.841 82.7429C120.345 77.1333 106.65 54.343 112.263 31.8442C117.871 9.34136 140.662 -4.35327 163.161 1.25636C185.664 6.86598 199.358 29.6589 193.748 52.1603Z" fill="#24282E"/>
<path d="M114.349 32.3645L114.349 32.364C119.669 11.0133 141.294 -1.98022 162.641 3.34216L162.641 3.34219C183.992 8.66461 196.985 30.2907 191.662 51.6403C186.339 72.9883 164.714 85.9809 143.361 80.6571C122.017 75.3347 109.023 53.7112 114.349 32.3645Z" stroke="white" stroke-opacity="0.24" stroke-width="4.29932"/>
<g style="mix-blend-mode:screen" opacity="0.3">
<path d="M192.495 27.7294L111.542 48.7334C110.653 43.2751 110.835 37.5505 112.258 31.8447C117.866 9.34184 140.657 -4.35278 163.156 1.25684C177.252 4.77063 187.891 15.0264 192.495 27.7294Z" fill="url(#paint0_linear_35_29030)"/>
</g>
<g filter="url(#filter0_di_35_29030)">
<path d="M185.98 50.1317C181.421 68.4129 162.903 79.5386 144.618 74.9798C126.34 70.422 115.213 51.9051 119.773 33.625C124.329 15.3416 142.847 4.21487 161.127 8.77264C179.412 13.3304 190.538 31.8494 185.98 50.1317Z" fill="#24282E"/>
</g>
<path d="M144.352 38.4678L153.036 29.7833L161.725 38.4723L166.779 33.419L153.036 19.6768L139.299 33.4145L144.352 38.4678ZM130.677 42.0364L135.73 36.9831L140.783 42.0364L135.73 47.0897L130.677 42.0364ZM144.352 45.605L153.036 54.2894L161.725 45.6005L166.779 50.6515L153.036 64.396L139.299 50.6582L139.292 50.6515L144.352 45.605ZM165.289 42.0364L170.343 36.9831L175.396 42.0364L170.343 47.0897L165.289 42.0364ZM158.161 42.0319H158.166V42.0364L153.036 47.1657L147.914 42.0453L147.905 42.0364L147.914 42.0297L148.81 41.1308L149.246 40.6948L153.036 36.9071L158.163 42.0341L158.161 42.0319Z" fill="#FFFF3D"/>
</g>
<g clip-path="url(#clip1_35_29030)">
<path d="M82.7477 215.16C77.1375 237.661 54.3462 251.354 31.8409 245.743C9.34492 240.133 -4.34985 217.343 1.263 194.844C6.87059 172.341 29.662 158.647 52.1606 164.256C74.6645 169.866 88.358 192.659 82.7477 215.16Z" fill="#7362E2"/>
<path d="M3.34873 195.364L3.34887 195.364C8.66936 174.013 30.2939 161.02 51.6405 166.342L51.6407 166.342C72.9924 171.665 85.985 193.291 80.6619 214.64C75.339 235.988 53.7145 248.981 32.361 243.657C11.0169 238.335 -1.97667 216.711 3.34873 195.364Z" stroke="white" stroke-opacity="0.24" stroke-width="4.29932"/>
<g style="mix-blend-mode:screen" opacity="0.3">
<path d="M81.4946 190.729L0.541751 211.733C-0.347001 206.275 -0.165336 200.55 1.25811 194.845C6.86571 172.342 29.6571 158.647 52.1557 164.257C66.2518 167.771 76.8911 178.026 81.4946 190.729Z" fill="url(#paint1_linear_35_29030)"/>
</g>
<g filter="url(#filter1_di_35_29030)">
<path d="M74.751 212.903C70.1927 231.184 51.6747 242.31 33.3893 237.751C15.1112 233.193 3.98424 214.676 8.54468 196.396C13.1009 178.113 31.6188 166.986 49.899 171.544C68.1834 176.101 79.3093 194.62 74.751 212.903Z" fill="#7362E2"/>
</g>
<g clip-path="url(#clip2_35_29030)">
<path d="M29.7102 182.433V189.344H33.7539V186.775H58.0161V212.828H33.7539V198.828H29.7102V217.17H62.0547V182.433H29.7102ZM21.3135 192.202V226.941H53.6613V219.749H49.6193V222.599H25.3555V196.544H49.6193V210.265H53.6613V192.202H21.3135Z" fill="white"/>
</g>
</g>
<g clip-path="url(#clip3_35_29030)">
<path d="M99.7477 103.16C94.1375 125.661 71.3462 139.354 48.8409 133.743C26.3449 128.133 12.6501 105.343 18.263 82.8442C23.8706 60.3414 46.662 46.6467 69.1606 52.2564C91.6645 57.866 105.358 80.6589 99.7477 103.16Z" fill="#0657A9"/>
<path d="M20.3487 83.3645L20.3489 83.364C25.6694 62.0133 47.2939 49.0198 68.6405 54.3422L68.6407 54.3422C89.9924 59.6646 102.985 81.2907 97.6619 102.64C92.339 123.988 70.7145 136.981 49.361 131.657C28.0169 126.335 15.0233 104.711 20.3487 83.3645Z" stroke="white" stroke-opacity="0.24" stroke-width="4.29932"/>
<g style="mix-blend-mode:screen" opacity="0.3">
<path d="M98.4946 78.7294L17.5418 99.7334C16.653 94.2751 16.8347 88.5505 18.2581 82.8447C23.8657 60.3418 46.6571 46.6472 69.1557 52.2568C83.2518 55.7706 93.8911 66.0264 98.4946 78.7294Z" fill="url(#paint2_linear_35_29030)"/>
</g>
<g filter="url(#filter2_di_35_29030)">
<path d="M91.9795 101.132C87.4212 119.413 68.9033 130.539 50.6178 125.98C32.3398 121.422 21.2128 102.905 25.7732 84.625C30.3294 66.3416 48.8474 55.2149 67.1275 59.7726C85.4119 64.3304 96.5379 82.8494 91.9795 101.132Z" fill="#0657A9"/>
</g>
<path d="M53.7021 106.002C53.8168 95.4023 65.0846 93.1619 63.823 81.5806C63.4592 78.2464 61.8503 74.2947 58.5853 71.1326C58.4148 70.9672 58.1311 71.1049 58.1526 71.3415C59.1373 81.9805 51.6317 87.024 48.2571 91.4576C40.7741 101.289 46.2743 113.896 57.3671 115.564C57.6123 115.601 57.7624 115.304 57.5862 115.129C55.309 112.872 53.7021 110.007 53.7021 106.002Z" fill="#F0F1F4"/>
<path d="M68.216 89.0353C68.0664 88.9082 67.8366 88.9897 67.7992 89.1822C67.5303 90.5568 66.6747 92.8263 63.9289 96.8046C56.8186 107.105 60.2541 111.683 63.3584 115.125C64.043 115.939 63.7013 114.944 65.1566 113.936C67.111 112.582 67.9402 112.411 69.7927 110.764C71.9055 108.646 73.6201 105.313 73.786 101.938C74.1469 94.6007 69.8311 90.4062 68.216 89.0353Z" fill="#008CD6"/>
</g>
<g clip-path="url(#clip4_35_29030)">
<path d="M228.047 178.103C219.298 212.657 183.754 233.686 148.657 225.069C113.574 216.454 92.2165 181.455 100.97 146.903C109.715 112.345 145.259 91.3144 180.346 99.9292C215.441 108.544 236.797 143.547 228.047 178.103Z" fill="url(#paint3_linear_35_29030)"/>
<path d="M103.054 147.431L103.054 147.431C111.503 114.044 145.867 93.6772 179.833 102.017L179.833 102.017C213.797 110.354 234.413 144.203 225.963 177.576C217.511 210.958 183.147 231.323 149.17 222.982C115.218 214.645 94.6003 180.799 103.054 147.431Z" stroke="white" stroke-opacity="0.24" stroke-width="4.29932"/>
<g style="mix-blend-mode:screen" opacity="0.3">
<path d="M226.093 140.584L99.8449 172.841C98.4588 164.458 98.7422 155.667 100.962 146.904C109.707 112.346 145.251 91.3154 180.338 99.9302C202.321 105.326 218.913 121.076 226.093 140.584Z" fill="url(#paint4_linear_35_29030)"/>
</g>
<g filter="url(#filter3_di_35_29030)">
<path d="M216.126 175.178C209.017 203.252 180.138 220.338 151.621 213.337C123.116 206.338 105.763 177.901 112.875 149.828C119.981 121.75 148.86 104.663 177.368 111.662C205.883 118.661 223.235 147.101 216.126 175.178Z" fill="url(#paint5_linear_35_29030)"/>
</g>
<path d="M144.918 152.742V170.694V178.165V197.683H160.093V178.165H170.735C184.971 178.165 196.552 166.76 196.552 152.742C196.552 138.723 184.971 127.319 170.735 127.319C156.5 127.319 144.918 138.723 144.918 152.742ZM160.093 152.742C160.093 146.963 164.867 142.262 170.735 142.262C176.603 142.262 181.378 146.963 181.378 152.742C181.378 158.521 176.603 163.222 170.735 163.222H160.093V152.742Z" fill="white"/>
<path d="M131.75 164.235C131.75 163.672 132.207 163.215 132.77 163.215H144.914V178.172H132.77C132.207 178.172 131.75 177.715 131.75 177.152V164.235Z" fill="white"/>
</g>
<defs>
<filter id="filter0_di_35_29030" x="118.034" y="7.75146" width="68.9666" height="69.6831" filterUnits="userSpaceOnUse" color-interpolation-filters="sRGB">
<feFlood flood-opacity="0" result="BackgroundImageFix"/>
<feColorMatrix in="SourceAlpha" type="matrix" values="0 0 0 0 0 0 0 0 0 0 0 0 0 0 0 0 0 0 127 0" result="hardAlpha"/>
<feOffset dx="-0.716554" dy="0.716554"/>
<feColorMatrix type="matrix" values="0 0 0 0 0.921569 0 0 0 0 0.921569 0 0 0 0 0.921569 0 0 0 0.24 0"/>
<feBlend mode="normal" in2="BackgroundImageFix" result="effect1_dropShadow_35_29030"/>
<feBlend mode="normal" in="SourceGraphic" in2="effect1_dropShadow_35_29030" result="shape"/>
<feColorMatrix in="SourceAlpha" type="matrix" values="0 0 0 0 0 0 0 0 0 0 0 0 0 0 0 0 0 0 127 0" result="hardAlpha"/>
<feOffset dx="-0.716554" dy="1.43311"/>
<feGaussianBlur stdDeviation="0.716554"/>
<feComposite in2="hardAlpha" operator="arithmetic" k2="-1" k3="1"/>
<feColorMatrix type="matrix" values="0 0 0 0 0 0 0 0 0 0 0 0 0 0 0 0 0 0 0.16 0"/>
<feBlend mode="normal" in2="shape" result="effect2_innerShadow_35_29030"/>
</filter>
<filter id="filter1_di_35_29030" x="6.80591" y="170.522" width="68.9666" height="69.6831" filterUnits="userSpaceOnUse" color-interpolation-filters="sRGB">
<feFlood flood-opacity="0" result="BackgroundImageFix"/>
<feColorMatrix in="SourceAlpha" type="matrix" values="0 0 0 0 0 0 0 0 0 0 0 0 0 0 0 0 0 0 127 0" result="hardAlpha"/>
<feOffset dx="-0.716554" dy="0.716554"/>
<feColorMatrix type="matrix" values="0 0 0 0 0.921569 0 0 0 0 0.921569 0 0 0 0 0.921569 0 0 0 0.24 0"/>
<feBlend mode="normal" in2="BackgroundImageFix" result="effect1_dropShadow_35_29030"/>
<feBlend mode="normal" in="SourceGraphic" in2="effect1_dropShadow_35_29030" result="shape"/>
<feColorMatrix in="SourceAlpha" type="matrix" values="0 0 0 0 0 0 0 0 0 0 0 0 0 0 0 0 0 0 127 0" result="hardAlpha"/>
<feOffset dx="-0.716554" dy="1.43311"/>
<feGaussianBlur stdDeviation="0.716554"/>
<feComposite in2="hardAlpha" operator="arithmetic" k2="-1" k3="1"/>
<feColorMatrix type="matrix" values="0 0 0 0 0 0 0 0 0 0 0 0 0 0 0 0 0 0 0.16 0"/>
<feBlend mode="normal" in2="shape" result="effect2_innerShadow_35_29030"/>
</filter>
<filter id="filter2_di_35_29030" x="24.0344" y="58.7515" width="68.9666" height="69.6831" filterUnits="userSpaceOnUse" color-interpolation-filters="sRGB">
<feFlood flood-opacity="0" result="BackgroundImageFix"/>
<feColorMatrix in="SourceAlpha" type="matrix" values="0 0 0 0 0 0 0 0 0 0 0 0 0 0 0 0 0 0 127 0" result="hardAlpha"/>
<feOffset dx="-0.716554" dy="0.716554"/>
<feColorMatrix type="matrix" values="0 0 0 0 0.921569 0 0 0 0 0.921569 0 0 0 0 0.921569 0 0 0 0.24 0"/>
<feBlend mode="normal" in2="BackgroundImageFix" result="effect1_dropShadow_35_29030"/>
<feBlend mode="normal" in="SourceGraphic" in2="effect1_dropShadow_35_29030" result="shape"/>
<feColorMatrix in="SourceAlpha" type="matrix" values="0 0 0 0 0 0 0 0 0 0 0 0 0 0 0 0 0 0 127 0" result="hardAlpha"/>
<feOffset dx="-0.716554" dy="1.43311"/>
<feGaussianBlur stdDeviation="0.716554"/>
<feComposite in2="hardAlpha" operator="arithmetic" k2="-1" k3="1"/>
<feColorMatrix type="matrix" values="0 0 0 0 0 0 0 0 0 0 0 0 0 0 0 0 0 0 0.16 0"/>
<feBlend mode="normal" in2="shape" result="effect2_innerShadow_35_29030"/>
</filter>
<filter id="filter3_di_35_29030" x="110.565" y="110.094" width="107.154" height="106.246" filterUnits="userSpaceOnUse" color-interpolation-filters="sRGB">
<feFlood flood-opacity="0" result="BackgroundImageFix"/>
<feColorMatrix in="SourceAlpha" type="matrix" values="0 0 0 0 0 0 0 0 0 0 0 0 0 0 0 0 0 0 127 0" result="hardAlpha"/>
<feOffset dx="-0.716554" dy="0.716554"/>
<feColorMatrix type="matrix" values="0 0 0 0 1 0 0 0 0 1 0 0 0 0 1 0 0 0 0.32 0"/>
<feBlend mode="normal" in2="BackgroundImageFix" result="effect1_dropShadow_35_29030"/>
<feBlend mode="normal" in="SourceGraphic" in2="effect1_dropShadow_35_29030" result="shape"/>
<feColorMatrix in="SourceAlpha" type="matrix" values="0 0 0 0 0 0 0 0 0 0 0 0 0 0 0 0 0 0 127 0" result="hardAlpha"/>
<feOffset dx="-0.716554" dy="1.43311"/>
<feGaussianBlur stdDeviation="0.716554"/>
<feComposite in2="hardAlpha" operator="arithmetic" k2="-1" k3="1"/>
<feColorMatrix type="matrix" values="0 0 0 0 0 0 0 0 0 0 0 0 0 0 0 0 0 0 0.16 0"/>
<feBlend mode="normal" in2="shape" result="effect2_innerShadow_35_29030"/>
</filter>
<linearGradient id="paint0_linear_35_29030" x1="151.747" y1="0" x2="151.747" y2="48.7334" gradientUnits="userSpaceOnUse">
<stop stop-color="white"/>
<stop offset="1" stop-color="white" stop-opacity="0"/>
</linearGradient>
<linearGradient id="paint1_linear_35_29030" x1="40.7473" y1="163" x2="40.7473" y2="211.733" gradientUnits="userSpaceOnUse">
<stop stop-color="white"/>
<stop offset="1" stop-color="white" stop-opacity="0"/>
</linearGradient>
<linearGradient id="paint2_linear_35_29030" x1="57.7473" y1="51" x2="57.7473" y2="99.7334" gradientUnits="userSpaceOnUse">
<stop stop-color="white"/>
<stop offset="1" stop-color="white" stop-opacity="0"/>
</linearGradient>
<linearGradient id="paint3_linear_35_29030" x1="216.65" y1="68.4631" x2="95.9061" y2="224.602" gradientUnits="userSpaceOnUse">
<stop stop-color="#4F64C7"/>
<stop offset="1" stop-color="#60BFEE"/>
</linearGradient>
<linearGradient id="paint4_linear_35_29030" x1="162.546" y1="98" x2="162.546" y2="172.841" gradientUnits="userSpaceOnUse">
<stop stop-color="white"/>
<stop offset="1" stop-color="white" stop-opacity="0"/>
</linearGradient>
<linearGradient id="paint5_linear_35_29030" x1="206.866" y1="86.0961" x2="108.762" y2="212.958" gradientUnits="userSpaceOnUse">
<stop stop-color="#4F64C7"/>
<stop offset="1" stop-color="#60BFEE"/>
</linearGradient>
<clipPath id="clip0_35_29030">
<rect width="84" height="84" fill="white" transform="translate(111)"/>
</clipPath>
<clipPath id="clip1_35_29030">
<rect width="84" height="84" fill="white" transform="translate(0 163)"/>
</clipPath>
<clipPath id="clip2_35_29030">
<rect width="40.7463" height="44.5075" fill="white" transform="translate(21.3135 182.433)"/>
</clipPath>
<clipPath id="clip3_35_29030">
<rect width="84" height="84" fill="white" transform="translate(17 51)"/>
</clipPath>
<clipPath id="clip4_35_29030">
<rect width="131" height="129" fill="white" transform="translate(99 98)"/>
</clipPath>
</defs>
</svg>
