<svg width="206" height="230" viewBox="0 0 206 230" fill="none" xmlns="http://www.w3.org/2000/svg">
<g clip-path="url(#clip0_35_28963)">
<path d="M92.4231 221.579C86.1568 246.711 60.7004 262.005 35.5636 255.738C10.4371 249.473 -4.85906 224.017 1.41011 198.888C7.67342 173.754 33.1298 158.458 58.2593 164.723C83.3946 170.989 98.6893 196.447 92.4231 221.579Z" fill="#E72910"/>
<path d="M3.49585 199.408L3.49598 199.407C9.47219 175.425 33.7618 160.831 57.7392 166.809L57.7394 166.809C81.7225 172.787 96.3163 197.079 90.3373 221.059C84.3583 245.038 60.0688 259.632 36.0837 253.652C12.1091 247.674 -2.48589 223.386 3.49585 199.408Z" stroke="white" stroke-opacity="0.24" stroke-width="4.29932"/>
<g style="mix-blend-mode:screen" opacity="0.3">
<path d="M91.0239 194.292L0.605099 217.752C-0.387576 211.656 -0.184669 205.262 1.40523 198.889C7.66854 173.755 33.125 158.459 58.2544 164.724C73.9988 168.649 85.8821 180.104 91.0239 194.292Z" fill="url(#paint0_linear_35_28963)"/>
</g>
<g filter="url(#filter0_di_35_28963)">
<path d="M83.748 219.314C78.6567 239.733 57.9733 252.159 37.5497 247.068C17.1344 241.977 4.70625 221.295 9.79995 200.877C14.8889 180.456 35.5722 168.028 55.9899 173.119C76.4124 178.209 88.8393 198.894 83.748 219.314Z" fill="#E72910"/>
</g>
<path d="M61.3046 211.698C61.2798 211.831 60.8908 212.233 60.5019 212.525C59.3599 213.37 57.3159 214.155 55.2388 214.532C54.0554 214.749 52.872 214.783 52.5162 214.607C52.2845 214.49 52.2514 214.398 52.3341 214.097C52.5079 213.47 53.0706 212.784 53.9478 212.141C54.3947 211.815 56.207 210.703 57.0511 210.235C58.4413 209.465 59.5668 209.006 60.3281 208.897C60.5681 208.864 60.8577 208.855 60.9488 208.897C61.0977 208.955 61.2632 209.399 61.3294 209.934C61.3625 210.218 61.346 211.472 61.3046 211.698Z" fill="black"/>
<path d="M41.8077 214.465C41.7581 214.565 41.5098 214.674 41.2285 214.716C40.9471 214.758 40.0865 214.732 39.5982 214.674C37.8438 214.44 35.9819 213.896 34.6247 213.228C33.8634 212.851 33.3172 212.475 32.9117 212.066L32.68 211.823L32.6552 211.505C32.6138 210.954 32.6221 210.084 32.6883 209.775C32.7297 209.516 32.8207 209.265 32.9448 209.039C33.011 208.956 33.011 208.956 33.3089 208.956C33.673 208.956 33.9792 209.014 34.4758 209.173C35.4936 209.491 37.008 210.26 38.8534 211.38C40.3761 212.3 40.9471 212.751 41.3857 213.37C41.6836 213.754 41.8822 214.298 41.8077 214.465Z" fill="black"/>
<path d="M53.5254 226.102C53.5254 226.127 53.4261 226.529 53.302 227.005C53.1778 227.482 53.0785 227.866 53.0785 227.883C52.9875 227.891 52.9048 227.9 52.8137 227.891H52.5489L52.1848 228.761C51.9862 229.237 51.8041 229.68 51.7793 229.747L51.7296 229.864L51.5559 229.58L51.3821 229.296V226.98L51.3159 226.997C51.1752 227.03 50.1739 227.164 49.7353 227.206C47.923 227.39 46.1024 227.348 44.2984 227.089C44.0087 227.047 43.7605 227.013 43.7522 227.022C43.7439 227.03 43.7522 227.565 43.7687 228.226L43.7936 229.413L43.6529 229.63C43.5784 229.747 43.5039 229.848 43.5039 229.856C43.4791 229.881 43.3964 229.747 43.206 229.363C42.9991 228.961 42.8502 228.535 42.7426 228.092L42.6847 227.849L42.4281 227.866L42.1716 227.891L42.1054 227.582C42.0723 227.415 42.0309 227.156 42.0144 227.013L41.9895 226.746L41.7744 226.554C41.6502 226.445 41.5261 226.336 41.5013 226.32C41.4599 226.286 41.4434 226.228 41.4434 226.177V226.077L42.4778 226.085L43.5122 226.094L43.5453 226.202L43.5784 226.311L43.9343 226.328C44.1329 226.336 44.7618 226.353 45.3245 226.37L46.3589 226.395L46.6237 225.977L46.8968 225.559H47.2444L47.2361 224.689L47.2278 223.82L46.7727 223.619C45.308 222.967 44.4473 222.223 44.1246 221.32C44.0584 221.136 44.0584 221.069 44.0418 220.233C44.0336 219.406 44.0336 219.33 44.0915 219.146C44.2073 218.728 44.5301 218.402 44.9438 218.294C45.0845 218.252 45.4569 218.252 47.4099 218.252L49.7105 218.26L49.967 218.386C50.2732 218.536 50.4139 218.645 50.5876 218.879C50.7863 219.146 50.8442 219.355 50.8442 219.865C50.8442 220.593 50.7945 221.22 50.7201 221.471C50.6125 221.813 50.447 222.139 50.2401 222.432C49.8263 222.967 49.0733 223.502 48.3864 223.745L48.1878 223.82L48.1961 224.698L48.2043 225.575L48.3864 225.592L48.5685 225.609L48.8167 225.985L49.0567 226.361H50.1656C50.778 226.361 51.3159 226.37 51.3655 226.378C51.4483 226.395 51.4648 226.386 51.5476 226.244L51.6469 226.094H52.5986C53.3102 226.06 53.5254 226.077 53.5254 226.102Z" fill="black"/>
<path d="M49.156 228.502C48.9987 228.594 48.8912 228.635 48.8663 228.619C48.8415 228.61 48.7257 228.51 48.6015 228.418L48.3781 228.234L48.1464 228.485C47.6416 229.037 47.625 229.062 47.4761 229.07C47.2444 229.095 47.1947 229.053 46.9134 228.627C46.7644 228.41 46.6485 228.226 46.6485 228.226C46.6485 228.226 46.541 228.209 46.4168 228.201L46.1851 228.176L46.0775 228.401L45.97 228.627L45.7796 228.569C45.6307 228.518 45.4817 228.46 45.341 228.393L45.0928 228.268V227.791L47.294 227.799L49.4953 227.808L49.5035 228.033C49.5118 228.301 49.5201 228.293 49.156 228.502Z" fill="black"/>
<path d="M69.8442 218.302C69.8359 218.269 69.8359 218.21 69.8277 218.118C67.8416 217.901 62.1729 217.767 56.9098 222.156C56.9098 222.156 55.2134 214.298 47.269 214.298C39.3246 214.298 36.3786 222.156 36.3786 222.156C31.9265 217.316 25.9682 217.667 23.8166 217.985C23.8166 218.035 23.8083 218.093 23.8083 218.144C23.7421 219.356 23.7752 219.933 23.9738 220.693C24.5945 223.076 26.5061 225.701 29.5018 228.276C34.4091 232.49 41.0625 235.533 46.1022 235.884C51.357 236.243 59.1111 233.142 64.2749 228.61C65.0859 227.883 65.8472 227.114 66.5589 226.295C67.072 225.693 67.8333 224.656 67.7754 224.656C67.7588 224.656 67.7754 224.639 67.8085 224.623C67.8333 224.606 67.8581 224.581 67.8416 224.564C67.8333 224.556 67.8499 224.531 67.8747 224.522C67.8995 224.514 67.9161 224.497 67.9078 224.481C67.8995 224.464 67.9078 224.447 67.9409 224.439C67.9657 224.43 67.974 224.405 67.9657 224.389C67.9574 224.372 67.9657 224.355 67.9823 224.355C67.9988 224.355 68.0154 224.33 68.0154 224.313C68.0154 224.297 68.0319 224.272 68.0485 224.272C68.065 224.272 68.0816 224.255 68.0816 224.238C68.1064 224.171 68.1478 224.104 68.1891 224.046C68.3133 223.854 68.8098 222.959 68.876 222.808C69.3477 221.73 69.6456 220.769 69.7863 219.807C69.8359 219.347 69.8773 218.503 69.8442 218.302ZM49.1558 228.502C48.9986 228.594 48.891 228.636 48.8662 228.619C48.8413 228.61 48.7255 228.51 48.6013 228.418L48.3779 228.234L48.1462 228.485C47.6414 229.037 47.6248 229.062 47.4759 229.07C47.2442 229.095 47.1945 229.054 46.9132 228.627C46.7642 228.41 46.6484 228.226 46.6484 228.226C46.6484 228.226 46.5408 228.209 46.4166 228.201L46.1849 228.176L46.0773 228.401L45.9698 228.627L45.7794 228.569C45.6305 228.518 45.4815 228.46 45.3408 228.393L45.0926 228.268V227.791L47.2938 227.8L49.4951 227.808L49.5034 228.034C49.5116 228.301 49.5199 228.293 49.1558 228.502ZM53.2935 226.997C53.1693 227.473 53.07 227.858 53.07 227.875C52.979 227.883 52.8963 227.891 52.8052 227.883H52.5404L52.1846 228.761C51.986 229.237 51.8039 229.681 51.7791 229.747L51.7294 229.864L51.5557 229.58L51.3819 229.296V226.98L51.3157 226.997C51.175 227.03 50.1737 227.164 49.7351 227.206C47.9228 227.39 46.1022 227.348 44.2981 227.089C44.0085 227.047 43.7602 227.014 43.752 227.022C43.7437 227.03 43.752 227.565 43.7685 228.226L43.7934 229.413L43.6527 229.63C43.5782 229.747 43.5037 229.848 43.5037 229.856C43.4789 229.881 43.3961 229.747 43.2058 229.363C42.9989 228.962 42.85 228.535 42.7424 228.092L42.6844 227.85L42.4279 227.866L42.1714 227.891L42.1052 227.582C42.0721 227.415 42.0307 227.156 42.0141 227.014L41.9893 226.746L41.7742 226.554C41.65 226.445 41.5259 226.336 41.5011 226.32C41.4597 226.286 41.4431 226.228 41.4431 226.178V226.077L42.4776 226.086L43.512 226.094L43.5451 226.203L43.5782 226.311L43.934 226.328C44.1326 226.336 44.7616 226.353 45.3243 226.37L46.3587 226.395L46.6235 225.977L46.8966 225.559H47.2442L47.2359 224.69L47.2276 223.82L46.7725 223.619C45.3077 222.967 44.4471 222.223 44.1244 221.32C44.0582 221.136 44.0582 221.07 44.0416 220.234C44.0333 219.406 44.0333 219.331 44.0913 219.147C44.2071 218.729 44.5299 218.403 44.9436 218.294C45.0843 218.252 45.4567 218.252 47.4097 218.252L49.7102 218.261L49.9668 218.386C50.273 218.536 50.4136 218.645 50.5874 218.879C50.786 219.147 50.844 219.356 50.844 219.866C50.844 220.593 50.7943 221.22 50.7198 221.471C50.6123 221.814 50.4467 222.14 50.2399 222.432C49.8261 222.967 49.073 223.502 48.3862 223.745L48.1876 223.82L48.1959 224.698L48.2041 225.576L48.3862 225.592L48.5682 225.609L48.8165 225.985L49.0565 226.362H50.1654C50.7778 226.362 51.3157 226.37 51.3653 226.378C51.4481 226.395 51.4646 226.387 51.5474 226.245L51.6467 226.094H52.5983C53.3349 226.094 53.55 226.102 53.55 226.127C53.5252 226.119 53.4176 226.529 53.2935 226.997Z" fill="white"/>
<path d="M69.7778 217.449C69.7612 217.073 69.7281 216.547 69.7033 216.287C69.3474 212.492 68.3875 209.39 66.5669 206.105C66.4924 205.979 66.4262 205.854 66.3849 205.754C66.3683 205.729 66.36 205.703 66.3518 205.687C66.6083 204.909 67.6593 201.657 68.4951 197.937C69.6288 192.887 70.3488 186.985 68.1475 185.213C68.1475 185.213 64.3408 184.928 59.2432 189.978C57.8612 191.374 56.5951 192.887 55.4696 194.501L55.1138 194.384C53.0615 193.707 50.9347 193.289 48.7914 193.146C48.1459 193.096 45.7378 193.096 44.9516 193.146C42.5766 193.305 40.756 193.665 38.6872 194.392C38.6044 194.426 38.53 194.451 38.4555 194.476C37.2887 192.871 35.9894 191.366 34.5578 189.986C29.2533 184.912 25.3059 185.204 25.3059 185.204C22.9723 187.035 23.7667 193.205 24.9749 198.422C25.7693 201.874 26.7458 204.909 27.11 206.004C27.0851 206.063 27.052 206.13 27.0189 206.188C25.0908 210.134 24.0481 213.938 23.7998 217.985C25.9597 217.667 31.9097 217.307 36.3701 222.156C36.3701 222.156 39.3161 214.298 47.2605 214.298C55.2048 214.298 56.9013 222.156 56.9013 222.156C62.1644 217.767 67.833 217.909 69.8191 218.118C69.8109 217.951 69.7943 217.7 69.7778 217.449ZM28.674 202.853C28.674 202.853 25.579 195.036 26.3734 190.572C26.5058 189.819 26.7541 189.159 27.1431 188.657C27.1431 188.657 30.6518 189.008 36.3122 195.362C36.3122 195.362 35.2364 195.889 33.7965 197.009C33.7965 197.009 33.7882 197.017 33.7799 197.017C32.2159 198.229 30.2132 200.152 28.674 202.853ZM41.807 214.465C41.7574 214.565 41.5091 214.674 41.2277 214.716C40.9464 214.757 40.0857 214.732 39.5975 214.674C37.8431 214.44 35.9812 213.896 34.624 213.228C33.8627 212.851 33.3165 212.475 32.911 212.066L32.6793 211.823L32.6545 211.505C32.6131 210.954 32.6214 210.084 32.6876 209.775C32.7289 209.516 32.82 209.265 32.9441 209.039C33.0103 208.956 33.0103 208.956 33.3082 208.956C33.6723 208.956 33.9785 209.014 34.475 209.173C35.4929 209.491 37.0073 210.26 38.8527 211.38C40.3754 212.3 40.9464 212.751 41.385 213.37C41.6829 213.754 41.8815 214.298 41.807 214.465ZM61.3038 211.698C61.279 211.831 60.89 212.233 60.5011 212.525C59.3591 213.37 57.3151 214.156 55.2379 214.532C54.0546 214.749 52.8712 214.783 52.5153 214.607C52.2836 214.49 52.2505 214.398 52.3333 214.097C52.5071 213.47 53.0698 212.784 53.947 212.141C54.3939 211.815 56.2062 210.703 57.0502 210.235C58.4405 209.465 59.566 209.006 60.3273 208.897C60.5673 208.864 60.8569 208.855 60.9479 208.897C61.0969 208.956 61.2624 209.399 61.3286 209.934C61.3617 210.218 61.3452 211.472 61.3038 211.698ZM59.9301 197.009L59.9135 197C58.5233 195.88 57.4806 195.354 57.4806 195.354C62.9506 189 66.3352 188.649 66.3352 188.649C66.7076 189.159 66.9476 189.811 67.08 190.563C67.8496 195.027 64.8622 202.853 64.8622 202.853C63.6126 200.604 61.9327 198.614 59.9301 197.009Z" fill="#FFA409"/>
<path d="M67.0882 190.563C66.4427 190.479 63.3891 190.463 59.93 197.009L59.9134 197C58.5232 195.88 57.4805 195.353 57.4805 195.353C62.9505 189 66.3351 188.648 66.3351 188.648C66.7158 189.158 66.9558 189.81 67.0882 190.563Z" fill="#FF9300"/>
<path d="M64.8701 202.852C63.6122 200.595 61.9406 198.614 59.9297 197.009C63.3888 190.463 66.4341 190.479 67.0879 190.563C67.8575 195.036 64.8701 202.852 64.8701 202.852Z" fill="#FF8300"/>
<path d="M67.212 190.588C67.1706 190.58 67.1293 190.571 67.0879 190.563L67.212 190.588Z" fill="#FF8300"/>
<path d="M36.3122 195.353C36.3122 195.353 35.2364 195.88 33.7965 197C33.7965 197 33.7882 197.009 33.78 197.009C30.1967 190.454 27.0438 190.479 26.3652 190.563C26.4976 189.81 26.7459 189.15 27.1348 188.648C27.1431 188.648 30.6519 189 36.3122 195.353Z" fill="#FF9300"/>
<path d="M33.7883 197.009C32.216 198.229 30.2133 200.144 28.6741 202.852C28.6741 202.852 25.5791 195.036 26.3736 190.563C27.0439 190.479 30.2051 190.463 33.7883 197.009Z" fill="#FF8300"/>
<path d="M26.3736 190.563C26.3322 190.571 26.2826 190.58 26.2412 190.588L26.3736 190.563Z" fill="#FF8300"/>
<path d="M56.4961 207.192C56.4961 207.192 53.848 207.359 54.179 205.269C54.51 203.179 56.5789 202.928 57.1582 203.012C57.7374 203.095 60.0545 203.931 59.6408 205.687C59.227 207.442 58.6477 207.108 58.3167 207.192C57.9857 207.275 56.4961 207.192 56.4961 207.192Z" fill="white"/>
<path d="M36.9659 207.192C36.9659 207.192 34.3177 207.359 34.6488 205.269C34.9798 203.179 37.0486 202.928 37.6279 203.012C38.2072 203.095 40.5243 203.931 40.1105 205.687C39.6967 207.442 39.1175 207.108 38.7864 207.192C38.4554 207.275 36.9659 207.192 36.9659 207.192Z" fill="white"/>
</g>
<g clip-path="url(#clip1_35_28963)">
<path d="M149.508 44.5937C144.712 63.8299 125.227 75.5368 105.986 70.7398C86.7537 65.944 75.0455 46.4598 79.8442 27.2247C84.6383 7.98619 104.123 -3.72184 123.358 1.07403C142.598 5.8699 154.305 25.3564 149.508 44.5937Z" fill="#0E52D7"/>
<path d="M81.9299 27.745L81.93 27.7444C86.4371 9.6581 104.755 -1.34879 122.838 3.15984L122.838 3.15987C140.926 7.66854 151.932 25.9882 147.423 44.0736C142.914 62.1576 124.595 73.1638 106.506 68.654C88.4257 64.1454 77.4187 45.8279 81.9299 27.745Z" stroke="white" stroke-opacity="0.24" stroke-width="4.29932"/>
<g style="mix-blend-mode:screen" opacity="0.3">
<path d="M148.437 23.7069L79.2278 41.6639C78.468 36.9974 78.6233 32.1033 79.8403 27.2251C84.6344 7.98668 104.12 -3.72135 123.354 1.07452C135.406 4.07858 144.502 12.8466 148.437 23.7069Z" fill="url(#paint1_linear_35_28963)"/>
</g>
<g filter="url(#filter1_di_35_28963)">
<path d="M142.868 42.8594C138.971 58.4886 123.139 68.0004 107.506 64.1029C91.8795 60.2063 82.3666 44.3755 86.2655 28.7472C90.1608 13.1161 105.992 3.60339 121.621 7.49999C137.253 11.3966 146.765 27.2292 142.868 42.8594Z" fill="#0E52D7"/>
</g>
<path fill-rule="evenodd" clip-rule="evenodd" d="M126.258 21.9199L120.233 25.2686H120.227V31.9665L120.206 31.9694L102.129 21.9199L96.0997 25.2692L96.0967 25.268V46.0914L102.126 49.4424L102.129 49.4156V49.4406L108.161 46.0914V38.6719L114.18 42.0153L114.183 42.0223L114.188 42.0194L120.229 38.6864V46.0943L126.232 49.4296V49.447L126.247 49.4383L126.258 49.4441L126.267 49.4278L132.263 46.0978V25.2866L132.29 25.2715L126.258 21.9199Z" fill="white"/>
</g>
<g clip-path="url(#clip2_35_28963)">
<path d="M202.748 159.327C191.849 203.036 147.574 229.637 103.855 218.737C60.1539 207.84 33.5502 163.567 44.4538 119.861C55.3472 76.1462 99.6222 49.5427 143.328 60.4401C187.045 71.3375 213.646 115.615 202.748 159.327Z" fill="#F3BA2F"/>
<path d="M46.5395 120.381L46.5397 120.38C57.146 77.8181 100.254 51.9158 142.808 62.5259L142.809 62.5259C185.373 73.1361 211.273 116.247 200.662 158.807C190.051 201.364 146.942 227.264 104.375 216.652C61.8259 206.042 35.9234 162.935 46.5395 120.381Z" stroke="white" stroke-opacity="0.24" stroke-width="4.29932"/>
<g style="mix-blend-mode:screen" opacity="0.3">
<path d="M200.313 111.868L43.0524 152.67C41.3259 142.067 41.6788 130.946 44.444 119.862C55.3375 76.1476 99.6124 49.5442 143.319 60.4416C170.702 67.2675 191.37 87.1905 200.313 111.868Z" fill="url(#paint2_linear_35_28963)"/>
</g>
<g filter="url(#filter2_di_35_28963)">
<path d="M187.657 155.386C178.802 190.9 142.829 212.513 107.307 203.657C71.7997 194.803 50.1842 158.831 59.0434 123.32C67.8943 87.8024 103.868 66.1874 139.379 75.0414C174.899 83.8954 196.512 119.871 187.657 155.386Z" fill="#F3BA2F"/>
</g>
<path d="M106.789 132.727L123.66 115.857L140.539 132.736L150.356 122.92L123.66 96.2236L96.9726 122.911L106.789 132.727ZM80.2236 139.66L90.0402 129.843L99.8568 139.66L90.0402 149.476L80.2236 139.66ZM106.789 146.592L123.66 163.463L140.539 146.584L150.356 156.396L123.66 183.096L96.9726 156.409L96.9596 156.396L106.789 146.592ZM147.463 139.66L157.279 129.843L167.096 139.66L157.279 149.476L147.463 139.66ZM133.615 139.651H133.624V139.66L123.66 149.624L113.709 139.677L113.691 139.66L113.709 139.647L115.45 137.901L116.297 137.054L123.66 129.696L133.62 139.656L133.615 139.651Z" fill="white"/>
</g>
<g clip-path="url(#clip3_35_28963)" filter="url(#filter3_f_35_28963)">
<path d="M74.0561 85.9657C70.1877 101.48 54.4725 110.922 38.9546 107.053C23.4431 103.185 14.0002 87.4707 17.8704 71.9572C21.737 56.4409 37.4522 46.9982 52.9655 50.8661C68.4825 54.7341 77.9245 70.4503 74.0561 85.9657Z" fill="#FF007A"/>
<path d="M19.9562 72.4775L19.9563 72.477C23.5358 58.1128 38.0842 49.3712 52.4455 52.9519L52.4456 52.952C66.8104 56.5327 75.5515 71.0821 71.9703 85.4456C68.3892 99.8078 53.8409 108.549 39.4747 104.967C25.1151 101.386 16.3734 86.8388 19.9562 72.4775Z" stroke="white" stroke-opacity="0.24" stroke-width="4.29932"/>
<g style="mix-blend-mode:screen" opacity="0.3">
<path d="M73.1925 69.1201L17.3736 83.6028C16.7607 79.8392 16.886 75.892 17.8675 71.9577C21.7341 56.4414 37.4493 46.9987 52.9626 50.8666C62.6822 53.2895 70.0182 60.361 73.1925 69.1201Z" fill="url(#paint3_linear_35_28963)"/>
</g>
<g filter="url(#filter4_di_35_28963)">
<path d="M68.7004 84.5669C65.5574 97.1723 52.7888 104.844 40.1805 101.7C27.5774 98.5576 19.905 85.7897 23.0496 73.1851C26.1912 60.5783 38.9597 52.9062 51.5643 56.0489C64.1719 59.1915 71.8435 71.9609 68.7004 84.5669Z" fill="white"/>
</g>
<path d="M42.6879 69.6441C42.3292 69.5929 42.3121 69.5758 42.4829 69.5587C42.8075 69.5075 43.559 69.5758 44.0885 69.6954C45.3183 69.9857 46.4286 70.7373 47.6071 72.0525L47.9146 72.4112L48.3587 72.3429C50.2547 72.0354 52.2019 72.2746 53.8245 73.0261C54.2686 73.2311 54.9689 73.641 55.0543 73.7435C55.0885 73.7777 55.1397 73.9997 55.1739 74.2218C55.2935 75.0245 55.2422 75.6224 54.986 76.0836C54.8494 76.3398 54.8494 76.4081 54.9348 76.6301C55.0031 76.8009 55.2081 76.9205 55.396 76.9205C55.8059 76.9205 56.2329 76.2714 56.4379 75.3662L56.5233 75.0075L56.677 75.1783C57.5481 76.1519 58.2314 77.5013 58.3338 78.4578L58.368 78.714L58.2143 78.4919C57.9581 78.0991 57.7189 77.8429 57.3944 77.6208C56.8137 77.228 56.1987 77.1084 54.5761 77.023C53.1071 76.9376 52.2702 76.818 51.4503 76.5447C50.0497 76.0836 49.3323 75.4857 47.6755 73.2823C46.941 72.3087 46.4798 71.7792 46.0186 71.3351C45.0109 70.3615 44.0031 69.8491 42.6879 69.6441Z" fill="#FF007A"/>
<path d="M55.4133 71.8135C55.4475 71.1644 55.5329 70.7374 55.7208 70.3446C55.7891 70.1908 55.8574 70.0542 55.8745 70.0542C55.8916 70.0542 55.8574 70.1738 55.8062 70.3104C55.6695 70.6862 55.6525 71.2157 55.7379 71.8135C55.8574 72.5821 55.9087 72.6846 56.7286 73.5216C57.1043 73.9144 57.5484 74.4098 57.7192 74.6148L58.0096 74.9905L57.7192 74.7172C57.3605 74.3756 56.5407 73.7266 56.3528 73.6412C56.2332 73.5728 56.2161 73.5728 56.1307 73.6582C56.0624 73.7266 56.0453 73.829 56.0453 74.3244C56.0282 75.093 55.9258 75.5713 55.6695 76.0666C55.5329 76.3228 55.5158 76.2716 55.6354 75.9812C55.7208 75.7592 55.7379 75.6567 55.7379 74.9222C55.7379 73.4362 55.5671 73.0775 54.5251 72.4797C54.2689 72.3259 53.8248 72.1039 53.5686 71.9843C53.2953 71.8648 53.0904 71.7623 53.1074 71.7623C53.1416 71.7281 54.1494 72.0185 54.5422 72.1893C55.14 72.4284 55.2425 72.4455 55.3109 72.4284C55.3621 72.3772 55.3963 72.2405 55.4133 71.8135Z" fill="#FF007A"/>
<path d="M43.3882 74.3587C42.6708 73.368 42.2096 71.8307 42.3121 70.6863L42.3462 70.3276L42.517 70.3618C42.8245 70.413 43.354 70.618 43.6102 70.7717C44.2934 71.1817 44.6009 71.7453 44.8913 73.146C44.9767 73.5559 45.0962 74.0342 45.1475 74.1879C45.2329 74.4441 45.5574 75.0419 45.8307 75.4177C46.0186 75.691 45.899 75.8276 45.472 75.7935C44.8229 75.7251 43.9518 75.1273 43.3882 74.3587Z" fill="#FF007A"/>
<path d="M54.5425 81.7888C51.1605 80.4223 49.9648 79.2438 49.9648 77.2453C49.9648 76.955 49.9819 76.7158 49.9819 76.7158C49.999 76.7158 50.1186 76.8183 50.2723 76.9379C50.9555 77.4845 51.7242 77.7236 53.8592 78.031C55.1061 78.2189 55.8235 78.3556 56.4726 78.5776C58.5394 79.2608 59.8204 80.6615 60.1279 82.5574C60.2133 83.104 60.162 84.1459 60.0254 84.6925C59.9058 85.1195 59.5642 85.9053 59.4788 85.9223C59.4617 85.9223 59.4276 85.8369 59.4276 85.7003C59.3934 84.9829 59.0347 84.2997 58.4369 83.7702C57.7195 83.1553 56.7971 82.6941 54.5425 81.7888Z" fill="#FF007A"/>
<path d="M52.1505 82.3525C52.1164 82.0963 52.031 81.7718 51.9797 81.6351L51.8943 81.3789L52.048 81.5668C52.2701 81.823 52.4409 82.1305 52.5946 82.5575C52.7142 82.882 52.7142 82.9845 52.7142 83.514C52.7142 84.0264 52.6971 84.146 52.5946 84.4364C52.4238 84.8975 52.2189 85.2221 51.8772 85.5808C51.2623 86.2128 50.4595 86.5544 49.3151 86.7081C49.1102 86.7252 48.5294 86.7764 48.017 86.8106C46.7359 86.8789 45.8819 87.0155 45.1133 87.2888C45.0108 87.323 44.9083 87.3572 44.8912 87.3401C44.8571 87.3059 45.3866 86.9985 45.8136 86.7935C46.4114 86.5031 47.0263 86.3494 48.3757 86.1103C49.0418 86.0078 49.7251 85.8711 49.8959 85.8028C51.5869 85.2733 52.4238 83.9581 52.1505 82.3525Z" fill="#FF007A"/>
<path d="M53.7055 85.1024C53.2614 84.1288 53.1589 83.2065 53.398 82.3354C53.4322 82.25 53.4663 82.1646 53.5005 82.1646C53.5347 82.1646 53.6371 82.2158 53.7396 82.2841C53.9446 82.4208 54.3716 82.6599 55.4648 83.2577C56.8483 84.0093 57.634 84.59 58.1806 85.2562C58.6589 85.8369 58.9492 86.5031 59.0859 87.3229C59.1713 87.7841 59.12 88.8944 59.0005 89.3555C58.6247 90.8074 57.7707 91.9689 56.5238 92.635C56.3359 92.7375 56.1822 92.8058 56.1651 92.8058C56.148 92.8058 56.2163 92.635 56.3188 92.4301C56.7287 91.5589 56.78 90.722 56.4725 89.7826C56.2846 89.2018 55.8918 88.5015 55.1061 87.3229C54.1666 85.9565 53.9446 85.5978 53.7055 85.1024Z" fill="#FF007A"/>
<path d="M40.9798 90.329C42.2438 89.27 43.7981 88.5184 45.2329 88.2793C45.8478 88.1768 46.8726 88.211 47.4363 88.3647C48.3416 88.6038 49.1615 89.1162 49.5885 89.7482C49.9984 90.3631 50.1863 90.8926 50.3742 92.0712C50.4425 92.5324 50.5279 93.0106 50.545 93.1131C50.6816 93.728 50.9549 94.2063 51.2965 94.4625C51.8261 94.8554 52.7484 94.8724 53.6537 94.5308C53.8074 94.4796 53.9441 94.4284 53.9441 94.4454C53.9782 94.4796 53.517 94.787 53.2096 94.9408C52.7826 95.1628 52.441 95.2311 51.9798 95.2311C51.1599 95.2311 50.4596 94.8041 49.8959 93.9501C49.7764 93.7793 49.5372 93.2839 49.3323 92.8228C48.7344 91.4392 48.427 91.0293 47.7267 90.5681C47.1118 90.1752 46.3261 90.0898 45.7282 90.3802C44.9425 90.756 44.7375 91.7638 45.2841 92.3787C45.5062 92.6349 45.9161 92.8398 46.2577 92.8911C46.8897 92.9765 47.4363 92.4811 47.4363 91.8492C47.4363 91.4392 47.2826 91.2001 46.8726 91.0122C46.3261 90.7731 45.7282 91.0464 45.7453 91.5759C45.7453 91.7979 45.8478 91.9346 46.0698 92.037C46.2065 92.1054 46.2065 92.1054 46.104 92.0883C45.6087 91.9858 45.4891 91.3709 45.882 90.978C46.3602 90.4998 47.368 90.7047 47.7096 91.3709C47.8462 91.6442 47.8633 92.1908 47.7438 92.5324C47.4534 93.2839 46.6335 93.6768 45.7966 93.4547C45.2329 93.301 44.9938 93.1473 44.3105 92.447C43.1149 91.2172 42.6537 90.978 40.9456 90.7218L40.6211 90.6706L40.9798 90.329Z" fill="#FF007A"/>
<path fill-rule="evenodd" clip-rule="evenodd" d="M31.9956 62.8463C35.9754 67.6801 42.1074 75.1957 42.4148 75.6056C42.671 75.9472 42.5685 76.2717 42.1415 76.5109C41.9024 76.6475 41.407 76.7842 41.1679 76.7842C40.8946 76.7842 40.5701 76.6475 40.348 76.4255C40.1943 76.2717 39.5282 75.2981 38.0251 72.9581C36.8807 71.1646 35.9071 69.6786 35.89 69.6615C35.8216 69.6273 35.8216 69.6273 37.9055 73.3509C39.2207 75.691 39.6477 76.528 39.6477 76.6304C39.6477 76.8525 39.5794 76.9721 39.3061 77.2795C38.8449 77.7919 38.64 78.3727 38.4862 79.5854C38.3154 80.9348 37.8543 81.8913 36.539 83.514C35.7704 84.4705 35.6508 84.6413 35.463 85.0342C35.2238 85.5124 35.1555 85.7857 35.1213 86.4006C35.0872 87.0497 35.1555 87.4596 35.3434 88.0745C35.5142 88.6211 35.7021 88.9798 36.1633 89.6801C36.5561 90.295 36.7953 90.7562 36.7953 90.927C36.7953 91.0637 36.8294 91.0637 37.4443 90.927C38.9133 90.5854 40.126 90.0046 40.7921 89.2873C41.2021 88.8432 41.3046 88.604 41.3046 87.9891C41.3046 87.5963 41.2875 87.5109 41.185 87.2717C41.0142 86.896 40.6897 86.5885 39.9893 86.1102C39.067 85.4783 38.6741 84.9658 38.5716 84.2826C38.4862 83.7019 38.5887 83.309 39.1011 82.2329C39.6307 81.1227 39.7673 80.6615 39.8527 79.5342C39.9039 78.8168 39.9893 78.5264 40.1943 78.3043C40.4164 78.0652 40.6043 77.9798 41.1338 77.9115C42.0049 77.7919 42.5685 77.5699 43.0126 77.1429C43.4055 76.7842 43.5763 76.4255 43.5934 75.896L43.6105 75.5031L43.3884 75.264C42.5856 74.3416 31.4661 62.1118 31.4148 62.1118C31.3977 62.1118 31.671 62.4364 31.9956 62.8463ZM37.2393 87.1351C37.4272 86.8106 37.3248 86.4006 37.0173 86.1956C36.7269 86.0078 36.2828 86.0932 36.2828 86.3494C36.2828 86.4177 36.317 86.486 36.4195 86.5202C36.5732 86.6056 36.5903 86.691 36.4707 86.8789C36.3512 87.0668 36.3512 87.2376 36.5049 87.3571C36.744 87.545 37.0685 87.4425 37.2393 87.1351Z" fill="#FF007A"/>
<path fill-rule="evenodd" clip-rule="evenodd" d="M44.1574 78.1506C43.7474 78.2702 43.3546 78.7143 43.235 79.1584C43.1667 79.4317 43.2009 79.927 43.3204 80.0808C43.5083 80.3199 43.6791 80.3882 44.1574 80.3882C45.0968 80.3882 45.8996 79.9783 45.985 79.4829C46.0704 79.073 45.7117 78.5093 45.2164 78.2531C44.9602 78.1165 44.4307 78.0652 44.1574 78.1506ZM45.2505 79.0047C45.3872 78.7997 45.3359 78.5777 45.0797 78.4239C44.6186 78.1336 43.9182 78.3727 43.9182 78.8168C43.9182 79.0388 44.2769 79.278 44.6186 79.278C44.8406 79.278 45.1481 79.1413 45.2505 79.0047Z" fill="#FF007A"/>
</g>
<defs>
<filter id="filter0_di_35_28963" x="7.94165" y="171.978" width="76.947" height="77.6636" filterUnits="userSpaceOnUse" color-interpolation-filters="sRGB">
<feFlood flood-opacity="0" result="BackgroundImageFix"/>
<feColorMatrix in="SourceAlpha" type="matrix" values="0 0 0 0 0 0 0 0 0 0 0 0 0 0 0 0 0 0 127 0" result="hardAlpha"/>
<feOffset dx="-0.716554" dy="0.716554"/>
<feColorMatrix type="matrix" values="0 0 0 0 0.921569 0 0 0 0 0.921569 0 0 0 0 0.921569 0 0 0 0.24 0"/>
<feBlend mode="normal" in2="BackgroundImageFix" result="effect1_dropShadow_35_28963"/>
<feBlend mode="normal" in="SourceGraphic" in2="effect1_dropShadow_35_28963" result="shape"/>
<feColorMatrix in="SourceAlpha" type="matrix" values="0 0 0 0 0 0 0 0 0 0 0 0 0 0 0 0 0 0 127 0" result="hardAlpha"/>
<feOffset dx="-0.716554" dy="1.43311"/>
<feGaussianBlur stdDeviation="0.716554"/>
<feComposite in2="hardAlpha" operator="arithmetic" k2="-1" k3="1"/>
<feColorMatrix type="matrix" values="0 0 0 0 0 0 0 0 0 0 0 0 0 0 0 0 0 0 0.16 0"/>
<feBlend mode="normal" in2="shape" result="effect2_innerShadow_35_28963"/>
</filter>
<filter id="filter1_di_35_28963" x="84.675" y="6.62695" width="59.0662" height="59.7827" filterUnits="userSpaceOnUse" color-interpolation-filters="sRGB">
<feFlood flood-opacity="0" result="BackgroundImageFix"/>
<feColorMatrix in="SourceAlpha" type="matrix" values="0 0 0 0 0 0 0 0 0 0 0 0 0 0 0 0 0 0 127 0" result="hardAlpha"/>
<feOffset dx="-0.716554" dy="0.716554"/>
<feColorMatrix type="matrix" values="0 0 0 0 0.921569 0 0 0 0 0.921569 0 0 0 0 0.921569 0 0 0 0.24 0"/>
<feBlend mode="normal" in2="BackgroundImageFix" result="effect1_dropShadow_35_28963"/>
<feBlend mode="normal" in="SourceGraphic" in2="effect1_dropShadow_35_28963" result="shape"/>
<feColorMatrix in="SourceAlpha" type="matrix" values="0 0 0 0 0 0 0 0 0 0 0 0 0 0 0 0 0 0 127 0" result="hardAlpha"/>
<feOffset dx="-0.716554" dy="1.43311"/>
<feGaussianBlur stdDeviation="0.716554"/>
<feComposite in2="hardAlpha" operator="arithmetic" k2="-1" k3="1"/>
<feColorMatrix type="matrix" values="0 0 0 0 0 0 0 0 0 0 0 0 0 0 0 0 0 0 0.16 0"/>
<feBlend mode="normal" in2="shape" result="effect2_innerShadow_35_28963"/>
</filter>
<filter id="filter2_di_35_28963" x="56.3411" y="73.0576" width="133.301" height="134.017" filterUnits="userSpaceOnUse" color-interpolation-filters="sRGB">
<feFlood flood-opacity="0" result="BackgroundImageFix"/>
<feColorMatrix in="SourceAlpha" type="matrix" values="0 0 0 0 0 0 0 0 0 0 0 0 0 0 0 0 0 0 127 0" result="hardAlpha"/>
<feOffset dx="-0.716554" dy="0.716554"/>
<feColorMatrix type="matrix" values="0 0 0 0 0.921569 0 0 0 0 0.921569 0 0 0 0 0.921569 0 0 0 0.24 0"/>
<feBlend mode="normal" in2="BackgroundImageFix" result="effect1_dropShadow_35_28963"/>
<feBlend mode="normal" in="SourceGraphic" in2="effect1_dropShadow_35_28963" result="shape"/>
<feColorMatrix in="SourceAlpha" type="matrix" values="0 0 0 0 0 0 0 0 0 0 0 0 0 0 0 0 0 0 127 0" result="hardAlpha"/>
<feOffset dx="-0.716554" dy="1.43311"/>
<feGaussianBlur stdDeviation="0.716554"/>
<feComposite in2="hardAlpha" operator="arithmetic" k2="-1" k3="1"/>
<feColorMatrix type="matrix" values="0 0 0 0 0 0 0 0 0 0 0 0 0 0 0 0 0 0 0.16 0"/>
<feBlend mode="normal" in2="shape" result="effect2_innerShadow_35_28963"/>
</filter>
<filter id="filter3_f_35_28963" x="15" y="48" width="61.9199" height="61.9199" filterUnits="userSpaceOnUse" color-interpolation-filters="sRGB">
<feFlood flood-opacity="0" result="BackgroundImageFix"/>
<feBlend mode="normal" in="SourceGraphic" in2="BackgroundImageFix" result="shape"/>
<feGaussianBlur stdDeviation="1" result="effect1_foregroundBlur_35_28963"/>
</filter>
<filter id="filter4_di_35_28963" x="21.6282" y="55.3447" width="47.7761" height="48.4932" filterUnits="userSpaceOnUse" color-interpolation-filters="sRGB">
<feFlood flood-opacity="0" result="BackgroundImageFix"/>
<feColorMatrix in="SourceAlpha" type="matrix" values="0 0 0 0 0 0 0 0 0 0 0 0 0 0 0 0 0 0 127 0" result="hardAlpha"/>
<feOffset dx="-0.716554" dy="0.716554"/>
<feColorMatrix type="matrix" values="0 0 0 0 0.921569 0 0 0 0 0.921569 0 0 0 0 0.921569 0 0 0 0.24 0"/>
<feBlend mode="normal" in2="BackgroundImageFix" result="effect1_dropShadow_35_28963"/>
<feBlend mode="normal" in="SourceGraphic" in2="effect1_dropShadow_35_28963" result="shape"/>
<feColorMatrix in="SourceAlpha" type="matrix" values="0 0 0 0 0 0 0 0 0 0 0 0 0 0 0 0 0 0 127 0" result="hardAlpha"/>
<feOffset dx="-0.716554" dy="1.43311"/>
<feGaussianBlur stdDeviation="0.716554"/>
<feComposite in2="hardAlpha" operator="arithmetic" k2="-1" k3="1"/>
<feColorMatrix type="matrix" values="0 0 0 0 0 0 0 0 0 0 0 0 0 0 0 0 0 0 0.16 0"/>
<feBlend mode="normal" in2="shape" result="effect2_innerShadow_35_28963"/>
</filter>
<linearGradient id="paint0_linear_35_28963" x1="45.512" y1="163.32" x2="45.512" y2="217.752" gradientUnits="userSpaceOnUse">
<stop stop-color="white"/>
<stop offset="1" stop-color="white" stop-opacity="0"/>
</linearGradient>
<linearGradient id="paint1_linear_35_28963" x1="113.601" y1="0" x2="113.601" y2="41.6639" gradientUnits="userSpaceOnUse">
<stop stop-color="white"/>
<stop offset="1" stop-color="white" stop-opacity="0"/>
</linearGradient>
<linearGradient id="paint2_linear_35_28963" x1="121.156" y1="58" x2="121.156" y2="152.67" gradientUnits="userSpaceOnUse">
<stop stop-color="white"/>
<stop offset="1" stop-color="white" stop-opacity="0"/>
</linearGradient>
<linearGradient id="paint3_linear_35_28963" x1="45.0962" y1="50" x2="45.0962" y2="83.6028" gradientUnits="userSpaceOnUse">
<stop stop-color="white"/>
<stop offset="1" stop-color="white" stop-opacity="0"/>
</linearGradient>
<clipPath id="clip0_35_28963">
<rect width="93.8223" height="93.8223" fill="white" transform="translate(0 163.32)"/>
</clipPath>
<clipPath id="clip1_35_28963">
<rect width="71.8146" height="71.8146" fill="white" transform="translate(78.7646)"/>
</clipPath>
<clipPath id="clip2_35_28963">
<rect width="163.18" height="163.18" fill="white" transform="translate(42 58)"/>
</clipPath>
<clipPath id="clip3_35_28963">
<rect width="57.92" height="57.92" fill="white" transform="translate(17 50)"/>
</clipPath>
</defs>
</svg>
