<svg width="40" height="40" viewBox="0 0 40 40" fill="none" xmlns="http://www.w3.org/2000/svg">
<path fill-rule="evenodd" clip-rule="evenodd" d="M22.2493 6.28945L22.7591 6.91952L23.1917 7.62786L33.9919 32.3545L34.3471 33.1632L34.5705 33.9569L34.6682 34.7235L34.6464 35.4504L34.5109 36.1248L34.2674 36.733L33.9216 37.2611L33.4793 37.6945L32.9466 38.0182L32.3299 38.217L31.6358 38.2754L30.8717 38.1778L4.98288 32.5616L4.05417 32.2671L3.20083 31.8329L2.43455 31.2789L1.76656 30.6253L1.20758 29.893L0.767731 29.1031L0.456527 28.2767L0.282829 27.4349L0.254883 26.5985L0.380283 25.7881L0.665997 25.0237L1.11841 24.3247L16.187 5.34555L16.6404 4.91333L17.1711 4.61589L17.762 4.44608L18.3967 4.39697L19.059 4.46192L19.7333 4.6346L20.4044 4.90906L21.0573 5.27972L21.6772 5.74143L22.2493 6.28945Z" fill="url(#paint0_linear_35_10950)" fill-opacity="0.35"/>
<g filter="url(#filter0_b_35_10950)">
<path fill-rule="evenodd" clip-rule="evenodd" d="M0.433309 24.9126L0.896239 24.1925L15.3969 6.15051L16.1599 5.34961L16.936 4.53484L17.7257 3.70578L18.5293 2.86214L19.3473 2.00342L4.68545 20.3584L4.21637 21.0977L3.92012 21.9062L3.7901 22.7633L3.81909 23.6479L3.99918 24.5382L4.32187 25.4122L4.77793 26.2477L5.3575 27.0222L6.0501 27.7134L6.84461 28.2994L7.72939 28.7586L8.69231 29.0701L36.0636 35.4065L36.8559 35.5098L37.5755 35.448L38.215 35.2378L37.1842 35.8299L36.1722 36.4111L35.1786 36.9818L34.2029 37.5422L33.2446 38.0927L32.6159 38.3038L31.9119 38.3724L31.1402 38.2825L4.6525 32.5292L3.72615 32.2424L2.87752 31.8126L2.11791 31.2595L1.45819 30.6038L0.908696 29.8664L0.479227 29.0685L0.178983 28.2315L0.0165778 27.3765L0 26.5246L0.136644 25.6966L0.433309 24.9126Z" fill="url(#paint1_linear_35_10950)" fill-opacity="0.6"/>
</g>
<g filter="url(#filter1_b_35_10950)">
<path fill-rule="evenodd" clip-rule="evenodd" d="M25.6329 3.00155L26.1615 3.66794L26.61 4.41711L39.2986 29.2474L39.667 30.1028L39.8986 30.9422L39.9999 31.7529L39.9773 32.5218L39.8368 33.235L39.5844 33.8783L39.2258 34.4369L38.7672 34.8952L38.2149 35.2376L37.5755 35.4478L36.8558 35.5096L36.0636 35.4063L8.69223 29.07L7.72931 28.7584L6.84452 28.2992L6.05001 27.7133L5.35742 27.022L4.77784 26.2475L4.32178 25.4121L3.99911 24.538L3.81902 23.6477L3.79004 22.7632L3.92006 21.906L4.2163 21.0976L4.68538 20.3583L19.3472 2.00325L19.8174 1.54612L20.3676 1.23154L20.9803 1.05194L21.6383 1L22.325 1.06869L23.0242 1.25133L23.7201 1.54161L24.397 1.93363L25.0397 2.42194L25.6329 3.00155Z" fill="url(#paint2_linear_35_10950)" fill-opacity="0.2"/>
<path d="M24.7125 2.80128L25.2609 3.33706L25.7494 3.95295L26.1724 4.65957L38.8459 29.4603L39.1942 30.2689L39.4069 31.0402L39.499 31.7767L39.4788 32.4658L39.355 33.0942L39.137 33.6497L38.8342 34.1214L38.4546 34.5007L38.0021 34.7812L37.4747 34.9547L36.8669 35.0068L36.1525 34.9137L8.82583 28.5877L7.92275 28.2955L7.1097 27.8735L6.37681 27.333L5.73614 26.6936L5.19958 25.9766L4.77817 25.2046L4.48154 24.4011L4.31738 23.5895L4.29128 22.7927L4.40685 22.0308L4.66729 21.32L5.09301 20.6491L19.7183 2.33985L20.1205 1.94875L20.5647 1.6948L21.0713 1.54632L21.6331 1.50197L22.2364 1.56232L22.864 1.72625L23.4976 1.99056L24.1194 2.35065L24.7125 2.80128Z" stroke="url(#paint3_linear_35_10950)"/>
</g>
<g filter="url(#filter2_d_35_10950)">
<path fill-rule="evenodd" clip-rule="evenodd" d="M22.0478 7.75677L22.0028 7.83047L21.6474 8.07427L21.2919 8.31807L21.3265 8.22802L21.3716 8.1545L21.7097 7.95564L22.0478 7.75677ZM21.4272 8.0975L22.1028 7.69994L22.1032 7.69968L22.0478 7.75677L21.3721 8.15424L21.3716 8.1545L21.4272 8.0975ZM22.0028 7.83047L21.6474 8.07427L21.2919 8.31807L21.2677 8.42469L21.6061 8.22627L21.9445 8.02784L21.9684 7.92086L22.0028 7.83047ZM21.4367 8.09186L21.4272 8.0975L21.428 8.09698L21.4932 8.05699L22.1596 7.66486L22.1692 7.65918L22.1683 7.6597L22.1032 7.69968L21.4367 8.09186ZM21.9445 8.02784L21.6061 8.22627L21.2677 8.42469L21.2541 8.5479L21.2511 8.68772L21.4505 19.4694L21.4505 19.4698L21.4576 19.6046L21.474 19.731L21.4996 19.849L21.5345 19.9585L21.5785 20.0597L21.6317 20.1523L21.6942 20.2363L21.7658 20.3118L21.8465 20.3788L21.9363 20.4371L22.0352 20.4869L22.1432 20.5281L23.3759 20.9328L23.4821 20.9619L23.5792 20.9767L23.6673 20.9771L23.7464 20.9631L24.3789 20.646L24.3791 20.6459L24.291 20.6452L24.1937 20.6302L24.0873 20.6006L22.8523 20.1909L22.7442 20.1493L22.645 20.099L22.5549 20.0401L22.4739 19.9726L22.402 19.8966L22.3392 19.812L22.2858 19.7187L22.2414 19.617L22.2062 19.5069L22.1802 19.3882L22.1636 19.2611L22.1561 19.1256L21.9285 8.29242L21.9285 8.29201L21.9312 8.15156L21.9445 8.02784ZM23.6873 26.4469L23.5674 26.4184L21.9195 25.9321L21.797 25.889L21.6851 25.8352L21.5838 25.7706L21.4933 25.6953L21.4134 25.6092L21.3444 25.5124L21.2862 25.4049L21.2388 25.2867L21.2023 25.158L21.1766 25.0187L21.1617 24.8689L21.1577 24.7086L21.1726 22.9464L21.1792 22.7917L21.1963 22.654L21.2239 22.5334L21.262 22.4298L21.3105 22.3433L21.3695 22.2737L21.4388 22.2211L22.1513 21.8909L22.1515 21.8908L22.0822 21.9435L22.0234 22.0133L21.9751 22.1001L21.9372 22.2041L21.9099 22.3253L21.8931 22.4636L21.8869 22.6192L21.8766 24.3904L21.881 24.5515L21.8962 24.7022L21.9223 24.8423L21.9593 24.9718L22.007 25.0906L22.0656 25.1988L22.1349 25.2963L22.2151 25.383L22.3059 25.459L22.4075 25.5242L22.5196 25.5785L24.2934 26.1145L24.4136 26.1435L24.523 26.1555L24.6218 26.1507L23.9835 26.4318L23.8954 26.4536L23.7966 26.4587L23.6873 26.4469ZM24.6218 26.1507L24.7101 26.1289L23.9835 26.4318L24.6218 26.1507Z" fill="url(#paint4_linear_35_10950)"/>
<path fill-rule="evenodd" clip-rule="evenodd" d="M22.3323 7.62793L22.3323 7.62793L22.3323 7.62793L22.3323 7.62793L22.2455 7.63534L22.1691 7.65928L22.1691 7.65928L22.1691 7.65929L22.1032 7.69977L22.0477 7.75684L22.0477 7.75686L22.0477 7.75687L22.0027 7.83057L21.9683 7.92091L21.9683 7.92092L21.9683 7.92092L21.9683 7.92092L21.9683 7.92092L22.1691 7.65929L22.1691 7.65929L22.1691 7.6593L21.9683 7.92092L21.9311 8.15166L21.9284 8.2921L22.156 19.1251L22.156 19.1257L22.1635 19.2612L22.1802 19.3883L22.2062 19.5069L22.2413 19.6171L22.2857 19.7188L22.3392 19.812L22.4019 19.8967L22.4738 19.9727L22.5548 20.0402L22.6449 20.0991L22.744 20.1494L22.8522 20.191L24.0872 20.6007L24.1936 20.6303L24.2909 20.6453L24.379 20.646L24.4582 20.6321L24.5282 20.6039L24.5283 20.6039L24.5283 20.6039L24.5893 20.5613L24.6413 20.5045L24.6413 20.5044L24.6414 20.5044L24.6414 20.5044L24.6414 20.5043L24.6844 20.4331L24.7185 20.3476L24.7185 20.3475L24.7599 20.1336L24.7599 20.1336L24.7672 20.0052L24.987 9.52154L24.987 9.52139L24.9844 9.38158L24.9716 9.2497L24.9485 9.12586L24.9153 9.01001L24.8719 8.9021L24.8183 8.80209L24.7545 8.70996L24.6804 8.62568L24.596 8.54922L24.5013 8.48057L24.3963 8.41972L24.2808 8.36666L22.6552 7.70451L22.5372 7.66255L22.5372 7.66255L22.5371 7.66254L22.4295 7.63701L22.3323 7.62793L22.3323 7.62793ZM24.7186 20.3475L24.7437 20.2477L24.7599 20.1336L24.7186 20.3475ZM24.8955 22.9297L24.8386 22.8245L24.7716 22.7294L24.6944 22.6444L24.6069 22.5695L24.509 22.5047L24.4009 22.4499H24.4009L24.2823 22.4051L22.6536 21.8822L22.5324 21.8501L22.4217 21.8348L22.3212 21.8365L22.2311 21.8552L22.1514 21.8909L22.0822 21.9436H22.0821L22.082 21.9438L22.0234 22.0134L21.9752 22.1L21.975 22.1002L21.9749 22.1005L21.9372 22.2042L21.9099 22.325L21.9098 22.3253L21.9098 22.3254L21.9098 22.3255L21.9097 22.3259L21.893 22.4637L21.8868 22.6192L21.8868 22.6193L21.8765 24.3905L21.8809 24.5516L21.8962 24.7023L21.9223 24.8424L21.9592 24.9719L22.0069 25.0907L22.007 25.0907L22.007 25.0907L22.0655 25.1989L22.1349 25.2964L22.215 25.3831L22.3059 25.4591L22.3059 25.4591L22.306 25.4592L22.4074 25.5242L22.5194 25.5785L22.5196 25.5786L24.2934 26.1146L24.4135 26.1436L24.5229 26.1556L24.6218 26.1507L24.71 26.129L24.7876 26.0905L24.8546 26.0352L24.8547 26.0351L24.8547 26.0351L24.9113 25.9631L24.9573 25.8743L24.9574 25.8741L24.9574 25.8741L24.9574 25.874L24.9929 25.7688L25.018 25.6467L25.018 25.6466L25.0327 25.5078L25.037 25.3525L25.037 25.3524L25.0271 23.6088L25.0211 23.4523L25.0049 23.3063L24.9786 23.1705L24.9421 23.045L24.8955 22.9297ZM24.9786 23.1705L25.0211 23.4523L25.037 25.3524L25.0211 23.4523L24.9786 23.1705L24.7716 22.7294L24.7716 22.7294L24.9786 23.1705ZM21.9444 8.02794L21.9683 7.92092L21.9311 8.15166L21.9444 8.02794Z" fill="url(#paint5_linear_35_10950)" fill-opacity="0.8"/>
</g>
<defs>
<filter id="filter0_b_35_10950" x="-30" y="-27.9966" width="98.2148" height="96.3691" filterUnits="userSpaceOnUse" color-interpolation-filters="sRGB">
<feFlood flood-opacity="0" result="BackgroundImageFix"/>
<feGaussianBlur in="BackgroundImageFix" stdDeviation="15"/>
<feComposite in2="SourceAlpha" operator="in" result="effect1_backgroundBlur_35_10950"/>
<feBlend mode="normal" in="SourceGraphic" in2="effect1_backgroundBlur_35_10950" result="shape"/>
</filter>
<filter id="filter1_b_35_10950" x="-9.20996" y="-12" width="62.21" height="60.5098" filterUnits="userSpaceOnUse" color-interpolation-filters="sRGB">
<feFlood flood-opacity="0" result="BackgroundImageFix"/>
<feGaussianBlur in="BackgroundImageFix" stdDeviation="6.5"/>
<feComposite in2="SourceAlpha" operator="in" result="effect1_backgroundBlur_35_10950"/>
<feBlend mode="normal" in="SourceGraphic" in2="effect1_backgroundBlur_35_10950" result="shape"/>
</filter>
<filter id="filter2_d_35_10950" x="7.15771" y="0.62793" width="23.8794" height="38.8306" filterUnits="userSpaceOnUse" color-interpolation-filters="sRGB">
<feFlood flood-opacity="0" result="BackgroundImageFix"/>
<feColorMatrix in="SourceAlpha" type="matrix" values="0 0 0 0 0 0 0 0 0 0 0 0 0 0 0 0 0 0 127 0" result="hardAlpha"/>
<feOffset dx="-4" dy="3"/>
<feGaussianBlur stdDeviation="5"/>
<feComposite in2="hardAlpha" operator="out"/>
<feColorMatrix type="matrix" values="0 0 0 0 0.333333 0 0 0 0 0.260549 0 0 0 0 0.207843 0 0 0 0.3 0"/>
<feBlend mode="normal" in2="BackgroundImageFix" result="effect1_dropShadow_35_10950"/>
<feBlend mode="normal" in="SourceGraphic" in2="effect1_dropShadow_35_10950" result="shape"/>
</filter>
<linearGradient id="paint0_linear_35_10950" x1="1.10982" y1="39.7005" x2="29.3891" y2="3.27876" gradientUnits="userSpaceOnUse">
<stop offset="0.268633" stop-color="#EFEAD5"/>
<stop offset="0.763637" stop-color="#E7E5B7" stop-opacity="0.39"/>
</linearGradient>
<linearGradient id="paint1_linear_35_10950" x1="-9.38513" y1="6.93228" x2="24.8981" y2="49.3431" gradientUnits="userSpaceOnUse">
<stop offset="0.325325" stop-color="#FFEDBE"/>
<stop offset="0.51875" stop-color="#FFD276"/>
<stop offset="0.976143" stop-color="#F56464"/>
</linearGradient>
<linearGradient id="paint2_linear_35_10950" x1="4.94077" y1="36.8084" x2="34.9919" y2="-1.13441" gradientUnits="userSpaceOnUse">
<stop offset="0.268633" stop-color="#EFEAD5"/>
<stop offset="0.763637" stop-color="#B48571"/>
</linearGradient>
<linearGradient id="paint3_linear_35_10950" x1="3.82363" y1="27.2561" x2="18.8635" y2="15.1477" gradientUnits="userSpaceOnUse">
<stop stop-color="white" stop-opacity="0.27"/>
<stop offset="0.688828" stop-color="white" stop-opacity="0"/>
</linearGradient>
<linearGradient id="paint4_linear_35_10950" x1="19.5008" y1="12.981" x2="25.9405" y2="13.2835" gradientUnits="userSpaceOnUse">
<stop offset="0.334199" stop-color="#CAB48A"/>
<stop offset="0.590808" stop-color="#C0A36B"/>
</linearGradient>
<linearGradient id="paint5_linear_35_10950" x1="31.7365" y1="25.9817" x2="36.3472" y2="19.5828" gradientUnits="userSpaceOnUse">
<stop offset="0.306695" stop-color="white" stop-opacity="0.85"/>
<stop offset="1" stop-color="#E7D4B7" stop-opacity="0.64"/>
</linearGradient>
</defs>
</svg>
