<svg width="110" height="120" viewBox="0 0 110 120" fill="none" xmlns="http://www.w3.org/2000/svg">
<path fill-rule="evenodd" clip-rule="evenodd" d="M20.6615 14.5762L23.1281 14.97L25.6679 15.6868L76.2985 34.0933L78.5142 34.9973L80.6413 36.145L82.6635 37.5111L84.5645 39.0711L86.3277 40.8015L87.9359 42.679L89.3715 44.681L90.6165 46.7851L91.6518 48.9694L92.458 51.2117L93.0145 53.49L93.2999 55.7822L94.2016 105.775L94.2017 105.777L93.898 108.205L93.2999 110.452L92.4229 112.497L91.2824 114.319L89.8946 115.897L88.276 117.208L86.4435 118.229L84.4159 118.936L82.2113 119.306L79.851 119.314L77.3555 118.936L21.4147 107.007L18.6815 106.376L15.8063 105.144L13.0578 103.359L10.5976 101.503L8.35084 99.3843L6.34692 97.0384L4.61438 94.5023L3.1806 91.8132L2.07174 89.0092L1.31251 86.1283L0.925781 83.2077L0.933299 80.2856L5.37591 26.4554L5.73249 24.1121L6.42607 21.9978L7.42697 20.1244L8.70585 18.5024L10.2339 17.1421L11.9831 16.0525L13.9262 15.2427L16.0369 14.7211L18.2901 14.4961L20.6615 14.5762ZM94.2016 105.775L93.2999 55.7822L94.1958 103.185L94.2016 105.775Z" fill="url(#paint0_linear_35_46544)" fill-opacity="0.5"/>
<path fill-rule="evenodd" clip-rule="evenodd" d="M16.5308 9.96769L16.1743 12.311L11.9586 70.3756L11.9511 73.2977L12.3377 76.218L13.097 79.0992L14.2059 81.9032L15.6397 84.5922L17.3722 87.1284L19.3761 89.4743L21.6229 91.5931L24.0831 93.4488L26.7264 95.0068L29.522 96.2335L32.4387 97.0972L92.2648 110.648L94.7602 111.026L97.1206 111.018L99.3249 110.648L101.353 109.941L99.3337 111.137L97.5083 112.155L95.5795 113.299L97.5074 112.155L97.5083 112.155L99.3337 111.137L101.353 109.941L103.185 108.919L99.3355 111.136L99.3346 111.137L99.3337 111.137L97.5083 112.155L95.5795 113.299L91.9164 115.409L88.342 117.467L86.5356 118.475L84.5458 119.183L82.3917 119.568L80.0935 119.606L77.6724 119.276L19.9443 107.076L17.1442 106.289L14.4672 105.152L11.9426 103.696L9.59935 101.952L7.46573 99.952L5.56938 97.7311L3.93707 95.3235L2.59451 92.7645L1.56621 90.0896L0.875418 87.3347L0.543945 84.5354L0.592094 81.7271L5.48763 25.6042L5.86658 23.3252L6.56874 21.2603L10.1331 16.184L11.4001 14.5773L14.0352 11.2545L16.7354 7.84949L19.5016 4.36133L18.2253 5.97993L17.2244 7.8534L16.5308 9.96769Z" fill="url(#paint1_linear_35_46544)"/>
<g filter="url(#filter0_b_35_46544)">
<path fill-rule="evenodd" clip-rule="evenodd" d="M31.46 0.431646L33.9266 0.825508L36.4663 1.54224L88.7633 19.4825L90.9791 20.3865L93.1061 21.5342L95.1283 22.9003L97.0294 24.4603L98.7925 26.1906L100.401 28.0681L101.836 30.0701L103.081 32.1743L104.117 34.3586L104.923 36.6009L105.479 38.8792L105.765 41.1713L109.111 97.4869L109.111 97.4883L108.807 99.917L108.209 102.164L107.332 104.208L106.192 106.03L104.804 107.608L103.185 108.919L101.353 109.941L99.3253 110.648L97.1207 111.018L94.7604 111.026L92.2649 110.648L32.4401 97.0974L29.7069 96.4657L26.8317 95.2334L24.0832 93.4487L21.623 91.593L19.3762 89.4742L17.3723 87.1283L15.6398 84.5921L14.206 81.9031L13.0971 79.0991L12.3379 76.2182L11.9512 73.2976L11.9587 70.3755L16.1744 12.3109L16.5309 9.9676L17.2245 7.85331L18.2254 5.97984L19.5043 4.35792L21.0324 2.99754L22.7815 1.90801L24.7246 1.09818L26.8354 0.576553L29.0885 0.351562L31.46 0.431646ZM109.111 97.4869L105.765 41.1713L109.105 94.8962L109.111 97.4869Z" fill="url(#paint2_linear_35_46544)" fill-opacity="0.3"/>
<path d="M108.609 97.4721L108.315 99.8212L107.735 102L106.888 103.976L105.79 105.731L104.456 107.246L102.904 108.504L101.147 109.483L99.2007 110.162L97.0783 110.518L94.7972 110.525L92.3577 110.156L32.5527 96.6102L32.5506 96.6097L29.8629 95.9885L27.068 94.7908L24.3702 93.0389L21.9461 91.2103L19.7389 89.1289L17.77 86.824L16.0681 84.3327L14.6605 81.6929L13.573 78.9429L12.8294 76.1213L12.4513 73.2653L12.4586 70.3943L16.6716 12.3667L17.019 10.0839L17.686 8.05053L18.6455 6.25458L19.8697 4.70208L21.3329 3.39937L23.0114 2.3539L24.8817 1.57441L26.9206 1.07053L29.105 0.852404L31.4119 0.930309L33.8189 1.31465L36.3172 2.01968L88.5876 19.9508L90.7653 20.8393L92.8468 21.9624L94.8291 23.3015L96.695 24.8327L98.4268 26.5323L100.007 28.377L101.417 30.3436L102.639 32.4092L103.654 34.5507L104.443 36.7452L104.987 38.9697L105.267 41.2171L108.609 97.4721Z" stroke="url(#paint3_linear_35_46544)"/>
</g>
<g filter="url(#filter1_d_35_46544)">
<path fill-rule="evenodd" clip-rule="evenodd" d="M37.0094 46.4715L39.3597 43.9551L36.5738 46.9386L37.0094 46.4715ZM93.714 48.5333L62.0833 71.968L62.0805 71.9701L61.5237 72.3145L60.9221 72.5608L60.2847 72.7106L59.6201 72.7658L58.9374 72.7279L58.2457 72.5989L57.554 72.3808L56.8717 72.0755L56.2081 71.6853L55.2223 72.9558L54.2364 74.2263L54.9113 74.5253L55.5959 74.7381L56.281 74.8626L56.9577 74.8969L57.6167 74.8394L58.2495 74.6882L58.8471 74.4417L59.4009 74.0984L90.9315 50.7219L90.9331 50.7207L93.714 48.5333ZM38.9222 44.4242L36.5738 46.9386L36.2256 47.4672L35.9655 48.0489L35.7946 48.6746L35.7139 49.3357L35.7241 50.0229L35.8261 50.7272L36.0207 51.4393L36.3084 52.1499L36.6896 52.8495L37.1648 53.5287L51.8189 72.2119L52.3624 72.8335L52.9527 73.3781L53.5805 73.8431L54.2364 74.2263L55.2223 72.9558L56.2081 71.6853L55.5725 71.2124L54.9742 70.6594L54.4228 70.0287L39.5478 51.0819L39.0652 50.3935L38.6773 49.6849L38.3838 48.9658L38.1843 48.2456L38.0782 47.5339L38.0648 46.8398L38.1434 46.1728L38.3131 45.5419L38.5731 44.9561L38.9222 44.4242ZM38.9222 44.4242L39.3597 43.9551L36.5738 46.9386L38.9222 44.4242Z" fill="url(#paint4_linear_35_46544)"/>
<path fill-rule="evenodd" clip-rule="evenodd" d="M93.4555 41.9833L93.8759 42.5851L94.2251 43.2016L94.5028 43.8256L94.7089 44.4496L94.8428 45.0662L94.9041 45.6679L94.8924 46.2471L94.8068 46.796L94.6469 47.307L94.4119 47.7721L94.1011 48.1834L93.7137 48.5326L62.0823 71.968L62.0802 71.9695L61.5233 72.3138L60.9219 72.5601L60.2843 72.71L59.6198 72.7651L58.9371 72.7273L58.2453 72.5983L57.5537 72.3802L56.8714 72.0749L56.2077 71.6847L55.5721 71.2118L58.4969 59.4776L87.0344 39.8481L87.493 39.593L87.9906 39.4263L88.5196 39.3447L89.0724 39.3455L89.6412 39.4256L90.2188 39.5822L90.7977 39.8127L91.3704 40.1144L91.9299 40.4847L92.4687 40.9211L92.9797 41.4214L93.4555 41.9833ZM38.1432 46.1719L38.3128 45.5413L38.5726 44.9557L40.4758 43.2479L43.1594 42.9735L43.8634 43.1295L44.5627 43.3695L45.2485 43.6907L45.9118 44.0905L46.5439 44.5664L47.1362 45.116L47.6799 45.737L58.4969 59.4776L55.5721 71.2118L54.9739 70.6588L54.4225 70.0281L39.5474 51.0812L39.0648 50.3928L38.6769 49.6843L38.3834 48.9652L38.1839 48.245L38.0778 47.5332L38.0645 46.8392L38.1432 46.1719ZM43.1594 42.9735L42.4595 42.9043L41.7729 42.925L41.1085 43.0384L40.4758 43.2479L43.1594 42.9735ZM40.4758 43.2479L39.8841 43.5566L39.3594 43.9544L38.9219 44.4236L38.5726 44.9557L40.4758 43.2479Z" fill="url(#paint5_linear_35_46544)"/>
</g>
<defs>
<filter id="filter0_b_35_46544" x="-1.04883" y="-12.6484" width="123.16" height="136.674" filterUnits="userSpaceOnUse" color-interpolation-filters="sRGB">
<feFlood flood-opacity="0" result="BackgroundImageFix"/>
<feGaussianBlur in="BackgroundImageFix" stdDeviation="6.5"/>
<feComposite in2="SourceAlpha" operator="in" result="effect1_backgroundBlur_35_46544"/>
<feBlend mode="normal" in="SourceGraphic" in2="effect1_backgroundBlur_35_46544" result="shape"/>
</filter>
<filter id="filter1_d_35_46544" x="19.0085" y="34.7044" width="85.1765" height="61.5378" filterUnits="userSpaceOnUse" color-interpolation-filters="sRGB">
<feFlood flood-opacity="0" result="BackgroundImageFix"/>
<feColorMatrix in="SourceAlpha" type="matrix" values="0 0 0 0 0 0 0 0 0 0 0 0 0 0 0 0 0 0 127 0" result="hardAlpha"/>
<feOffset dx="-3.71229" dy="8.35266"/>
<feGaussianBlur stdDeviation="6.49651"/>
<feComposite in2="hardAlpha" operator="out"/>
<feColorMatrix type="matrix" values="0 0 0 0 0.103333 0 0 0 0 0.4104 0 0 0 0 0.43 0 0 0 0.25 0"/>
<feBlend mode="normal" in2="BackgroundImageFix" result="effect1_dropShadow_35_46544"/>
<feBlend mode="normal" in="SourceGraphic" in2="effect1_dropShadow_35_46544" result="shape"/>
</filter>
<linearGradient id="paint0_linear_35_46544" x1="3.63121" y1="125.895" x2="88.9233" y2="22.2417" gradientUnits="userSpaceOnUse">
<stop offset="0.320833" stop-color="#C0EEF1"/>
<stop offset="0.58125" stop-color="#8FC3D0"/>
<stop offset="0.89375" stop-color="#2A9FAF" stop-opacity="0.79"/>
</linearGradient>
<linearGradient id="paint1_linear_35_46544" x1="-24.6635" y1="19.9798" x2="94.6162" y2="139.102" gradientUnits="userSpaceOnUse">
<stop stop-color="#CBF3FF"/>
<stop offset="0.35896" stop-color="#39B8C9"/>
<stop offset="0.683604" stop-color="#089EB3"/>
<stop offset="1" stop-color="#68A4B7"/>
</linearGradient>
<linearGradient id="paint2_linear_35_46544" x1="15.0389" y1="115.191" x2="100.331" y2="11.5377" gradientUnits="userSpaceOnUse">
<stop offset="0.320833" stop-color="#A2F4FF"/>
<stop offset="0.685417" stop-color="#68D3E9" stop-opacity="0.9405"/>
<stop offset="0.89375" stop-color="#009BB0" stop-opacity="0.79"/>
</linearGradient>
<linearGradient id="paint3_linear_35_46544" x1="11.7762" y1="100.361" x2="106.16" y2="21.1794" gradientUnits="userSpaceOnUse">
<stop offset="0.180663" stop-color="white" stop-opacity="0.35"/>
<stop offset="0.533255" stop-color="white" stop-opacity="0"/>
</linearGradient>
<linearGradient id="paint4_linear_35_46544" x1="33.0087" y1="21.182" x2="33.6887" y2="81.9498" gradientUnits="userSpaceOnUse">
<stop offset="0.301696" stop-color="#C5E7EE"/>
<stop offset="0.993284" stop-color="#7FB8C0" stop-opacity="0.63"/>
</linearGradient>
<linearGradient id="paint5_linear_35_46544" x1="61.9094" y1="83.0206" x2="92.5222" y2="28.524" gradientUnits="userSpaceOnUse">
<stop stop-color="white"/>
<stop offset="0.644664" stop-color="white" stop-opacity="0.57"/>
</linearGradient>
</defs>
</svg>
