<svg width="1103" height="270" viewBox="0 0 1103 270" fill="none" xmlns="http://www.w3.org/2000/svg">
<path opacity="0.2" d="M80.0317 22.2801C80.0768 22.2893 80.1183 22.3113 80.1512 22.3434L82.2325 24.3699L82.8189 21.5248C82.8282 21.4798 82.8502 21.4383 82.8824 21.4054L84.9124 19.3248L82.0648 18.741C82.0197 18.7317 81.9783 18.7097 81.9453 18.6776L79.8641 16.6511L79.2776 19.4962C79.2683 19.5413 79.2463 19.5827 79.2142 19.6157L77.1842 21.6962L80.0317 22.2801Z" fill="white"/>
<path opacity="0.2" d="M7.66681 6.00929C7.66011 5.96373 7.6666 5.91728 7.68551 5.87533L8.87986 3.22726L6.00551 3.64733C5.95997 3.65398 5.91353 3.64744 5.87157 3.62847L3.22299 2.43059L3.64626 5.30643C3.65296 5.35199 3.64648 5.39845 3.62756 5.4404L2.43322 8.0884L5.3076 7.66837C5.35314 7.66172 5.39958 7.66826 5.44154 7.68723L8.0901 8.88507L7.66681 6.00929Z" fill="white"/>
<path opacity="0.2" d="M117.032 100.28C117.077 100.289 117.118 100.311 117.151 100.343L119.233 102.37L119.819 99.5248C119.828 99.4798 119.85 99.4383 119.882 99.4054L121.912 97.3248L119.065 96.741C119.02 96.7317 118.978 96.7097 118.945 96.6776L116.864 94.6511L116.278 97.4962C116.268 97.5413 116.246 97.5827 116.214 97.6157L114.184 99.6962L117.032 100.28Z" fill="white"/>
<path opacity="0.2" d="M141.032 180.28C141.077 180.289 141.118 180.311 141.151 180.343L143.233 182.37L143.819 179.525C143.828 179.48 143.85 179.438 143.882 179.405L145.912 177.325L143.065 176.741C143.02 176.732 142.978 176.71 142.945 176.678L140.864 174.651L140.278 177.496C140.268 177.541 140.246 177.583 140.214 177.616L138.184 179.696L141.032 180.28Z" fill="white"/>
<path opacity="0.2" d="M100.894 71.6297C100.862 71.5967 100.84 71.5552 100.831 71.5101L100.253 68.6631L98.1655 70.6832C98.1324 70.7152 98.0909 70.737 98.0458 70.7461L95.1963 71.3211L97.2198 73.408C97.2519 73.441 97.2738 73.4825 97.2829 73.5276L97.8604 76.3745L99.948 74.3545C99.9811 74.3225 100.023 74.3007 100.068 74.2915L102.917 73.7165L100.894 71.6297Z" fill="white"/>
<path opacity="0.2" d="M137.894 149.63C137.862 149.597 137.84 149.555 137.831 149.51L137.253 146.663L135.165 148.683C135.132 148.715 135.091 148.737 135.046 148.746L132.196 149.321L134.22 151.408C134.252 151.441 134.274 151.483 134.283 151.528L134.86 154.375L136.948 152.355C136.981 152.323 137.023 152.301 137.068 152.292L139.917 151.717L137.894 149.63Z" fill="white"/>
<path opacity="0.2" d="M161.894 229.63C161.862 229.597 161.84 229.555 161.831 229.51L161.253 226.663L159.165 228.683C159.132 228.715 159.091 228.737 159.046 228.746L156.196 229.321L158.22 231.408C158.252 231.441 158.274 231.483 158.283 231.528L158.86 234.375L160.948 232.355C160.981 232.323 161.023 232.301 161.068 232.292L163.917 231.717L161.894 229.63Z" fill="white"/>
<path opacity="0.2" d="M142.256 258.755C142.302 258.762 142.344 258.781 142.379 258.812L144.561 260.729L145.001 257.858C145.008 257.813 145.028 257.77 145.059 257.736L146.98 255.554L144.106 255.116C144.061 255.109 144.018 255.09 143.984 255.059L141.802 253.142L141.361 256.013C141.354 256.058 141.334 256.101 141.304 256.135L139.383 258.317L142.256 258.755Z" fill="white"/>
<path opacity="0.4" d="M106.032 34.2801C106.077 34.2893 106.118 34.3113 106.151 34.3434L108.233 36.3699L108.819 33.5248C108.828 33.4798 108.85 33.4383 108.882 33.4054L110.912 31.3248L108.065 30.7409C108.02 30.7317 107.978 30.7097 107.945 30.6776L105.864 28.6511L105.278 31.4962C105.268 31.5413 105.246 31.5827 105.214 31.6157L103.184 33.6962L106.032 34.2801Z" fill="white"/>
<path opacity="0.4" d="M143.032 112.28C143.077 112.289 143.118 112.311 143.151 112.343L145.233 114.37L145.819 111.525C145.828 111.48 145.85 111.438 145.882 111.406L147.912 109.325L145.065 108.741C145.02 108.732 144.978 108.71 144.945 108.678L142.864 106.651L142.278 109.496C142.268 109.541 142.246 109.583 142.214 109.616L140.184 111.696L143.032 112.28Z" fill="white"/>
<path opacity="0.4" d="M167.032 192.28C167.077 192.289 167.118 192.311 167.151 192.343L169.233 194.37L169.819 191.525C169.828 191.48 169.85 191.438 169.882 191.406L171.912 189.325L169.065 188.741C169.02 188.732 168.978 188.71 168.945 188.678L166.864 186.651L166.278 189.496C166.268 189.541 166.246 189.583 166.214 189.616L164.184 191.696L167.032 192.28Z" fill="white"/>
<path opacity="0.2" d="M67.5369 53.0639C67.5541 53.0675 67.5699 53.0758 67.5825 53.0881L68.3762 53.8608L68.5997 52.7759C68.6033 52.7588 68.6117 52.743 68.6239 52.7304L69.398 51.937L68.3122 51.7144C68.295 51.7109 68.2792 51.7025 68.2666 51.6903L67.473 50.9175L67.2494 52.0024C67.2459 52.0196 67.2375 52.0354 67.2252 52.048L66.4511 52.8413L67.5369 53.0639Z" fill="white"/>
<path opacity="0.2" d="M40.8668 7.24469C40.8642 7.22732 40.8667 7.2096 40.8739 7.19361L41.3293 6.18385L40.2333 6.34403C40.2159 6.34657 40.1982 6.34407 40.1822 6.33684L39.1723 5.88007L39.3337 6.97668C39.3362 6.99405 39.3338 7.01176 39.3265 7.02776L38.8711 8.03748L39.9672 7.87732C39.9845 7.87479 40.0022 7.87728 40.0182 7.88451L41.0282 8.34127L40.8668 7.24469Z" fill="white"/>
<path opacity="0.2" d="M104.537 131.064C104.554 131.068 104.57 131.076 104.583 131.088L105.376 131.861L105.6 130.776C105.603 130.759 105.612 130.743 105.624 130.731L106.398 129.937L105.312 129.715C105.295 129.711 105.279 129.703 105.267 129.69L104.473 128.918L104.249 130.003C104.246 130.02 104.237 130.036 104.225 130.048L103.451 130.841L104.537 131.064Z" fill="white"/>
<path opacity="0.2" d="M128.537 211.064C128.554 211.068 128.57 211.076 128.583 211.088L129.376 211.861L129.6 210.776C129.603 210.759 129.612 210.743 129.624 210.731L130.398 209.937L129.312 209.715C129.295 209.711 129.279 209.703 129.267 209.69L128.473 208.918L128.249 210.003C128.246 210.02 128.237 210.036 128.225 210.048L127.451 210.841L128.537 211.064Z" fill="white"/>
<path opacity="0.2" d="M180.049 253.363C180.033 253.371 180.016 253.374 179.998 253.372L178.899 253.236L179.377 254.236C179.385 254.251 179.387 254.269 179.385 254.286L179.249 255.386L180.248 254.907C180.264 254.899 180.282 254.896 180.299 254.899L181.398 255.034L180.92 254.035C180.913 254.019 180.91 254.001 180.912 253.984L181.049 252.884L180.049 253.363Z" fill="white"/>
<ellipse opacity="0.2" cx="54.0287" cy="27.4924" rx="2.42512" ry="2.42215" transform="rotate(162.941 54.0287 27.4924)" fill="white"/>
<ellipse opacity="0.2" cx="21.4432" cy="28.6709" rx="2.42512" ry="2.42215" transform="rotate(52.9813 21.4432 28.6709)" fill="white"/>
<ellipse opacity="0.2" cx="91.0286" cy="105.493" rx="2.42512" ry="2.42215" transform="rotate(162.941 91.0286 105.493)" fill="white"/>
<ellipse opacity="0.2" cx="115.029" cy="185.493" rx="2.42512" ry="2.42215" transform="rotate(162.941 115.029 185.493)" fill="white"/>
<ellipse opacity="0.2" cx="206.273" cy="265.556" rx="2.42512" ry="2.42215" transform="rotate(-54.2775 206.273 265.556)" fill="white"/>
<ellipse opacity="0.4" cx="122.283" cy="46.7479" rx="1.02751" ry="1.02625" transform="rotate(162.941 122.283 46.7479)" fill="white"/>
<ellipse opacity="0.4" cx="159.283" cy="124.748" rx="1.02751" ry="1.02625" transform="rotate(162.941 159.283 124.748)" fill="white"/>
<ellipse opacity="0.4" cx="183.283" cy="204.748" rx="1.02751" ry="1.02625" transform="rotate(162.941 183.283 204.748)" fill="white"/>
<path opacity="0.2" d="M239.096 55.9463C239.124 55.952 239.15 55.9658 239.171 55.9859L240.474 57.2544L240.841 55.4735C240.847 55.4453 240.86 55.4194 240.881 55.3987L242.151 54.0964L240.369 53.7309C240.341 53.7251 240.315 53.7114 240.294 53.6913L238.991 52.4228L238.624 54.2037C238.618 54.2319 238.605 54.2578 238.584 54.2785L237.314 55.5808L239.096 55.9463Z" fill="white"/>
<path opacity="0.2" d="M193.799 45.7615C193.795 45.733 193.799 45.7039 193.811 45.6777L194.558 44.0201L192.759 44.2831C192.731 44.2872 192.702 44.2831 192.675 44.2713L191.018 43.5214L191.282 45.3216C191.287 45.3501 191.283 45.3792 191.271 45.4054L190.523 47.063L192.322 46.8C192.351 46.7959 192.38 46.8 192.406 46.8119L194.064 47.5616L193.799 45.7615Z" fill="white"/>
<path opacity="0.2" d="M262.256 104.771C262.285 104.777 262.311 104.79 262.331 104.81L263.634 106.079L264.001 104.298C264.007 104.27 264.021 104.244 264.041 104.223L265.311 102.921L263.529 102.555C263.501 102.55 263.475 102.536 263.454 102.516L262.151 101.247L261.784 103.028C261.779 103.056 261.765 103.082 261.745 103.103L260.474 104.405L262.256 104.771Z" fill="white"/>
<path opacity="0.2" d="M277.28 154.847C277.308 154.853 277.334 154.867 277.355 154.887L278.657 156.155L279.024 154.374C279.03 154.346 279.044 154.32 279.064 154.3L280.335 152.997L278.552 152.632C278.524 152.626 278.498 152.612 278.478 152.592L277.175 151.324L276.808 153.105C276.802 153.133 276.788 153.159 276.768 153.179L275.497 154.482L277.28 154.847Z" fill="white"/>
<path opacity="0.2" d="M307.129 220.669C307.103 220.681 307.074 220.686 307.046 220.683L305.241 220.461L306.026 222.101C306.038 222.127 306.043 222.156 306.039 222.184L305.815 223.99L307.456 223.203C307.482 223.19 307.511 223.186 307.539 223.189L309.344 223.411L308.559 221.771C308.547 221.745 308.542 221.716 308.545 221.688L308.77 219.882L307.129 220.669Z" fill="white"/>
<path opacity="0.2" d="M252.154 86.8369C252.134 86.8162 252.121 86.7902 252.115 86.762L251.753 84.98L250.447 86.2444C250.426 86.2644 250.4 86.2781 250.372 86.2838L248.588 86.6437L249.855 87.95C249.875 87.9707 249.888 87.9967 249.894 88.0249L250.256 89.8069L251.562 88.5425C251.583 88.5224 251.609 88.5088 251.637 88.5031L253.421 88.1432L252.154 86.8369Z" fill="white"/>
<path opacity="0.2" d="M275.316 135.661C275.295 135.641 275.282 135.615 275.276 135.586L274.914 133.804L273.608 135.069C273.587 135.089 273.561 135.103 273.533 135.108L271.749 135.468L273.016 136.774C273.036 136.795 273.05 136.821 273.055 136.849L273.417 138.631L274.724 137.367C274.744 137.347 274.77 137.333 274.799 137.328L276.582 136.968L275.316 135.661Z" fill="white"/>
<path opacity="0.2" d="M290.338 185.738C290.318 185.717 290.304 185.691 290.298 185.663L289.937 183.881L288.63 185.145C288.61 185.165 288.584 185.179 288.555 185.185L286.772 185.545L288.038 186.851C288.058 186.872 288.072 186.897 288.078 186.926L288.439 188.708L289.746 187.443C289.767 187.423 289.793 187.41 289.821 187.404L291.605 187.044L290.338 185.738Z" fill="white"/>
<path opacity="0.2" d="M278.046 203.968C278.074 203.973 278.101 203.985 278.123 204.004L279.488 205.205L279.764 203.407C279.769 203.379 279.781 203.352 279.8 203.331L281.003 201.965L279.204 201.691C279.175 201.687 279.149 201.674 279.127 201.655L277.761 200.455L277.486 202.252C277.481 202.281 277.469 202.307 277.45 202.329L276.247 203.694L278.046 203.968Z" fill="white"/>
<path opacity="0.4" d="M255.371 63.4577C255.399 63.4635 255.425 63.4773 255.445 63.4974L256.748 64.7659L257.115 62.985C257.121 62.9568 257.135 62.9309 257.155 62.9102L258.426 61.6079L256.643 61.2424C256.615 61.2366 256.589 61.2229 256.568 61.2028L255.266 59.9343L254.899 61.7152C254.893 61.7434 254.879 61.7693 254.859 61.7899L253.588 63.0923L255.371 63.4577Z" fill="white"/>
<path opacity="0.4" d="M278.532 112.282C278.56 112.288 278.586 112.302 278.607 112.322L279.909 113.59L280.276 111.809C280.282 111.781 280.296 111.755 280.316 111.735L281.587 110.432L279.804 110.067C279.776 110.061 279.75 110.047 279.73 110.027L278.427 108.759L278.06 110.54C278.054 110.568 278.04 110.594 278.02 110.614L276.749 111.917L278.532 112.282Z" fill="white"/>
<path opacity="0.4" d="M293.554 162.359C293.582 162.364 293.608 162.378 293.629 162.398L294.932 163.667L295.299 161.886C295.305 161.858 295.318 161.832 295.339 161.811L296.609 160.509L294.827 160.143C294.799 160.137 294.773 160.124 294.752 160.104L293.449 158.835L293.082 160.616C293.076 160.644 293.063 160.67 293.042 160.691L291.772 161.993L293.554 162.359Z" fill="white"/>
<path opacity="0.2" d="M231.275 75.2156C231.286 75.2178 231.296 75.223 231.304 75.2307L231.8 75.7144L231.94 75.0353C231.943 75.0246 231.948 75.0147 231.955 75.0068L232.44 74.5102L231.76 74.3709C231.75 74.3686 231.74 74.3634 231.732 74.3557L231.235 73.872L231.095 74.5511C231.093 74.5619 231.088 74.5718 231.08 74.5796L230.595 75.0762L231.275 75.2156Z" fill="white"/>
<path opacity="0.2" d="M214.58 46.5349C214.579 46.524 214.58 46.5129 214.585 46.5029L214.87 45.8708L214.184 45.9711C214.173 45.9727 214.162 45.9711 214.152 45.9666L213.52 45.6807L213.621 46.3671C213.622 46.378 213.621 46.3891 213.616 46.3991L213.331 47.0311L214.017 46.9309C214.028 46.9293 214.039 46.9308 214.049 46.9354L214.681 47.2213L214.58 46.5349Z" fill="white"/>
<path opacity="0.2" d="M254.435 124.04C254.446 124.042 254.456 124.048 254.464 124.055L254.96 124.539L255.1 123.86C255.103 123.849 255.108 123.839 255.116 123.831L255.6 123.335L254.92 123.195C254.91 123.193 254.9 123.188 254.892 123.18L254.395 122.697L254.255 123.376C254.253 123.386 254.248 123.396 254.24 123.404L253.756 123.901L254.435 124.04Z" fill="white"/>
<path opacity="0.2" d="M269.459 174.116C269.469 174.119 269.479 174.124 269.487 174.131L269.984 174.615L270.124 173.936C270.126 173.925 270.131 173.915 270.139 173.908L270.624 173.411L269.944 173.272C269.933 173.269 269.923 173.264 269.915 173.256L269.419 172.773L269.279 173.452C269.276 173.463 269.271 173.473 269.263 173.48L268.779 173.977L269.459 174.116Z" fill="white"/>
<path opacity="0.2" d="M301.702 200.594C301.692 200.599 301.681 200.6 301.67 200.599L300.982 200.514L301.282 201.14C301.286 201.15 301.288 201.161 301.287 201.172L301.201 201.86L301.827 201.56C301.837 201.555 301.848 201.554 301.859 201.555L302.547 201.64L302.248 201.014C302.243 201.004 302.241 200.993 302.242 200.982L302.328 200.294L301.702 200.594Z" fill="white"/>
<ellipse opacity="0.2" cx="222.82" cy="59.209" rx="1.51801" ry="1.51616" transform="rotate(162.941 222.82 59.209)" fill="white"/>
<ellipse opacity="0.2" cx="202.422" cy="59.9467" rx="1.51801" ry="1.51616" transform="rotate(52.9813 202.422 59.9467)" fill="white"/>
<ellipse opacity="0.2" cx="245.98" cy="108.033" rx="1.51801" ry="1.51616" transform="rotate(162.941 245.98 108.033)" fill="white"/>
<ellipse opacity="0.2" cx="261.002" cy="158.11" rx="1.51801" ry="1.51616" transform="rotate(162.941 261.002 158.11)" fill="white"/>
<ellipse opacity="0.2" cx="318.117" cy="208.226" rx="1.51801" ry="1.51616" transform="rotate(-54.2775 318.117 208.226)" fill="white"/>
<ellipse opacity="0.4" cx="265.543" cy="71.262" rx="0.643171" ry="0.642386" transform="rotate(162.941 265.543 71.262)" fill="white"/>
<ellipse opacity="0.4" cx="288.704" cy="120.087" rx="0.643171" ry="0.642386" transform="rotate(162.941 288.704 120.087)" fill="white"/>
<ellipse opacity="0.4" cx="303.727" cy="170.163" rx="0.643171" ry="0.642386" transform="rotate(162.941 303.727 170.163)" fill="white"/>
<path opacity="0.2" d="M1067.67 5.54384C1067.66 5.49828 1067.67 5.45183 1067.69 5.40988L1068.88 2.76181L1066.01 3.18187C1065.96 3.18852 1065.91 3.18198 1065.87 3.16301L1063.22 1.96513L1063.65 4.84098C1063.65 4.88654 1063.65 4.93299 1063.63 4.97494L1062.43 7.62294L1065.31 7.20292C1065.35 7.19627 1065.4 7.20281 1065.44 7.22178L1068.09 8.41962L1067.67 5.54384Z" fill="white"/>
<path opacity="0.2" d="M1100.87 6.77923C1100.87 6.76186 1100.87 6.74415 1100.87 6.72815L1101.33 5.7184L1100.23 5.87858C1100.22 5.88111 1100.2 5.87862 1100.18 5.87139L1099.17 5.41461L1099.33 6.51122C1099.34 6.52859 1099.33 6.54631 1099.33 6.5623L1098.87 7.57203L1099.97 7.41187C1099.99 7.40933 1100 7.41183 1100.02 7.41906L1101.03 7.87582L1100.87 6.77923Z" fill="white"/>
<ellipse opacity="0.2" cx="1081.44" cy="28.2054" rx="2.42512" ry="2.42215" transform="rotate(52.9813 1081.44 28.2054)" fill="white"/>
<path opacity="0.2" d="M1016.62 21.8146C1016.58 21.8239 1016.54 21.8458 1016.5 21.8779L1014.42 23.9045L1013.84 21.0594C1013.83 21.0143 1013.81 20.9729 1013.77 20.9399L1011.74 18.8594L1014.59 18.2755C1014.64 18.2662 1014.68 18.2443 1014.71 18.2122L1016.79 16.1857L1017.38 19.0308C1017.39 19.0758 1017.41 19.1173 1017.44 19.1502L1019.47 21.2308L1016.62 21.8146Z" fill="white"/>
<path opacity="0.2" d="M979.624 99.8146C979.578 99.8239 979.537 99.8458 979.504 99.8779L977.423 101.904L976.836 99.0594C976.827 99.0143 976.805 98.9729 976.773 98.9399L974.743 96.8594L977.59 96.2755C977.636 96.2662 977.677 96.2443 977.71 96.2122L979.791 94.1857L980.378 97.0308C980.387 97.0758 980.409 97.1173 980.441 97.1502L982.471 99.2308L979.624 99.8146Z" fill="white"/>
<path opacity="0.2" d="M955.624 179.815C955.578 179.824 955.537 179.846 955.504 179.878L953.423 181.904L952.836 179.059C952.827 179.014 952.805 178.973 952.773 178.94L950.743 176.859L953.59 176.275C953.636 176.266 953.677 176.244 953.71 176.212L955.791 174.186L956.378 177.031C956.387 177.076 956.409 177.117 956.441 177.15L958.471 179.231L955.624 179.815Z" fill="white"/>
<path opacity="0.2" d="M995.763 71.1643C995.795 71.1313 995.817 71.0898 995.826 71.0447L996.403 68.1977L998.491 70.2178C998.524 70.2498 998.565 70.2716 998.61 70.2807L1001.46 70.8557L999.436 72.9426C999.404 72.9756 999.382 73.0171 999.373 73.0622L998.796 75.9091L996.708 73.8891C996.675 73.8571 996.634 73.8353 996.589 73.8261L993.739 73.2511L995.763 71.1643Z" fill="white"/>
<path opacity="0.2" d="M958.763 149.164C958.795 149.131 958.817 149.09 958.826 149.045L959.403 146.198L961.491 148.218C961.524 148.25 961.565 148.272 961.61 148.281L964.46 148.856L962.436 150.943C962.404 150.976 962.382 151.017 962.373 151.062L961.796 153.909L959.708 151.889C959.675 151.857 959.634 151.835 959.589 151.826L956.739 151.251L958.763 149.164Z" fill="white"/>
<path opacity="0.2" d="M934.763 229.164C934.795 229.131 934.817 229.09 934.826 229.045L935.403 226.198L937.491 228.218C937.524 228.25 937.565 228.272 937.61 228.281L940.46 228.856L938.436 230.943C938.404 230.976 938.382 231.017 938.373 231.062L937.796 233.909L935.708 231.889C935.675 231.857 935.634 231.835 935.589 231.826L932.739 231.251L934.763 229.164Z" fill="white"/>
<path opacity="0.2" d="M954.399 258.289C954.354 258.296 954.311 258.316 954.276 258.346L952.095 260.264L951.654 257.393C951.647 257.347 951.627 257.305 951.597 257.27L949.675 255.089L952.549 254.651C952.595 254.644 952.637 254.624 952.672 254.594L954.854 252.676L955.294 255.547C955.301 255.593 955.321 255.635 955.351 255.67L957.273 257.851L954.399 258.289Z" fill="white"/>
<path opacity="0.4" d="M990.624 33.8146C990.578 33.8239 990.537 33.8458 990.504 33.8779L988.423 35.9045L987.836 33.0594C987.827 33.0143 987.805 32.9729 987.773 32.9399L985.743 30.8594L988.59 30.2755C988.636 30.2662 988.677 30.2443 988.71 30.2122L990.791 28.1857L991.378 31.0308C991.387 31.0758 991.409 31.1173 991.441 31.1502L993.471 33.2308L990.624 33.8146Z" fill="white"/>
<path opacity="0.4" d="M953.624 111.815C953.578 111.824 953.537 111.846 953.504 111.878L951.423 113.904L950.836 111.059C950.827 111.014 950.805 110.973 950.773 110.94L948.743 108.859L951.59 108.275C951.636 108.266 951.677 108.244 951.71 108.212L953.791 106.186L954.378 109.031C954.387 109.076 954.409 109.117 954.441 109.15L956.471 111.231L953.624 111.815Z" fill="white"/>
<path opacity="0.4" d="M929.624 191.815C929.578 191.824 929.537 191.846 929.504 191.878L927.423 193.905L926.836 191.059C926.827 191.014 926.805 190.973 926.773 190.94L924.743 188.859L927.59 188.276C927.636 188.266 927.677 188.244 927.71 188.212L929.791 186.186L930.378 189.031C930.387 189.076 930.409 189.117 930.441 189.15L932.471 191.231L929.624 191.815Z" fill="white"/>
<path opacity="0.2" d="M1029.12 52.5985C1029.1 52.602 1029.09 52.6104 1029.07 52.6226L1028.28 53.3954L1028.06 52.3105C1028.05 52.2933 1028.04 52.2775 1028.03 52.2649L1027.26 51.4716L1028.34 51.249C1028.36 51.2454 1028.38 51.2371 1028.39 51.2248L1029.18 50.4521L1029.41 51.5369C1029.41 51.5541 1029.42 51.5699 1029.43 51.5825L1030.2 52.3759L1029.12 52.5985Z" fill="white"/>
<path opacity="0.2" d="M992.118 130.598C992.101 130.602 992.085 130.61 992.073 130.623L991.279 131.395L991.056 130.31C991.052 130.293 991.044 130.278 991.031 130.265L990.257 129.472L991.343 129.249C991.36 129.245 991.376 129.237 991.389 129.225L992.182 128.452L992.406 129.537C992.409 129.554 992.418 129.57 992.43 129.582L993.204 130.376L992.118 130.598Z" fill="white"/>
<path opacity="0.2" d="M968.118 210.599C968.101 210.602 968.085 210.61 968.073 210.623L967.279 211.395L967.056 210.311C967.052 210.293 967.044 210.278 967.031 210.265L966.257 209.472L967.343 209.249C967.36 209.245 967.376 209.237 967.389 209.225L968.182 208.452L968.406 209.537C968.409 209.554 968.418 209.57 968.43 209.583L969.204 210.376L968.118 210.599Z" fill="white"/>
<path opacity="0.2" d="M916.607 252.898C916.623 252.905 916.641 252.908 916.658 252.906L917.757 252.771L917.279 253.77C917.272 253.786 917.269 253.803 917.271 253.821L917.407 254.921L916.408 254.441C916.392 254.434 916.375 254.431 916.357 254.433L915.258 254.568L915.736 253.569C915.744 253.553 915.746 253.536 915.744 253.518L915.608 252.418L916.607 252.898Z" fill="white"/>
<ellipse opacity="0.2" cx="2.42512" cy="2.42215" rx="2.42512" ry="2.42215" transform="matrix(0.956004 0.293353 0.293353 -0.956004 1039.6 28.6311)" fill="white"/>
<ellipse opacity="0.2" cx="2.42512" cy="2.42215" rx="2.42512" ry="2.42215" transform="matrix(0.956004 0.293353 0.293353 -0.956004 1002.6 106.631)" fill="white"/>
<ellipse opacity="0.2" cx="2.42512" cy="2.42215" rx="2.42512" ry="2.42215" transform="matrix(0.956004 0.293353 0.293353 -0.956004 978.598 186.631)" fill="white"/>
<ellipse opacity="0.2" cx="2.42512" cy="2.42215" rx="2.42512" ry="2.42215" transform="matrix(-0.58386 -0.811854 -0.811854 0.58386 893.765 265.645)" fill="white"/>
<ellipse opacity="0.4" cx="1.02751" cy="1.02625" rx="1.02751" ry="1.02625" transform="matrix(0.956004 0.293353 0.293353 -0.956004 973.089 46.9622)" fill="white"/>
<ellipse opacity="0.4" cx="1.02751" cy="1.02625" rx="1.02751" ry="1.02625" transform="matrix(0.956004 0.293353 0.293353 -0.956004 936.089 124.962)" fill="white"/>
<ellipse opacity="0.4" cx="1.02751" cy="1.02625" rx="1.02751" ry="1.02625" transform="matrix(0.956004 0.293353 0.293353 -0.956004 912.089 204.962)" fill="white"/>
<path opacity="0.2" d="M889.905 46.0667C889.9 46.0359 889.905 46.0044 889.917 45.976L890.703 44.184L888.811 44.4683C888.781 44.4728 888.751 44.4683 888.723 44.4555L886.98 43.6449L887.259 45.591C887.263 45.6219 887.259 45.6533 887.246 45.6817L886.46 47.4737L888.352 47.1894C888.382 47.1849 888.413 47.1894 888.44 47.2022L890.183 48.0128L889.905 46.0667Z" fill="white"/>
<path opacity="0.2" d="M911.755 46.9027C911.753 46.891 911.754 46.879 911.759 46.8682L912.059 46.1848L911.338 46.2932C911.326 46.295 911.315 46.2933 911.304 46.2884L910.639 45.9793L910.746 46.7214C910.747 46.7331 910.746 46.7451 910.741 46.7559L910.441 47.4393L911.162 47.3309C911.174 47.3292 911.186 47.3308 911.196 47.3357L911.861 47.6448L911.755 46.9027Z" fill="white"/>
<ellipse opacity="0.2" cx="1.62496" cy="1.61059" rx="1.62496" ry="1.61059" transform="matrix(0.591373 0.806399 -0.790274 0.612753 899.283 59.1053)" fill="white"/>
<path opacity="0.2" d="M856.311 57.0777C856.281 57.0839 856.254 57.0988 856.232 57.1205L854.862 58.4919L854.477 56.5666C854.47 56.5361 854.456 56.508 854.435 56.4857L853.099 55.0777L854.973 54.6826C855.003 54.6764 855.03 54.6615 855.052 54.6398L856.421 53.2684L856.807 55.1937C856.813 55.2242 856.828 55.2523 856.849 55.2746L858.185 56.6826L856.311 57.0777Z" fill="white"/>
<path opacity="0.2" d="M831.959 109.863C831.93 109.869 831.902 109.884 831.881 109.906L830.511 111.277L830.125 109.352C830.119 109.321 830.104 109.293 830.083 109.271L828.747 107.863L830.621 107.468C830.651 107.462 830.678 107.447 830.7 107.425L832.07 106.054L832.456 107.979C832.462 108.009 832.476 108.037 832.497 108.06L833.833 109.468L831.959 109.863Z" fill="white"/>
<path opacity="0.2" d="M816.164 164.002C816.135 164.008 816.107 164.023 816.086 164.044L814.716 165.416L814.33 163.49C814.324 163.46 814.309 163.432 814.288 163.41L812.952 162.002L814.826 161.607C814.856 161.6 814.883 161.585 814.905 161.564L816.275 160.192L816.661 162.118C816.667 162.148 816.681 162.176 816.703 162.198L818.039 163.606L816.164 164.002Z" fill="white"/>
<path opacity="0.2" d="M842.581 90.4742C842.602 90.4518 842.616 90.4238 842.622 90.3932L843.002 88.4666L844.376 89.8336C844.398 89.8553 844.425 89.8701 844.455 89.8762L846.33 90.2653L844.999 91.6776C844.977 91.7 844.963 91.728 844.957 91.7586L844.577 93.6852L843.203 92.3181C843.181 92.2965 843.154 92.2817 843.124 92.2755L841.249 91.8864L842.581 90.4742Z" fill="white"/>
<path opacity="0.2" d="M818.23 143.259C818.251 143.237 818.266 143.209 818.272 143.178L818.652 141.252L820.026 142.619C820.047 142.641 820.075 142.655 820.104 142.661L821.98 143.051L820.648 144.463C820.627 144.485 820.612 144.513 820.606 144.544L820.226 146.47L818.852 145.103C818.831 145.082 818.803 145.067 818.774 145.061L816.898 144.672L818.23 143.259Z" fill="white"/>
<path opacity="0.2" d="M802.434 197.398C802.455 197.376 802.47 197.348 802.476 197.317L802.856 195.391L804.23 196.758C804.251 196.779 804.279 196.794 804.308 196.8L806.184 197.189L804.852 198.601C804.831 198.624 804.817 198.652 804.811 198.682L804.43 200.609L803.057 199.242C803.035 199.22 803.007 199.206 802.978 199.199L801.102 198.81L802.434 197.398Z" fill="white"/>
<path opacity="0.2" d="M815.359 217.108C815.329 217.112 815.301 217.126 815.278 217.146L813.842 218.444L813.552 216.501C813.547 216.47 813.534 216.442 813.514 216.418L812.25 214.942L814.141 214.646C814.171 214.641 814.199 214.628 814.222 214.607L815.658 213.309L815.948 215.252C815.952 215.283 815.965 215.312 815.985 215.335L817.25 216.811L815.359 217.108Z" fill="white"/>
<path opacity="0.4" d="M839.199 65.1984C839.169 65.2047 839.142 65.2196 839.12 65.2413L837.75 66.6127L837.364 64.6874C837.358 64.6569 837.344 64.6288 837.323 64.6065L835.986 63.1985L837.861 62.8034C837.89 62.7971 837.918 62.7823 837.939 62.7606L839.309 61.3891L839.695 63.3145C839.701 63.345 839.716 63.3731 839.737 63.3954L841.073 64.8033L839.199 65.1984Z" fill="white"/>
<path opacity="0.4" d="M814.848 117.984C814.818 117.99 814.791 118.005 814.769 118.026L813.4 119.398L813.014 117.473C813.008 117.442 812.993 117.414 812.972 117.392L811.636 115.984L813.51 115.589C813.54 115.582 813.567 115.568 813.589 115.546L814.958 114.174L815.344 116.1C815.35 116.13 815.365 116.158 815.386 116.181L816.722 117.589L814.848 117.984Z" fill="white"/>
<path opacity="0.4" d="M799.052 172.122C799.022 172.129 798.995 172.143 798.973 172.165L797.604 173.537L797.218 171.611C797.212 171.581 797.197 171.553 797.176 171.53L795.84 170.122L797.714 169.727C797.744 169.721 797.771 169.706 797.793 169.684L799.162 168.313L799.548 170.238C799.555 170.269 799.569 170.297 799.59 170.319L800.926 171.727L799.052 172.122Z" fill="white"/>
<path opacity="0.2" d="M864.534 77.9102C864.522 77.9126 864.512 77.9182 864.504 77.9265L863.981 78.4495L863.834 77.7153C863.832 77.7037 863.826 77.693 863.818 77.6845L863.309 77.1476L864.024 76.9969C864.035 76.9945 864.045 76.9889 864.054 76.9806L864.576 76.4576L864.723 77.1918C864.725 77.2034 864.731 77.2141 864.739 77.2226L865.248 77.7595L864.534 77.9102Z" fill="white"/>
<path opacity="0.2" d="M840.182 130.695C840.171 130.698 840.16 130.703 840.152 130.712L839.63 131.235L839.483 130.5C839.48 130.489 839.475 130.478 839.467 130.47L838.957 129.933L839.672 129.782C839.683 129.78 839.694 129.774 839.702 129.766L840.224 129.243L840.371 129.977C840.374 129.989 840.379 129.999 840.387 130.008L840.897 130.545L840.182 130.695Z" fill="white"/>
<path opacity="0.2" d="M824.387 184.834C824.376 184.836 824.366 184.842 824.357 184.85L823.835 185.373L823.688 184.639C823.685 184.627 823.68 184.617 823.672 184.608L823.162 184.071L823.877 183.921C823.888 183.918 823.899 183.913 823.907 183.904L824.429 183.381L824.577 184.116C824.579 184.127 824.584 184.138 824.592 184.146L825.102 184.683L824.387 184.834Z" fill="white"/>
<path opacity="0.2" d="M790.486 213.459C790.496 213.464 790.508 213.466 790.519 213.465L791.243 213.373L790.928 214.05C790.923 214.06 790.921 214.072 790.923 214.084L791.012 214.828L790.355 214.504C790.344 214.499 790.333 214.497 790.321 214.498L789.598 214.59L789.912 213.914C789.917 213.903 789.919 213.891 789.918 213.879L789.828 213.135L790.486 213.459Z" fill="white"/>
<ellipse opacity="0.2" cx="1.6" cy="1.63532" rx="1.6" ry="1.63532" transform="matrix(0.953656 0.300899 0.285961 -0.958241 871.431 61.6907)" fill="white"/>
<ellipse opacity="0.2" cx="1.6" cy="1.63532" rx="1.6" ry="1.63532" transform="matrix(0.953656 0.300899 0.285961 -0.958241 847.08 114.476)" fill="white"/>
<ellipse opacity="0.2" cx="1.6" cy="1.63532" rx="1.6" ry="1.63532" transform="matrix(0.953656 0.300899 0.285961 -0.958241 831.284 168.615)" fill="white"/>
<ellipse opacity="0.2" cx="1.62593" cy="1.60961" rx="1.62593" ry="1.60961" transform="matrix(-0.573139 -0.819458 -0.80404 0.594575 775.452 222.086)" fill="white"/>
<ellipse opacity="0.4" cx="0.677909" cy="0.692877" rx="0.677909" ry="0.692877" transform="matrix(0.953656 0.300899 0.285961 -0.958241 827.659 74.0958)" fill="white"/>
<ellipse opacity="0.4" cx="0.677909" cy="0.692877" rx="0.677909" ry="0.692877" transform="matrix(0.953656 0.300899 0.285961 -0.958241 803.308 126.881)" fill="white"/>
<ellipse opacity="0.4" cx="0.677909" cy="0.692877" rx="0.677909" ry="0.692877" transform="matrix(0.953656 0.300899 0.285961 -0.958241 787.512 181.02)" fill="white"/>
</svg>
