<svg width="1440" height="676" viewBox="0 0 1440 676" fill="none" xmlns="http://www.w3.org/2000/svg">
<g filter="url(#filter0_f_35_12333)">
<path d="M92.3609 222.034L-54.7191 519.316L118.082 376.332C121.841 373.221 124.334 368.843 125.09 364.022L142.108 255.507L92.3609 222.034Z" fill="#1E6FF6" fill-opacity="0.4"/>
</g>
<g filter="url(#filter1_f_35_12333)">
<path d="M15.8799 606.597L312.363 457.912L88.3001 467.944C83.425 468.162 78.798 470.155 75.2903 473.548L-3.66379 549.911L15.8799 606.597Z" fill="#1E6FF6" fill-opacity="0.4"/>
</g>
<g filter="url(#filter2_f_35_12333)">
<path d="M241.88 595.597L538.363 446.912L314.3 456.944C309.425 457.162 304.798 459.155 301.29 462.548L222.336 538.911L241.88 595.597Z" fill="#1E6FF6" fill-opacity="0.4"/>
</g>
<g filter="url(#filter3_f_35_12333)">
<path d="M446.88 583.597L743.363 434.912L519.3 444.944C514.425 445.162 509.798 447.155 506.29 450.548L427.336 526.911L446.88 583.597Z" fill="#1E6FF6" fill-opacity="0.4"/>
</g>
<g filter="url(#filter4_f_35_12333)">
<path d="M636.88 576.597L933.363 427.912L709.3 437.944C704.425 438.162 699.798 440.155 696.29 443.548L617.336 519.911L636.88 576.597Z" fill="#1E6FF6" fill-opacity="0.4"/>
</g>
<g filter="url(#filter5_f_35_12333)">
<path d="M825.88 576.597L1122.36 427.912L898.3 437.944C893.425 438.162 888.798 440.155 885.29 443.548L806.336 519.911L825.88 576.597Z" fill="#1E6FF6" fill-opacity="0.4"/>
</g>
<g filter="url(#filter6_f_35_12333)">
<path d="M1048.88 576.597L1345.36 427.912L1121.3 437.944C1116.43 438.162 1111.8 440.155 1108.29 443.548L1029.34 519.911L1048.88 576.597Z" fill="#1E6FF6" fill-opacity="0.4"/>
</g>
<g filter="url(#filter7_f_35_12333)">
<path d="M1289.88 576.597L1586.36 427.912L1362.3 437.944C1357.43 438.162 1352.8 440.155 1349.29 443.548L1270.34 519.911L1289.88 576.597Z" fill="#1E6FF6" fill-opacity="0.4"/>
</g>
<g filter="url(#filter8_f_35_12333)">
<path d="M1316.61 174.034L1463.69 471.316L1290.89 328.332C1287.13 325.221 1284.64 320.843 1283.88 316.022L1266.87 207.507L1316.61 174.034Z" fill="#1E6FF6" fill-opacity="0.4"/>
</g>
<defs>
<filter id="filter0_f_35_12333" x="-228.719" y="48.0342" width="544.828" height="645.282" filterUnits="userSpaceOnUse" color-interpolation-filters="sRGB">
<feFlood flood-opacity="0" result="BackgroundImageFix"/>
<feBlend mode="normal" in="SourceGraphic" in2="BackgroundImageFix" result="shape"/>
<feGaussianBlur stdDeviation="87" result="effect1_foregroundBlur_35_12333"/>
</filter>
<filter id="filter1_f_35_12333" x="-177.664" y="283.912" width="664.026" height="496.685" filterUnits="userSpaceOnUse" color-interpolation-filters="sRGB">
<feFlood flood-opacity="0" result="BackgroundImageFix"/>
<feBlend mode="normal" in="SourceGraphic" in2="BackgroundImageFix" result="shape"/>
<feGaussianBlur stdDeviation="87" result="effect1_foregroundBlur_35_12333"/>
</filter>
<filter id="filter2_f_35_12333" x="48.3362" y="272.912" width="664.026" height="496.685" filterUnits="userSpaceOnUse" color-interpolation-filters="sRGB">
<feFlood flood-opacity="0" result="BackgroundImageFix"/>
<feBlend mode="normal" in="SourceGraphic" in2="BackgroundImageFix" result="shape"/>
<feGaussianBlur stdDeviation="87" result="effect1_foregroundBlur_35_12333"/>
</filter>
<filter id="filter3_f_35_12333" x="253.336" y="260.912" width="664.026" height="496.685" filterUnits="userSpaceOnUse" color-interpolation-filters="sRGB">
<feFlood flood-opacity="0" result="BackgroundImageFix"/>
<feBlend mode="normal" in="SourceGraphic" in2="BackgroundImageFix" result="shape"/>
<feGaussianBlur stdDeviation="87" result="effect1_foregroundBlur_35_12333"/>
</filter>
<filter id="filter4_f_35_12333" x="443.336" y="253.912" width="664.026" height="496.685" filterUnits="userSpaceOnUse" color-interpolation-filters="sRGB">
<feFlood flood-opacity="0" result="BackgroundImageFix"/>
<feBlend mode="normal" in="SourceGraphic" in2="BackgroundImageFix" result="shape"/>
<feGaussianBlur stdDeviation="87" result="effect1_foregroundBlur_35_12333"/>
</filter>
<filter id="filter5_f_35_12333" x="632.336" y="253.912" width="664.026" height="496.685" filterUnits="userSpaceOnUse" color-interpolation-filters="sRGB">
<feFlood flood-opacity="0" result="BackgroundImageFix"/>
<feBlend mode="normal" in="SourceGraphic" in2="BackgroundImageFix" result="shape"/>
<feGaussianBlur stdDeviation="87" result="effect1_foregroundBlur_35_12333"/>
</filter>
<filter id="filter6_f_35_12333" x="855.336" y="253.912" width="664.026" height="496.685" filterUnits="userSpaceOnUse" color-interpolation-filters="sRGB">
<feFlood flood-opacity="0" result="BackgroundImageFix"/>
<feBlend mode="normal" in="SourceGraphic" in2="BackgroundImageFix" result="shape"/>
<feGaussianBlur stdDeviation="87" result="effect1_foregroundBlur_35_12333"/>
</filter>
<filter id="filter7_f_35_12333" x="1096.34" y="253.912" width="664.026" height="496.685" filterUnits="userSpaceOnUse" color-interpolation-filters="sRGB">
<feFlood flood-opacity="0" result="BackgroundImageFix"/>
<feBlend mode="normal" in="SourceGraphic" in2="BackgroundImageFix" result="shape"/>
<feGaussianBlur stdDeviation="87" result="effect1_foregroundBlur_35_12333"/>
</filter>
<filter id="filter8_f_35_12333" x="1092.87" y="0.0341797" width="544.828" height="645.282" filterUnits="userSpaceOnUse" color-interpolation-filters="sRGB">
<feFlood flood-opacity="0" result="BackgroundImageFix"/>
<feBlend mode="normal" in="SourceGraphic" in2="BackgroundImageFix" result="shape"/>
<feGaussianBlur stdDeviation="87" result="effect1_foregroundBlur_35_12333"/>
</filter>
</defs>
</svg>
