<svg width="179" height="173" viewBox="0 0 179 173" fill="none" xmlns="http://www.w3.org/2000/svg">
<path opacity="0.5" d="M32.6041 36.5338C32.6286 36.5389 32.6511 36.5508 32.6691 36.5683L33.8006 37.67L34.1194 36.1233C34.1244 36.0988 34.1364 36.0762 34.1539 36.0583L35.2575 34.9272L33.7094 34.6098C33.6849 34.6047 33.6623 34.5928 33.6444 34.5753L32.5129 33.4736L32.1941 35.0204C32.1891 35.0449 32.1771 35.0674 32.1596 35.0853L31.056 36.2164L32.6041 36.5338Z" fill="white"/>
<path opacity="0.5" d="M120.65 92.7452C120.631 92.7619 120.608 92.7728 120.583 92.7768L119.024 93.0263L120.074 94.2058C120.091 94.2245 120.102 94.2475 120.105 94.2722L120.354 95.833L121.533 94.7809C121.551 94.7643 121.574 94.7533 121.599 94.7494L123.159 94.4999L122.108 93.3204C122.092 93.3017 122.081 93.2786 122.077 93.2539L121.829 91.6932L120.65 92.7452Z" fill="white"/>
<path opacity="0.5" d="M67.7644 12.4549C67.747 12.4369 67.7351 12.4144 67.7301 12.3899L67.4162 10.8421L66.2812 11.9403C66.2633 11.9577 66.2407 11.9696 66.2162 11.9745L64.667 12.2871L65.7671 13.4217C65.7846 13.4396 65.7965 13.4622 65.8014 13.4867L66.1154 15.0345L67.2503 13.9362C67.2683 13.9188 67.2909 13.907 67.3154 13.902L68.8645 13.5894L67.7644 12.4549Z" fill="white"/>
<path opacity="0.5" d="M128.746 12.2062C128.752 12.1818 128.765 12.1596 128.783 12.1422L129.916 11.0427L128.379 10.6798C128.355 10.674 128.333 10.6614 128.315 10.6434L127.216 9.50785L126.855 11.0463C126.849 11.0706 126.836 11.0928 126.818 11.1102L125.685 12.2097L127.222 12.5727C127.246 12.5784 127.268 12.591 127.286 12.609L128.385 13.7446L128.746 12.2062Z" fill="white"/>
<path opacity="0.5" d="M49.135 76.6782C49.1599 76.6806 49.1836 76.6901 49.2033 76.7055L50.4452 77.6811L50.5982 76.1093C50.6006 76.0844 50.6101 76.0607 50.6256 76.041L51.6031 74.7993L50.0301 74.6478C50.0052 74.6454 49.9815 74.6359 49.9618 74.6205L48.7199 73.6449L48.5669 75.2167C48.5645 75.2416 48.5549 75.2653 48.5395 75.285L47.562 76.5267L49.135 76.6782Z" fill="white"/>
<path opacity="0.5" d="M113.287 109.842C113.312 109.844 113.336 109.854 113.356 109.869L114.598 110.845L114.751 109.273C114.753 109.248 114.762 109.224 114.778 109.205L115.755 107.963L114.182 107.811C114.158 107.809 114.134 107.799 114.114 107.784L112.872 106.808L112.719 108.38C112.717 108.405 112.707 108.429 112.692 108.449L111.714 109.69L113.287 109.842Z" fill="white"/>
<path opacity="0.5" d="M86.9086 57.1452C86.8836 57.1461 86.8589 57.1398 86.8373 57.1271L85.4766 56.3254L85.5341 57.9036C85.535 57.9286 85.5287 57.9533 85.516 57.9749L84.7123 59.3356L86.2915 59.2766C86.3165 59.2757 86.3412 59.2819 86.3628 59.2946L87.7234 60.0963L87.666 58.5181C87.6651 58.4931 87.6714 58.4684 87.6841 58.4468L88.4878 57.0861L86.9086 57.1452Z" fill="white"/>
<path opacity="0.5" d="M142.969 51.9454C142.971 51.9204 142.979 51.8965 142.994 51.8763L143.928 50.6025L142.352 50.502C142.327 50.5004 142.303 50.4917 142.283 50.4769L141.009 49.5413L140.91 51.1185C140.908 51.1435 140.9 51.1675 140.885 51.1877L139.951 52.4615L141.527 52.562C141.552 52.5636 141.576 52.5723 141.596 52.5871L142.87 53.5226L142.969 51.9454Z" fill="white"/>
<path opacity="0.5" d="M169.384 110.029C169.394 110.052 169.398 110.078 169.394 110.102L169.168 111.665L170.607 111.014C170.63 111.004 170.655 111 170.68 111.004L172.244 111.232L171.59 109.793C171.58 109.77 171.576 109.745 171.58 109.72L171.806 108.157L170.367 108.808C170.345 108.818 170.319 108.822 170.295 108.818L168.731 108.591L169.384 110.029Z" fill="white"/>
<path opacity="0.5" d="M48.6077 106.232C48.5892 106.215 48.5759 106.194 48.5694 106.17L48.1582 104.645L47.0949 105.812C47.0781 105.831 47.0563 105.844 47.0321 105.851L45.5059 106.261L46.6755 107.323C46.694 107.34 46.7073 107.362 46.7138 107.386L47.125 108.911L48.1882 107.743C48.2051 107.725 48.2268 107.711 48.251 107.705L49.7773 107.295L48.6077 106.232Z" fill="white"/>
<path opacity="0.5" d="M12.7525 53.715C12.777 53.72 12.7996 53.732 12.8175 53.7494L13.949 54.8512L14.2678 53.3044C14.2729 53.2799 14.2848 53.2574 14.3023 53.2395L15.406 52.1083L13.8578 51.7909C13.8333 51.7859 13.8108 51.774 13.7929 51.7565L12.6614 50.6548L12.3426 52.2015C12.3375 52.226 12.3255 52.2486 12.3081 52.2665L11.2044 53.3976L12.7525 53.715Z" fill="white"/>
<path opacity="0.5" d="M118.726 66.5611C118.707 66.5778 118.684 66.5887 118.659 66.5927L117.1 66.8422L118.15 68.0217C118.167 68.0404 118.178 68.0634 118.182 68.0881L118.43 69.6489L119.609 68.5968C119.628 68.5802 119.651 68.5692 119.675 68.5653L121.235 68.3158L120.185 67.1363C120.168 67.1176 120.157 67.0945 120.153 67.0698L119.905 65.5091L118.726 66.5611Z" fill="white"/>
<path opacity="0.5" d="M93.8465 9.44661C93.829 9.42863 93.8171 9.40608 93.8122 9.38156L93.4982 7.83378L92.3633 8.932C92.3453 8.94939 92.3227 8.96126 92.2982 8.96621L90.7491 9.27881L91.8492 10.4134C91.8666 10.4313 91.8785 10.4539 91.8835 10.4784L92.1974 12.0262L93.3324 10.9279C93.3503 10.9105 93.3729 10.8987 93.3975 10.8937L94.9466 10.5811L93.8465 9.44661Z" fill="white"/>
<path opacity="0.5" d="M145.353 32.5411C145.359 32.5168 145.371 32.4946 145.389 32.4772L146.523 31.3776L144.986 31.0147C144.961 31.009 144.939 30.9964 144.922 30.9784L143.823 29.8428L143.461 31.3812C143.455 31.4056 143.443 31.4278 143.425 31.4452L142.291 32.5447L143.828 32.9076C143.853 32.9134 143.875 32.926 143.892 32.944L144.991 34.0795L145.353 32.5411Z" fill="white"/>
<path opacity="0.5" d="M31.217 95.8677C31.242 95.8701 31.2656 95.8795 31.2853 95.895L32.5273 96.8706L32.6802 95.2987C32.6827 95.2738 32.6922 95.2502 32.7077 95.2305L33.6852 93.9887L32.1121 93.8372C32.0872 93.8348 32.0635 93.8254 32.0438 93.8099L30.8019 92.8343L30.6489 94.4062C30.6465 94.4311 30.637 94.4548 30.6215 94.4744L29.644 95.7162L31.217 95.8677Z" fill="white"/>
<path opacity="0.5" d="M95.3694 129.031C95.3943 129.033 95.418 129.043 95.4376 129.058L96.6796 130.034L96.8326 128.462C96.835 128.437 96.8445 128.413 96.86 128.394L97.8375 127.152L96.2645 127C96.2395 126.998 96.2159 126.988 96.1962 126.973L94.9543 125.997L94.8013 127.569C94.7988 127.594 94.7893 127.618 94.7738 127.638L93.7964 128.879L95.3694 129.031Z" fill="white"/>
<path opacity="0.5" d="M102.115 35.7438C102.09 35.7447 102.065 35.7385 102.043 35.7258L100.683 34.924L100.74 36.5023C100.741 36.5273 100.735 36.552 100.722 36.5735L99.9183 37.9343L101.498 37.8752C101.523 37.8743 101.547 37.8805 101.569 37.8932L102.929 38.695L102.872 37.1167C102.871 37.0917 102.877 37.067 102.89 37.0454L103.694 35.6847L102.115 35.7438Z" fill="white"/>
<path opacity="0.5" d="M162.744 69.2135C162.746 69.1885 162.755 69.1645 162.769 69.1443L163.703 67.8705L162.127 67.7701C162.102 67.7685 162.078 67.7598 162.058 67.7449L160.784 66.8094L160.685 68.3866C160.684 68.4116 160.675 68.4356 160.66 68.4558L159.727 69.7295L161.303 69.83C161.328 69.8316 161.352 69.8403 161.372 69.8552L162.646 70.7907L162.744 69.2135Z" fill="white"/>
<path opacity="0.5" d="M143.815 104.071C143.825 104.093 143.829 104.119 143.825 104.143L143.599 105.706L145.038 105.055C145.06 105.045 145.086 105.041 145.111 105.045L146.674 105.273L146.021 103.834C146.011 103.811 146.007 103.786 146.011 103.761L146.237 102.198L144.798 102.849C144.775 102.859 144.75 102.863 144.725 102.859L143.161 102.632L143.815 104.071Z" fill="white"/>
<path opacity="0.5" d="M74.4466 101.582C74.428 101.565 74.4147 101.543 74.4082 101.519L73.997 99.9943L72.9338 101.162C72.917 101.181 72.8952 101.194 72.871 101.2L71.3447 101.61L72.5143 102.673C72.5329 102.69 72.5462 102.712 72.5527 102.736L72.9638 104.26L74.0271 103.093C74.0439 103.074 74.0657 103.061 74.0899 103.054L75.6161 102.645L74.4466 101.582Z" fill="white"/>
<path opacity="0.2" d="M21.2427 50.2896C21.252 50.2915 21.2606 50.2961 21.2675 50.3027L21.6989 50.7229L21.8205 50.1331C21.8224 50.1237 21.827 50.1151 21.8336 50.1083L22.2545 49.677L21.6642 49.5559C21.6548 49.554 21.6462 49.5495 21.6394 49.5428L21.2079 49.1227L21.0864 49.7125C21.0844 49.7218 21.0799 49.7304 21.0732 49.7373L20.6524 50.1686L21.2427 50.2896Z" fill="white"/>
<path opacity="0.2" d="M116.403 75.4165C116.396 75.4229 116.387 75.4271 116.378 75.4286L115.783 75.5237L116.184 75.9735C116.19 75.9806 116.194 75.9894 116.196 75.9988L116.29 76.5939L116.74 76.1928C116.747 76.1864 116.756 76.1822 116.765 76.1807L117.36 76.0856L116.959 75.6358C116.953 75.6287 116.949 75.6199 116.947 75.6105L116.853 75.0154L116.403 75.4165Z" fill="white"/>
<path opacity="0.2" d="M84.9019 7.49318C84.8952 7.48633 84.8907 7.47772 84.8888 7.46837L84.769 6.87818L84.3363 7.29695C84.3294 7.30358 84.3208 7.30811 84.3115 7.31L83.7208 7.4292L84.1402 7.86182C84.1469 7.86867 84.1514 7.87727 84.1533 7.88662L84.273 8.4768L84.7058 8.05804C84.7127 8.0514 84.7213 8.04688 84.7306 8.04499L85.3213 7.92579L84.9019 7.49318Z" fill="white"/>
<path opacity="0.2" d="M142.172 23.9575C142.174 23.9482 142.179 23.9397 142.186 23.9331L142.618 23.5138L142.032 23.3754C142.023 23.3732 142.014 23.3684 142.008 23.3616L141.589 22.9286L141.451 23.5152C141.449 23.5245 141.444 23.5329 141.437 23.5396L141.005 23.9588L141.591 24.0972C141.6 24.0994 141.609 24.1042 141.615 24.1111L142.034 24.5441L142.172 23.9575Z" fill="white"/>
<path opacity="0.2" d="M39.2953 91.5612C39.3048 91.5621 39.3139 91.5657 39.3214 91.5716L39.7949 91.9436L39.8533 91.3442C39.8542 91.3348 39.8578 91.3257 39.8637 91.3182L40.2365 90.8447L39.6366 90.787C39.6271 90.786 39.6181 90.7824 39.6106 90.7765L39.137 90.4045L39.0787 91.0039C39.0778 91.0134 39.0742 91.0224 39.0682 91.0299L38.6955 91.5034L39.2953 91.5612Z" fill="white"/>
<path opacity="0.2" d="M103.448 124.724C103.457 124.725 103.466 124.729 103.474 124.735L103.947 125.107L104.006 124.507C104.007 124.498 104.01 124.489 104.016 124.481L104.389 124.008L103.789 123.95C103.779 123.949 103.77 123.946 103.763 123.94L103.289 123.568L103.231 124.167C103.23 124.176 103.226 124.186 103.221 124.193L102.848 124.667L103.448 124.724Z" fill="white"/>
<path opacity="0.2" d="M94.6819 41.0863C94.6723 41.0867 94.6629 41.0843 94.6547 41.0795L94.1359 40.7737L94.1577 41.3755C94.1581 41.3851 94.1557 41.3945 94.1508 41.4027L93.8444 41.9216L94.4466 41.8991C94.4561 41.8987 94.4655 41.9011 94.4738 41.9059L94.9926 42.2117L94.9707 41.6098C94.9704 41.6003 94.9728 41.5909 94.9776 41.5827L95.2841 41.0638L94.6819 41.0863Z" fill="white"/>
<path opacity="0.2" d="M158.172 61.2829C158.173 61.2733 158.176 61.2642 158.181 61.2565L158.537 60.7708L157.937 60.7325C157.927 60.7319 157.918 60.7285 157.91 60.7229L157.424 60.3662L157.387 60.9676C157.386 60.9771 157.383 60.9862 157.377 60.9939L157.021 61.4796L157.622 61.518C157.632 61.5186 157.641 61.5219 157.649 61.5276L158.134 61.8843L158.172 61.2829Z" fill="white"/>
<path opacity="0.2" d="M151.577 108.924C151.581 108.933 151.582 108.943 151.581 108.952L151.494 109.548L152.043 109.3C152.052 109.296 152.061 109.295 152.071 109.296L152.667 109.383L152.418 108.834C152.414 108.825 152.413 108.816 152.414 108.806L152.5 108.21L151.952 108.459C151.943 108.463 151.933 108.464 151.924 108.463L151.327 108.376L151.577 108.924Z" fill="white"/>
<path opacity="0.2" d="M65.3969 100.198C65.3899 100.191 65.3848 100.183 65.3823 100.174L65.2255 99.5922L64.8201 100.038C64.8137 100.045 64.8054 100.05 64.7961 100.052L64.2141 100.208L64.6601 100.614C64.6672 100.62 64.6723 100.628 64.6748 100.638L64.8315 101.219L65.237 100.774C65.2434 100.767 65.2517 100.762 65.2609 100.759L65.8429 100.603L65.3969 100.198Z" fill="white"/>
<path opacity="0.2" d="M10.7612 59.9258C10.7706 59.9278 10.7792 59.9323 10.786 59.939L11.2175 60.3591L11.339 59.7693C11.341 59.7599 11.3455 59.7514 11.3522 59.7445L11.773 59.3132L11.1827 59.1922C11.1734 59.1902 11.1648 59.1857 11.1579 59.179L10.7265 58.7589L10.6049 59.3487C10.603 59.3581 10.5984 59.3667 10.5918 59.3735L10.1709 59.8048L10.7612 59.9258Z" fill="white"/>
<path opacity="0.2" d="M114.934 61.2544C114.927 61.2608 114.919 61.2649 114.909 61.2664L114.315 61.3616L114.715 61.8113C114.721 61.8185 114.725 61.8273 114.727 61.8367L114.822 62.4318L115.271 62.0307C115.278 62.0243 115.287 62.0201 115.297 62.0186L115.891 61.9235L115.491 61.4737C115.484 61.4666 115.48 61.4578 115.479 61.4484L115.384 60.8532L114.934 61.2544Z" fill="white"/>
<path opacity="0.2" d="M98.9917 5.43849C98.9851 5.43164 98.9805 5.42304 98.9786 5.41369L98.8589 4.82349L98.4261 5.24226C98.4193 5.2489 98.4107 5.25342 98.4013 5.25531L97.8106 5.37451L98.2301 5.80713C98.2367 5.81398 98.2413 5.82258 98.2432 5.83193L98.3629 6.42212L98.7957 6.00335C98.8025 5.99672 98.8111 5.99219 98.8205 5.9903L99.4112 5.8711L98.9917 5.43849Z" fill="white"/>
<path opacity="0.2" d="M151.504 34.7104C151.506 34.7011 151.511 34.6927 151.518 34.686L151.95 34.2668L151.364 34.1284C151.355 34.1262 151.346 34.1214 151.34 34.1145L150.921 33.6815L150.783 34.2681C150.781 34.2774 150.776 34.2859 150.769 34.2925L150.337 34.7118L150.923 34.8502C150.932 34.8524 150.941 34.8572 150.947 34.864L151.366 35.297L151.504 34.7104Z" fill="white"/>
<path opacity="0.2" d="M29.8949 102.255C29.9044 102.255 29.9135 102.259 29.921 102.265L30.3946 102.637L30.4529 102.038C30.4538 102.028 30.4574 102.019 30.4633 102.012L30.8361 101.538L30.2363 101.48C30.2268 101.479 30.2177 101.476 30.2102 101.47L29.7367 101.098L29.6783 101.697C29.6774 101.707 29.6738 101.716 29.6679 101.723L29.2951 102.197L29.8949 102.255Z" fill="white"/>
<path opacity="0.2" d="M94.0463 135.418C94.0558 135.419 94.0648 135.422 94.0723 135.428L94.5459 135.8L94.6043 135.201C94.6052 135.191 94.6088 135.182 94.6147 135.175L94.9875 134.701L94.3876 134.643C94.3781 134.642 94.3691 134.639 94.3616 134.633L93.888 134.261L93.8297 134.86C93.8288 134.87 93.8251 134.879 93.8192 134.886L93.4465 135.36L94.0463 135.418Z" fill="white"/>
<path opacity="0.2" d="M102.577 29.2377C102.568 29.238 102.558 29.2357 102.55 29.2308L102.031 28.9251L102.053 29.5269C102.054 29.5364 102.051 29.5459 102.046 29.5541L101.74 30.073L102.342 30.0504C102.352 30.0501 102.361 30.0525 102.369 30.0573L102.888 30.363L102.866 29.7612C102.866 29.7517 102.868 29.7423 102.873 29.734L103.18 29.2152L102.577 29.2377Z" fill="white"/>
<path opacity="0.2" d="M169.172 70.3224C169.173 70.3129 169.176 70.3038 169.181 70.2961L169.537 69.8103L168.937 69.772C168.927 69.7714 168.918 69.7681 168.91 69.7624L168.424 69.4057L168.387 70.0071C168.386 70.0167 168.383 70.0258 168.377 70.0335L168.021 70.5192L168.622 70.5575C168.632 70.5581 168.641 70.5615 168.649 70.5671L169.134 70.9238L169.172 70.3224Z" fill="white"/>
<path opacity="0.2" d="M137.62 106.11C137.623 106.119 137.625 106.128 137.623 106.138L137.537 106.734L138.086 106.485C138.095 106.481 138.104 106.48 138.114 106.481L138.71 106.568L138.461 106.02C138.457 106.011 138.456 106.001 138.457 105.992L138.543 105.396L137.994 105.644C137.986 105.648 137.976 105.65 137.967 105.648L137.37 105.561L137.62 106.11Z" fill="white"/>
<path opacity="0.2" d="M79.3276 97.2562C79.3205 97.2498 79.3155 97.2415 79.313 97.2323L79.1562 96.6508L78.7508 97.0961C78.7443 97.1032 78.736 97.1082 78.7268 97.1107L78.1448 97.267L78.5908 97.6722C78.5979 97.6787 78.6029 97.687 78.6054 97.6962L78.7622 98.2776L79.1676 97.8323C79.1741 97.8253 79.1824 97.8202 79.1916 97.8177L79.7736 97.6615L79.3276 97.2562Z" fill="white"/>
<ellipse opacity="0.2" cx="26.2864" cy="28.5385" rx="1.34068" ry="1.33904" transform="rotate(162.941 26.2864 28.5385)" fill="white"/>
<ellipse opacity="0.2" cx="130.835" cy="92.4533" rx="1.34068" ry="1.33904" transform="rotate(-70.3842 130.835 92.4533)" fill="white"/>
<ellipse opacity="0.2" cx="68.4794" cy="22.62" rx="1.34068" ry="1.33904" transform="rotate(17.237 68.4794 22.62)" fill="white"/>
<ellipse opacity="0.2" cx="120.574" cy="18.293" rx="1.34068" ry="1.33904" transform="rotate(74.5811 120.574 18.293)" fill="white"/>
<ellipse opacity="0.2" cx="42.0046" cy="69.3978" rx="1.34068" ry="1.33904" transform="rotate(156.855 42.0046 69.3978)" fill="white"/>
<ellipse opacity="0.2" cx="106.157" cy="102.561" rx="1.34068" ry="1.33904" transform="rotate(156.855 106.157 102.561)" fill="white"/>
<ellipse opacity="0.2" cx="94.9436" cy="63.4123" rx="1.34068" ry="1.33904" transform="rotate(-30.7877 94.9436 63.4123)" fill="white"/>
<ellipse opacity="0.2" cx="135.931" cy="59.3143" rx="1.34068" ry="1.33904" transform="rotate(64.9439 135.931 59.3143)" fill="white"/>
<ellipse opacity="0.2" cx="172.137" cy="100.218" rx="1.34068" ry="1.33904" transform="rotate(-143.064 172.137 100.218)" fill="white"/>
<ellipse opacity="0.2" cx="49.9624" cy="116.332" rx="1.34068" ry="1.33904" transform="rotate(13.6139 49.9624 116.332)" fill="white"/>
<ellipse opacity="0.2" cx="4.3687" cy="33.2794" rx="0.558615" ry="0.557934" transform="rotate(162.941 4.3687 33.2794)" fill="white"/>
<ellipse opacity="0.2" cx="140.124" cy="72.0425" rx="0.558615" ry="0.557934" transform="rotate(-70.3842 140.124 72.0425)" fill="white"/>
<ellipse opacity="0.2" cx="89.2578" cy="31.0539" rx="0.558615" ry="0.557934" transform="rotate(17.237 89.2578 31.0539)" fill="white"/>
<ellipse opacity="0.2" cx="124.686" cy="40.3377" rx="0.558615" ry="0.557934" transform="rotate(74.5811 124.686 40.3377)" fill="white"/>
<ellipse opacity="0.2" cx="20.7133" cy="76.436" rx="0.558615" ry="0.557934" transform="rotate(156.855 20.7133 76.436)" fill="white"/>
<ellipse opacity="0.2" cx="84.8647" cy="109.599" rx="0.558615" ry="0.557934" transform="rotate(156.855 84.8647 109.599)" fill="white"/>
<ellipse opacity="0.2" cx="115.11" cy="53.6055" rx="0.558615" ry="0.557934" transform="rotate(-30.7877 115.11 53.6055)" fill="white"/>
<ellipse opacity="0.2" cx="143.675" cy="80.3595" rx="0.558615" ry="0.557934" transform="rotate(64.9439 143.675 80.3595)" fill="white"/>
<ellipse opacity="0.2" cx="155.418" cy="85.275" rx="0.558615" ry="0.557934" transform="rotate(-143.064 155.418 85.275)" fill="white"/>
<ellipse opacity="0.2" cx="71.2329" cy="123.435" rx="0.558615" ry="0.557934" transform="rotate(13.6139 71.2329 123.435)" fill="white"/>
<ellipse opacity="0.2" cx="7.83647" cy="50.3082" rx="0.558615" ry="0.557933" transform="rotate(162.941 7.83647 50.3082)" fill="white"/>
<ellipse opacity="0.2" cx="124.395" cy="64.6528" rx="0.558615" ry="0.557933" transform="rotate(-70.3842 124.395 64.6528)" fill="white"/>
<ellipse opacity="0.2" cx="95.9883" cy="15.0314" rx="0.558615" ry="0.557933" transform="rotate(17.237 95.9883 15.0314)" fill="white"/>
<ellipse opacity="0.2" cx="141.807" cy="37.3582" rx="0.558615" ry="0.557933" transform="rotate(74.5811 141.807 37.3582)" fill="white"/>
<ellipse opacity="0.2" cx="25.9672" cy="93.0015" rx="0.558615" ry="0.557933" transform="rotate(156.855 25.9672 93.0015)" fill="white"/>
<ellipse opacity="0.2" cx="90.1186" cy="126.165" rx="0.558615" ry="0.557933" transform="rotate(156.855 90.1186 126.165)" fill="white"/>
<ellipse opacity="0.2" cx="107.7" cy="37.8862" rx="0.558615" ry="0.557933" transform="rotate(-30.7877 107.7 37.8862)" fill="white"/>
<ellipse opacity="0.2" cx="160.055" cy="74.5558" rx="0.558615" ry="0.557933" transform="rotate(64.9439 160.055 74.5558)" fill="white"/>
<ellipse opacity="0.2" cx="143.681" cy="98.0904" rx="0.558615" ry="0.557933" transform="rotate(-143.064 143.681 98.0904)" fill="white"/>
<ellipse opacity="0.2" cx="76.937" cy="107.02" rx="0.558615" ry="0.557933" transform="rotate(13.6139 76.937 107.02)" fill="white"/>
<path opacity="0.5" d="M107.901 73.7267C107.925 73.7317 107.948 73.7437 107.966 73.7611L109.097 74.8629L109.416 73.3161C109.421 73.2916 109.433 73.2691 109.451 73.2512L110.554 72.1201L109.006 71.8026C108.982 71.7976 108.959 71.7857 108.941 71.7682L107.81 70.6665L107.491 72.2132C107.486 72.2378 107.474 72.2603 107.456 72.2782L106.353 73.4093L107.901 73.7267Z" fill="white"/>
<path opacity="0.5" d="M143.06 49.6478C143.043 49.6298 143.031 49.6072 143.026 49.5827L142.712 48.035L141.577 49.1332C141.559 49.1506 141.537 49.1624 141.512 49.1674L139.963 49.48L141.063 50.6145C141.08 50.6325 141.092 50.6551 141.097 50.6796L141.411 52.2273L142.546 51.1291C142.564 51.1117 142.587 51.0999 142.611 51.0949L144.16 50.7823L143.06 49.6478Z" fill="white"/>
<path opacity="0.5" d="M124.432 113.871C124.457 113.873 124.48 113.883 124.5 113.898L125.742 114.874L125.895 113.302C125.898 113.277 125.907 113.254 125.923 113.234L126.9 111.992L125.327 111.841C125.302 111.838 125.278 111.829 125.259 111.813L124.017 110.838L123.864 112.41C123.861 112.435 123.852 112.458 123.836 112.478L122.859 113.72L124.432 113.871Z" fill="white"/>
<path opacity="0.5" d="M162.205 94.338C162.179 94.339 162.155 94.3327 162.133 94.32L160.773 93.5183L160.83 95.0965C160.831 95.1215 160.825 95.1462 160.812 95.1678L160.008 96.5285L161.587 96.4695C161.612 96.4685 161.637 96.4748 161.659 96.4875L163.019 97.2892L162.962 95.711C162.961 95.686 162.967 95.6612 162.98 95.6397L163.784 94.279L162.205 94.338Z" fill="white"/>
<path opacity="0.5" d="M123.904 143.425C123.885 143.408 123.872 143.387 123.865 143.362L123.454 141.838L122.391 143.005C122.374 143.024 122.352 143.037 122.328 143.044L120.802 143.453L121.971 144.516C121.99 144.533 122.003 144.555 122.01 144.579L122.421 146.104L123.484 144.936C123.501 144.918 123.523 144.904 123.547 144.898L125.073 144.488L123.904 143.425Z" fill="white"/>
<path opacity="0.5" d="M88.0484 90.9079C88.0729 90.9129 88.0955 90.9248 88.1134 90.9423L89.2449 92.044L89.5637 90.4973C89.5688 90.4728 89.5807 90.4503 89.5982 90.4323L90.7019 89.3012L89.1537 88.9838C89.1292 88.9788 89.1067 88.9668 89.0888 88.9494L87.9573 87.8476L87.6385 89.3944C87.6334 89.4189 87.6214 89.4414 87.604 89.4593L86.5003 90.5905L88.0484 90.9079Z" fill="white"/>
<path opacity="0.5" d="M169.142 46.6395C169.125 46.6215 169.113 46.5989 169.108 46.5744L168.794 45.0266L167.659 46.1249C167.641 46.1423 167.619 46.1541 167.594 46.1591L166.045 46.4717L167.145 47.6062C167.162 47.6242 167.174 47.6468 167.179 47.6713L167.493 49.219L168.628 48.1208C168.646 48.1034 168.669 48.0916 168.693 48.0866L170.242 47.774L169.142 46.6395Z" fill="white"/>
<path opacity="0.5" d="M106.513 133.061C106.538 133.063 106.562 133.072 106.581 133.088L107.823 134.063L107.976 132.492C107.979 132.467 107.988 132.443 108.004 132.423L108.981 131.182L107.408 131.03C107.383 131.028 107.359 131.018 107.34 131.003L106.098 130.027L105.945 131.599C105.942 131.624 105.933 131.648 105.917 131.667L104.94 132.909L106.513 133.061Z" fill="white"/>
<path opacity="0.5" d="M170.665 166.224C170.69 166.226 170.714 166.236 170.734 166.251L171.976 167.227L172.128 165.655C172.131 165.63 172.14 165.606 172.156 165.586L173.133 164.345L171.56 164.193C171.535 164.191 171.512 164.181 171.492 164.166L170.25 163.19L170.097 164.762C170.095 164.787 170.085 164.811 170.07 164.83L169.092 166.072L170.665 166.224Z" fill="white"/>
<path opacity="0.5" d="M177.411 72.9367C177.386 72.9376 177.361 72.9313 177.339 72.9187L175.979 72.1169L176.036 73.6951C176.037 73.7201 176.031 73.7449 176.018 73.7664L175.214 75.1272L176.793 75.0681C176.818 75.0672 176.843 75.0734 176.865 75.0861L178.225 75.8878L178.168 74.3096C178.167 74.2846 178.173 74.2599 178.186 74.2383L178.99 72.8776L177.411 72.9367Z" fill="white"/>
<path opacity="0.5" d="M149.742 138.775C149.724 138.758 149.711 138.736 149.704 138.712L149.293 137.187L148.23 138.355C148.213 138.373 148.191 138.387 148.167 138.393L146.641 138.803L147.81 139.866C147.829 139.883 147.842 139.904 147.849 139.929L148.26 141.453L149.323 140.286C149.34 140.267 149.362 140.254 149.386 140.247L150.912 139.837L149.742 138.775Z" fill="white"/>
<path opacity="0.2" d="M96.5386 87.4825C96.5479 87.4844 96.5565 87.489 96.5634 87.4956L96.9948 87.9157L97.1164 87.3259C97.1183 87.3166 97.1229 87.308 97.1295 87.3012L97.5504 86.8698L96.9601 86.7488C96.9507 86.7469 96.9421 86.7423 96.9353 86.7357L96.5038 86.3156L96.3823 86.9054C96.3803 86.9147 96.3758 86.9233 96.3691 86.9301L95.9483 87.3615L96.5386 87.4825Z" fill="white"/>
<path opacity="0.2" d="M160.198 44.6856C160.191 44.6787 160.187 44.6701 160.185 44.6608L160.065 44.0706L159.632 44.4893C159.625 44.496 159.617 44.5005 159.607 44.5024L159.017 44.6216L159.436 45.0542C159.443 45.0611 159.447 45.0697 159.449 45.079L159.569 45.6692L160.002 45.2504C160.009 45.2438 160.017 45.2393 160.027 45.2374L160.617 45.1182L160.198 44.6856Z" fill="white"/>
<path opacity="0.2" d="M114.591 128.754C114.601 128.755 114.61 128.759 114.617 128.764L115.091 129.136L115.149 128.537C115.15 128.528 115.154 128.519 115.16 128.511L115.532 128.038L114.933 127.98C114.923 127.979 114.914 127.975 114.907 127.969L114.433 127.597L114.375 128.197C114.374 128.206 114.37 128.215 114.364 128.223L113.991 128.696L114.591 128.754Z" fill="white"/>
<path opacity="0.2" d="M178.744 161.917C178.753 161.918 178.762 161.922 178.77 161.928L179.243 162.3L179.302 161.7C179.302 161.691 179.306 161.682 179.312 161.674L179.685 161.201L179.085 161.143C179.075 161.142 179.066 161.138 179.059 161.132L178.585 160.76L178.527 161.36C178.526 161.369 178.522 161.378 178.516 161.386L178.144 161.859L178.744 161.917Z" fill="white"/>
<path opacity="0.2" d="M169.978 78.2792C169.968 78.2795 169.959 78.2772 169.951 78.2723L169.432 77.9666L169.454 78.5684C169.454 78.5779 169.452 78.5874 169.447 78.5956L169.14 79.1145L169.742 79.0919C169.752 79.0916 169.761 79.094 169.77 79.0988L170.288 79.4045L170.267 78.8027C170.266 78.7932 170.269 78.7838 170.274 78.7755L170.58 78.2567L169.978 78.2792Z" fill="white"/>
<path opacity="0.2" d="M140.693 137.39C140.686 137.384 140.681 137.376 140.678 137.367L140.521 136.785L140.116 137.23C140.11 137.237 140.101 137.243 140.092 137.245L139.51 137.401L139.956 137.807C139.963 137.813 139.968 137.821 139.971 137.83L140.127 138.412L140.533 137.967C140.539 137.96 140.548 137.955 140.557 137.952L141.139 137.796L140.693 137.39Z" fill="white"/>
<path opacity="0.2" d="M86.0571 97.1187C86.0665 97.1206 86.0751 97.1252 86.0819 97.1318L86.5134 97.552L86.6349 96.9622C86.6369 96.9528 86.6414 96.9442 86.6481 96.9374L87.0689 96.5061L86.4786 96.385C86.4693 96.3831 86.4607 96.3786 86.4538 96.3719L86.0224 95.9518L85.9008 96.5416C85.8989 96.551 85.8943 96.5595 85.8877 96.5664L85.4668 96.9977L86.0571 97.1187Z" fill="white"/>
<path opacity="0.2" d="M174.288 42.6314C174.281 42.6245 174.276 42.6159 174.275 42.6066L174.155 42.0164L173.722 42.4351C173.715 42.4418 173.707 42.4463 173.697 42.4482L173.106 42.5674L173.526 43C173.533 43.0069 173.537 43.0155 173.539 43.0248L173.659 43.615L174.092 43.1962C174.098 43.1896 174.107 43.1851 174.116 43.1832L174.707 43.064L174.288 42.6314Z" fill="white"/>
<path opacity="0.2" d="M105.191 139.447C105.2 139.448 105.209 139.452 105.217 139.458L105.69 139.83L105.749 139.23C105.75 139.221 105.753 139.212 105.759 139.204L106.132 138.731L105.532 138.673C105.523 138.672 105.514 138.669 105.506 138.663L105.033 138.291L104.974 138.89C104.973 138.9 104.97 138.909 104.964 138.916L104.591 139.39L105.191 139.447Z" fill="white"/>
<path opacity="0.2" d="M169.342 172.611C169.352 172.611 169.361 172.615 169.368 172.621L169.842 172.993L169.9 172.394C169.901 172.384 169.905 172.375 169.911 172.368L170.283 171.894L169.684 171.836C169.674 171.835 169.665 171.832 169.657 171.826L169.184 171.454L169.126 172.053C169.125 172.063 169.121 172.072 169.115 172.079L168.742 172.553L169.342 172.611Z" fill="white"/>
<path opacity="0.2" d="M177.873 66.4306C177.864 66.4309 177.854 66.4285 177.846 66.4237L177.327 66.118L177.349 66.7198C177.349 66.7293 177.347 66.7387 177.342 66.747L177.036 67.2658L177.638 67.2433C177.648 67.243 177.657 67.2453 177.665 67.2502L178.184 67.5559L178.162 66.9541C178.162 66.9445 178.164 66.9351 178.169 66.9269L178.475 66.408L177.873 66.4306Z" fill="white"/>
<path opacity="0.2" d="M154.623 134.449C154.616 134.443 154.611 134.434 154.609 134.425L154.452 133.844L154.047 134.289C154.04 134.296 154.032 134.301 154.023 134.304L153.441 134.46L153.887 134.865C153.894 134.872 153.899 134.88 153.901 134.889L154.058 135.47L154.464 135.025C154.47 135.018 154.478 135.013 154.487 135.011L155.069 134.854L154.623 134.449Z" fill="white"/>
<ellipse opacity="0.2" cx="101.582" cy="65.7313" rx="1.34068" ry="1.33904" transform="rotate(162.941 101.582 65.7313)" fill="white"/>
<ellipse opacity="0.2" cx="143.775" cy="59.8129" rx="1.34068" ry="1.33904" transform="rotate(17.237 143.775 59.8129)" fill="white"/>
<ellipse opacity="0.2" cx="117.3" cy="106.591" rx="1.34068" ry="1.33904" transform="rotate(156.855 117.3 106.591)" fill="white"/>
<ellipse opacity="0.2" cx="170.239" cy="100.605" rx="1.34068" ry="1.33904" transform="rotate(-30.7877 170.239 100.605)" fill="white"/>
<ellipse opacity="0.2" cx="125.258" cy="153.525" rx="1.34068" ry="1.33904" transform="rotate(13.6139 125.258 153.525)" fill="white"/>
<ellipse opacity="0.2" cx="79.6646" cy="70.4723" rx="0.558615" ry="0.557934" transform="rotate(162.941 79.6646 70.4723)" fill="white"/>
<ellipse opacity="0.2" cx="164.554" cy="68.2467" rx="0.558615" ry="0.557934" transform="rotate(17.237 164.554 68.2467)" fill="white"/>
<ellipse opacity="0.2" cx="96.0092" cy="113.629" rx="0.558615" ry="0.557934" transform="rotate(156.855 96.0092 113.629)" fill="white"/>
<ellipse opacity="0.2" cx="160.161" cy="146.792" rx="0.558615" ry="0.557934" transform="rotate(156.855 160.161 146.792)" fill="white"/>
<ellipse opacity="0.2" cx="146.529" cy="160.628" rx="0.558615" ry="0.557934" transform="rotate(13.6139 146.529 160.628)" fill="white"/>
<ellipse opacity="0.2" cx="83.1324" cy="87.5011" rx="0.558615" ry="0.557933" transform="rotate(162.941 83.1324 87.5011)" fill="white"/>
<ellipse opacity="0.2" cx="171.284" cy="52.2243" rx="0.558615" ry="0.557933" transform="rotate(17.237 171.284 52.2243)" fill="white"/>
<ellipse opacity="0.2" cx="101.263" cy="130.194" rx="0.558615" ry="0.557933" transform="rotate(156.855 101.263 130.194)" fill="white"/>
<ellipse opacity="0.2" cx="165.415" cy="163.357" rx="0.558615" ry="0.557933" transform="rotate(156.855 165.415 163.357)" fill="white"/>
<ellipse opacity="0.2" cx="152.233" cy="144.213" rx="0.558615" ry="0.557933" transform="rotate(13.6139 152.233 144.213)" fill="white"/>
</svg>
