<svg width="17" height="18" viewBox="0 0 17 18" fill="none" xmlns="http://www.w3.org/2000/svg">
<path d="M1.91101 9.18408C0.856011 9.18408 0 10.0401 0 11.0961C0 12.1511 0.856011 13.0071 1.91101 13.0071H5.229C6.285 13.0071 7.14099 12.1511 7.14099 11.0961C7.14099 10.0401 6.285 9.18408 5.229 9.18408H1.91101Z" fill="url(#paint0_linear_35_21917)"/>
<path d="M3.31836 6.504V11.096V13.007V16.0885C3.31836 17.1442 4.17417 18 5.22986 18C6.28555 18 7.14136 17.1442 7.14136 16.0885V15.5035C7.14136 14.1247 8.25908 13.007 9.63786 13.007H9.82236C13.4084 13.007 16.3254 10.09 16.3254 6.504C16.3254 2.917 13.4084 0 9.82236 0C6.23636 0 3.31836 2.917 3.31836 6.504ZM7.14136 6.504C7.14136 5.025 8.34336 3.823 9.82236 3.823C11.3004 3.823 12.5034 5.025 12.5034 6.504C12.5034 7.982 11.3004 9.184 9.82236 9.184C8.34223 9.184 7.14136 7.98412 7.14136 6.504Z" fill="url(#paint1_linear_35_21917)"/>
<defs>
<linearGradient id="paint0_linear_35_21917" x1="-0.146" y1="11.0961" x2="3.422" y2="11.0961" gradientUnits="userSpaceOnUse">
<stop stop-color="#1955B9"/>
<stop offset="1" stop-color="#1E6FF6"/>
</linearGradient>
<linearGradient id="paint1_linear_35_21917" x1="10.8674" y1="-1.548" x2="7.93938" y2="21.01" gradientUnits="userSpaceOnUse">
<stop stop-color="#1E6FF6"/>
<stop offset="1" stop-color="#1750AF"/>
</linearGradient>
</defs>
</svg>
