<svg width="94" height="24" viewBox="0 0 94 24" fill="none" xmlns="http://www.w3.org/2000/svg">
<path d="M18.2558 2.24237L10.9692 0L3.69113 2.24237C3.57324 2.28286 3.476 2.36933 3.42077 2.48297C3.36543 2.59647 3.35664 2.72779 3.39634 2.84804C3.43593 2.96827 3.52082 3.06745 3.63212 3.12389C3.74354 3.18021 3.8723 3.18918 3.99019 3.14881L10.9902 1.00088L18.0115 3.14881C18.1246 3.16799 18.2405 3.1437 18.3372 3.08078C18.4337 3.01786 18.5039 2.92055 18.5343 2.80792C18.5646 2.69516 18.5531 2.57505 18.5016 2.4705C18.4502 2.3661 18.3626 2.28486 18.2558 2.24237Z" fill="white"/>
<path fill-rule="evenodd" clip-rule="evenodd" d="M21.3437 3.30014C21.4149 3.37191 21.462 3.46473 21.4785 3.5654C21.8715 6.28735 21.7385 9.06161 21.0868 11.7314C20.0506 15.9284 17.4266 20.804 11.2057 23.9012L10.9994 24L10.7972 23.9012C4.56786 20.804 1.95224 15.9284 0.916122 11.7272C0.256036 9.06051 0.112967 6.28797 0.49493 3.5654C0.512607 3.46049 0.563282 3.36443 0.639267 3.29154C0.715252 3.21865 0.812436 3.17305 0.916122 3.16159C1.01057 3.15436 1.10503 3.17516 1.18804 3.22176C1.27103 3.26824 1.33899 3.33839 1.38363 3.42361L5.59552 11.8217H16.3737L20.5855 3.42361C20.6312 3.33278 20.7038 3.25902 20.793 3.21267C20.8822 3.16632 20.9833 3.14987 21.0822 3.16557C21.1811 3.18127 21.2726 3.22837 21.3437 3.30014ZM1.232 5.22354C1.10641 7.3321 1.29384 9.44795 1.78798 11.4995C2.32564 13.7825 3.32251 15.9266 4.71532 17.7959C6.10812 19.6652 7.86645 21.2192 9.87896 22.3591L4.9048 12.5262L1.232 5.22354ZM6.07562 12.7882L10.9698 22.4493L15.9062 12.7882H6.07562ZM17.2264 17.7894C18.6195 15.9218 19.6185 13.7802 20.1601 11.4995C20.6625 9.44356 20.853 7.32113 20.7246 5.20634L17.0559 12.509L12.0649 22.3505C14.0758 21.2098 15.8331 19.6568 17.2264 17.7894Z" fill="white"/>
<path fill-rule="evenodd" clip-rule="evenodd" d="M28.8171 21.3407C28.9394 21.4687 29.086 21.5698 29.2478 21.6379C29.4095 21.706 29.5832 21.7397 29.758 21.7368H36.3712V20.8192H29.758C29.7011 20.8213 29.6442 20.8113 29.5911 20.79C29.5381 20.7687 29.4899 20.7362 29.4495 20.6949C29.4092 20.6536 29.3777 20.6042 29.3567 20.5498C29.3359 20.4955 29.3263 20.4373 29.3284 20.3788V14.9379C29.3275 14.8811 29.3377 14.8246 29.3588 14.772C29.3799 14.7194 29.4112 14.6717 29.4508 14.6319C29.491 14.5894 29.539 14.5556 29.5921 14.5326C29.6453 14.5095 29.7026 14.4976 29.7602 14.4976H36.3712V13.5777H29.758C29.5836 13.5768 29.4107 13.6113 29.2495 13.6792C29.0881 13.7471 28.9415 13.847 28.818 13.9733C28.6946 14.0995 28.5968 14.2496 28.5303 14.4148C28.4637 14.58 28.4297 14.757 28.4303 14.9357V20.3788C28.4278 20.5577 28.4608 20.7351 28.5273 20.9004C28.5937 21.0658 28.6924 21.2156 28.8171 21.3407ZM41.4934 13.5798V21.7368H48.7619V20.8192H42.3914V18.1228H47.5092V17.1939H42.3914V14.4976H48.7619V13.5777L41.4934 13.5798ZM53.8754 21.7368V13.593H60.5122C60.8635 13.5959 61.1995 13.7401 61.448 13.9946C61.6963 14.2491 61.8371 14.5934 61.8399 14.9533V17.3414C61.8416 17.5205 61.8082 17.6979 61.7418 17.8636C61.6754 18.0291 61.5773 18.1794 61.4532 18.3055C61.3308 18.4335 61.1842 18.5346 61.0225 18.6027C60.8607 18.6708 60.687 18.7045 60.5122 18.7016H59.2961L61.7948 21.7215H60.611L58.1252 18.7016L54.7734 18.6885V21.7368H53.8754ZM55.2031 17.7751H60.5122C60.5676 17.7757 60.6226 17.7648 60.6739 17.7433C60.7251 17.7217 60.7718 17.6898 60.8108 17.6496C60.8505 17.6099 60.8819 17.5623 60.903 17.5096C60.924 17.457 60.9343 17.4005 60.9333 17.3436V14.951C60.9343 14.8943 60.924 14.8378 60.903 14.7852C60.8819 14.7325 60.8505 14.6849 60.8108 14.6451C60.7736 14.6016 60.7276 14.5669 60.6761 14.5433C60.6246 14.5198 60.5686 14.508 60.5122 14.5087H55.2031C55.1452 14.5089 55.088 14.5211 55.0348 14.5445C54.9816 14.568 54.9337 14.6022 54.8937 14.6451C54.8547 14.6853 54.8239 14.7331 54.8033 14.7856C54.7826 14.8382 54.7724 14.8945 54.7734 14.951V17.3414C54.7724 17.3981 54.7826 17.4543 54.8033 17.5069C54.8239 17.5595 54.8547 17.6073 54.8937 17.6473C54.9779 17.7275 55.0883 17.7723 55.2031 17.7729V17.7751ZM70.1007 14.4976V21.7368H70.9994V14.4976H74.5291V13.5777H66.5648V14.4955L70.1007 14.4976ZM79.2559 13.5777H80.1626V21.7347H79.2559V13.5777ZM85.6243 13.5777V21.7347H86.531V18.1228H89.096L92.0611 21.7368H93.2214L89.8849 17.6584L93.2214 13.5908H92.0716L89.1071 17.205H86.5328V13.5777H85.6243Z" fill="white"/>
<path d="M32.9774 8.06422L31.0174 3.37805H30.438L28.4746 8.06422H29.1155L29.5551 7.00293H31.8969L32.3366 8.06422H32.9774ZM30.7039 4.23603L30.7243 4.15677H30.7311L30.7482 4.23603L31.6821 6.48607H29.7699L30.7039 4.23603Z" fill="white"/>
<path d="M36.5412 8.16073C37.6626 8.16073 38.4602 7.37855 38.4602 6.24836V3.37463H37.8569V6.21045C37.8569 6.9754 37.366 7.59563 36.5412 7.59563C35.6958 7.59563 35.222 6.96506 35.222 6.20357V3.37463H34.6221V6.24836C34.6221 7.40957 35.4606 8.16073 36.5412 8.16073Z" fill="white"/>
<path d="M42.7334 8.06422C44.1957 8.06422 45.1671 7.12698 45.1671 5.71768C45.1671 4.31528 44.1888 3.37805 42.7231 3.37805H41.0291V8.06422H42.7334ZM41.6221 3.92247H42.7061C43.8582 3.92247 44.5569 4.64262 44.5569 5.73146C44.5569 6.81687 43.8549 7.5129 42.7197 7.5129H41.6221V3.92247Z" fill="white"/>
<path d="M48.0805 8.06422V3.37805H47.4768V8.06422H48.0805Z" fill="white"/>
<path d="M52.3464 8.06422V3.92592H53.8155V3.37805H50.2773V3.92592H51.7431V8.06422H52.3464Z" fill="white"/>
<path d="M59.1282 8.06422V7.5129H56.6194V5.94166H58.7737V5.4179H56.6194V3.93281H59.0975V3.37805H56.0161V8.06422H59.1282Z" fill="white"/>
<path d="M63.1047 8.06422C64.5669 8.06422 65.5384 7.12698 65.5384 5.71768C65.5384 4.31528 64.5602 3.37805 63.0944 3.37805H61.4004V8.06422H63.1047ZM61.9935 3.92247H63.0774C64.2295 3.92247 64.9283 4.64262 64.9283 5.73146C64.9283 6.81687 64.2261 7.5129 63.0911 7.5129H61.9935V3.92247Z" fill="white"/>
<path d="M73.1437 8.06422C73.8664 8.06422 74.5413 7.58871 74.5413 6.74106C74.5413 6.19319 74.1493 5.73146 73.6585 5.58675C74.0027 5.43514 74.272 5.04233 74.272 4.61162C74.272 3.87768 73.7198 3.37805 72.9494 3.37805H70.969V8.06422H73.1437ZM71.5792 3.90868H72.9256C73.3346 3.90868 73.6619 4.23947 73.6619 4.65641C73.6619 5.08023 73.3346 5.41102 72.9221 5.41102H71.5792V3.90868ZM71.5792 5.88308H73.1029C73.563 5.88308 73.9209 6.24832 73.9209 6.69627C73.9209 7.17177 73.5596 7.52668 73.096 7.52668H71.5792V5.88308Z" fill="white"/>
<path d="M78.5688 8.06422L78.5654 6.26555L80.4402 3.37805H79.7244L78.2689 5.72114H78.2655L76.8032 3.37805H76.0908L77.9655 6.269V8.06422H78.5688Z" fill="white"/>
<path fill-rule="evenodd" clip-rule="evenodd" d="M85.8169 2.6612C87.2298 2.22015 88.7512 1.63208 89.2946 1.00726C89.838 1.63208 91.3595 2.22015 92.7725 2.6612C92.8811 4.27838 92.3376 7.84354 89.2946 9.16667C86.2516 7.84354 85.7082 4.27838 85.8169 2.6612ZM88.6339 5.70169L90.7718 3.54054C90.9135 3.3972 91.1462 3.3972 91.288 3.54054C91.4298 3.68389 91.4298 3.91544 91.288 4.05878L88.892 6.48089C88.7502 6.62422 88.5212 6.62422 88.3794 6.48089L87.4376 5.52894C87.2958 5.38561 87.2958 5.15406 87.4376 5.01072C87.5794 4.86737 87.8085 4.86737 87.9503 5.01072L88.6339 5.70169Z" fill="#1DC872"/>
</svg>
