<svg width="18" height="15" viewBox="0 0 18 15" fill="none" xmlns="http://www.w3.org/2000/svg">
<path fill-rule="evenodd" clip-rule="evenodd" d="M18 1.73149C17.3382 2.02547 16.6261 2.22345 15.8791 2.31284C16.6417 1.85567 17.2273 1.13212 17.5026 0.26998C16.7899 0.693552 15.9985 1.00013 15.158 1.16632C14.4842 0.44877 13.5237 0 12.4624 0C10.4231 0 8.76961 1.65349 8.76961 3.69275C8.76961 3.98193 8.80261 4.26391 8.86561 4.5345C5.79621 4.38091 3.0754 2.91041 1.25392 0.676154C0.935938 1.22152 0.75415 1.85568 0.75415 2.53244C0.75415 3.81335 1.40511 4.94368 2.39684 5.60603C1.79088 5.58683 1.22212 5.42064 0.72355 5.14406V5.19025C0.72355 6.97994 1.99727 8.47204 3.68555 8.81221C3.37597 8.89621 3.0496 8.94181 2.71302 8.94181C2.47483 8.94181 2.24325 8.91841 2.01766 8.87521C2.48743 10.3421 3.85174 11.41 5.46744 11.44C4.20392 12.43 2.61162 13.0209 0.88134 13.0209C0.58256 13.0209 0.288581 13.0035 0 12.9687C1.63429 14.0163 3.57516 14.6282 5.66062 14.6282C12.4528 14.6282 16.1671 9.0012 16.1671 4.12172C16.1671 3.96153 16.1641 3.80195 16.1563 3.64416C16.8787 3.12219 17.505 2.47184 18 1.73149Z" fill="white"/>
</svg>
