<svg width="134" height="134" viewBox="0 0 134 134" fill="none" xmlns="http://www.w3.org/2000/svg">
<circle opacity="0.2" cx="67" cy="67" r="67" fill="url(#paint0_radial_35_13249)"/>
<circle opacity="0.4" cx="67.2939" cy="68.4692" r="50.25" fill="url(#paint1_radial_35_13249)"/>
<circle opacity="0.8" cx="67.9123" cy="68.9123" r="32.9123" fill="url(#paint2_radial_35_13249)"/>
<path opacity="0.4" d="M64.985 77.97C71.6041 77.97 76.97 72.6041 76.97 65.985C76.97 59.3659 71.6041 54 64.985 54C58.3659 54 53 59.3659 53 65.985C53 72.6041 58.3659 77.97 64.985 77.97Z" fill="white"/>
<path d="M82.9551 74.9851C82.9551 79.9351 78.9351 83.9551 73.9851 83.9551C70.9251 83.9551 68.2401 82.4251 66.6201 80.1001C73.1601 79.3651 78.3651 74.1601 79.1001 67.6201C81.4251 69.2401 82.9551 71.9251 82.9551 74.9851Z" fill="white"/>
<path d="M61.3958 63.697V67.0137V68.3941V72H64.1566V68.3941H66.0927C68.6828 68.3941 70.7897 66.287 70.7897 63.697C70.7897 61.107 68.6828 59 66.0927 59C63.5029 59 61.3958 61.107 61.3958 63.697ZM64.1566 63.697C64.1566 62.6294 65.0252 61.7607 66.0927 61.7607C67.1603 61.7607 68.0291 62.6294 68.0291 63.697C68.0291 64.7647 67.1603 65.6332 66.0927 65.6332H64.1566V63.697Z" fill="url(#paint3_linear_35_13249)"/>
<path d="M59 67.0138C59 66.2507 59.6186 65.6321 60.3817 65.6321H61.3949V68.3955H60.3817C59.6186 68.3955 59 67.7768 59 67.0138Z" fill="url(#paint4_linear_35_13249)"/>
<defs>
<radialGradient id="paint0_radial_35_13249" cx="0" cy="0" r="1" gradientUnits="userSpaceOnUse" gradientTransform="translate(67 67) rotate(90) scale(67)">
<stop stop-color="#1E6FF6"/>
<stop offset="1" stop-color="#1E6FF6" stop-opacity="0"/>
</radialGradient>
<radialGradient id="paint1_radial_35_13249" cx="0" cy="0" r="1" gradientUnits="userSpaceOnUse" gradientTransform="translate(67.2939 68.4692) rotate(90) scale(50.25)">
<stop stop-color="#1E6FF6"/>
<stop offset="1" stop-color="#1E6FF6" stop-opacity="0"/>
</radialGradient>
<radialGradient id="paint2_radial_35_13249" cx="0" cy="0" r="1" gradientUnits="userSpaceOnUse" gradientTransform="translate(67.9123 68.9123) rotate(90) scale(32.9123)">
<stop stop-color="#1E6FF6"/>
<stop offset="1" stop-color="#1E6FF6" stop-opacity="0"/>
</radialGradient>
<linearGradient id="paint3_linear_35_13249" x1="66.8476" y1="57.8823" x2="64.7328" y2="74.1743" gradientUnits="userSpaceOnUse">
<stop stop-color="white"/>
<stop offset="1" stop-color="white" stop-opacity="0.4"/>
</linearGradient>
<linearGradient id="paint4_linear_35_13249" x1="61.7627" y1="67.1059" x2="57.7097" y2="67.1059" gradientUnits="userSpaceOnUse">
<stop stop-color="white"/>
<stop offset="1" stop-color="white" stop-opacity="0"/>
</linearGradient>
</defs>
</svg>
