<svg width="134" height="134" viewBox="0 0 134 134" fill="none" xmlns="http://www.w3.org/2000/svg">
<circle opacity="0.2" cx="67" cy="67" r="67" fill="url(#paint0_radial_35_13221)"/>
<circle opacity="0.4" cx="67.2939" cy="68.4692" r="50.25" fill="url(#paint1_radial_35_13221)"/>
<circle opacity="0.8" cx="67.9123" cy="68.9123" r="32.9123" fill="url(#paint2_radial_35_13221)"/>
<path d="M77.7495 69.9751V75.5251C77.7495 80.2051 73.3845 84.0001 67.9995 84.0001C62.6145 84.0001 58.2495 80.2051 58.2495 75.5251V69.9751C58.2495 74.6551 62.6145 78.0001 67.9995 78.0001C73.3845 78.0001 77.7495 74.6551 77.7495 69.9751Z" fill="white"/>
<path opacity="0.4" d="M77.7495 62.4749V69.9749C77.7495 74.6549 73.3845 77.9999 67.9995 77.9999C62.6145 77.9999 58.2495 74.6549 58.2495 69.9749V62.4749C58.2495 63.8399 58.6245 65.0999 59.2845 66.1799C60.8895 68.8199 64.1895 70.4999 67.9995 70.4999C71.8095 70.4999 75.1095 68.8199 76.7145 66.1799C77.3745 65.0999 77.7495 63.8399 77.7495 62.4749Z" fill="white"/>
<path d="M77.7495 62.475C77.7495 63.84 77.3745 65.1 76.7145 66.18C75.1095 68.82 71.8095 70.5 67.9995 70.5C64.1895 70.5 60.8895 68.82 59.2845 66.18C58.6245 65.1 58.2495 63.84 58.2495 62.475C58.2495 57.795 62.6145 54 67.9995 54C70.6995 54 73.1295 54.945 74.8995 56.475C76.6545 58.02 77.7495 60.135 77.7495 62.475Z" fill="white"/>
<defs>
<radialGradient id="paint0_radial_35_13221" cx="0" cy="0" r="1" gradientUnits="userSpaceOnUse" gradientTransform="translate(67 67) rotate(90) scale(67)">
<stop stop-color="#1E6FF6"/>
<stop offset="1" stop-color="#1E6FF6" stop-opacity="0"/>
</radialGradient>
<radialGradient id="paint1_radial_35_13221" cx="0" cy="0" r="1" gradientUnits="userSpaceOnUse" gradientTransform="translate(67.2939 68.4692) rotate(90) scale(50.25)">
<stop stop-color="#1E6FF6"/>
<stop offset="1" stop-color="#1E6FF6" stop-opacity="0"/>
</radialGradient>
<radialGradient id="paint2_radial_35_13221" cx="0" cy="0" r="1" gradientUnits="userSpaceOnUse" gradientTransform="translate(67.9123 68.9123) rotate(90) scale(32.9123)">
<stop stop-color="#1E6FF6"/>
<stop offset="1" stop-color="#1E6FF6" stop-opacity="0"/>
</radialGradient>
</defs>
</svg>
