<svg width="21" height="44" viewBox="0 0 21 44" fill="none" xmlns="http://www.w3.org/2000/svg">
<circle cx="9" cy="39.002" r="4" fill="#1E6FF6"/>
<circle opacity="0.2" cx="15" cy="26.502" r="6" fill="#1E6FF6"/>
<g clip-path="url(#clip0_35_15899)">
<circle cx="9" cy="9.00195" r="9" fill="#1E6FF6"/>
</g>
<path d="M8.99714 13.002C8.38841 13.002 7.85808 12.8814 7.40615 12.6401C6.95423 12.3951 6.60683 12.0621 6.36461 11.6409C6.12176 11.2197 6 10.7527 6 10.2396C6 9.96011 6.02806 9.70357 6.08415 9.47004C6.14024 9.23644 6.23012 8.9914 6.35314 8.73493C6.47616 8.47839 6.65399 8.15867 6.88537 7.77582L8.26967 5.49135C8.45378 5.18753 8.78322 5.00195 9.13847 5.00195H9.78165C10.3054 5.00195 10.6225 5.58046 10.3408 6.02198L9.43603 7.44011C9.37549 7.535 9.47864 7.6667 9.5912 7.6667V7.6667C10.0023 7.6667 10.3924 7.77582 10.7621 7.99407C11.1357 8.21232 11.4346 8.51668 11.6583 8.90717C11.8865 9.29773 12 9.74186 12 10.2396C12 10.7527 11.8789 11.2197 11.636 11.6409C11.3932 12.0621 11.0439 12.3951 10.5888 12.6401C10.1368 12.8814 9.60651 13.002 8.99714 13.002ZM9.0086 11.0494C9.23998 11.0494 9.41975 10.9804 9.54659 10.8426C9.67726 10.7048 9.74226 10.5133 9.74226 10.2683C9.74226 10.0194 9.67726 9.82609 9.54659 9.68828C9.41975 9.54662 9.23998 9.47579 9.0086 9.47579C8.76957 9.47579 8.58281 9.54662 8.44831 9.68828C8.31764 9.82609 8.25264 10.0194 8.25264 10.2683C8.25264 10.5133 8.31764 10.7048 8.44831 10.8426C8.58281 10.9804 8.76957 11.0494 9.0086 11.0494Z" fill="white"/>
<defs>
<clipPath id="clip0_35_15899">
<rect y="0.00195312" width="18" height="18" rx="9" fill="white"/>
</clipPath>
</defs>
</svg>
