<svg width="36" height="36" viewBox="0 0 36 36" fill="none" xmlns="http://www.w3.org/2000/svg">
<path d="M25.1251 5.34V3C25.1251 2.385 24.6151 1.875 24.0001 1.875C23.3851 1.875 22.8751 2.385 22.8751 3V5.25H13.1251V3C13.1251 2.385 12.6151 1.875 12.0001 1.875C11.3851 1.875 10.8751 2.385 10.8751 3V5.34C6.8251 5.715 4.8601 8.13 4.5601 11.715C4.5301 12.15 4.8901 12.51 5.3101 12.51H30.6901C31.1251 12.51 31.4851 12.135 31.4401 11.715C31.1401 8.13 29.1751 5.715 25.1251 5.34Z" fill="#1E6FF6"/>
<path opacity="0.4" d="M30 14.76C30.825 14.76 31.5 15.435 31.5 16.26V25.5C31.5 30 29.25 33 24 33H12C6.75 33 4.5 30 4.5 25.5V16.26C4.5 15.435 5.175 14.76 6 14.76H30Z" fill="#0085FF"/>
<path d="M12.75 22.5C12.36 22.5 11.97 22.335 11.685 22.065C11.415 21.78 11.25 21.39 11.25 21C11.25 20.61 11.415 20.22 11.685 19.935C12.105 19.515 12.765 19.38 13.32 19.62C13.515 19.695 13.68 19.8 13.815 19.935C14.085 20.22 14.25 20.61 14.25 21C14.25 21.39 14.085 21.78 13.815 22.065C13.53 22.335 13.14 22.5 12.75 22.5Z" fill="#1E6FF6"/>
<path d="M18 22.5C17.61 22.5 17.22 22.335 16.935 22.065C16.665 21.78 16.5 21.39 16.5 21C16.5 20.61 16.665 20.22 16.935 19.935C17.07 19.8 17.235 19.695 17.43 19.62C17.985 19.38 18.645 19.515 19.065 19.935C19.335 20.22 19.5 20.61 19.5 21C19.5 21.39 19.335 21.78 19.065 22.065C18.99 22.125 18.915 22.185 18.84 22.245C18.75 22.305 18.66 22.35 18.57 22.38C18.48 22.425 18.39 22.455 18.3 22.47C18.195 22.485 18.105 22.5 18 22.5Z" fill="#1E6FF6"/>
<path d="M23.25 22.5C22.86 22.5 22.47 22.335 22.185 22.065C21.915 21.78 21.75 21.39 21.75 21C21.75 20.61 21.915 20.22 22.185 19.935C22.335 19.8 22.485 19.695 22.68 19.62C22.95 19.5 23.25 19.47 23.55 19.53C23.64 19.545 23.73 19.575 23.82 19.62C23.91 19.65 24 19.695 24.09 19.755C24.165 19.815 24.24 19.875 24.315 19.935C24.585 20.22 24.75 20.61 24.75 21C24.75 21.39 24.585 21.78 24.315 22.065C24.24 22.125 24.165 22.185 24.09 22.245C24 22.305 23.91 22.35 23.82 22.38C23.73 22.425 23.64 22.455 23.55 22.47C23.445 22.485 23.34 22.5 23.25 22.5Z" fill="#1E6FF6"/>
<path d="M12.75 27.75C12.555 27.75 12.36 27.705 12.18 27.63C11.985 27.555 11.835 27.45 11.685 27.315C11.415 27.03 11.25 26.64 11.25 26.25C11.25 25.86 11.415 25.47 11.685 25.185C11.835 25.05 11.985 24.945 12.18 24.87C12.45 24.75 12.75 24.72 13.05 24.78C13.14 24.795 13.23 24.825 13.32 24.87C13.41 24.9 13.5 24.945 13.59 25.005C13.665 25.065 13.74 25.125 13.815 25.185C14.085 25.47 14.25 25.86 14.25 26.25C14.25 26.64 14.085 27.03 13.815 27.315C13.74 27.375 13.665 27.45 13.59 27.495C13.5 27.555 13.41 27.6 13.32 27.63C13.23 27.675 13.14 27.705 13.05 27.72C12.945 27.735 12.855 27.75 12.75 27.75Z" fill="#1E6FF6"/>
<path d="M18 27.75C17.61 27.75 17.22 27.585 16.935 27.315C16.665 27.03 16.5 26.64 16.5 26.25C16.5 25.86 16.665 25.47 16.935 25.185C17.49 24.63 18.51 24.63 19.065 25.185C19.335 25.47 19.5 25.86 19.5 26.25C19.5 26.64 19.335 27.03 19.065 27.315C18.78 27.585 18.39 27.75 18 27.75Z" fill="#1E6FF6"/>
<path d="M23.25 27.75C22.86 27.75 22.47 27.585 22.185 27.315C21.915 27.03 21.75 26.64 21.75 26.25C21.75 25.86 21.915 25.47 22.185 25.185C22.74 24.63 23.76 24.63 24.315 25.185C24.585 25.47 24.75 25.86 24.75 26.25C24.75 26.64 24.585 27.03 24.315 27.315C24.03 27.585 23.64 27.75 23.25 27.75Z" fill="#1E6FF6"/>
</svg>
