<svg width="24" height="24" viewBox="0 0 24 24" fill="none" xmlns="http://www.w3.org/2000/svg">
<path fill-rule="evenodd" clip-rule="evenodd" d="M12 24C5.4 24 0 18.6001 0 11.9402C0.06 5.34038 5.4 -0.0595036 12.06 0.000495204C18.66 0.060494 24 5.40038 24 12.1202C23.94 18.6601 18.6 24 12 24Z" fill="#FC070C"/>
<path fill-rule="evenodd" clip-rule="evenodd" d="M19.4472 8.40591L19.4471 8.4059C18.8914 7.8663 18.3042 7.29612 17.7859 6.83612L17.7334 6.79937C17.646 6.72922 17.5475 6.67421 17.442 6.63662L17.042 6.56199C14.282 6.047 5.33583 4.37774 5.1518 4.40013C5.09737 4.40775 5.04534 4.42748 4.99955 4.45788L4.94967 4.49725C4.88826 4.55962 4.84162 4.63497 4.81317 4.71775L4.80005 4.75187V4.93825V4.96712C5.40742 6.65838 6.9852 10.4354 8.44203 13.9228L8.44205 13.9228C9.6737 16.8712 10.8189 19.6127 11.2182 20.7118L11.2183 20.7123C11.2708 20.8752 11.3706 21.1843 11.5568 21.2001H11.5988C11.6985 21.2001 12.1238 20.6383 12.1238 20.6383C12.1238 20.6383 19.7258 11.4194 20.4949 10.4376C20.5944 10.3167 20.6823 10.1866 20.7574 10.0491C20.7963 9.83029 20.7176 9.60707 20.55 9.46111C20.2225 9.15873 19.8428 8.79007 19.4472 8.40592L19.4472 8.40591ZM14.074 10.5348L17.3185 7.84417L19.2217 9.59767L14.074 10.5348ZM7.22818 5.78091L12.8142 10.3589L16.266 7.44778L7.22818 5.78091ZM13.3181 11.5585L19.0353 10.6371L12.4991 18.5121L13.3181 11.5585ZM12.3468 11.2252L6.46945 6.2377L11.4963 18.5174L12.3468 11.2252Z" fill="white"/>
</svg>
