<svg width="30" height="24" viewBox="0 0 30 24" fill="none" xmlns="http://www.w3.org/2000/svg">
<path d="M2 10V14C2 16 3 17 5 17H6.43C6.8 17 7.17 17.11 7.49 17.3L10.41 19.13C12.93 20.71 15 19.56 15 16.59V7.41003C15 4.43003 12.93 3.29003 10.41 4.87003L7.49 6.70003C7.17 6.89003 6.8 7.00003 6.43 7.00003H5C3 7.00003 2 8.00003 2 10Z" stroke="#1E6FF6" stroke-width="1.5"/>
<path opacity="0.2" d="M19 8.41174C20.5706 10.5029 20.5706 13.3794 19 15.4706" stroke="#1E6FF6" stroke-width="1.3" stroke-linecap="round" stroke-linejoin="round"/>
<path opacity="0.4" d="M21.3779 6.20581C23.9279 9.60287 23.9279 14.2793 21.3779 17.6764" stroke="#1E6FF6" stroke-width="1.3" stroke-linecap="round" stroke-linejoin="round"/>
<path opacity="0.7" d="M24.4905 4.88232C26.8434 8.80201 26.8434 14.1979 24.4905 18.1176" stroke="#1E6FF6" stroke-width="1.3" stroke-linecap="round" stroke-linejoin="round"/>
<path opacity="0.2" d="M27.4551 4C29.808 8.44231 29.808 14.5577 27.4551 19" stroke="#1E6FF6" stroke-width="1.3" stroke-linecap="round" stroke-linejoin="round"/>
</svg>
