<svg width="388" height="162" viewBox="0 0 388 162" fill="none" xmlns="http://www.w3.org/2000/svg">
<g clip-path="url(#clip0_35_33028)">
<rect width="388" height="162" rx="12" fill="url(#paint0_linear_35_33028)"/>
<g clip-path="url(#clip1_35_33028)" filter="url(#filter0_f_35_33028)">
</g>
<g clip-path="url(#clip2_35_33028)" filter="url(#filter1_f_35_33028)">
</g>
<path d="M390.425 66.1602L397.628 60.8867C405.019 55.4749 415.439 60.6512 415.592 69.8106L417.423 179.335C417.527 185.572 412.555 190.712 406.319 190.816L371.432 191.399C367.839 191.459 364.432 189.806 362.256 186.946L341.386 159.522C338.581 155.837 338.311 150.812 340.704 146.847L387.428 69.4366C388.2 68.1569 389.219 67.0433 390.425 66.1602Z" fill="url(#paint1_linear_35_33028)"/>
<path d="M48.4671 106.578L9.99621 96.819C0.36034 94.3746 -9 101.657 -9 111.598V155.753C-9 164.174 -2.17366 171 6.24706 171H65.783C77.6964 171 85.0074 157.949 78.7854 147.79L57.7204 113.394C55.643 110.002 52.3225 107.556 48.4671 106.578Z" fill="url(#paint2_linear_35_33028)"/>
<path d="M377.823 59.76L393.018 3.65342C394.323 -1.16418 390.015 -5.63082 385.153 -4.50044L336.504 6.81132L308.513 13.3197C302.787 14.6511 301.528 22.2406 306.518 25.3497L367.962 63.6362C371.717 65.9762 376.666 64.0308 377.823 59.76Z" fill="url(#paint3_linear_35_33028)"/>
<path d="M106.467 53.1177L123.968 23.1714C125.698 20.2106 124.944 16.4237 122.211 14.3521L79.5251 -18.0054C77.8642 -19.2644 75.7164 -19.6891 73.7014 -19.157L-10.6052 3.10423C-15.6592 4.43874 -17.3631 10.7508 -13.6673 14.4474L21.5999 49.7214C21.8932 50.0147 22.2127 50.2805 22.5545 50.5154L49.7082 69.1724C51.391 70.3286 53.5053 70.6645 55.4635 70.0867L102.534 56.1981C104.19 55.7096 105.596 54.6079 106.467 53.1177Z" fill="url(#paint4_linear_35_33028)"/>
</g>
<defs>
<filter id="filter0_f_35_33028" x="31.0088" y="-23.3989" width="23.5098" height="23.5103" filterUnits="userSpaceOnUse" color-interpolation-filters="sRGB">
<feFlood flood-opacity="0" result="BackgroundImageFix"/>
<feBlend mode="normal" in="SourceGraphic" in2="BackgroundImageFix" result="shape"/>
<feGaussianBlur stdDeviation="1" result="effect1_foregroundBlur_35_33028"/>
</filter>
<filter id="filter1_f_35_33028" x="-23" y="154.721" width="23.3799" height="23.3804" filterUnits="userSpaceOnUse" color-interpolation-filters="sRGB">
<feFlood flood-opacity="0" result="BackgroundImageFix"/>
<feBlend mode="normal" in="SourceGraphic" in2="BackgroundImageFix" result="shape"/>
<feGaussianBlur stdDeviation="1" result="effect1_foregroundBlur_35_33028"/>
</filter>
<linearGradient id="paint0_linear_35_33028" x1="388" y1="0" x2="262.859" y2="279.634" gradientUnits="userSpaceOnUse">
<stop stop-color="#24E24C"/>
<stop offset="1" stop-color="#023F92"/>
</linearGradient>
<linearGradient id="paint1_linear_35_33028" x1="412.94" y1="44.4717" x2="289.821" y2="133.057" gradientUnits="userSpaceOnUse">
<stop stop-color="#012B63"/>
<stop offset="1" stop-color="#012B63" stop-opacity="0"/>
</linearGradient>
<linearGradient id="paint2_linear_35_33028" x1="103.033" y1="52.9115" x2="26.2202" y2="152.708" gradientUnits="userSpaceOnUse">
<stop stop-color="#012B63"/>
<stop offset="1" stop-color="#012B63" stop-opacity="0"/>
</linearGradient>
<linearGradient id="paint3_linear_35_33028" x1="354.365" y1="3.98192" x2="374.944" y2="58.3146" gradientUnits="userSpaceOnUse">
<stop stop-color="#ABE2BE" stop-opacity="0.2"/>
<stop offset="1" stop-color="#17C252"/>
<stop offset="1" stop-color="#40995F" stop-opacity="0.8"/>
</linearGradient>
<linearGradient id="paint4_linear_35_33028" x1="-89.9903" y1="-235.222" x2="404.076" y2="400.293" gradientUnits="userSpaceOnUse">
<stop stop-color="#2BD773" stop-opacity="0.1"/>
<stop offset="1" stop-color="white" stop-opacity="0.6"/>
</linearGradient>
<clipPath id="clip0_35_33028">
<rect width="388" height="162" rx="12" fill="white"/>
</clipPath>
<clipPath id="clip1_35_33028">
<rect width="14.5526" height="14.5526" fill="white" transform="translate(33.0088 -14.9189) rotate(-26.441)"/>
</clipPath>
<clipPath id="clip2_35_33028">
<rect width="14.5526" height="14.5526" fill="white" transform="matrix(-0.42794 0.903807 0.903807 0.42794 -14.7725 156.721)"/>
</clipPath>
</defs>
</svg>
