<svg width="116" height="81" viewBox="0 0 116 81" fill="none" xmlns="http://www.w3.org/2000/svg">
<path d="M5.60938 66.375H7.30469L10.9688 71.3281L14.6562 66.375H16.3516V77H14.4062V69.4922L11.2266 73.8359H10.7031L7.55469 69.4766V77H5.60938V66.375ZM19.6484 67.7188C19.2943 67.7188 19.0104 67.6172 18.7969 67.4141C18.5885 67.2057 18.4844 66.9453 18.4844 66.6328C18.4844 66.3255 18.5885 66.0703 18.7969 65.8672C19.0104 65.6589 19.2969 65.5547 19.6562 65.5547C20.0208 65.5547 20.3099 65.6589 20.5234 65.8672C20.737 66.0703 20.8438 66.3255 20.8438 66.6328C20.8438 66.9505 20.737 67.2109 20.5234 67.4141C20.3099 67.6172 20.0182 67.7188 19.6484 67.7188ZM18.7188 68.9688H20.6094V77H18.7188V68.9688ZM24.625 68.9688V70.2188C24.8594 69.7708 25.2214 69.4115 25.7109 69.1406C26.2057 68.8646 26.7578 68.7266 27.3672 68.7266C28.4349 68.7266 29.2396 69.0651 29.7812 69.7422C30.3229 70.4193 30.5938 71.3958 30.5938 72.6719V77H28.7031V72.7109C28.7031 71.9401 28.5417 71.375 28.2188 71.0156C27.8958 70.651 27.4375 70.4688 26.8438 70.4688C26.4635 70.4688 26.112 70.5651 25.7891 70.7578C25.4661 70.9453 25.2057 71.224 25.0078 71.5938C24.8151 71.9583 24.7188 72.3932 24.7188 72.8984V77H22.8281V68.9688H24.625ZM33.6797 67.7188C33.3255 67.7188 33.0417 67.6172 32.8281 67.4141C32.6198 67.2057 32.5156 66.9453 32.5156 66.6328C32.5156 66.3255 32.6198 66.0703 32.8281 65.8672C33.0417 65.6589 33.3281 65.5547 33.6875 65.5547C34.0521 65.5547 34.3411 65.6589 34.5547 65.8672C34.7682 66.0703 34.875 66.3255 34.875 66.6328C34.875 66.9505 34.7682 67.2109 34.5547 67.4141C34.3411 67.6172 34.0495 67.7188 33.6797 67.7188ZM32.75 68.9688H34.6406V77H32.75V68.9688ZM38.6562 68.9688V70.2188C38.8906 69.7708 39.2526 69.4115 39.7422 69.1406C40.237 68.8646 40.7891 68.7266 41.3984 68.7266C42.4661 68.7266 43.2708 69.0651 43.8125 69.7422C44.3542 70.4193 44.625 71.3958 44.625 72.6719V77H42.7344V72.7109C42.7344 71.9401 42.5729 71.375 42.25 71.0156C41.9271 70.651 41.4688 70.4688 40.875 70.4688C40.4948 70.4688 40.1432 70.5651 39.8203 70.7578C39.4974 70.9453 39.237 71.224 39.0391 71.5938C38.8464 71.9583 38.75 72.3932 38.75 72.8984V77H36.8594V68.9688H38.6562ZM50.4609 80.0469C49.5911 80.0469 48.8646 79.9036 48.2812 79.6172C47.7031 79.3307 47.2734 78.9557 46.9922 78.4922C46.7109 78.0339 46.5599 77.5339 46.5391 76.9922H48.3203C48.4089 77.4505 48.6172 77.8073 48.9453 78.0625C49.2786 78.3229 49.7812 78.4531 50.4531 78.4531C51.0104 78.4531 51.4688 78.3464 51.8281 78.1328C52.1927 77.9245 52.4583 77.6432 52.625 77.2891C52.7917 76.9401 52.875 76.5443 52.875 76.1016V75.2812C52.6094 75.7917 52.2344 76.1745 51.75 76.4297C51.2656 76.6797 50.7135 76.8047 50.0938 76.8047C49.349 76.8047 48.6797 76.6276 48.0859 76.2734C47.4974 75.9141 47.0365 75.4297 46.7031 74.8203C46.375 74.2109 46.2109 73.5443 46.2109 72.8203C46.2109 72.0964 46.375 71.4219 46.7031 70.7969C47.0312 70.1667 47.487 69.6641 48.0703 69.2891C48.6536 68.9141 49.3073 68.7266 50.0312 68.7266C50.4896 68.7266 50.9089 68.8021 51.2891 68.9531C51.6693 69.099 51.9922 69.2943 52.2578 69.5391C52.5286 69.7786 52.737 70.0443 52.8828 70.3359V68.9688H54.6797V76.0781C54.6797 76.8385 54.5156 77.5182 54.1875 78.1172C53.8594 78.7161 53.3776 79.1875 52.7422 79.5312C52.1068 79.875 51.3464 80.0469 50.4609 80.0469ZM50.4453 75.1641C50.8776 75.1641 51.2734 75.0573 51.6328 74.8438C51.9922 74.6302 52.276 74.3438 52.4844 73.9844C52.6979 73.625 52.8047 73.2344 52.8047 72.8125C52.8047 72.401 52.7005 72.0156 52.4922 71.6562C52.2839 71.2969 51.9974 71.0104 51.6328 70.7969C51.2734 70.5833 50.8776 70.4766 50.4453 70.4766C50.0078 70.4766 49.6094 70.5755 49.25 70.7734C48.8906 70.9714 48.6068 71.2474 48.3984 71.6016C48.1901 71.9557 48.0859 72.3594 48.0859 72.8125C48.0859 73.2552 48.1901 73.6562 48.3984 74.0156C48.6068 74.375 48.8906 74.6562 49.25 74.8594C49.6094 75.0625 50.0078 75.1641 50.4453 75.1641ZM59.7812 68.9688H61.8125L63.3828 74.0625L63.5234 74.5391H63.5469L63.6953 74.0625L65.2188 68.9688H66.6172L68.0859 74.0078L68.25 74.5391H68.2734L68.4609 73.9766L70.0312 68.9688H72.0234L69.3125 77H67.5625L65.8906 71.7969H65.8828L64.1875 77H62.4844L59.7812 68.9688ZM74.1328 67.7188C73.7786 67.7188 73.4948 67.6172 73.2812 67.4141C73.0729 67.2057 72.9688 66.9453 72.9688 66.6328C72.9688 66.3255 73.0729 66.0703 73.2812 65.8672C73.4948 65.6589 73.7812 65.5547 74.1406 65.5547C74.5052 65.5547 74.7943 65.6589 75.0078 65.8672C75.2214 66.0703 75.3281 66.3255 75.3281 66.6328C75.3281 66.9505 75.2214 67.2109 75.0078 67.4141C74.7943 67.6172 74.5026 67.7188 74.1328 67.7188ZM73.2031 68.9688H75.0938V77H73.2031V68.9688ZM80.6172 77C79.8516 77 79.2161 76.7891 78.7109 76.3672C78.2057 75.9401 77.9531 75.1328 77.9531 73.9453V70.5938H76.2891V68.9688H77.9531V66.6172L79.8438 66.6016V68.9688H82.25V70.5938H79.8438V74.0312C79.8438 74.9635 80.2318 75.4297 81.0078 75.4297H82.25V77H80.6172ZM85.6719 66V69.2734L85.625 70.1719C85.8802 69.724 86.2422 69.3724 86.7109 69.1172C87.1797 68.8568 87.7161 68.7266 88.3203 68.7266C89.388 68.7266 90.1927 69.0651 90.7344 69.7422C91.276 70.4193 91.5469 71.3958 91.5469 72.6719V77H89.6562V72.7109C89.6562 71.9401 89.4948 71.375 89.1719 71.0156C88.849 70.651 88.3906 70.4688 87.7969 70.4688C87.4271 70.4688 87.0781 70.5729 86.75 70.7812C86.4271 70.9844 86.1667 71.2708 85.9688 71.6406C85.7708 72.0104 85.6719 72.4297 85.6719 72.8984V77H83.7812V66H85.6719ZM102.117 77.2344C101.263 77.2344 100.49 77.0573 99.7969 76.7031C99.1094 76.3438 98.5677 75.8359 98.1719 75.1797C97.776 74.5182 97.5781 73.7552 97.5781 72.8906V66.375H99.5156V72.75C99.5156 73.2552 99.6172 73.7135 99.8203 74.125C100.023 74.5365 100.32 74.862 100.711 75.1016C101.107 75.3359 101.576 75.4531 102.117 75.4531C102.648 75.4531 103.109 75.3359 103.5 75.1016C103.891 74.862 104.19 74.5391 104.398 74.1328C104.607 73.7214 104.711 73.263 104.711 72.7578V66.375H106.656V72.8906C106.656 73.7292 106.464 74.4792 106.078 75.1406C105.698 75.7969 105.164 76.3099 104.477 76.6797C103.789 77.0495 103.003 77.2344 102.117 77.2344ZM111.734 77.2422C110.984 77.2422 110.349 77.112 109.828 76.8516C109.307 76.5911 108.919 76.2474 108.664 75.8203C108.409 75.3932 108.281 74.9349 108.281 74.4453L110.094 74.4531C110.109 74.8385 110.258 75.151 110.539 75.3906C110.826 75.625 111.229 75.7422 111.75 75.7422C112.224 75.7422 112.581 75.6536 112.82 75.4766C113.06 75.2943 113.18 75.0443 113.18 74.7266C113.18 74.5078 113.117 74.3333 112.992 74.2031C112.867 74.0677 112.685 73.9635 112.445 73.8906C112.206 73.8177 111.885 73.75 111.484 73.6875C110.609 73.5729 109.911 73.3229 109.391 72.9375C108.87 72.5521 108.609 71.974 108.609 71.2031C108.609 70.7083 108.727 70.276 108.961 69.9062C109.195 69.5312 109.539 69.2422 109.992 69.0391C110.445 68.8307 110.992 68.7266 111.633 68.7266C112.273 68.7266 112.839 68.8359 113.328 69.0547C113.818 69.2682 114.198 69.5703 114.469 69.9609C114.74 70.3516 114.875 70.7995 114.875 71.3047L113.023 71.2891C113.003 70.9818 112.872 70.737 112.633 70.5547C112.398 70.3672 112.068 70.2734 111.641 70.2734C111.255 70.2734 110.964 70.3568 110.766 70.5234C110.568 70.6901 110.469 70.9036 110.469 71.1641C110.469 71.3724 110.513 71.5365 110.602 71.6562C110.69 71.7708 110.852 71.8698 111.086 71.9531C111.32 72.0312 111.674 72.1068 112.148 72.1797C112.773 72.2734 113.297 72.4036 113.719 72.5703C114.146 72.737 114.484 72.9844 114.734 73.3125C114.984 73.6406 115.109 74.0755 115.109 74.6172C115.109 75.1901 114.964 75.6745 114.672 76.0703C114.385 76.4609 113.99 76.7552 113.484 76.9531C112.979 77.1458 112.396 77.2422 111.734 77.2422Z" fill="white"/>
<g clip-path="url(#clip0_35_48919)">
<path d="M40.5067 33.4046C45.5202 41.1151 43.3332 51.4312 35.6211 56.4459C27.9118 61.4583 17.5956 59.2721 12.5833 51.5611C7.56838 43.8506 9.75498 33.5341 17.4649 28.521C25.1763 23.5063 35.4929 25.6937 40.5067 33.4046Z" fill="#1E6FF6"/>
<path d="M13.6011 50.8995L13.6009 50.8993C8.95158 43.7508 10.9788 34.1863 18.1267 29.5387L18.1267 29.5387C25.276 24.8895 34.8406 26.9174 39.489 34.0663C44.1369 41.2146 42.1095 50.7789 34.9593 55.4282C27.8121 60.0752 18.2479 58.0482 13.6011 50.8995Z" stroke="white" stroke-opacity="0.24" stroke-width="2.42785"/>
<g style="mix-blend-mode:screen" opacity="0.3">
<path d="M33.0776 27.1639L17.2899 56.3359C15.4655 55.1183 13.8532 53.5181 12.5821 51.5626C7.56716 43.8521 9.75375 33.5356 17.4637 28.5224C22.294 25.3813 28.1465 25.066 33.0776 27.1639Z" fill="white"/>
</g>
<g filter="url(#filter0_di_35_48919)">
<path d="M37.8874 35.1079C41.9608 41.3727 40.1838 49.7545 33.9177 53.829C27.654 57.9015 19.2721 56.1253 15.1997 49.8602C11.1251 43.5954 12.9017 35.2133 19.1661 31.1401C25.4315 27.0657 33.8137 28.8429 37.8874 35.1079Z" fill="#1E6FF6"/>
</g>
<path d="M21.1214 43.7873L24.118 47.325L25.3652 48.7974L28.623 52.6436L31.5678 50.1492L28.3099 46.303L30.3751 44.5537C33.1378 42.2136 33.4813 38.0625 31.1413 35.2999C28.8013 32.5374 24.6504 32.1935 21.8877 34.5336C19.1253 36.8735 18.7814 41.0247 21.1214 43.7873ZM24.0662 41.2929C23.1016 40.1542 23.2432 38.4428 24.3819 37.4783C25.5207 36.5137 27.2322 36.6553 28.1968 37.7941C29.1614 38.9329 29.0194 40.6442 27.8807 41.6088L25.8155 43.3581L24.0662 41.2929Z" fill="white"/>
<path d="M20.6864 48.4553C20.4807 48.2125 20.5108 47.8489 20.7536 47.6432L22.8686 45.8517L25.3654 48.7994L23.2504 50.5909C23.0076 50.7966 22.644 50.7665 22.4384 50.5236L20.6864 48.4553Z" fill="white"/>
</g>
<path d="M76.1158 33.4064C71.1028 41.1172 73.2903 51.4332 81.0026 56.4475C88.7121 61.4596 99.0282 59.2728 104.04 51.5616C109.055 43.8509 106.868 33.5345 99.1574 28.5217C91.4458 23.5074 81.1292 25.6953 76.1158 33.4064Z" fill="#1E6FF6"/>
<path d="M103.022 50.9L103.023 50.8998C107.671 43.7511 105.644 34.1867 98.4957 29.5394L98.4957 29.5394C91.3462 24.8906 81.7816 26.919 77.1336 34.0681C72.486 41.2167 74.5139 50.7809 81.6643 55.4298C88.8117 60.0764 98.3758 58.049 103.022 50.9Z" stroke="white" stroke-opacity="0.24" stroke-width="2.42785"/>
<g style="mix-blend-mode:screen" opacity="0.3">
<path d="M83.5444 27.1654L99.3336 56.3366C101.158 55.119 102.77 53.5187 104.041 51.5631C109.056 43.8523 106.869 33.5359 99.1584 28.5232C94.3279 25.3823 88.4754 25.0672 83.5444 27.1654Z" fill="white"/>
</g>
<g filter="url(#filter1_di_35_48919)">
<path d="M78.735 35.1099C74.6619 41.3749 76.4393 49.7566 82.7056 53.8308C88.9695 57.903 97.3513 56.1263 101.423 49.861C105.498 43.5961 103.721 35.2141 97.4561 31.1412C91.1905 27.0671 82.8083 28.8446 78.735 35.1099Z" fill="#1E6FF6"/>
</g>
<path d="M95.5017 43.7884L92.5052 47.3263L91.2582 48.7987L88.0005 52.645L85.0556 50.1508L88.3133 46.3044L86.248 44.5552C83.4852 42.2153 83.1415 38.0642 85.4813 35.3015C87.8212 32.5388 91.9722 32.1948 94.735 34.5347C97.4975 36.8745 97.8416 41.0257 95.5017 43.7884ZM92.5568 41.2941C93.5213 40.1554 93.3796 38.444 92.2408 37.4795C91.1021 36.515 89.3905 36.6567 88.426 37.7955C87.4614 38.9344 87.6036 40.6457 88.7423 41.6102L90.8076 43.3594L92.5568 41.2941Z" fill="white"/>
<path d="M95.9367 48.4563C96.1424 48.2135 96.1122 47.8499 95.8694 47.6442L93.7543 45.8528L91.2577 48.8006L93.3727 50.592C93.6156 50.7977 93.9791 50.7676 94.1848 50.5247L95.9367 48.4563Z" fill="white"/>
<g clip-path="url(#clip1_35_48919)">
<path d="M85.6823 35.1211C81.9048 50.2709 66.5589 59.4909 51.4056 55.713C36.2586 51.9359 27.0376 36.5907 30.8168 21.4417C34.5926 6.29007 49.9385 -2.93082 65.0873 0.846261C80.2397 4.62335 89.4598 19.9703 85.6823 35.1211Z" fill="#1E6FF6"/>
<path d="M31.9947 21.7355L31.9947 21.7352C35.6083 7.23421 50.2954 -1.59075 64.7936 2.02413L64.7937 2.02414C79.2954 5.63904 88.1198 20.3271 84.5045 34.8274C80.8892 49.3266 66.2022 58.1509 51.6994 54.5351C37.2028 50.9202 28.3777 36.2339 31.9947 21.7355Z" stroke="white" stroke-opacity="0.24" stroke-width="2.42785"/>
<g style="mix-blend-mode:screen" opacity="0.3">
<path d="M84.8389 18.6713L30.3316 32.8138C29.7332 29.1386 29.8555 25.2841 30.8139 21.4422C34.5896 6.29056 49.9356 -2.93034 65.0844 0.846749C74.5756 3.21266 81.7392 10.1181 84.8389 18.6713Z" fill="white"/>
</g>
<g filter="url(#filter2_di_35_48919)">
<path d="M80.5358 33.8383C77.4666 46.1474 64.998 53.6386 52.686 50.569C40.379 47.5002 32.8869 35.0324 35.9576 22.7239C39.0253 10.4134 51.4939 2.92146 63.8023 5.99031C76.1136 9.05916 83.605 21.5284 80.5358 33.8383Z" fill="#1E6FF6"/>
</g>
<path d="M49.792 24.0016V31.8726V35.1484V43.7056H56.3437V35.1484H60.9384C67.085 35.1484 72.0849 30.1479 72.0849 24.0016C72.0849 17.8554 67.085 12.8552 60.9384 12.8552C54.7925 12.8552 49.792 17.8554 49.792 24.0016ZM56.3437 24.0016C56.3437 21.4682 58.405 19.4066 60.9384 19.4066C63.4719 19.4066 65.5337 21.4682 65.5337 24.0016C65.5337 26.5354 63.4719 28.5964 60.9384 28.5964H56.3437V24.0016Z" fill="white"/>
<path d="M44.1064 29.1694C44.1064 28.8512 44.3644 28.5933 44.6826 28.5933H49.7902V35.1514H44.6826C44.3644 35.1514 44.1064 34.8934 44.1064 34.5752V29.1694Z" fill="white"/>
</g>
<defs>
<filter id="filter0_di_35_48919" x="12.6056" y="28.9512" width="27.4701" height="27.8752" filterUnits="userSpaceOnUse" color-interpolation-filters="sRGB">
<feFlood flood-opacity="0" result="BackgroundImageFix"/>
<feColorMatrix in="SourceAlpha" type="matrix" values="0 0 0 0 0 0 0 0 0 0 0 0 0 0 0 0 0 0 127 0" result="hardAlpha"/>
<feOffset dx="-0.404642" dy="0.404642"/>
<feColorMatrix type="matrix" values="0 0 0 0 1 0 0 0 0 1 0 0 0 0 1 0 0 0 0.32 0"/>
<feBlend mode="normal" in2="BackgroundImageFix" result="effect1_dropShadow_35_48919"/>
<feBlend mode="normal" in="SourceGraphic" in2="effect1_dropShadow_35_48919" result="shape"/>
<feColorMatrix in="SourceAlpha" type="matrix" values="0 0 0 0 0 0 0 0 0 0 0 0 0 0 0 0 0 0 127 0" result="hardAlpha"/>
<feOffset dx="-0.404642" dy="0.809285"/>
<feGaussianBlur stdDeviation="0.404642"/>
<feComposite in2="hardAlpha" operator="arithmetic" k2="-1" k3="1"/>
<feColorMatrix type="matrix" values="0 0 0 0 0 0 0 0 0 0 0 0 0 0 0 0 0 0 0.16 0"/>
<feBlend mode="normal" in2="shape" result="effect2_innerShadow_35_48919"/>
</filter>
<filter id="filter1_di_35_48919" x="76.1425" y="28.9526" width="27.4701" height="27.8752" filterUnits="userSpaceOnUse" color-interpolation-filters="sRGB">
<feFlood flood-opacity="0" result="BackgroundImageFix"/>
<feColorMatrix in="SourceAlpha" type="matrix" values="0 0 0 0 0 0 0 0 0 0 0 0 0 0 0 0 0 0 127 0" result="hardAlpha"/>
<feOffset dx="-0.404642" dy="0.404642"/>
<feColorMatrix type="matrix" values="0 0 0 0 1 0 0 0 0 1 0 0 0 0 1 0 0 0 0.32 0"/>
<feBlend mode="normal" in2="BackgroundImageFix" result="effect1_dropShadow_35_48919"/>
<feBlend mode="normal" in="SourceGraphic" in2="effect1_dropShadow_35_48919" result="shape"/>
<feColorMatrix in="SourceAlpha" type="matrix" values="0 0 0 0 0 0 0 0 0 0 0 0 0 0 0 0 0 0 127 0" result="hardAlpha"/>
<feOffset dx="-0.404642" dy="0.809285"/>
<feGaussianBlur stdDeviation="0.404642"/>
<feComposite in2="hardAlpha" operator="arithmetic" k2="-1" k3="1"/>
<feColorMatrix type="matrix" values="0 0 0 0 0 0 0 0 0 0 0 0 0 0 0 0 0 0 0.16 0"/>
<feBlend mode="normal" in2="shape" result="effect2_innerShadow_35_48919"/>
</filter>
<filter id="filter2_di_35_48919" x="34.8646" y="5.30273" width="46.3587" height="46.7634" filterUnits="userSpaceOnUse" color-interpolation-filters="sRGB">
<feFlood flood-opacity="0" result="BackgroundImageFix"/>
<feColorMatrix in="SourceAlpha" type="matrix" values="0 0 0 0 0 0 0 0 0 0 0 0 0 0 0 0 0 0 127 0" result="hardAlpha"/>
<feOffset dx="-0.404642" dy="0.404642"/>
<feColorMatrix type="matrix" values="0 0 0 0 1 0 0 0 0 1 0 0 0 0 1 0 0 0 0.32 0"/>
<feBlend mode="normal" in2="BackgroundImageFix" result="effect1_dropShadow_35_48919"/>
<feBlend mode="normal" in="SourceGraphic" in2="effect1_dropShadow_35_48919" result="shape"/>
<feColorMatrix in="SourceAlpha" type="matrix" values="0 0 0 0 0 0 0 0 0 0 0 0 0 0 0 0 0 0 127 0" result="hardAlpha"/>
<feOffset dx="-0.404642" dy="0.809285"/>
<feGaussianBlur stdDeviation="0.404642"/>
<feComposite in2="hardAlpha" operator="arithmetic" k2="-1" k3="1"/>
<feColorMatrix type="matrix" values="0 0 0 0 0 0 0 0 0 0 0 0 0 0 0 0 0 0 0.16 0"/>
<feBlend mode="normal" in2="shape" result="effect2_innerShadow_35_48919"/>
</filter>
<clipPath id="clip0_35_48919">
<rect width="33.3175" height="33.3175" fill="white" transform="translate(3 43.3193) rotate(-47.0328)"/>
</clipPath>
<clipPath id="clip1_35_48919">
<rect width="56.5623" height="56.5623" fill="white" transform="translate(29.9668)"/>
</clipPath>
</defs>
</svg>
