<svg width="50" height="36" viewBox="0 0 50 36" fill="none" xmlns="http://www.w3.org/2000/svg">
<g clip-path="url(#clip0_35_24609)">
<path d="M23.2946 28.2229C19.306 32.8029 12.3589 33.2824 7.77772 29.2931C3.19855 25.3052 2.71863 18.3582 6.70761 13.7787C10.6958 9.19771 17.6431 8.71795 22.2229 12.7061C26.8039 16.695 27.2832 23.6425 23.2946 28.2229Z" fill="url(#paint0_linear_35_24609)"/>
<path d="M9.1895 27.672C5.50557 24.4638 5.11955 18.8747 8.32855 15.1906L8.32892 15.1902C11.5375 11.5047 17.1268 11.1188 20.8112 14.3273L20.8113 14.3274C24.4968 17.5364 24.8825 23.126 21.6734 26.8111C18.4647 30.4957 12.8755 30.8818 9.1895 27.672ZM9.1895 27.672L7.77772 29.2931L9.1895 27.672Z" stroke="white" stroke-opacity="0.24" stroke-width="4.29932"/>
<g style="mix-blend-mode:screen" opacity="0.3">
<path d="M25.9121 22.3752L4.52774 17.6325C4.97056 16.2535 5.69476 14.9398 6.70639 13.7785C10.6946 9.19746 17.6419 8.71771 22.2217 12.7059C25.0912 15.2044 26.3513 18.8638 25.9121 22.3752Z" fill="url(#paint1_linear_35_24609)"/>
</g>
<g filter="url(#filter0_di_35_24609)">
<path d="M21.7384 26.8681C18.4978 30.5893 12.8532 30.9789 9.13101 27.7376C5.41042 24.4974 5.02047 18.853 8.26149 15.1322C11.5019 11.4102 17.1466 11.0204 20.8676 14.2608C24.5897 17.5017 24.9792 23.1466 21.7384 26.8681Z" fill="url(#paint2_linear_35_24609)"/>
</g>
<path d="M13.1905 17.7927L11.4866 20.3364L10.7775 21.395L8.92505 24.1604L11.0424 25.5787L12.8948 22.8133L14.3797 23.808C16.366 25.1386 19.0644 24.6049 20.3949 22.6187C21.7254 20.6324 21.1921 17.9341 19.2057 16.6035C17.2195 15.273 14.5211 15.8064 13.1905 17.7927ZM15.3078 19.211C15.8563 18.3923 16.9687 18.1723 17.7874 18.7207C18.6062 19.2692 18.8262 20.3817 18.2778 21.2005C17.7293 22.0193 16.6168 22.239 15.798 21.6906L14.3132 20.6959L15.3078 19.211Z" fill="white"/>
<path d="M9.79128 18.8936C10.1049 18.4254 10.7387 18.3001 11.2068 18.6137L12.1958 19.2762L10.7762 21.3955L9.78721 20.733C9.31904 20.4194 9.19374 19.7856 9.50736 19.3175L9.79128 18.8936Z" fill="white"/>
</g>
<g clip-path="url(#clip1_35_24609)">
<path d="M43.0936 22.0222C39.1051 26.6023 32.158 27.0817 27.5768 23.0924C22.9976 19.1045 22.5177 12.1575 26.5067 7.57802C30.4949 2.99702 37.4422 2.51727 42.022 6.50546C46.603 10.4943 47.0823 17.4418 43.0936 22.0222Z" fill="url(#paint3_linear_35_24609)"/>
<path d="M28.9886 21.4713C25.3046 18.2631 24.9186 12.674 28.1276 8.98996L28.128 8.98954C31.3366 5.30406 36.9259 4.91814 40.6103 8.1266L40.6104 8.12667C44.2958 11.3357 44.6816 16.9253 41.4725 20.6105C38.2638 24.295 32.6746 24.6811 28.9886 21.4713ZM28.9886 21.4713L27.5768 23.0924L28.9886 21.4713Z" stroke="white" stroke-opacity="0.24" stroke-width="4.29932"/>
<g style="mix-blend-mode:screen" opacity="0.3">
<path d="M45.7112 16.1745L24.3268 11.4318C24.7696 10.0528 25.4938 8.73915 26.5055 7.57777C30.4937 2.99678 37.441 2.51702 42.0208 6.50522C44.8902 9.00375 46.1504 12.6632 45.7112 16.1745Z" fill="url(#paint4_linear_35_24609)"/>
</g>
<g filter="url(#filter1_di_35_24609)">
<path d="M41.5375 20.6674C38.2968 24.3886 32.6523 24.7782 28.9301 21.5369C25.2095 18.2967 24.8195 12.6523 28.0606 8.93154C31.301 5.20952 36.9456 4.81975 40.6667 8.06015C44.3888 11.3011 44.7782 16.9459 41.5375 20.6674Z" fill="url(#paint5_linear_35_24609)"/>
</g>
<path d="M32.9896 11.592L31.2857 14.1357L30.5766 15.1943L28.7241 17.9597L30.8414 19.378L32.6939 16.6126L34.1788 17.6073C36.1651 18.9379 38.8634 18.4043 40.194 16.418C41.5245 14.4317 40.9911 11.7334 39.0048 10.4028C37.0186 9.07235 34.3202 9.60576 32.9896 11.592ZM35.1069 13.0103C35.6554 12.1916 36.7678 11.9716 37.5865 12.5201C38.4053 13.0685 38.6253 14.1811 38.0768 14.9998C37.5283 15.8186 36.4159 16.0383 35.5971 15.4899L34.1122 14.4952L35.1069 13.0103Z" fill="white"/>
<path d="M29.5904 12.6929C29.904 12.2247 30.5377 12.0994 31.0059 12.4131L31.9949 13.0756L30.5753 15.1948L29.5863 14.5323C29.1181 14.2187 28.9928 13.5849 29.3064 13.1168L29.5904 12.6929Z" fill="white"/>
</g>
<defs>
<filter id="filter0_di_35_24609" x="5.34765" y="12.0642" width="18.5879" height="19.304" filterUnits="userSpaceOnUse" color-interpolation-filters="sRGB">
<feFlood flood-opacity="0" result="BackgroundImageFix"/>
<feColorMatrix in="SourceAlpha" type="matrix" values="0 0 0 0 0 0 0 0 0 0 0 0 0 0 0 0 0 0 127 0" result="hardAlpha"/>
<feOffset dx="-0.716554" dy="0.716554"/>
<feColorMatrix type="matrix" values="0 0 0 0 1 0 0 0 0 1 0 0 0 0 1 0 0 0 0.32 0"/>
<feBlend mode="normal" in2="BackgroundImageFix" result="effect1_dropShadow_35_24609"/>
<feBlend mode="normal" in="SourceGraphic" in2="effect1_dropShadow_35_24609" result="shape"/>
<feColorMatrix in="SourceAlpha" type="matrix" values="0 0 0 0 0 0 0 0 0 0 0 0 0 0 0 0 0 0 127 0" result="hardAlpha"/>
<feOffset dx="-0.716554" dy="1.43311"/>
<feGaussianBlur stdDeviation="0.716554"/>
<feComposite in2="hardAlpha" operator="arithmetic" k2="-1" k3="1"/>
<feColorMatrix type="matrix" values="0 0 0 0 0 0 0 0 0 0 0 0 0 0 0 0 0 0 0.16 0"/>
<feBlend mode="normal" in2="shape" result="effect2_innerShadow_35_24609"/>
</filter>
<filter id="filter1_di_35_24609" x="25.1467" y="5.86353" width="18.5879" height="19.304" filterUnits="userSpaceOnUse" color-interpolation-filters="sRGB">
<feFlood flood-opacity="0" result="BackgroundImageFix"/>
<feColorMatrix in="SourceAlpha" type="matrix" values="0 0 0 0 0 0 0 0 0 0 0 0 0 0 0 0 0 0 127 0" result="hardAlpha"/>
<feOffset dx="-0.716554" dy="0.716554"/>
<feColorMatrix type="matrix" values="0 0 0 0 1 0 0 0 0 1 0 0 0 0 1 0 0 0 0.32 0"/>
<feBlend mode="normal" in2="BackgroundImageFix" result="effect1_dropShadow_35_24609"/>
<feBlend mode="normal" in="SourceGraphic" in2="effect1_dropShadow_35_24609" result="shape"/>
<feColorMatrix in="SourceAlpha" type="matrix" values="0 0 0 0 0 0 0 0 0 0 0 0 0 0 0 0 0 0 127 0" result="hardAlpha"/>
<feOffset dx="-0.716554" dy="1.43311"/>
<feGaussianBlur stdDeviation="0.716554"/>
<feComposite in2="hardAlpha" operator="arithmetic" k2="-1" k3="1"/>
<feColorMatrix type="matrix" values="0 0 0 0 0 0 0 0 0 0 0 0 0 0 0 0 0 0 0.16 0"/>
<feBlend mode="normal" in2="shape" result="effect2_innerShadow_35_24609"/>
</filter>
<linearGradient id="paint0_linear_35_24609" x1="20.0037" y1="11.2034" x2="9.99875" y2="30.797" gradientUnits="userSpaceOnUse">
<stop stop-color="#FB74FD"/>
<stop offset="1" stop-color="#2F2DB1"/>
</linearGradient>
<linearGradient id="paint1_linear_35_24609" x1="19.7103" y1="11.0539" x2="13.9059" y2="22.4212" gradientUnits="userSpaceOnUse">
<stop stop-color="white"/>
<stop offset="1" stop-color="white" stop-opacity="0"/>
</linearGradient>
<linearGradient id="paint2_linear_35_24609" x1="19.0646" y1="13.0398" x2="10.9356" y2="28.9595" gradientUnits="userSpaceOnUse">
<stop stop-color="#F772FC"/>
<stop offset="1" stop-color="#2F2DB1"/>
</linearGradient>
<linearGradient id="paint3_linear_35_24609" x1="39.8028" y1="5.00269" x2="29.7978" y2="24.5963" gradientUnits="userSpaceOnUse">
<stop stop-color="#FB74FD"/>
<stop offset="1" stop-color="#2F2DB1"/>
</linearGradient>
<linearGradient id="paint4_linear_35_24609" x1="39.5094" y1="4.85324" x2="33.705" y2="16.2206" gradientUnits="userSpaceOnUse">
<stop stop-color="white"/>
<stop offset="1" stop-color="white" stop-opacity="0"/>
</linearGradient>
<linearGradient id="paint5_linear_35_24609" x1="38.8636" y1="6.83915" x2="30.7347" y2="22.7588" gradientUnits="userSpaceOnUse">
<stop stop-color="#F772FC"/>
<stop offset="1" stop-color="#2F2DB1"/>
</linearGradient>
<clipPath id="clip0_35_24609">
<rect width="22" height="22" fill="white" transform="translate(10.2058 6.20068) rotate(27.05)"/>
</clipPath>
<clipPath id="clip1_35_24609">
<rect width="22" height="22" fill="white" transform="translate(30.0049) rotate(27.05)"/>
</clipPath>
</defs>
</svg>
